<svg width="156" height="44" viewBox="0 0 156 44" fill="none" xmlns="http://www.w3.org/2000/svg">
<path d="M40.9978 22.6478V43.0171H32.9589V22.6478C32.9581 20.2572 32.2485 17.9205 30.9198 15.9331C29.5912 13.9457 27.7031 12.3968 25.4943 11.4823C23.2855 10.5679 20.8551 10.3288 18.5104 10.7954C16.1658 11.262 14.0121 12.4133 12.3217 14.1037C10.6312 15.7941 9.47993 17.9478 9.01334 20.2925C8.54676 22.6371 8.78581 25.0675 9.7003 27.2763C10.6148 29.4851 12.1636 31.3732 14.151 32.7019C16.1384 34.0305 18.4752 34.7401 20.8658 34.7409C21.9324 34.7409 22.9552 35.1646 23.7094 35.9188C24.4636 36.673 24.8873 37.6959 24.8873 38.7624C24.8873 39.829 24.4636 40.8519 23.7094 41.6061C22.9552 42.3602 21.9324 42.7839 20.8658 42.7839C16.8831 42.7847 12.9896 41.6045 9.67766 39.3924C6.36575 37.1803 3.78422 34.0357 2.25954 30.3564C0.734858 26.6771 0.335512 22.6283 1.11201 18.722C1.8885 14.8157 3.80596 11.2274 6.62188 8.4109C9.4378 5.59441 13.0257 3.67622 16.9318 2.89894C20.838 2.12165 24.8869 2.52017 28.5665 4.04411C32.2461 5.56804 35.3912 8.14893 37.604 11.4604C39.8167 14.7718 40.9978 18.6651 40.9978 22.6478Z" fill="#65E0BB"/>
<path d="M47.4883 14.4126H50.5443C51.8669 14.4126 53.1354 14.938 54.0706 15.8733C55.0059 16.8085 55.5313 18.0769 55.5313 19.3996V43.0172H47.4883V14.4126Z" fill="#65E0BB"/>
<path d="M62.0098 23.0649H66.199C67.2265 23.0649 68.2119 23.4731 68.9385 24.1997C69.665 24.9262 70.0732 25.9117 70.0732 26.9392V43.0169H62.0098V23.0649Z" fill="#65E0BB"/>
<path d="M92.6409 21.2968C91.701 21.2968 90.8847 21.1402 90.1922 20.8269C89.4996 20.5135 88.9636 20.0683 88.5844 19.4912C88.2051 18.8975 88.0155 18.2132 88.0155 17.4381C88.0155 16.6961 88.1804 16.0365 88.5102 15.4593C88.84 14.8657 89.3512 14.371 90.0437 13.9752C90.7363 13.5794 91.6103 13.2991 92.6657 13.1342L97.0685 12.4169V14.8904L93.2841 15.5335C92.6409 15.6489 92.1627 15.8551 91.8494 16.1519C91.5361 16.4487 91.3794 16.8362 91.3794 17.3145C91.3794 17.7762 91.5526 18.1472 91.8989 18.4275C92.2617 18.6914 92.7069 18.8233 93.2346 18.8233C93.9107 18.8233 94.5043 18.6831 95.0155 18.4028C95.5432 18.106 95.9472 17.702 96.2276 17.1908C96.5244 16.6796 96.6728 16.1189 96.6728 15.5088V12.0458C96.6728 11.4687 96.4419 10.9905 95.9802 10.6112C95.535 10.2154 94.9413 10.0176 94.1993 10.0176C93.5067 10.0176 92.8883 10.2072 92.3441 10.5865C91.8164 10.9493 91.4289 11.4357 91.1816 12.0458L88.5349 10.7596C88.7987 10.0505 89.211 9.4404 89.7717 8.92921C90.3488 8.40152 91.0249 7.98927 91.7999 7.69245C92.575 7.39562 93.416 7.24721 94.3229 7.24721C95.4278 7.24721 96.4007 7.45334 97.2417 7.86559C98.0827 8.26136 98.7341 8.82202 99.1958 9.54759C99.674 10.2567 99.9131 11.0894 99.9131 12.0458V21H96.8459V18.6996L97.5385 18.6502C97.1922 19.2273 96.78 19.7138 96.3018 20.1095C95.8235 20.4888 95.2794 20.7856 94.6692 21C94.0591 21.1979 93.383 21.2968 92.6409 21.2968ZM107.707 21.2968C106.668 21.2968 105.761 21.066 104.986 20.6042C104.227 20.1425 103.642 19.4994 103.23 18.6749C102.834 17.8504 102.636 16.8857 102.636 15.7809V7.54403H105.876V15.5088C105.876 16.0694 105.983 16.5641 106.198 16.9929C106.429 17.4051 106.75 17.7349 107.162 17.9823C107.591 18.2132 108.069 18.3286 108.597 18.3286C109.125 18.3286 109.595 18.2132 110.007 17.9823C110.419 17.7349 110.741 17.3969 110.972 16.9682C111.203 16.5394 111.318 16.0282 111.318 15.4346V7.54403H114.558V21H111.491V18.3533L111.763 18.8233C111.45 19.6478 110.93 20.2662 110.205 20.6784C109.496 21.0907 108.663 21.2968 107.707 21.2968ZM123.828 21.2968C122.526 21.2968 121.363 20.9918 120.341 20.3816C119.318 19.755 118.51 18.9058 117.917 17.8339C117.323 16.762 117.026 15.5747 117.026 14.272C117.026 12.9528 117.323 11.7655 117.917 10.7101C118.51 9.65477 119.318 8.81378 120.341 8.18715C121.38 7.56052 122.534 7.24721 123.804 7.24721C124.826 7.24721 125.733 7.45334 126.525 7.86559C127.333 8.26136 127.967 8.82202 128.429 9.54759L127.934 10.2154V2.27543H131.175V21H128.108V18.4028L128.454 19.0459C127.992 19.7715 127.349 20.3321 126.525 20.7279C125.7 21.1072 124.801 21.2968 123.828 21.2968ZM124.175 18.3286C124.917 18.3286 125.568 18.1554 126.129 17.8092C126.689 17.4629 127.126 16.9846 127.44 16.3745C127.77 15.7644 127.934 15.0635 127.934 14.272C127.934 13.497 127.77 12.8044 127.44 12.1943C127.126 11.5676 126.689 11.0812 126.129 10.7349C125.568 10.3886 124.917 10.2154 124.175 10.2154C123.449 10.2154 122.798 10.3968 122.221 10.7596C121.643 11.1059 121.19 11.5841 120.86 12.1943C120.547 12.7879 120.39 13.4805 120.39 14.272C120.39 15.0635 120.547 15.7644 120.86 16.3745C121.19 16.9846 121.643 17.4629 122.221 17.8092C122.798 18.1554 123.449 18.3286 124.175 18.3286ZM134.189 21V7.54403H137.43V21H134.189ZM134.189 6.03519V2.57225H137.43V6.03519H134.189ZM147.001 21.2968C145.682 21.2968 144.478 20.9918 143.39 20.3816C142.318 19.7715 141.46 18.9387 140.817 17.8834C140.191 16.828 139.877 15.6242 139.877 14.272C139.877 12.9198 140.191 11.716 140.817 10.6607C141.46 9.6053 142.318 8.77255 143.39 8.16241C144.462 7.55228 145.665 7.24721 147.001 7.24721C148.32 7.24721 149.516 7.55228 150.588 8.16241C151.66 8.77255 152.509 9.6053 153.135 10.6607C153.779 11.6996 154.1 12.9033 154.1 14.272C154.1 15.6242 153.779 16.828 153.135 17.8834C152.492 18.9387 151.635 19.7715 150.563 20.3816C149.491 20.9918 148.304 21.2968 147.001 21.2968ZM147.001 18.3286C147.727 18.3286 148.361 18.1554 148.906 17.8092C149.466 17.4629 149.903 16.9846 150.217 16.3745C150.546 15.7479 150.711 15.0471 150.711 14.272C150.711 13.4805 150.546 12.7879 150.217 12.1943C149.903 11.5841 149.466 11.1059 148.906 10.7596C148.361 10.3968 147.727 10.2154 147.001 10.2154C146.259 10.2154 145.608 10.3968 145.047 10.7596C144.486 11.1059 144.041 11.5841 143.711 12.1943C143.398 12.7879 143.241 13.4805 143.241 14.272C143.241 15.0471 143.398 15.7479 143.711 16.3745C144.041 16.9846 144.486 17.4629 145.047 17.8092C145.608 18.1554 146.259 18.3286 147.001 18.3286ZM90.1179 43V32.4381H87.7434V29.544H90.1179V29.0988C90.1179 28.0764 90.3241 27.2107 90.7363 26.5016C91.1651 25.776 91.7587 25.2236 92.5173 24.8443C93.2758 24.4651 94.1745 24.2754 95.2134 24.2754C95.4113 24.2754 95.6257 24.2919 95.8565 24.3249C96.1039 24.3414 96.31 24.3661 96.4749 24.3991V27.1942C96.31 27.1612 96.1533 27.1447 96.0049 27.1447C95.873 27.1282 95.7493 27.12 95.6339 27.12C94.9083 27.12 94.3477 27.2849 93.9519 27.6147C93.5561 27.928 93.3583 28.4227 93.3583 29.0988V29.544H96.3512V32.4381H93.3583V43H90.1179ZM104.826 43.2968C103.506 43.2968 102.303 42.9918 101.214 42.3816C100.142 41.7715 99.2849 40.9387 98.6417 39.8834C98.0151 38.828 97.7018 37.6242 97.7018 36.272C97.7018 34.9198 98.0151 33.716 98.6417 32.6607C99.2849 31.6053 100.142 30.7726 101.214 30.1624C102.286 29.5523 103.49 29.2472 104.826 29.2472C106.145 29.2472 107.34 29.5523 108.412 30.1624C109.484 30.7726 110.333 31.6053 110.96 32.6607C111.603 33.6996 111.925 34.9033 111.925 36.272C111.925 37.6242 111.603 38.828 110.96 39.8834C110.317 40.9387 109.459 41.7715 108.387 42.3816C107.316 42.9918 106.128 43.2968 104.826 43.2968ZM104.826 40.3286C105.551 40.3286 106.186 40.1554 106.73 39.8092C107.291 39.4629 107.728 38.9846 108.041 38.3745C108.371 37.7479 108.536 37.0471 108.536 36.272C108.536 35.4805 108.371 34.7879 108.041 34.1943C107.728 33.5841 107.291 33.1059 106.73 32.7596C106.186 32.3968 105.551 32.2154 104.826 32.2154C104.083 32.2154 103.432 32.3968 102.871 32.7596C102.311 33.1059 101.866 33.5841 101.536 34.1943C101.222 34.7879 101.066 35.4805 101.066 36.272C101.066 37.0471 101.222 37.7479 101.536 38.3745C101.866 38.9846 102.311 39.4629 102.871 39.8092C103.432 40.1554 104.083 40.3286 104.826 40.3286ZM114.382 43V29.544H117.424V32.537L117.177 32.0918C117.49 31.0859 117.977 30.385 118.636 29.9893C119.312 29.5935 120.12 29.3956 121.06 29.3956H121.852V32.2649H120.689C119.766 32.2649 119.024 32.5535 118.463 33.1306C117.903 33.6913 117.622 34.4828 117.622 35.5052V43H114.382ZM130.114 43.2968C128.778 43.2968 127.575 42.9918 126.503 42.3816C125.447 41.755 124.615 40.914 124.004 39.8586C123.394 38.7868 123.089 37.583 123.089 36.2473C123.089 34.9116 123.394 33.716 124.004 32.6607C124.615 31.6053 125.447 30.7726 126.503 30.1624C127.575 29.5523 128.778 29.2472 130.114 29.2472C131.07 29.2472 131.961 29.4204 132.785 29.7667C133.61 30.0965 134.319 30.5582 134.913 31.1518C135.523 31.729 135.96 32.4216 136.224 33.2296L133.379 34.4663C133.132 33.7902 132.711 33.2461 132.118 32.8338C131.54 32.4216 130.873 32.2154 130.114 32.2154C129.405 32.2154 128.77 32.3886 128.209 32.7349C127.665 33.0812 127.237 33.5594 126.923 34.1695C126.61 34.7797 126.453 35.4805 126.453 36.272C126.453 37.0635 126.61 37.7644 126.923 38.3745C127.237 38.9846 127.665 39.4629 128.209 39.8092C128.77 40.1554 129.405 40.3286 130.114 40.3286C130.889 40.3286 131.565 40.1225 132.142 39.7102C132.719 39.298 133.132 38.7455 133.379 38.053L136.224 39.3392C135.96 40.0977 135.531 40.7821 134.937 41.3922C134.344 41.9859 133.635 42.4558 132.81 42.8021C131.986 43.1319 131.087 43.2968 130.114 43.2968ZM145.064 43.2968C143.679 43.2968 142.467 42.9835 141.428 42.3569C140.389 41.7303 139.581 40.881 139.004 39.8092C138.427 38.7373 138.138 37.55 138.138 36.2473C138.138 34.8951 138.427 33.6996 139.004 32.6607C139.597 31.6053 140.397 30.7726 141.403 30.1624C142.426 29.5523 143.563 29.2472 144.817 29.2472C145.872 29.2472 146.795 29.4204 147.587 29.7667C148.395 30.1129 149.079 30.5912 149.64 31.2013C150.201 31.8114 150.629 32.5123 150.926 33.3038C151.223 34.0788 151.371 34.9198 151.371 35.8268C151.371 36.0576 151.355 36.2968 151.322 36.5441C151.306 36.7915 151.264 37.0058 151.198 37.1872H140.81V34.7137H149.368L147.834 35.8763C147.983 35.1177 147.942 34.4416 147.711 33.848C147.496 33.2543 147.133 32.7843 146.622 32.4381C146.128 32.0918 145.526 31.9186 144.817 31.9186C144.141 31.9186 143.539 32.0918 143.011 32.4381C142.483 32.7679 142.079 33.2626 141.799 33.9222C141.535 34.5653 141.436 35.3486 141.502 36.272C141.436 37.0965 141.543 37.8303 141.824 38.4735C142.12 39.1001 142.549 39.5865 143.11 39.9328C143.687 40.2791 144.347 40.4523 145.089 40.4523C145.831 40.4523 146.457 40.2956 146.969 39.9823C147.496 39.669 147.909 39.2485 148.205 38.7208L150.827 40.007C150.563 40.6502 150.151 41.2191 149.591 41.7138C149.03 42.2085 148.362 42.596 147.587 42.8763C146.828 43.1567 145.987 43.2968 145.064 43.2968Z" fill="black"/>
</svg>
