<svg width="200" height="44" viewBox="0 0 200 44" fill="none" xmlns="http://www.w3.org/2000/svg">
<path d="M89.4 9.43197C92.1188 9.43197 94.29 10.2921 95.9131 12.0123C97.5362 13.7325 98.3475 16.1877 98.3475 19.3784V32.7371H93.6034V19.8779C93.6034 17.8804 93.1042 16.3336 92.1053 15.2376C91.1064 14.1415 89.7331 13.5937 87.9853 13.5937C86.1266 13.5937 84.6491 14.1832 83.553 15.3623C82.457 16.5413 81.9091 18.2683 81.9091 20.5434V32.7367H77.165V19.8776C77.165 17.8801 76.6655 16.3333 75.6669 15.2372C74.668 14.1412 73.2947 13.5933 71.5469 13.5933C69.6882 13.5933 68.2107 14.1829 67.1146 15.3619C66.0186 16.541 65.4707 18.2679 65.4707 20.5431V32.7364H60.7266V9.80608H65.4707V14.5919C66.0532 12.9272 67.0242 11.651 68.3838 10.7633C69.7433 9.87564 71.3385 9.43164 73.1696 9.43164C75.0841 9.43164 76.7418 9.90321 78.1427 10.8467C79.5436 11.7901 80.5634 13.1493 81.2013 14.925C81.8671 13.2048 82.9353 11.8593 84.4058 10.8883C85.8762 9.91731 87.541 9.43164 89.3997 9.43164L89.4 9.43197Z" fill="#002D62"/>
<path d="M104.319 9.80664L111.186 26.6611L117.553 9.80664H122.838L108.98 43.6404H103.695L108.647 32.1959L98.9922 9.80664H104.319Z" fill="#002D62"/>
<path d="M139.074 26.3694H126.673L124.426 32.7366H119.349L130.169 3.81348H135.62L146.399 32.7366H141.322L139.075 26.3694H139.074ZM137.743 22.7071L132.873 8.97375L128.004 22.7071H137.742H137.743Z" fill="#008080"/>
<path d="M152.874 14.301C153.651 12.803 154.761 11.6168 156.203 10.743C157.646 9.86908 159.311 9.43213 161.197 9.43213V14.5927H159.782C157.701 14.5927 156.029 15.0989 154.767 16.1116C153.505 17.1243 152.874 18.7958 152.874 21.1264V32.7372H148.13V9.80688H152.874V14.3013V14.301Z" fill="#008080"/>
<path d="M183.988 20.1696C183.988 20.9463 183.932 21.6263 183.821 22.2088H166.176C166.259 24.5669 166.912 26.315 168.132 27.4524C169.353 28.5898 170.865 29.1585 172.668 29.1585C174.25 29.1585 175.589 28.7562 176.685 27.9515C177.781 27.1472 178.453 26.0787 178.703 24.7471H183.78C183.475 26.3563 182.836 27.7851 181.866 29.0335C180.895 30.2818 179.632 31.2599 178.079 31.9674C176.525 32.6749 174.791 33.0285 172.877 33.0285C170.657 33.0285 168.694 32.5569 166.988 31.6134C165.282 30.67 163.943 29.3108 162.972 27.5351C162.001 25.7594 161.516 23.6648 161.516 21.2512C161.516 18.8652 162.001 16.7846 162.972 15.009C163.943 13.2333 165.282 11.8738 166.988 10.9306C168.694 9.98719 170.657 9.51562 172.877 9.51562C175.124 9.51562 177.087 9.98045 178.765 10.9098C180.444 11.8391 181.734 13.1154 182.636 14.7384C183.537 16.3615 183.988 18.1718 183.988 20.1693L183.988 20.1696ZM179.202 20.0449C179.257 18.5465 179.001 17.2911 178.432 16.2788C177.863 15.2661 177.087 14.5169 176.101 14.0316C175.117 13.5459 174.041 13.3032 172.876 13.3032C171.017 13.3032 169.464 13.8719 168.215 15.0093C166.967 16.1467 166.287 17.8252 166.176 20.0449H179.202H179.202Z" fill="#008080"/>
<path d="M190.546 1.94141V32.7374H185.802V1.94141H190.546Z" fill="#008080"/>
<path d="M193.609 3.14822C193.609 2.3439 193.887 1.67774 194.442 1.15072C194.996 0.623693 195.732 0.359863 196.647 0.359863C197.563 0.359863 198.305 0.623373 198.874 1.15072C199.442 1.67774 199.727 2.3439 199.727 3.14822C199.727 3.95286 199.442 4.60491 198.874 5.10436C198.305 5.60382 197.563 5.85353 196.647 5.85353C195.732 5.85353 194.996 5.60382 194.442 5.10436C193.887 4.60491 193.609 3.95286 193.609 3.14822ZM199.019 9.80686V32.7372H194.275V9.80686H199.019Z" fill="#008080"/>
<path fill-rule="evenodd" clip-rule="evenodd" d="M6.97725 27.3865C9.56556 29.8745 13.5221 35.5791 17.3392 33.6188C19.3113 32.6064 29.2379 22.0662 31.3983 19.9254C32.485 19.2939 33.4102 19.7914 34.5838 18.696C39.5854 14.0275 29.7521 8.42803 28.2057 14.8722C27.4869 17.868 18.0178 26.2324 15.5375 28.5386C11.0376 24.8347 4.00681 19.0166 6.41112 12.7475C7.56935 9.72572 10.6087 7.65321 14.7425 7.8042C16.9025 8.08598 17.9983 9.02686 19.6627 10.1954C20.7078 9.76611 22.9338 7.60673 23.1403 6.39816C21.6503 5.47427 20.6632 4.35033 18.4814 3.54537C5.61289 -1.20202 -6.75198 14.0102 6.97757 27.3865H6.97725Z" fill="#002D62"/>
<path fill-rule="evenodd" clip-rule="evenodd" d="M25.6534 7.07656C25.4921 7.22979 25.3344 7.36859 25.1757 7.50964C25.017 7.65102 24.8574 7.79463 24.6926 7.95845C22.673 9.96428 17.0036 14.5642 16.1964 16.1978C14.4237 19.7851 17.7839 22.0413 20.378 19.3828L25.4075 14.2276C28.3485 11.1219 31.4048 7.35609 36.0871 7.5603C43.6216 8.02 45.7063 15.0197 41.7664 20.4346C37.3563 25.1944 32.5303 30.784 26.5988 35.5875C25.5441 36.4415 24.4657 33.4034 22.5037 34.6959C19.255 36.8367 23.8857 40.6586 25.3937 41.1449C27.3681 41.7819 28.6302 40.7436 29.5298 39.9357C37.1203 32.476 51.7042 22.5276 48.0282 11.1232C44.7673 1.01225 32.7374 0.34065 25.6531 7.07656H25.6534Z" fill="#008080"/>
</svg>
