<svg width="166" height="44" viewBox="0 0 166 44" fill="none" xmlns="http://www.w3.org/2000/svg">
<path d="M47.751 19.1933C47.751 17.2682 48.0869 15.5382 48.7589 14.0035C49.431 12.4687 50.4435 11.2518 51.7965 10.3529C53.1496 9.45388 54.8069 9.00439 56.7683 9.00439C58.7297 9.00439 60.3871 9.45388 61.7403 10.3529C63.0933 11.2518 64.1105 12.4687 64.7916 14.0035C65.4727 15.5382 65.8131 17.268 65.8131 19.1933C65.8131 21.0277 65.5044 22.685 64.8869 24.1652C64.2695 25.6455 63.3613 26.8214 62.1625 27.6933L63.5246 30.7173C63.8515 31.4438 64.242 31.9751 64.6961 32.3111C65.1502 32.647 65.7132 32.8151 66.3852 32.8151C66.7484 32.8151 67.0753 32.7561 67.3659 32.638C67.6566 32.5199 67.8291 32.4609 67.8836 32.4609C67.9562 32.4609 68.0152 32.4882 68.0607 32.5427C68.1061 32.5972 68.1289 32.6608 68.1289 32.7334C68.1289 33.3873 67.8746 33.9276 67.3661 34.3545C66.8577 34.7813 66.2674 34.9947 65.5953 34.9947C64.5419 34.9947 63.6656 34.6451 62.9664 33.9459C62.2672 33.2467 61.6542 32.3066 61.1275 31.1262L60.0651 28.8106C59.0297 29.1556 57.931 29.3283 56.7687 29.3283C54.8072 29.3283 53.1499 28.8834 51.7969 27.9935C50.4438 27.1035 49.4313 25.8957 48.7592 24.3701C48.0871 22.8446 47.7513 21.1191 47.7513 19.194L47.751 19.1933ZM62.8436 19.2751C62.8436 17.9674 62.6575 16.6462 62.2852 15.3112C61.913 13.9764 61.2818 12.8502 60.3918 11.933C59.5019 11.0158 58.3396 10.5572 56.9047 10.5572C55.6152 10.5572 54.5028 10.9522 53.5674 11.7422C52.6321 12.5323 51.9191 13.5993 51.4289 14.9433C50.9385 16.2874 50.6933 17.7766 50.6933 19.4111C50.6933 20.6462 50.8295 21.7813 51.1021 22.8164C51.3745 23.8516 51.7832 24.7415 52.328 25.4863C52.2917 25.3591 52.2735 25.1776 52.2735 24.9415C52.2735 24.0333 52.5821 23.3205 53.1997 22.803C53.8171 22.2853 54.6527 22.0266 55.7061 22.0266C56.7049 22.0266 57.654 22.3126 58.553 22.8848C59.4519 23.4568 60.2739 24.3331 61.0184 25.5137C61.5997 24.7328 62.0492 23.8064 62.3669 22.735C62.6848 21.6633 62.8436 20.5102 62.8436 19.2751ZM53.4448 25.323C53.4448 26.122 53.7581 26.7215 54.3847 27.1211C55.0113 27.5206 55.7695 27.7204 56.6596 27.7204C57.6041 27.7204 58.4758 27.4933 59.2748 27.0393C58.6936 25.8587 58.0443 24.9914 57.3269 24.4376C56.6095 23.8836 55.9147 23.6067 55.2428 23.6067C54.7161 23.6067 54.2846 23.7611 53.9487 24.0698C53.6127 24.3785 53.4446 24.7963 53.4446 25.323H53.4448Z" fill="#05A8EB"/>
<path d="M84.1353 28.2382C83.3906 28.9647 82.5552 29.3279 81.6289 29.3279C80.739 29.3279 80.0215 29.0736 79.4768 28.5652C78.932 28.0567 78.3961 27.2484 77.8694 26.1405L75.7989 21.7543C75.6354 21.3911 75.4312 21.1277 75.1859 20.9643C74.9408 20.8008 74.5277 20.6101 73.9464 20.3922C73.6014 20.2651 73.4287 20.0563 73.4287 19.7657C73.4287 19.5841 73.465 19.4297 73.5377 19.3025C73.6103 19.1754 73.7192 19.1118 73.8646 19.1118C73.9372 19.1118 74.0872 19.1437 74.3141 19.2071C74.5411 19.2707 74.8362 19.3024 75.1994 19.3024C76.5615 19.3024 77.6241 18.9165 78.3869 18.1445C79.1497 17.3727 79.5312 16.3419 79.5312 15.0523C79.5312 13.7265 79.127 12.6414 78.3189 11.7968C77.5106 10.9522 76.3709 10.53 74.8999 10.53C73.5196 10.53 72.8294 10.9477 72.8294 11.7831V23.4705C72.8294 24.5602 72.9203 25.4365 73.1018 26.0994C73.2835 26.7623 73.6012 27.4025 74.0553 28.02L74.4095 28.5104L74.0553 28.9463H68.0891L67.7622 28.02L68.3888 27.8566C69.0789 27.6749 69.5421 27.4115 69.7781 27.0665C70.0142 26.7215 70.1323 26.1403 70.1323 25.323V11.8649C70.1323 11.6289 70.0868 11.4608 69.9961 11.3609C69.9053 11.261 69.7509 11.2111 69.533 11.2111H67.9529L67.626 10.2032C68.407 9.89451 69.4377 9.61735 70.7182 9.37224C71.9986 9.12695 73.2291 9.00439 74.4095 9.00439C77.0976 9.00439 79.0955 9.55837 80.403 10.6663C81.7108 11.7743 82.3644 13.209 82.3644 14.9708C82.3644 16.3148 81.9922 17.4862 81.2475 18.485C80.5027 19.4841 79.404 20.156 77.951 20.501C78.3506 20.7734 78.7138 21.2184 79.0408 21.8358L81.5744 26.9847C81.865 27.5477 82.21 27.8293 82.6095 27.8293C82.9547 27.8293 83.3088 27.7022 83.672 27.4478L84.1351 28.2379L84.1353 28.2382Z" fill="#05A8EB"/>
<path d="M91.2579 25.3233C91.2579 25.9046 91.3034 26.3404 91.394 26.631C91.4849 26.9217 91.6528 27.1214 91.8981 27.2305C92.1434 27.3394 92.511 27.394 93.0014 27.394H95.3716C96.0254 27.394 96.5339 27.3258 96.8971 27.1898C97.2604 27.0536 97.5464 26.8173 97.7552 26.4814C97.9642 26.1454 98.1593 25.6414 98.3411 24.9695L98.5045 24.3429L99.4308 24.6698V29.3283L98.886 29.628L98.668 29.3283C98.4682 29.074 98.0869 28.947 97.5237 28.947H86.6265L86.3268 28.0751L86.8988 27.9117C87.5709 27.7119 88.0158 27.4576 88.2337 27.1489C88.4517 26.8402 88.5606 26.2953 88.5606 25.5142V13.0096C88.5606 12.1742 88.4425 11.5929 88.2064 11.266C87.9703 10.9391 87.5072 10.6757 86.817 10.4759L86.1904 10.3125L86.5174 9.38623H92.4836L92.8378 9.82209L92.4836 10.3125C92.0295 10.9118 91.7118 11.5476 91.5301 12.2195C91.3484 12.8914 91.2577 13.7723 91.2577 14.8621V25.3233H91.2579Z" fill="#05A8EB"/>
<path d="M47.751 19.1933C47.751 17.2682 48.0869 15.5382 48.7589 14.0035C49.431 12.4687 50.4435 11.2518 51.7965 10.3529C53.1496 9.45388 54.8069 9.00439 56.7683 9.00439C58.7297 9.00439 60.3871 9.45388 61.7403 10.3529C63.0933 11.2518 64.1105 12.4687 64.7916 14.0035C65.4727 15.5382 65.8131 17.268 65.8131 19.1933C65.8131 21.0277 65.5044 22.685 64.8869 24.1652C64.2695 25.6455 63.3613 26.8214 62.1625 27.6933L63.5246 30.7173C63.8515 31.4438 64.242 31.9751 64.6961 32.3111C65.1502 32.647 65.7132 32.8151 66.3852 32.8151C66.7484 32.8151 67.0753 32.7561 67.3659 32.638C67.6566 32.5199 67.8291 32.4609 67.8836 32.4609C67.9562 32.4609 68.0152 32.4882 68.0607 32.5427C68.1061 32.5972 68.1289 32.6608 68.1289 32.7334C68.1289 33.3873 67.8746 33.9276 67.3661 34.3545C66.8577 34.7813 66.2674 34.9947 65.5953 34.9947C64.5419 34.9947 63.6656 34.6451 62.9664 33.9459C62.2672 33.2467 61.6542 32.3066 61.1275 31.1262L60.0651 28.8106C59.0297 29.1556 57.931 29.3283 56.7687 29.3283C54.8072 29.3283 53.1499 28.8834 51.7969 27.9935C50.4438 27.1035 49.4313 25.8957 48.7592 24.3701C48.0871 22.8446 47.7513 21.1191 47.7513 19.194L47.751 19.1933ZM62.8436 19.2751C62.8436 17.9674 62.6575 16.6462 62.2852 15.3112C61.913 13.9764 61.2818 12.8502 60.3918 11.933C59.5019 11.0158 58.3396 10.5572 56.9047 10.5572C55.6152 10.5572 54.5028 10.9522 53.5674 11.7422C52.6321 12.5323 51.9191 13.5993 51.4289 14.9433C50.9385 16.2874 50.6933 17.7766 50.6933 19.4111C50.6933 20.6462 50.8295 21.7813 51.1021 22.8164C51.3745 23.8516 51.7832 24.7415 52.328 25.4863C52.2917 25.3591 52.2735 25.1776 52.2735 24.9415C52.2735 24.0333 52.5821 23.3205 53.1997 22.803C53.8171 22.2853 54.6527 22.0266 55.7061 22.0266C56.7049 22.0266 57.654 22.3126 58.553 22.8848C59.4519 23.4568 60.2739 24.3331 61.0184 25.5137C61.5997 24.7328 62.0492 23.8064 62.3669 22.735C62.6848 21.6633 62.8436 20.5102 62.8436 19.2751ZM53.4448 25.323C53.4448 26.122 53.7581 26.7215 54.3847 27.1211C55.0113 27.5206 55.7695 27.7204 56.6596 27.7204C57.6041 27.7204 58.4758 27.4933 59.2748 27.0393C58.6936 25.8587 58.0443 24.9914 57.3269 24.4376C56.6095 23.8836 55.9147 23.6067 55.2428 23.6067C54.7161 23.6067 54.2846 23.7611 53.9487 24.0698C53.6127 24.3785 53.4446 24.7963 53.4446 25.323H53.4448Z" stroke="#05A8EB" stroke-width="0.568123" stroke-miterlimit="2.61313"/>
<path d="M84.1353 28.2382C83.3906 28.9647 82.5552 29.3279 81.6289 29.3279C80.739 29.3279 80.0215 29.0736 79.4768 28.5652C78.932 28.0567 78.3961 27.2484 77.8694 26.1405L75.7989 21.7543C75.6354 21.3911 75.4312 21.1277 75.1859 20.9643C74.9408 20.8008 74.5277 20.6101 73.9464 20.3922C73.6014 20.2651 73.4287 20.0563 73.4287 19.7657C73.4287 19.5841 73.465 19.4297 73.5377 19.3025C73.6103 19.1754 73.7192 19.1118 73.8646 19.1118C73.9372 19.1118 74.0872 19.1437 74.3141 19.2071C74.5411 19.2707 74.8362 19.3024 75.1994 19.3024C76.5615 19.3024 77.6241 18.9165 78.3869 18.1445C79.1497 17.3727 79.5312 16.3419 79.5312 15.0523C79.5312 13.7265 79.127 12.6414 78.3189 11.7968C77.5106 10.9522 76.3709 10.53 74.8999 10.53C73.5196 10.53 72.8294 10.9477 72.8294 11.7831V23.4705C72.8294 24.5602 72.9203 25.4365 73.1018 26.0994C73.2835 26.7623 73.6012 27.4025 74.0553 28.02L74.4095 28.5104L74.0553 28.9463H68.0891L67.7622 28.02L68.3888 27.8566C69.0789 27.6749 69.5421 27.4115 69.7781 27.0665C70.0142 26.7215 70.1323 26.1403 70.1323 25.323V11.8649C70.1323 11.6289 70.0868 11.4608 69.9961 11.3609C69.9053 11.261 69.7509 11.2111 69.533 11.2111H67.9529L67.626 10.2032C68.407 9.89451 69.4377 9.61735 70.7182 9.37224C71.9986 9.12695 73.2291 9.00439 74.4095 9.00439C77.0976 9.00439 79.0955 9.55837 80.403 10.6663C81.7108 11.7743 82.3644 13.209 82.3644 14.9708C82.3644 16.3148 81.9922 17.4862 81.2475 18.485C80.5027 19.4841 79.404 20.156 77.951 20.501C78.3506 20.7734 78.7138 21.2184 79.0408 21.8358L81.5744 26.9847C81.865 27.5477 82.21 27.8293 82.6095 27.8293C82.9547 27.8293 83.3088 27.7022 83.672 27.4478L84.1351 28.2379L84.1353 28.2382Z" stroke="#05A8EB" stroke-width="0.568123" stroke-miterlimit="2.61313"/>
<path d="M91.2579 25.3233C91.2579 25.9046 91.3034 26.3404 91.394 26.631C91.4849 26.9217 91.6528 27.1214 91.8981 27.2305C92.1434 27.3394 92.511 27.394 93.0014 27.394H95.3716C96.0254 27.394 96.5339 27.3258 96.8971 27.1898C97.2604 27.0536 97.5464 26.8173 97.7552 26.4814C97.9642 26.1454 98.1593 25.6414 98.3411 24.9695L98.5045 24.3429L99.4308 24.6698V29.3283L98.886 29.628L98.668 29.3283C98.4682 29.074 98.0869 28.947 97.5237 28.947H86.6265L86.3268 28.0751L86.8988 27.9117C87.5709 27.7119 88.0158 27.4576 88.2337 27.1489C88.4517 26.8402 88.5606 26.2953 88.5606 25.5142V13.0096C88.5606 12.1742 88.4425 11.5929 88.2064 11.266C87.9703 10.9391 87.5072 10.6757 86.817 10.4759L86.1904 10.3125L86.5174 9.38623H92.4836L92.8378 9.82209L92.4836 10.3125C92.0295 10.9118 91.7118 11.5476 91.5301 12.2195C91.3484 12.8914 91.2577 13.7723 91.2577 14.8621V25.3233H91.2579Z" stroke="#05A8EB" stroke-width="0.568123" stroke-miterlimit="2.61313"/>
<path d="M104.284 15.377C105.237 15.377 105.891 14.6958 105.891 14.1238C105.891 13.579 105.237 12.8706 104.284 12.8706C103.303 12.8706 102.649 13.579 102.649 14.1238C102.649 14.6958 103.303 15.377 104.284 15.377ZM102.268 29.9792C104.12 29.7068 105.401 29.7068 107.144 29.9792V29.7612C105.755 29.4888 105.537 27.9633 105.537 22.5691C105.537 20.6893 105.537 18.5099 105.809 16.6301C104.856 17.5291 103.521 18.0195 101.995 18.0195V18.2102C103.984 18.5099 103.875 20.8255 103.875 23.6588C103.875 27.9633 103.711 29.4616 102.268 29.7612V29.9792H102.268Z" fill="#333333"/>
<path d="M107.926 29.9794C109.779 29.707 111.059 29.707 112.803 29.9794V29.7614C111.413 29.489 111.195 27.9634 111.195 22.5693V21.9427C111.413 19.6814 112.884 17.2296 114.465 17.2296C116.998 17.2296 117.57 21.0708 117.434 24.5036C117.325 27.0645 117.107 29.1621 115.636 29.7614V29.9794C117.707 29.707 119.069 29.707 121.575 29.9794V29.7614C119.287 28.9442 119.314 27.6092 119.151 22.2423C119.151 19.8722 120.377 17.2296 122.093 17.2296C124.627 17.2296 124.845 21.0708 125.062 24.5036C125.226 27.0645 125.008 29.1621 123.537 29.7614V29.9794C125.607 29.707 126.969 29.707 129.476 29.9794V29.7614C127.187 28.9442 127.215 27.6092 126.779 22.2423C126.506 18.8641 125.09 16.603 122.665 16.603C120.404 16.603 119.723 18.5917 118.306 18.7008C117.598 17.366 116.454 16.603 115.037 16.603C112.912 16.603 111.959 18.3466 111.278 18.6463C111.305 17.9651 111.387 17.2842 111.468 16.6303C110.515 17.5293 109.18 18.0197 107.654 18.0197V18.2104C109.643 18.5101 109.534 20.8257 109.534 23.659C109.534 27.9634 109.371 29.4617 107.927 29.7614V29.9794H107.926Z" fill="#333333"/>
<path d="M131.321 15.377C132.274 15.377 132.928 14.6958 132.928 14.1238C132.928 13.579 132.274 12.8706 131.321 12.8706C130.34 12.8706 129.686 13.579 129.686 14.1238C129.686 14.6958 130.34 15.377 131.321 15.377ZM129.305 29.9792C131.157 29.7068 132.438 29.7068 134.181 29.9792V29.7612C132.792 29.4888 132.574 27.9633 132.574 22.5691C132.574 20.6893 132.574 18.5099 132.846 16.6301C131.893 17.5291 130.558 18.0195 129.032 18.0195V18.2102C131.021 18.5099 130.912 20.8255 130.912 23.6588C130.912 27.9633 130.749 29.4616 129.305 29.7612V29.9792H129.305Z" fill="#333333"/>
<path d="M139.565 30.2785C141.935 30.2785 142.617 28.0173 142.807 26.5734L142.371 26.5188C142.29 27.8537 141.636 29.2705 140.219 29.2705C138.258 29.2705 137.849 26.7914 137.822 25.2113C137.795 23.277 137.876 20.5801 137.958 17.556H141.254V17.2018H137.958C138.013 15.1859 138.067 13.0336 138.067 10.9087H137.304C137.25 13.5512 136.65 17.2018 133.735 17.2018V17.556H136.242C136.242 20.4983 136.16 21.6698 136.024 24.5576C135.86 27.854 137.005 30.2787 139.565 30.2787L139.565 30.2785Z" fill="#333333"/>
<path d="M147.375 30.1152C150.454 30.1425 151.843 27.6905 152.442 25.4567L151.979 25.3749C151.598 26.8461 150.236 28.862 147.893 28.862C144.433 28.862 143.534 24.9934 143.534 22.8685V22.7596H152.388C152.279 19.4903 150.59 16.7661 147.185 16.7661C144.052 16.7661 141.409 19.4905 141.409 23.5769C141.409 27.391 144.134 30.0881 147.375 30.1154L147.375 30.1152ZM143.534 22.4327C143.67 18.7548 145.468 17.1203 147.321 17.1203C149.909 17.1203 150.699 20.3622 150.644 22.4327H143.534Z" fill="#333333"/>
<path d="M163.823 19.8448C163.85 15.4041 163.932 12.2166 164.122 9.95557C163.142 11.1544 162.188 11.8082 160.39 11.9171V12.1623C161.48 12.4346 161.97 13.4154 162.188 14.9683L162.134 14.723C163.223 20.1988 153.089 16.957 153.089 25.3206C153.089 27.7451 154.478 30.1698 157.611 30.1698C159.709 30.1698 161.616 28.0721 162.215 26.0834C162.079 27.7724 161.861 29.1345 161.507 30.2517C162.488 29.9793 162.815 29.7067 165.43 29.9793V29.8158C163.523 28.9985 163.795 23.3865 163.823 19.8449L163.823 19.8448ZM162.379 21.1252C162.379 25.3206 161.289 29.2165 158.02 29.2165C155.813 29.2165 155.078 27.1733 155.078 25.0755C155.078 20.2263 159.328 19.1365 162.379 17.7472V21.1254V21.1252Z" fill="#333333"/>
<path fill-rule="evenodd" clip-rule="evenodd" d="M15.3979 37.7497C14.3017 35.416 12.4388 34.3193 10.7606 32.9729C7.7829 30.5831 8.44102 30.3002 8.47596 25.714L8.67454 7.33359L26.6245 7.30989C34.1023 7.2666 31.2096 9.91681 38.0676 13.7865C38.6233 3.81422 36.1761 0.753388 26.152 0.447935C-2.92553 -0.439618 0.833324 2.00366 0.732074 26.189C0.691506 35.8711 3.94769 37.9111 15.3979 37.7495V37.7497Z" fill="#05A8EB"/>
<path fill-rule="evenodd" clip-rule="evenodd" d="M13.7013 30.9566C14.4483 32.5365 21.3799 37.8726 23.2461 39.5643C27.2906 43.2303 27.4183 44.4379 37.5108 43.2708C36.1227 41.5593 32.3797 39.5238 30.7873 37.6171C39.2437 33.06 41.2494 20.7109 36.1014 16.695C34.1176 15.1472 32.635 13.1803 30.415 12.1572C30.8335 32.8672 33.1542 30.5915 13.7012 30.9566H13.7013Z" fill="#2C3D55"/>
</svg>
