<svg width="71" height="70" viewBox="0 0 71 70" fill="none" xmlns="http://www.w3.org/2000/svg">
<rect x="0.5" width="70" height="70" rx="24" fill="#A6BE15"/>
<path d="M25.3926 51.6602C25.1471 52.233 24.3289 52.3966 22.938 52.1511C21.5471 51.8239 20.0335 51.333 18.3971 50.6784C16.8425 49.9421 15.4925 49.2466 14.3471 48.5921C13.2835 47.8557 12.8744 47.3648 13.1198 47.1193L31.1607 36.4421C31.3243 36.2784 31.5698 36.3193 31.8971 36.5648C32.2243 36.8102 32.3471 37.0148 32.2652 37.1784L25.3926 51.6602ZM39.138 58.0421L34.5971 37.6693C34.5152 37.5057 34.5971 37.3011 34.8425 37.0557C35.1698 36.8102 35.4152 36.7693 35.5789 36.933L47.3607 47.8557C47.7698 48.3466 47.6061 49.2057 46.8698 50.433C46.2152 51.6602 45.2743 52.9284 44.0471 54.2375C42.8198 55.5466 41.7152 56.6102 40.7334 57.4284C39.7516 58.2466 39.2198 58.4511 39.138 58.0421ZM30.9152 33.9875L14.9607 31.9011C14.388 31.8193 14.0198 31.083 13.8562 29.6921C13.6925 28.3011 13.6925 26.7466 13.8562 25.0284C14.1016 23.2284 14.3471 21.7148 14.5925 20.4875C14.9198 19.1784 15.2471 18.6466 15.5744 18.8921L31.4061 32.7602C31.5698 32.8421 31.5698 33.0875 31.4061 33.4966C31.3243 33.9057 31.1607 34.0693 30.9152 33.9875ZM57.6698 36.8102L36.8061 34.9693C36.6425 34.9693 36.4789 34.8057 36.3152 34.4784C36.2334 34.0693 36.3152 33.8239 36.5607 33.7421L50.5516 26.0102C51.0425 25.683 51.738 26.0511 52.638 27.1148C53.6198 28.1784 54.5607 29.4875 55.4607 31.0421C56.3607 32.5148 57.0561 33.8648 57.5471 35.0921C58.038 36.2375 58.0789 36.8102 57.6698 36.8102ZM33.6152 31.7784L30.6698 15.7011C30.5061 15.0466 31.0789 14.4739 32.388 13.983C33.6971 13.4102 35.2107 12.9193 36.9289 12.5102C38.6471 12.1011 40.1607 11.8557 41.4698 11.7739C42.7789 11.6921 43.3516 11.8557 43.188 12.2648L34.9652 31.7784C34.8834 32.0239 34.638 32.1466 34.2289 32.1466C33.9016 32.1466 33.6971 32.0239 33.6152 31.7784Z" fill="#032353"/>
</svg>
