<svg width="289" height="150" viewBox="0 0 289 150" fill="none" xmlns="http://www.w3.org/2000/svg">
<g clip-path="url(#clip0_9615_4878)">
<g clip-path="url(#clip1_9615_4878)">
<path opacity="0.2" d="M271.446 94.3218H16.7923C14.0162 94.3218 11.7656 96.5692 11.7656 99.3415V131.463C11.7656 134.236 14.0162 136.483 16.7923 136.483H271.446C274.222 136.483 276.473 134.236 276.473 131.463V99.3415C276.473 96.5692 274.222 94.3218 271.446 94.3218Z" fill="#3E89FF"/>
<path d="M39.5069 105.056H26.1374C24.1069 105.056 22.4609 106.699 22.4609 108.727V122.077C22.4609 124.105 24.1069 125.748 26.1374 125.748H39.5069C41.5374 125.748 43.1834 124.105 43.1834 122.077V108.727C43.1834 106.699 41.5374 105.056 39.5069 105.056Z" fill="#008EFF"/>
<path fill-rule="evenodd" clip-rule="evenodd" d="M31.6531 110.896V113.567H33.9919V110.896H34.9951V113.567H36.6665V114.568H34.9945V116.237H36.6658V117.238H34.9945V119.908H33.9919V117.238H31.6524V119.908H30.6492V117.238H28.9785V116.237H30.6492V114.568H28.9785V113.567H30.6492V110.896H31.6531ZM31.6531 114.568V116.237H33.9919V114.568H31.6531Z" fill="white"/>
<path d="M57.1221 113.432C57.1221 114.372 56.5659 114.799 55.9346 115.013V115.034C56.7368 115.173 57.4217 115.782 57.4217 116.925C57.4217 118.334 56.4164 119.146 54.8335 119.146H51.5391V111.509H54.6191C56.1805 111.509 57.1221 112.246 57.1221 113.432ZM52.5014 114.703H54.7692C55.8602 114.703 56.1598 114.233 56.1598 113.538C56.1598 112.844 55.753 112.364 54.8758 112.364H52.5014V114.703ZM52.5014 115.557V118.291H54.9294C56.1591 118.291 56.4587 117.64 56.4587 116.924C56.4587 116.102 55.9453 115.557 55.1431 115.557H52.5014ZM61.909 113.699H62.7648V119.146H61.909V118.494H61.8876C61.5987 118.879 61.0211 119.295 60.0909 119.295C59.0957 119.295 58.2614 118.751 58.2614 117.501V113.699H59.1172V117.287C59.1172 117.992 59.4489 118.547 60.3047 118.547C61.267 118.547 61.909 117.938 61.909 117.095V113.699ZM64.479 112.642C64.2438 112.642 63.9443 112.46 63.9443 112.129C63.9443 111.798 64.2438 111.616 64.479 111.616C64.725 111.616 65.0138 111.798 65.0138 112.129C65.0138 112.46 64.7257 112.642 64.479 112.642ZM64.0515 113.699H64.9066V119.146H64.0515V113.699ZM66.1176 111.509H66.9734V119.146H66.1176V111.509ZM72.0672 111.509H72.923V119.146H72.0672V118.473H72.0457C71.7254 118.889 71.2114 119.295 70.3348 119.295C68.9657 119.295 67.8754 118.217 67.8754 116.422C67.8754 114.629 68.9657 113.549 70.3348 113.549C71.2114 113.549 71.7254 113.934 72.0457 114.404H72.0672V111.509ZM70.4206 118.547C71.4366 118.547 72.0672 117.704 72.0672 116.422C72.0672 115.14 71.4366 114.297 70.4206 114.297C69.2974 114.297 68.7305 115.354 68.7305 116.422C68.7305 117.49 69.2974 118.547 70.4206 118.547ZM76.9975 113.977H76.0338C76.0338 112.62 76.9218 111.617 78.7506 111.617C80.0125 111.617 81.125 112.353 81.125 113.656C81.125 114.436 80.7396 114.927 79.9911 115.226V115.248C81.0392 115.535 81.3924 116.208 81.3924 117.074C81.3924 118.526 80.355 119.295 78.7721 119.295C76.8896 119.295 75.8415 118.312 75.8415 116.647H76.8038C76.8038 117.715 77.2957 118.44 78.697 118.44C79.9696 118.44 80.43 117.96 80.43 117.074C80.43 115.92 79.585 115.717 78.8686 115.717H78.0778V114.863H78.8264C79.5856 114.863 80.1633 114.511 80.1633 113.656C80.1633 113.058 79.7565 112.47 78.7513 112.47C77.3071 112.47 76.9975 113.251 76.9975 113.977Z" fill="#2A2829"/>
<path d="M126.83 108.866H126.065C125.987 108.462 125.756 108.105 125.42 107.867C125.26 107.752 125.082 107.664 124.892 107.608C124.696 107.55 124.493 107.521 124.288 107.522C123.905 107.522 123.559 107.618 123.248 107.812C122.939 108.004 122.694 108.29 122.51 108.665C122.329 109.041 122.239 109.502 122.239 110.049C122.239 110.596 122.329 111.057 122.51 111.432C122.694 111.808 122.939 112.093 123.248 112.286C123.559 112.479 123.905 112.576 124.288 112.576C124.498 112.576 124.699 112.547 124.892 112.489C125.086 112.432 125.262 112.347 125.42 112.234C125.755 111.994 125.985 111.635 126.065 111.232H126.83C126.779 111.537 126.673 111.831 126.516 112.098C126.363 112.352 126.174 112.57 125.948 112.748C125.719 112.926 125.461 113.063 125.186 113.152C124.896 113.246 124.593 113.293 124.288 113.29C123.748 113.29 123.269 113.159 122.85 112.896C122.43 112.633 122.1 112.26 121.859 111.775C121.619 111.29 121.498 110.715 121.498 110.049C121.498 109.383 121.619 108.808 121.859 108.323C122.1 107.839 122.43 107.464 122.85 107.201C123.269 106.938 123.748 106.807 124.288 106.807C124.607 106.807 124.906 106.853 125.186 106.946C125.467 107.038 125.722 107.173 125.948 107.353C126.174 107.529 126.363 107.745 126.516 108C126.668 108.252 126.773 108.541 126.83 108.866ZM127.968 113.204V108.471H128.672V109.186H128.722C128.808 108.952 128.964 108.762 129.191 108.616C129.419 108.47 129.685 108.394 129.956 108.397C130.01 108.397 130.076 108.398 130.156 108.4C130.237 108.402 130.297 108.405 130.339 108.409V109.149C130.282 109.137 130.226 109.128 130.168 109.121C130.078 109.107 129.986 109.099 129.894 109.1C129.664 109.1 129.458 109.148 129.277 109.244C129.102 109.335 128.955 109.472 128.851 109.639C128.748 109.805 128.697 109.995 128.697 110.209V113.204H127.968ZM133.045 113.303C132.588 113.303 132.194 113.203 131.863 113.001C131.533 112.796 131.268 112.501 131.101 112.151C130.924 111.785 130.835 111.36 130.835 110.875C130.835 110.39 130.924 109.963 131.101 109.592C131.264 109.239 131.523 108.938 131.848 108.724C132.168 108.514 132.543 108.409 132.971 108.409C133.218 108.409 133.462 108.451 133.702 108.532C133.943 108.615 134.162 108.749 134.36 108.933C134.557 109.116 134.714 109.358 134.831 109.661C134.949 109.963 135.008 110.335 135.008 110.776V111.084H131.354V110.455H134.267C134.267 110.189 134.214 109.95 134.106 109.741C134.006 109.536 133.85 109.364 133.656 109.244C133.45 109.12 133.212 109.057 132.971 109.062C132.681 109.062 132.43 109.135 132.218 109.279C132.01 109.418 131.843 109.609 131.733 109.833C131.62 110.061 131.562 110.312 131.564 110.567V110.986C131.564 111.343 131.625 111.646 131.749 111.894C131.874 112.141 132.048 112.329 132.27 112.459C132.493 112.586 132.751 112.65 133.045 112.65C133.236 112.65 133.409 112.623 133.563 112.57C133.72 112.514 133.854 112.432 133.968 112.323C134.084 112.206 134.174 112.065 134.23 111.91L134.933 112.107C134.86 112.346 134.735 112.556 134.56 112.736C134.376 112.921 134.155 113.063 133.912 113.155C133.634 113.257 133.34 113.308 133.045 113.303ZM137.51 113.315C137.228 113.319 136.949 113.261 136.692 113.146C136.456 113.038 136.254 112.866 136.109 112.65C135.965 112.432 135.893 112.169 135.893 111.86C135.893 111.589 135.947 111.37 136.054 111.201C136.161 111.031 136.304 110.897 136.483 110.801C136.662 110.704 136.859 110.632 137.075 110.585C137.294 110.535 137.513 110.497 137.733 110.468C138.021 110.431 138.254 110.403 138.433 110.385C138.614 110.365 138.746 110.331 138.828 110.283C138.913 110.236 138.955 110.153 138.955 110.037V110.012C138.955 109.708 138.871 109.471 138.705 109.303C138.54 109.135 138.29 109.05 137.955 109.05C137.607 109.05 137.334 109.127 137.137 109.278C136.94 109.431 136.8 109.592 136.721 109.765L136.029 109.519C136.152 109.231 136.317 109.007 136.523 108.847C136.731 108.685 136.957 108.572 137.202 108.508C137.439 108.444 137.684 108.41 137.93 108.409C138.082 108.409 138.257 108.428 138.455 108.465C138.654 108.5 138.846 108.573 139.032 108.684C139.219 108.795 139.374 108.962 139.498 109.186C139.621 109.41 139.683 109.71 139.683 110.086V113.204H138.955V112.564H138.917C138.854 112.686 138.77 112.797 138.671 112.893C138.538 113.021 138.382 113.123 138.211 113.192C138.019 113.274 137.786 113.315 137.51 113.315ZM137.621 112.662C137.909 112.662 138.152 112.605 138.35 112.493C138.531 112.395 138.682 112.25 138.789 112.074C138.895 111.898 138.952 111.697 138.955 111.491V110.825C138.923 110.863 138.856 110.896 138.751 110.927C138.633 110.959 138.513 110.984 138.393 111.004C138.161 111.04 137.929 111.071 137.696 111.097C137.515 111.119 137.337 111.16 137.165 111.217C137.002 111.27 136.871 111.351 136.769 111.46C136.671 111.567 136.621 111.713 136.621 111.898C136.621 112.15 136.715 112.341 136.902 112.471C137.092 112.598 137.331 112.662 137.621 112.662ZM143.074 108.471V109.087H140.617V108.472H143.074V108.471ZM141.333 107.337H142.061V111.848C142.061 112.054 142.091 112.208 142.151 112.31C142.203 112.403 142.286 112.475 142.385 112.514C142.482 112.547 142.584 112.563 142.691 112.563C142.771 112.563 142.837 112.559 142.889 112.551L143.012 112.526L143.16 113.179C143.092 113.203 143.023 113.221 142.953 113.235C142.842 113.258 142.73 113.268 142.617 113.266C142.411 113.266 142.209 113.221 142.012 113.133C141.816 113.045 141.648 112.905 141.524 112.73C141.397 112.549 141.333 112.321 141.333 112.046V107.337ZM146.105 113.303C145.649 113.303 145.255 113.203 144.923 113.001C144.593 112.796 144.329 112.501 144.161 112.151C143.984 111.785 143.896 111.36 143.896 110.875C143.896 110.39 143.984 109.963 144.161 109.592C144.324 109.239 144.583 108.939 144.908 108.724C145.229 108.514 145.603 108.409 146.032 108.409C146.278 108.409 146.522 108.451 146.763 108.532C147.003 108.615 147.223 108.749 147.42 108.933C147.617 109.116 147.775 109.358 147.892 109.661C148.009 109.963 148.068 110.335 148.068 110.776V111.084H144.415V110.455H147.328C147.328 110.189 147.274 109.95 147.167 109.741C147.067 109.536 146.911 109.364 146.717 109.244C146.51 109.12 146.273 109.057 146.032 109.062C145.742 109.062 145.49 109.135 145.278 109.279C145.071 109.418 144.904 109.609 144.794 109.833C144.681 110.061 144.623 110.312 144.624 110.567V110.986C144.624 111.343 144.686 111.646 144.809 111.894C144.935 112.141 145.109 112.329 145.331 112.459C145.553 112.586 145.811 112.65 146.105 112.65C146.297 112.65 146.469 112.623 146.624 112.57C146.78 112.514 146.915 112.432 147.028 112.323C147.145 112.206 147.234 112.065 147.29 111.91L147.994 112.107C147.92 112.346 147.796 112.556 147.621 112.736C147.437 112.921 147.216 113.063 146.973 113.155C146.695 113.257 146.401 113.308 146.105 113.303ZM150.966 113.303C150.571 113.303 150.222 113.203 149.92 113.004C149.617 112.803 149.38 112.519 149.21 112.154C149.039 111.786 148.954 111.351 148.954 110.85C148.954 110.353 149.039 109.922 149.21 109.556C149.38 109.19 149.618 108.908 149.923 108.708C150.228 108.509 150.579 108.409 150.978 108.409C151.287 108.409 151.53 108.461 151.709 108.563C151.891 108.664 152.028 108.779 152.123 108.909C152.22 109.036 152.295 109.141 152.349 109.223H152.41V106.894H153.139V113.204H152.435V112.477H152.349C152.295 112.563 152.219 112.672 152.12 112.804C152.004 112.947 151.86 113.066 151.697 113.152C151.514 113.252 151.27 113.303 150.966 113.303ZM151.065 112.65C151.357 112.65 151.603 112.574 151.805 112.422C152.007 112.268 152.16 112.055 152.265 111.784C152.37 111.51 152.422 111.195 152.422 110.838C152.422 110.484 152.371 110.175 152.268 109.91C152.165 109.643 152.013 109.435 151.811 109.288C151.61 109.138 151.361 109.062 151.065 109.062C150.756 109.062 150.499 109.142 150.293 109.3C150.083 109.465 149.923 109.686 149.833 109.938C149.732 110.205 149.682 110.505 149.682 110.838C149.682 111.174 149.734 111.48 149.836 111.756C149.941 112.029 150.095 112.247 150.299 112.409C150.505 112.57 150.76 112.65 151.065 112.65Z" fill="#7A7A7A"/>
<path d="M185.669 118.656H124.172C122.695 118.656 121.498 119.851 121.498 121.326C121.498 122.801 122.695 123.996 124.172 123.996H185.669C187.146 123.996 188.343 122.801 188.343 121.326C188.343 119.851 187.146 118.656 185.669 118.656Z" fill="#B68500"/>
<path d="M261.302 107.794H225.677C223.134 107.794 221.072 109.853 221.072 112.393V118.411C221.072 120.951 223.134 123.01 225.677 123.01H261.302C263.845 123.01 265.907 120.951 265.907 118.411V112.393C265.907 109.853 263.845 107.794 261.302 107.794Z" fill="#E41D1D"/>
<path d="M230.229 117.789V112.935H231.962C232.338 112.935 232.65 113 232.899 113.129C233.149 113.259 233.336 113.438 233.459 113.667C233.583 113.895 233.644 114.158 233.644 114.457C233.644 114.754 233.582 115.016 233.457 115.241C233.329 115.469 233.134 115.653 232.897 115.765C232.648 115.89 232.335 115.952 231.959 115.952H230.647V115.322H231.893C232.13 115.322 232.323 115.288 232.472 115.22C232.612 115.161 232.728 115.057 232.802 114.924C232.875 114.779 232.911 114.619 232.906 114.457C232.906 114.273 232.871 114.115 232.799 113.98C232.727 113.844 232.611 113.735 232.47 113.673C232.321 113.599 232.125 113.563 231.883 113.563H230.962V117.789H230.229ZM232.628 115.599L233.83 117.789H232.994L231.817 115.599H232.628ZM235.97 117.863C235.629 117.863 235.33 117.785 235.075 117.629C234.819 117.471 234.613 117.243 234.482 116.972C234.341 116.691 234.271 116.362 234.271 115.986C234.271 115.608 234.341 115.278 234.482 114.995C234.613 114.723 234.818 114.494 235.075 114.336C235.33 114.179 235.629 114.101 235.97 114.101C236.312 114.101 236.61 114.179 236.865 114.336C237.12 114.492 237.318 114.712 237.459 114.995C237.6 115.278 237.67 115.608 237.67 115.985C237.67 116.362 237.6 116.691 237.459 116.972C237.318 117.253 237.12 117.472 236.865 117.628C236.61 117.785 236.312 117.863 235.97 117.863ZM235.972 117.267C236.194 117.267 236.378 117.209 236.523 117.093C236.673 116.97 236.785 116.808 236.846 116.626C236.917 116.432 236.953 116.217 236.953 115.983C236.955 115.765 236.919 115.549 236.846 115.343C236.785 115.159 236.673 114.996 236.523 114.872C236.378 114.753 236.194 114.694 235.972 114.694C235.749 114.694 235.564 114.753 235.418 114.872C235.268 114.996 235.155 115.159 235.092 115.343C235.022 115.538 234.987 115.751 234.987 115.983C234.987 116.217 235.022 116.432 235.092 116.626C235.164 116.82 235.271 116.976 235.418 117.093C235.564 117.21 235.749 117.267 235.972 117.267ZM239.172 112.935V117.789H238.462V112.935H239.172ZM240.836 112.935V117.789H240.127V112.935H240.836ZM241.848 117.789V112.935H242.558V114.739H242.601C242.653 114.646 242.713 114.558 242.779 114.476C242.856 114.376 242.964 114.289 243.101 114.215C243.24 114.139 243.421 114.101 243.648 114.101C243.942 114.101 244.205 114.175 244.436 114.324C244.667 114.472 244.848 114.686 244.979 114.967C245.113 115.246 245.179 115.582 245.179 115.976C245.179 116.369 245.113 116.707 244.982 116.988C244.866 117.25 244.678 117.475 244.44 117.635C244.207 117.787 243.933 117.865 243.655 117.861C243.433 117.861 243.252 117.823 243.112 117.749C242.985 117.686 242.874 117.597 242.784 117.488C242.716 117.405 242.655 117.316 242.601 117.223H242.542V117.789H241.848ZM242.544 115.969C242.544 116.225 242.581 116.45 242.656 116.642C242.73 116.835 242.837 116.986 242.978 117.095C243.119 117.202 243.292 117.256 243.496 117.256C243.708 117.256 243.885 117.2 244.028 117.088C244.17 116.974 244.278 116.82 244.351 116.626C244.425 116.432 244.462 116.213 244.462 115.969C244.462 115.728 244.426 115.513 244.353 115.322C244.291 115.143 244.178 114.986 244.03 114.869C243.888 114.759 243.709 114.703 243.496 114.703C243.29 114.703 243.116 114.757 242.973 114.862C242.827 114.977 242.716 115.13 242.653 115.305C242.576 115.518 242.539 115.743 242.544 115.969ZM247.037 117.87C246.806 117.87 246.597 117.827 246.41 117.742C246.23 117.66 246.076 117.53 245.966 117.365C245.858 117.201 245.805 116.999 245.805 116.761C245.805 116.555 245.844 116.386 245.924 116.254C246.003 116.12 246.11 116.016 246.244 115.938C246.379 115.861 246.529 115.803 246.695 115.763C246.861 115.723 247.031 115.693 247.203 115.673L247.735 115.611C247.871 115.594 247.97 115.566 248.032 115.528C248.093 115.49 248.124 115.428 248.124 115.343V115.327C248.124 115.119 248.065 114.959 247.949 114.845C247.833 114.731 247.661 114.675 247.431 114.675C247.192 114.675 247.004 114.728 246.866 114.834C246.73 114.938 246.636 115.054 246.584 115.182L245.917 115.03C245.996 114.809 246.111 114.631 246.263 114.495C246.417 114.357 246.593 114.257 246.793 114.196C246.996 114.132 247.208 114.1 247.421 114.101C247.567 114.101 247.722 114.119 247.884 114.154C248.049 114.187 248.203 114.248 248.345 114.338C248.489 114.428 248.607 114.557 248.699 114.724C248.79 114.89 248.837 115.106 248.837 115.372V117.789H248.143V117.291H248.115C248.062 117.392 247.992 117.484 247.909 117.562C247.806 117.657 247.686 117.732 247.555 117.783C247.389 117.845 247.214 117.874 247.037 117.87V117.87ZM247.191 117.302C247.388 117.302 247.555 117.263 247.695 117.185C247.835 117.107 247.942 117.006 248.015 116.881C248.088 116.759 248.127 116.619 248.126 116.476V116.007C248.083 116.042 248.033 116.066 247.98 116.078C247.899 116.101 247.817 116.119 247.735 116.132L247.467 116.173L247.248 116.201C247.12 116.217 246.993 116.246 246.871 116.289C246.767 116.324 246.674 116.386 246.6 116.467C246.531 116.552 246.495 116.66 246.501 116.77C246.501 116.946 246.566 117.078 246.695 117.168C246.825 117.257 246.99 117.302 247.191 117.302ZM251.318 117.863C250.964 117.863 250.661 117.783 250.406 117.623C250.152 117.461 249.949 117.23 249.822 116.958C249.686 116.674 249.618 116.351 249.618 115.986C249.618 115.616 249.688 115.29 249.827 115.007C249.966 114.722 250.162 114.5 250.416 114.34C250.669 114.181 250.967 114.101 251.31 114.101C251.588 114.101 251.834 114.152 252.051 114.255C252.268 114.356 252.443 114.499 252.575 114.682C252.71 114.865 252.79 115.079 252.815 115.324H252.124C252.087 115.153 251.995 114.999 251.864 114.884C251.729 114.76 251.549 114.698 251.322 114.698C251.125 114.698 250.951 114.751 250.802 114.855C250.655 114.957 250.541 115.105 250.458 115.296C250.372 115.51 250.33 115.739 250.335 115.969C250.335 116.234 250.375 116.464 250.456 116.656C250.537 116.849 250.651 116.998 250.798 117.105C250.946 117.21 251.121 117.263 251.322 117.263C251.457 117.263 251.579 117.239 251.688 117.19C251.799 117.14 251.891 117.067 251.966 116.974C252.041 116.881 252.094 116.769 252.124 116.638H252.815C252.793 116.864 252.714 117.081 252.586 117.268C252.454 117.455 252.277 117.606 252.07 117.704C251.856 117.81 251.606 117.863 251.318 117.863ZM254.227 116.554L254.223 115.689H254.346L255.799 114.148H256.649L254.991 115.903H254.88L254.227 116.554ZM253.575 117.789V112.935H254.284V117.789H253.575ZM255.877 117.789L254.571 116.059L255.06 115.564L256.748 117.789H255.877Z" fill="white"/>
<path d="M261.302 107.794H225.677C223.134 107.794 221.072 109.853 221.072 112.393V118.411C221.072 120.951 223.134 123.01 225.677 123.01H261.302C263.845 123.01 265.907 120.951 265.907 118.411V112.393C265.907 109.853 263.845 107.794 261.302 107.794Z" stroke="#CF1613" stroke-width="0.400463"/>
</g>
</g>
<g clip-path="url(#clip2_9615_4878)">
<g clip-path="url(#clip3_9615_4878)">
<path d="M271.446 12.4087H16.7923C14.0162 12.4087 11.7656 14.6561 11.7656 17.4284V49.5502C11.7656 52.3225 14.0162 54.5698 16.7923 54.5698H271.446C274.222 54.5698 276.473 52.3225 276.473 49.5502V17.4284C276.473 14.6561 274.222 12.4087 271.446 12.4087Z" fill="white"/>
<path d="M39.5069 23.1426H26.1374C24.1069 23.1426 22.4609 24.7862 22.4609 26.8137V40.164C22.4609 42.1916 24.1069 43.8352 26.1374 43.8352H39.5069C41.5374 43.8352 43.1834 42.1916 43.1834 40.164V26.8137C43.1834 24.7862 41.5374 23.1426 39.5069 23.1426Z" fill="#12233D"/>
<path fill-rule="evenodd" clip-rule="evenodd" d="M31.6531 28.9834V31.6535H33.9919V28.9834H34.9951V31.6535H36.6665V32.6546H34.9945V34.3235H36.6658V35.3246H34.9945V37.9947H33.9919V35.3246H31.6524V37.9947H30.6492V35.3246H28.9785V34.3235H30.6492V32.6546H28.9785V31.6541H30.6492V28.9841H31.6524L31.6531 28.9834ZM31.6531 32.6546V34.3235H33.9919V32.6546H31.6531Z" fill="white"/>
<path d="M57.1214 31.5186C57.1214 32.3015 56.726 32.8289 55.9339 33.0992V33.1206C56.3519 33.1823 56.7325 33.3952 57.0035 33.7189C57.2816 34.0394 57.421 34.4704 57.421 35.0111C57.421 35.709 57.1891 36.2538 56.7254 36.6452C56.2623 37.0367 55.631 37.2328 54.8322 37.2328H51.5391V29.5967H54.6191C55.3965 29.5967 56.0063 29.7707 56.4486 30.12C56.8976 30.4613 57.1214 30.9277 57.1214 31.5186ZM54.7685 32.79C55.2819 32.79 55.6417 32.6897 55.8488 32.4909C56.0552 32.2915 56.1584 32.0024 56.1584 31.6257C56.1584 31.2623 56.0512 30.9779 55.8381 30.7711C55.6236 30.5576 55.3033 30.4506 54.8751 30.4506H52.5007V32.7894L54.7685 32.79ZM52.5007 36.3782H54.9287C55.9487 36.3782 56.458 35.9225 56.458 35.0111C56.458 34.5982 56.3374 34.2669 56.0948 34.018C55.8595 33.7684 55.5419 33.6439 55.1431 33.6439H52.5007V36.3782ZM62.7641 31.7856V37.2328H61.9083V36.581H61.8869C61.7153 36.8085 61.4801 37.0012 61.1806 37.1578C60.881 37.3077 60.5171 37.382 60.0902 37.382C59.5548 37.382 59.1165 37.2328 58.7747 36.9337C58.4323 36.6272 58.2607 36.1788 58.2607 35.5879V31.7856H59.1165V35.3744C59.1165 35.7519 59.213 36.0577 59.4053 36.2926C59.5977 36.5201 59.8972 36.6345 60.3033 36.6345C60.7818 36.6345 61.1665 36.4994 61.4587 36.229C61.7582 35.958 61.9077 35.6093 61.9077 35.1817V31.7856H62.7641ZM64.4784 30.7283C64.3445 30.7264 64.2156 30.6773 64.1145 30.5898C64.0587 30.5451 64.0141 30.488 63.9845 30.423C63.9548 30.3581 63.9408 30.287 63.9436 30.2157C63.9436 30.0591 64.0006 29.9346 64.1145 29.8423C64.2155 29.7544 64.3444 29.7051 64.4784 29.7031C64.6127 29.7029 64.7424 29.7525 64.8423 29.8423C64.9562 29.9346 65.0132 30.0591 65.0132 30.2157C65.0132 30.3723 64.9562 30.4967 64.8423 30.5898C64.7424 30.6795 64.6127 30.7289 64.4784 30.7283ZM64.9059 31.7856V37.2328H64.0508V31.7856H64.9059ZM66.9727 29.5967V37.2321H66.1169V29.5967H66.9727ZM72.9223 29.5967V37.2321H72.0665V36.5596H72.0451C71.6249 37.1083 71.0539 37.3827 70.3342 37.3827C69.8932 37.3867 69.4598 37.2683 69.0823 37.0407C68.7117 36.8052 68.4162 36.4706 68.195 36.0369C67.9806 35.602 67.874 35.0934 67.874 34.5092C67.874 33.9257 67.9813 33.4164 68.195 32.9821C68.4162 32.5471 68.7117 32.2166 69.083 31.989C69.4579 31.7548 69.892 31.6324 70.3342 31.6364C71.0827 31.6364 71.653 31.9214 72.0451 32.4909H72.0665V29.5967H72.9223ZM70.42 36.6345C70.9259 36.6345 71.3247 36.4425 71.6175 36.0577C71.9171 35.6662 72.0665 35.1503 72.0665 34.5092C72.0665 33.8681 71.9171 33.3555 71.6175 32.9714C71.3253 32.5799 70.9259 32.3838 70.4193 32.3838C70.0634 32.3838 69.7565 32.4836 69.4998 32.683C69.2432 32.8824 69.0508 33.1461 68.9222 33.4733C68.7921 33.8031 68.7268 34.1548 68.7298 34.5092C68.7298 34.8792 68.7942 35.2286 68.9222 35.5558C69.0508 35.8763 69.2432 36.136 69.4998 36.3354C69.7565 36.5348 70.0628 36.6345 70.42 36.6345ZM78.5154 29.853V37.2328H77.5531V31.7113C77.3453 31.9034 77.1356 32.0245 76.9218 32.074C76.7147 32.1168 76.4125 32.1383 76.0124 32.1383V31.4443C76.6189 31.4443 77.0464 31.3125 77.2957 31.0495C77.5524 30.7785 77.7099 30.3796 77.7668 29.853H78.5154Z" fill="#2A2829"/>
<path d="M126.389 26.9534H125.624C125.546 26.55 125.315 26.1923 124.979 25.955C124.819 25.8395 124.64 25.7522 124.451 25.6967C124.255 25.6385 124.051 25.6092 123.846 25.6097C123.464 25.6097 123.117 25.7067 122.806 25.9001C122.497 26.0929 122.252 26.3773 122.069 26.7534C121.888 27.1294 121.797 27.5905 121.797 28.1372C121.797 28.6833 121.888 29.145 122.069 29.5204C122.252 29.8965 122.497 30.1809 122.806 30.3743C123.117 30.5671 123.464 30.6641 123.846 30.6641C124.056 30.6641 124.258 30.6353 124.451 30.5771C124.645 30.5202 124.82 30.4346 124.979 30.3221C125.313 30.0819 125.544 29.7238 125.624 29.3204H126.389C126.338 29.6258 126.231 29.9193 126.074 30.1863C125.777 30.6899 125.303 31.0654 124.744 31.2403C124.455 31.3342 124.151 31.381 123.846 31.3788C123.307 31.3788 122.828 31.2469 122.408 30.984C121.989 30.7216 121.658 30.3476 121.418 29.8624C121.177 29.3779 121.057 28.8024 121.057 28.1372C121.057 27.4714 121.177 26.8966 121.418 26.4114C121.658 25.9269 121.989 25.5528 122.408 25.2898C122.828 25.0268 123.307 24.895 123.846 24.895C124.165 24.895 124.464 24.9419 124.744 25.0342C125.026 25.1266 125.28 25.2617 125.506 25.4404C125.733 25.6171 125.922 25.8332 126.074 26.0875C126.227 26.3405 126.331 26.6296 126.389 26.9534ZM127.527 31.2925V26.5593H128.231V27.274H128.28C128.367 27.0398 128.523 26.8497 128.749 26.7038C128.977 26.5576 129.244 26.4817 129.515 26.4857C129.568 26.4857 129.635 26.4863 129.715 26.4884C129.795 26.4904 129.856 26.4937 129.897 26.4977V27.2372C129.841 27.2258 129.784 27.2166 129.727 27.2097C129.636 27.1948 129.545 27.1875 129.453 27.1877C129.222 27.1877 129.017 27.2365 128.836 27.3329C128.661 27.4238 128.514 27.5602 128.41 27.7277C128.307 27.8937 128.255 28.0837 128.255 28.2972V31.2925H127.527ZM132.603 31.3908C132.147 31.3908 131.753 31.2904 131.421 31.0897C131.091 30.8847 130.826 30.5893 130.659 30.2385C130.482 29.8731 130.394 29.4475 130.394 28.963C130.394 28.4779 130.482 28.0509 130.659 27.6808C130.822 27.3277 131.081 27.0269 131.406 26.8122C131.727 26.6028 132.101 26.4977 132.53 26.4977C132.776 26.4977 133.02 26.5385 133.261 26.6209C133.501 26.7032 133.721 26.8363 133.918 27.0217C134.115 27.2044 134.273 27.4466 134.39 27.7484C134.507 28.0509 134.566 28.4223 134.566 28.864V29.1718H130.913V28.5441H133.826C133.826 28.2764 133.772 28.0382 133.665 27.8287C133.565 27.6242 133.409 27.4523 133.215 27.3329C133.008 27.2081 132.771 27.1449 132.53 27.1509C132.239 27.1509 131.988 27.2231 131.776 27.367C131.569 27.506 131.402 27.6971 131.292 27.9211C131.179 28.149 131.121 28.4002 131.122 28.6545V29.0741C131.122 29.4314 131.184 29.7339 131.307 29.9829C131.433 30.2291 131.607 30.4178 131.829 30.547C132.051 30.6741 132.309 30.7377 132.603 30.7377C132.795 30.7377 132.967 30.7109 133.122 30.6574C133.278 30.6025 133.413 30.5202 133.526 30.4111C133.643 30.2945 133.732 30.1535 133.788 29.9982L134.492 30.1957C134.419 30.432 134.291 30.6477 134.119 30.8247C133.935 31.0088 133.714 31.1514 133.471 31.2429C133.193 31.3451 132.899 31.3952 132.603 31.3908ZM137.069 31.4035C136.768 31.4035 136.496 31.3467 136.251 31.2342C136.014 31.1259 135.812 30.954 135.668 30.7377C135.524 30.5202 135.452 30.2572 135.452 29.9487C135.452 29.6777 135.505 29.4582 135.612 29.2896C135.718 29.1206 135.865 28.9824 136.041 28.8887C136.22 28.7924 136.418 28.7201 136.634 28.6733C136.851 28.6237 137.071 28.5849 137.291 28.5561C137.579 28.5193 137.812 28.4912 137.991 28.4732C138.172 28.4524 138.304 28.4183 138.387 28.3715C138.471 28.3239 138.513 28.2416 138.513 28.1245V28.0998C138.513 27.7959 138.43 27.5597 138.263 27.3911C138.099 27.2231 137.849 27.1388 137.513 27.1388C137.166 27.1388 136.893 27.2144 136.695 27.3663C136.498 27.5189 136.359 27.6808 136.278 27.8535L135.588 27.6072C135.711 27.3195 135.876 27.0953 136.081 26.9354C136.289 26.7728 136.516 26.6597 136.76 26.5961C136.998 26.5317 137.243 26.4987 137.489 26.4977C137.641 26.4977 137.816 26.5158 138.013 26.5533C138.213 26.5881 138.405 26.661 138.591 26.7721C138.777 26.8832 138.933 27.0505 139.056 27.274C139.18 27.4982 139.241 27.798 139.241 28.174V31.2925H138.513V30.6514H138.476C138.412 30.7739 138.329 30.8853 138.229 30.9813C138.097 31.1097 137.941 31.2113 137.77 31.2804C137.578 31.3621 137.345 31.4035 137.069 31.4035ZM137.18 30.7504C137.468 30.7504 137.711 30.6935 137.908 30.5804C138.089 30.4827 138.241 30.3383 138.347 30.1623C138.454 29.9862 138.511 29.7849 138.513 29.5793V28.9135C138.482 28.9503 138.414 28.9844 138.309 29.0152C138.191 29.0472 138.072 29.0729 137.951 29.0922C137.72 29.1281 137.487 29.1589 137.254 29.1845C137.074 29.2072 136.896 29.2475 136.723 29.305C136.561 29.3585 136.429 29.4395 136.328 29.5486C136.23 29.6556 136.18 29.8008 136.18 29.9862C136.18 30.2385 136.274 30.4299 136.461 30.559C136.65 30.6862 136.89 30.7504 137.18 30.7504ZM142.632 26.5593V27.1756H140.175V26.5593H142.632ZM140.892 25.425H141.62V29.9367C141.62 30.1421 141.65 30.296 141.709 30.3984C141.762 30.4913 141.845 30.5633 141.944 30.6025C142.04 30.6353 142.142 30.6514 142.25 30.6514C142.329 30.6514 142.396 30.6474 142.447 30.6393L142.571 30.6146L142.719 31.2677C142.651 31.2911 142.582 31.3097 142.512 31.3232C142.401 31.3459 142.288 31.3563 142.175 31.354C141.969 31.354 141.768 31.3099 141.571 31.2215C141.375 31.1331 141.206 30.9937 141.083 30.818C140.955 30.6373 140.892 30.4091 140.892 30.1341V25.4243V25.425ZM145.664 31.3908C145.207 31.3908 144.814 31.2904 144.482 31.0897C144.151 30.8847 143.887 30.5893 143.72 30.2385C143.543 29.8731 143.454 29.4475 143.454 28.963C143.454 28.4779 143.543 28.0509 143.72 27.6808C143.883 27.3275 144.141 27.0267 144.466 26.8122C144.787 26.6028 145.162 26.4977 145.59 26.4977C145.837 26.4977 146.081 26.5385 146.321 26.6209C146.562 26.7032 146.781 26.8363 146.979 27.0217C147.176 27.2044 147.333 27.4466 147.451 27.7484C147.568 28.0509 147.627 28.4223 147.627 28.864V29.1718H143.973V28.5441H146.886C146.886 28.2764 146.833 28.0382 146.726 27.8287C146.625 27.6245 146.469 27.4527 146.275 27.3329C146.069 27.2081 145.831 27.1449 145.59 27.1509C145.3 27.1509 145.049 27.2231 144.837 27.367C144.63 27.506 144.462 27.6971 144.352 27.9211C144.239 28.149 144.181 28.4002 144.183 28.6545V29.0741C144.183 29.4314 144.245 29.7339 144.368 29.9829C144.493 30.2291 144.667 30.4178 144.889 30.547C145.112 30.6741 145.37 30.7377 145.664 30.7377C145.855 30.7377 146.028 30.7109 146.183 30.6574C146.339 30.6025 146.474 30.5202 146.587 30.4111C146.704 30.2945 146.793 30.1535 146.849 29.9982L147.552 30.1957C147.48 30.432 147.352 30.6477 147.179 30.8247C146.996 31.0088 146.775 31.1514 146.531 31.2429C146.254 31.3451 145.96 31.3952 145.664 31.3908ZM150.525 31.3908C150.129 31.3908 149.781 31.2911 149.478 31.0924C149.176 30.8909 148.939 30.6072 148.768 30.2418C148.598 29.8738 148.512 29.4395 148.512 28.9383C148.512 28.441 148.598 28.0094 148.768 27.644C148.939 27.278 149.177 26.9956 149.481 26.7969C149.786 26.5974 150.137 26.4977 150.537 26.4977C150.846 26.4977 151.089 26.5493 151.268 26.6516C151.449 26.752 151.587 26.8671 151.681 26.9969C151.778 27.1241 151.854 27.2291 151.907 27.3115H151.969V24.9813H152.697V31.2925H151.994V30.565H151.907C151.854 30.652 151.777 30.7604 151.679 30.8916C151.563 31.035 151.419 31.1534 151.256 31.2396C151.073 31.3406 150.829 31.3908 150.525 31.3908ZM150.623 30.7377C150.915 30.7377 151.162 30.6621 151.364 30.5102C151.565 30.3563 151.719 30.1428 151.823 29.8718C151.929 29.5987 151.981 29.2829 151.981 28.9255C151.981 28.5729 151.929 28.263 151.827 27.998C151.724 27.731 151.571 27.5236 151.37 27.3757C151.168 27.2258 150.919 27.1509 150.623 27.1509C150.314 27.1509 150.058 27.2298 149.852 27.3884C149.641 27.5535 149.482 27.7746 149.392 28.0261C149.287 28.3145 149.236 28.6195 149.241 28.9262C149.241 29.2628 149.292 29.5686 149.395 29.8443C149.5 30.1174 149.654 30.3348 149.858 30.4975C150.064 30.6581 150.319 30.7377 150.623 30.7377Z" fill="#414F64"/>
<path d="M175.201 36.7437H123.73C122.254 36.7437 121.057 37.9391 121.057 39.4138C121.057 40.8884 122.254 42.0839 123.73 42.0839H175.201C176.678 42.0839 177.875 40.8884 177.875 39.4138C177.875 37.9391 176.678 36.7437 175.201 36.7437Z" fill="#DBDBD8"/>
<path d="M261.305 26.0132H224.793C222.249 26.0132 220.188 28.0721 220.188 30.6119V36.3678C220.188 38.9076 222.249 40.9665 224.793 40.9665H261.305C263.849 40.9665 265.91 38.9076 265.91 36.3678V30.6119C265.91 28.0721 263.849 26.0132 261.305 26.0132Z" fill="#0671E0"/>
<path d="M233.869 35.5674H232.295V30.7124H233.919C234.395 30.7124 234.804 30.8101 235.146 31.0042C235.486 31.1953 235.76 31.4854 235.932 31.836C236.115 32.1967 236.207 32.629 236.207 33.1329C236.207 33.6388 236.115 34.0731 235.929 34.4364C235.746 34.7998 235.48 35.0795 235.132 35.2756C234.784 35.4697 234.363 35.5674 233.869 35.5674ZM233.029 34.9269H233.829C234.199 34.9269 234.506 34.8574 234.752 34.7188C234.997 34.5783 235.181 34.3749 235.303 34.1099C235.425 33.8422 235.486 33.517 235.486 33.1329C235.486 32.7514 235.425 32.4289 235.303 32.1632C235.193 31.9092 235.004 31.6973 234.764 31.5589C234.525 31.4211 234.228 31.3528 233.874 31.3528H233.029V34.9269ZM238.634 35.6403C238.275 35.6403 237.965 35.564 237.706 35.4108C237.447 35.2557 237.24 35.0294 237.107 34.759C236.968 34.4779 236.898 34.148 236.898 33.7706C236.898 33.3972 236.968 33.0686 237.107 32.7842C237.248 32.4998 237.444 32.2776 237.696 32.1184C237.949 31.9584 238.245 31.8788 238.584 31.8788C238.789 31.8788 238.989 31.9123 239.182 31.9805C239.375 32.0488 239.549 32.1552 239.702 32.3011C239.856 32.4463 239.976 32.635 240.065 32.8672C240.154 33.0981 240.198 33.3784 240.198 33.709V33.96H237.3V33.4293H239.502C239.506 33.2574 239.467 33.0872 239.388 32.9341C239.314 32.7877 239.199 32.6657 239.057 32.5825C238.915 32.4992 238.753 32.4582 238.588 32.4643C238.389 32.4643 238.215 32.5132 238.066 32.6116C237.921 32.7059 237.803 32.8365 237.724 32.9903C237.645 33.1468 237.604 33.3201 237.606 33.4956V33.9104C237.606 34.1534 237.649 34.3608 237.734 34.5315C237.821 34.7021 237.942 34.8326 238.097 34.9223C238.253 35.0106 238.434 35.0554 238.641 35.0554C238.766 35.0567 238.89 35.0375 239.009 34.9986C239.117 34.9621 239.216 34.9016 239.298 34.8217C239.379 34.7417 239.442 34.6443 239.481 34.5368L240.153 34.6573C240.101 34.8513 240.002 35.0295 239.864 35.1759C239.726 35.3231 239.553 35.4375 239.344 35.5198C239.117 35.6036 238.876 35.6445 238.634 35.6403ZM240.985 36.9325V31.9263H241.679V32.5165H241.738C241.79 32.4242 241.85 32.3362 241.916 32.2535C241.993 32.1532 242.101 32.0668 242.239 31.9926C242.377 31.9169 242.559 31.8788 242.785 31.8788C243.079 31.8788 243.342 31.9531 243.573 32.1016C243.804 32.2502 243.985 32.4643 244.116 32.7441C244.25 33.0238 244.316 33.3597 244.316 33.7539C244.316 34.1473 244.25 34.4846 244.119 34.7657C244.003 35.0277 243.815 35.2519 243.578 35.4128C243.344 35.5643 243.071 35.6428 242.792 35.6383C242.57 35.6383 242.389 35.6015 242.249 35.5272C242.123 35.4636 242.011 35.3748 241.921 35.2662C241.853 35.1827 241.792 35.0939 241.738 35.0006H241.695V36.9325H240.985ZM241.681 33.7472C241.681 34.0028 241.719 34.227 241.793 34.4197C241.867 34.6124 241.975 34.7637 242.115 34.8727C242.256 34.9798 242.429 35.0333 242.633 35.0333C242.845 35.0333 243.022 34.9778 243.165 34.8661C243.307 34.7523 243.415 34.5977 243.488 34.4036C243.562 34.2089 243.599 33.9901 243.599 33.7465C243.599 33.5063 243.563 33.2908 243.49 33.0994C243.428 32.9209 243.316 32.7639 243.167 32.647C243.025 32.5359 242.846 32.4811 242.633 32.4811C242.428 32.4811 242.253 32.5339 242.111 32.6397C241.964 32.7541 241.853 32.908 241.79 33.0833C241.714 33.2958 241.676 33.5213 241.681 33.7472ZM245.821 30.7124V35.5674H245.112V30.7124H245.821ZM248.312 35.6403C247.97 35.6403 247.672 35.5627 247.417 35.4061C247.161 35.2479 246.955 35.0202 246.823 34.7496C246.682 34.4686 246.612 34.1393 246.612 33.7632C246.612 33.3858 246.682 33.0552 246.823 32.7728C246.965 32.4898 247.162 32.2696 247.417 32.1137C247.672 31.9571 247.97 31.8788 248.312 31.8788C248.653 31.8788 248.952 31.9571 249.207 32.113C249.462 32.2703 249.659 32.4898 249.8 32.7722C249.941 33.0552 250.012 33.3858 250.012 33.7632C250.012 34.1393 249.941 34.4679 249.8 34.7496C249.659 35.0307 249.462 35.2495 249.207 35.4054C248.952 35.5627 248.653 35.6403 248.312 35.6403ZM248.314 35.0454C248.535 35.0454 248.719 34.9872 248.865 34.8701C249.011 34.753 249.118 34.5977 249.187 34.4036C249.259 34.2089 249.295 33.9948 249.295 33.7612C249.297 33.5431 249.261 33.3262 249.187 33.1208C249.126 32.9367 249.014 32.7733 248.865 32.649C248.719 32.5306 248.535 32.4717 248.314 32.4717C248.091 32.4717 247.906 32.5306 247.759 32.649C247.609 32.7735 247.497 32.9367 247.434 33.1208C247.362 33.3267 247.327 33.5433 247.329 33.7612C247.329 33.9948 247.364 34.2089 247.434 34.4036C247.505 34.5977 247.613 34.7536 247.759 34.8701C247.906 34.9872 248.091 35.0454 248.314 35.0454ZM251.128 36.9325C250.964 36.9334 250.8 36.907 250.644 36.8542L250.815 36.2734C250.945 36.3082 251.061 36.3235 251.162 36.3189C251.262 36.3145 251.357 36.2741 251.43 36.2051C251.509 36.1335 251.579 36.0177 251.639 35.8564L251.727 35.6149L250.392 31.9263H251.152L252.075 34.7516H252.113L253.037 31.9263H253.799L252.296 36.0532C252.235 36.2274 252.145 36.39 252.03 36.5343C251.923 36.6668 251.794 36.7665 251.646 36.8328C251.497 36.8997 251.325 36.9325 251.128 36.9325Z" fill="white"/>
</g>
</g>
<g clip-path="url(#clip4_9615_4878)">
<g clip-path="url(#clip5_9615_4878)">
<path opacity="0.5" d="M279.842 51.9663H8.57153C5.61419 51.9663 3.2168 54.3687 3.2168 57.3322V91.6695C3.2168 94.633 5.61419 97.0354 8.57153 97.0354H279.842C282.8 97.0354 285.197 94.633 285.197 91.6695V57.3322C285.197 54.3687 282.8 51.9663 279.842 51.9663Z" fill="#DFEDFF"/>
<path d="M32.7693 63.4414H18.5276C16.3647 63.4414 14.6113 65.1984 14.6113 67.3659V81.6373C14.6113 83.8047 16.3647 85.5618 18.5276 85.5618H32.7693C34.9322 85.5618 36.6856 83.8047 36.6856 81.6373V67.3659C36.6856 65.1984 34.9322 63.4414 32.7693 63.4414Z" fill="#97A339"/>
<path fill-rule="evenodd" clip-rule="evenodd" d="M24.3998 69.6851V72.5391H26.8912V69.6851H27.9599V72.5391H29.7403V73.6092H27.9592V75.3932H29.7396V76.4633H27.9592V79.3173H26.8912V76.4633H24.3991V79.3173H23.3305V76.4633H21.5508V75.3932H23.3305V73.6092H21.5508V72.5391H23.3305V69.6851H24.3998ZM24.3998 73.6092V75.3932H26.8912V73.6092H24.3998Z" fill="white"/>
<path d="M51.5305 72.3944C51.5305 73.2313 51.1093 73.795 50.2655 74.084V74.1069C50.7107 74.1728 51.1162 74.4004 51.4049 74.7463C51.7011 75.089 51.8496 75.5489 51.8496 76.1269C51.8496 76.8736 51.6026 77.4559 51.1086 77.8744C50.6153 78.2928 49.9429 78.5024 49.0919 78.5024H45.584V70.3394H48.8649C49.693 70.3394 50.3426 70.526 50.8138 70.8987C51.2921 71.2642 51.5305 71.7628 51.5305 72.3944ZM49.0241 73.7535C49.5709 73.7535 49.9543 73.6462 50.1749 73.433C50.3947 73.2206 50.5047 72.9123 50.5047 72.5089C50.5047 72.1205 50.3905 71.8157 50.1635 71.5954C49.935 71.3665 49.5938 71.2528 49.1376 71.2528H46.6084V73.7528L49.0241 73.7535ZM46.6084 77.5889H49.1947C50.2812 77.5889 50.8238 77.1018 50.8238 76.1276C50.8238 75.6862 50.6953 75.3322 50.4369 75.0661C50.1863 74.7993 49.8479 74.6662 49.4232 74.6662H46.6084V77.5889ZM57.5413 72.6798V78.5024H56.6297V77.805H56.6068C56.4241 78.0482 56.1735 78.2542 55.8544 78.4216C55.5353 78.5811 55.1477 78.6612 54.6929 78.6612C54.1226 78.6612 53.6557 78.501 53.2916 78.1819C52.9268 77.8543 52.7441 77.3751 52.7441 76.7435V72.6791H53.6557V76.5153C53.6557 76.918 53.7585 77.2449 53.9634 77.4967C54.1683 77.7399 54.4874 77.8615 54.92 77.8615C55.4297 77.8615 55.8394 77.7177 56.1507 77.428C56.4698 77.139 56.629 76.7664 56.629 76.3093V72.6791L57.5413 72.6798ZM59.3674 71.5496C59.2248 71.5476 59.0875 71.4952 58.9797 71.4016C58.9203 71.3538 58.8729 71.2928 58.8413 71.2233C58.8097 71.1539 58.7948 71.078 58.7977 71.0017C58.7977 70.8343 58.8584 70.7013 58.9797 70.6019C59.0875 70.5083 59.2248 70.4558 59.3674 70.4538C59.5116 70.4538 59.6408 70.5039 59.755 70.6019C59.8763 70.7013 59.937 70.8343 59.937 71.0017C59.937 71.1691 59.8763 71.3022 59.755 71.4016C59.6486 71.4975 59.5104 71.5503 59.3674 71.5496ZM59.8228 72.6798V78.5024H58.9119V72.6798H59.8228ZM62.0244 70.3394V78.5024H61.1128V70.3394H62.0244ZM68.3621 70.3394V78.5024H67.4505V77.7828H67.4276C66.9801 78.3693 66.3718 78.6619 65.6051 78.6619C65.1355 78.6665 64.6738 78.5402 64.2716 78.2971C63.8769 78.0453 63.5621 77.6877 63.3265 77.2234C63.098 76.7592 62.9845 76.2149 62.9845 75.5911C62.9845 74.9666 63.0988 74.423 63.3265 73.9588C63.5621 73.4938 63.8769 73.1405 64.2724 72.8966C64.6718 72.6465 65.1342 72.516 65.6051 72.5203C66.4025 72.5203 67.01 72.8243 67.4276 73.433H67.4505V70.3394H68.3621ZM65.6965 77.8629C66.2355 77.8629 66.6602 77.6569 66.9722 77.2463C67.2913 76.8279 67.4505 76.2757 67.4505 75.5911C67.4505 74.9058 67.2913 74.3579 66.9722 73.9473C66.661 73.5282 66.2355 73.3193 65.6958 73.3193C65.3167 73.3193 64.9898 73.4259 64.7164 73.639C64.443 73.8522 64.2381 74.1333 64.101 74.4831C63.9624 74.8358 63.8929 75.212 63.8961 75.5911C63.8961 75.9867 63.9647 76.3593 64.101 76.7098C64.2381 77.0525 64.443 77.33 64.7164 77.5432C64.9898 77.7563 65.316 77.8629 65.6965 77.8629ZM71.8472 73.3765C71.8472 72.516 72.0871 71.8157 72.5654 71.2757C73.0437 70.7278 73.7504 70.4531 74.6848 70.4531C75.1191 70.4485 75.5483 70.5465 75.9377 70.7392C76.3175 70.9216 76.6216 71.192 76.8493 71.5496C77.077 71.9073 77.1912 72.3293 77.1912 72.8172C77.1912 73.2893 77.0806 73.7041 76.8607 74.0618C76.6484 74.4028 76.374 74.7007 76.0519 74.9402C75.7399 75.1691 75.3266 75.4352 74.8098 75.7392C74.2244 76.0739 73.7768 76.3708 73.4655 76.6297C73.1725 76.8718 72.9615 77.1989 72.8616 77.5661V77.5889H77.077V78.5017H71.6195C71.6195 77.1548 72.4019 76.0246 73.9667 75.1111L74.4221 74.8486C74.8933 74.5825 75.2388 74.3694 75.4594 74.2099C75.6734 74.0648 75.8525 73.8737 75.9834 73.6505C76.1047 73.4295 76.1654 73.1555 76.1654 72.8279C76.1654 72.4252 76.0519 72.0825 75.8242 71.8007C75.5957 71.5117 75.2088 71.3672 74.662 71.3672C74.0159 71.3672 73.5562 71.5496 73.2835 71.9152C73.0101 72.28 72.873 72.7671 72.873 73.3765H71.8472Z" fill="#2A2829"/>
<path d="M125.317 67.5142H124.502C124.419 67.083 124.173 66.7006 123.815 66.447C123.645 66.3233 123.454 66.2297 123.252 66.1702C123.043 66.1082 122.827 66.0771 122.609 66.0779C122.201 66.0779 121.831 66.1816 121.501 66.3876C121.172 66.5944 120.91 66.8984 120.715 67.3004C120.522 67.7024 120.426 68.1945 120.426 68.7789C120.426 69.3633 120.522 69.8561 120.715 70.2581C120.91 70.6601 121.172 70.9641 121.501 71.1709C121.833 71.3774 122.217 71.4846 122.609 71.4799C122.832 71.4799 123.047 71.4491 123.252 71.3876C123.459 71.3261 123.646 71.2352 123.815 71.1144C123.986 70.9913 124.131 70.8411 124.249 70.6637C124.373 70.4756 124.458 70.2652 124.502 70.0443H125.317C125.262 70.3707 125.149 70.6844 124.981 70.9699C124.665 71.5078 124.16 71.909 123.565 72.0957C123.256 72.1964 122.933 72.2467 122.609 72.2445C122.034 72.2445 121.523 72.1036 121.077 71.8225C120.63 71.5414 120.278 71.1422 120.021 70.6237C119.765 70.1058 119.637 69.4906 119.637 68.7789C119.637 68.0679 119.765 67.4527 120.021 66.9348C120.278 66.4162 120.63 66.0164 121.077 65.7353C121.523 65.4542 122.034 65.314 122.609 65.314C122.948 65.314 123.267 65.364 123.565 65.462C123.865 65.5607 124.136 65.7059 124.377 65.8969C124.618 66.0858 124.819 66.3161 124.981 66.5886C125.144 66.859 125.256 67.1673 125.317 67.5142ZM126.529 72.1523V67.0929H127.279V67.8569H127.332C127.424 67.6065 127.59 67.4034 127.831 67.2474C128.074 67.0909 128.358 67.0095 128.646 67.0135C128.703 67.0135 128.774 67.015 128.86 67.0171C128.946 67.0192 129.01 67.0221 129.054 67.0271V67.8175C128.994 67.8051 128.934 67.7951 128.873 67.7875C128.776 67.7718 128.679 67.7641 128.581 67.7646C128.335 67.7646 128.116 67.8161 127.923 67.9191C127.737 68.0163 127.58 68.1621 127.469 68.3411C127.36 68.5192 127.305 68.7224 127.305 68.9506V72.1523H126.529ZM131.937 72.2574C131.451 72.2574 131.031 72.1501 130.677 71.9348C130.326 71.7159 130.044 71.4003 129.866 71.0257C129.677 70.6344 129.583 70.1802 129.583 69.6616C129.583 69.1437 129.677 68.6866 129.866 68.2918C130.039 67.914 130.315 67.5922 130.661 67.3626C131.003 67.1387 131.402 67.0264 131.858 67.0264C132.121 67.0264 132.381 67.0707 132.637 67.1587C132.898 67.2493 133.137 67.3952 133.337 67.5865C133.547 67.7825 133.715 68.0414 133.84 68.364C133.965 68.6866 134.028 69.0843 134.028 69.5564V69.8855H130.136V69.2138H133.239C133.239 68.9284 133.182 68.6737 133.067 68.4499C132.961 68.2312 132.794 68.0474 132.588 67.9198C132.368 67.7864 132.115 67.7189 131.858 67.7252C131.549 67.7252 131.281 67.8018 131.056 67.9556C130.835 68.1043 130.657 68.3089 130.54 68.5486C130.419 68.7921 130.357 69.0607 130.359 69.3325V69.7803C130.359 70.1623 130.425 70.4863 130.556 70.7524C130.69 71.0156 130.875 71.2166 131.111 71.3547C131.348 71.4906 131.623 71.5593 131.937 71.5593C132.141 71.5593 132.324 71.5307 132.489 71.4734C132.65 71.4177 132.797 71.3279 132.92 71.2102C133.044 71.0855 133.139 70.9348 133.199 70.7689L133.948 70.9792C133.87 71.2345 133.737 71.4584 133.551 71.6515C133.355 71.8486 133.12 72.0013 132.86 72.0993C132.565 72.2085 132.252 72.2621 131.937 72.2574ZM136.693 72.2703C136.393 72.2746 136.096 72.2128 135.822 72.0893C135.57 71.9737 135.355 71.7902 135.201 71.5593C135.048 71.3261 134.971 71.045 134.971 70.7159C134.971 70.4262 135.028 70.1909 135.142 70.0114C135.255 69.829 135.408 69.6859 135.599 69.5822C135.789 69.4799 136 69.4033 136.23 69.3526C136.462 69.2996 136.695 69.2581 136.93 69.2274C137.237 69.1873 137.486 69.158 137.676 69.138C137.869 69.1165 138.01 69.08 138.097 69.0292C138.187 68.9792 138.232 68.8912 138.232 68.766V68.7395C138.232 68.4148 138.143 68.1623 137.965 67.982C137.79 67.8018 137.524 67.7117 137.166 67.7117C136.797 67.7117 136.506 67.7932 136.296 67.9556C136.085 68.118 135.937 68.2918 135.852 68.4763L135.116 68.2124C135.247 67.9048 135.422 67.6659 135.642 67.4942C135.863 67.3211 136.104 67.2009 136.365 67.1323C136.618 67.0635 136.879 67.0281 137.141 67.0271C137.303 67.0271 137.489 67.0464 137.699 67.0858C137.912 67.1237 138.117 67.2016 138.314 67.3197C138.514 67.4384 138.679 67.6172 138.811 67.8569C138.942 68.0965 139.008 68.4169 139.008 68.8189V72.1523H138.232V71.467H138.192C138.124 71.598 138.036 71.717 137.93 71.8196C137.788 71.9567 137.622 72.065 137.44 72.1387C137.236 72.2266 136.987 72.2703 136.693 72.2703ZM136.812 71.5721C137.119 71.5721 137.377 71.5121 137.588 71.3912C137.781 71.2866 137.942 71.1321 138.055 70.9438C138.169 70.7555 138.23 70.5402 138.232 70.3204V69.6094C138.199 69.6487 138.127 69.6852 138.015 69.7181C137.889 69.7524 137.762 69.7798 137.633 69.8003C137.387 69.8389 137.139 69.8718 136.891 69.8991C136.699 69.9232 136.509 69.9664 136.326 70.0278C136.152 70.085 136.012 70.1709 135.904 70.2875C135.799 70.4019 135.747 70.5578 135.747 70.7553C135.747 71.0257 135.847 71.2295 136.046 71.3683C136.248 71.5042 136.503 71.5721 136.812 71.5721ZM142.62 67.0929V67.751H140.003V67.0929H142.62ZM140.766 65.8805H141.541V70.7031C141.541 70.9227 141.573 71.0872 141.637 71.1966C141.702 71.3039 141.786 71.3769 141.887 71.4141C141.989 71.4498 142.098 71.467 142.212 71.467C142.297 71.467 142.368 71.4627 142.422 71.4541L142.554 71.4277L142.712 72.1258C142.64 72.1508 142.566 72.1706 142.491 72.1852C142.373 72.2094 142.253 72.2205 142.133 72.2181C141.914 72.2181 141.699 72.1709 141.489 72.0764C141.28 71.9819 141.101 71.8329 140.969 71.6451C140.834 71.452 140.766 71.2081 140.766 70.9134V65.8805ZM145.849 72.2574C145.362 72.2574 144.943 72.1501 144.59 71.9348C144.238 71.7159 143.956 71.4003 143.778 71.0257C143.59 70.6344 143.496 70.1802 143.496 69.6616C143.496 69.1437 143.59 68.6866 143.778 68.2918C143.952 67.9139 144.227 67.592 144.574 67.3626C144.916 67.1387 145.315 67.0264 145.77 67.0264C146.033 67.0264 146.293 67.0707 146.55 67.1587C146.811 67.2493 147.05 67.3952 147.25 67.5865C147.46 67.7825 147.628 68.0414 147.752 68.364C147.877 68.6866 147.94 69.0843 147.94 69.5564V69.8855H144.048V69.2138H147.151C147.151 68.9284 147.094 68.6737 146.98 68.4499C146.873 68.2315 146.707 68.0478 146.5 67.9198C146.28 67.7864 146.027 67.7189 145.77 67.7252C145.462 67.7252 145.194 67.8018 144.968 67.9556C144.747 68.1043 144.569 68.3089 144.452 68.5486C144.332 68.7921 144.27 69.0607 144.272 69.3325V69.7803C144.272 70.1623 144.337 70.4863 144.469 70.7524C144.602 71.0156 144.788 71.2166 145.024 71.3547C145.261 71.4906 145.536 71.5593 145.849 71.5593C146.053 71.5593 146.237 71.5307 146.402 71.4734C146.562 71.4177 146.709 71.3279 146.832 71.2102C146.957 71.0855 147.052 70.9348 147.111 70.7689L147.861 70.9792C147.782 71.2345 147.65 71.4584 147.463 71.6515C147.268 71.8486 147.032 72.0013 146.773 72.0993C146.477 72.2085 146.164 72.2621 145.849 72.2574ZM151.027 72.2574C150.606 72.2574 150.235 72.1508 149.913 71.9377C149.59 71.7231 149.338 71.4198 149.156 71.0292C148.975 70.6358 148.883 70.1709 148.883 69.6358C148.883 69.1044 148.975 68.643 149.156 68.2524C149.338 67.8612 149.591 67.5593 149.915 67.3461C150.24 67.133 150.614 67.0271 151.04 67.0271C151.369 67.0271 151.628 67.0815 151.819 67.1916C152.012 67.2989 152.158 67.422 152.259 67.56C152.363 67.6959 152.443 67.8082 152.5 67.8962H152.565V65.4062H153.341V72.1515H152.592V71.3747H152.5C152.443 71.467 152.361 71.5836 152.256 71.7238C152.133 71.8771 151.979 72.0036 151.806 72.0957C151.611 72.203 151.351 72.2574 151.027 72.2574ZM151.132 71.5593C151.443 71.5593 151.706 71.4777 151.921 71.3161C152.136 71.1508 152.299 70.9234 152.41 70.6337C152.522 70.3418 152.578 70.0042 152.578 69.6222C152.578 69.2446 152.523 68.9141 152.414 68.6308C152.304 68.3454 152.142 68.1237 151.927 67.9656C151.712 67.8054 151.447 67.7252 151.132 67.7252C150.803 67.7252 150.529 67.8097 150.31 67.9785C150.086 68.1551 149.916 68.3917 149.821 68.6609C149.709 68.9689 149.654 69.2946 149.659 69.6222C149.659 69.9827 149.714 70.3096 149.823 70.6036C149.935 70.8962 150.1 71.1287 150.317 71.3025C150.536 71.4742 150.808 71.5593 151.132 71.5593Z" fill="#929AA6"/>
<path d="M167.345 77.9795H122.485C120.912 77.9795 119.637 79.2573 119.637 80.8335C119.637 82.4098 120.912 83.6876 122.485 83.6876H167.345C168.918 83.6876 170.194 82.4098 170.194 80.8335C170.194 79.2573 168.918 77.9795 167.345 77.9795Z" fill="#009C41"/>
<path d="M236.897 67.9019H269.886C272.047 67.9021 273.801 69.6579 273.801 71.8257V77.1772C273.801 79.3451 272.047 81.1019 269.886 81.1021H236.897C234.736 81.102 232.982 79.3452 232.982 77.1772V71.8257C232.983 69.6578 234.736 67.9019 236.897 67.9019Z" stroke="#11AF22" stroke-width="0.714585"/>
<mask id="path-25-inside-1_9615_4878" fill="white">
<path d="M241.266 73.5186H240.639C240.575 73.1869 240.386 72.8928 240.11 72.6981C239.979 72.6029 239.833 72.5308 239.678 72.485C239.517 72.4371 239.35 72.413 239.182 72.4134C238.869 72.4134 238.585 72.4935 238.33 72.6523C238.077 72.8111 237.876 73.045 237.726 73.3541C237.578 73.6631 237.503 74.0422 237.503 74.4914C237.503 74.9413 237.578 75.3204 237.726 75.6287C237.876 75.9384 238.077 76.1724 238.33 76.3311C238.585 76.4899 238.869 76.5693 239.182 76.5693C239.354 76.5693 239.519 76.5457 239.678 76.4978C239.836 76.4513 239.98 76.3812 240.11 76.2882C240.385 76.0911 240.573 75.7967 240.639 75.4649H241.266C241.224 75.7158 241.137 75.957 241.008 76.1766C240.764 76.5907 240.376 76.8995 239.918 77.0436C239.681 77.1207 239.432 77.1591 239.182 77.1573C238.74 77.1573 238.348 77.0493 238.004 76.8333C237.66 76.6166 237.39 76.309 237.192 75.9105C236.995 75.5121 236.896 75.0393 236.896 74.4921C236.896 73.9442 236.995 73.4714 237.192 73.0729C237.39 72.6745 237.66 72.3669 238.004 72.1502C238.348 71.9342 238.74 71.8262 239.182 71.8262C239.444 71.8262 239.689 71.8641 239.918 71.9406C240.149 72.0164 240.357 72.128 240.543 72.2747C240.729 72.4199 240.883 72.5973 241.008 72.8069C241.133 73.0143 241.219 73.2518 241.266 73.5186ZM245.678 71.8977H246.305V75.3326C246.305 75.6874 246.222 76.005 246.055 76.2832C245.886 76.5626 245.644 76.7897 245.354 76.9392C245.052 77.098 244.698 77.1774 244.292 77.1774C243.886 77.1774 243.532 77.0987 243.23 76.9392C242.94 76.7896 242.697 76.5626 242.527 76.2832C242.359 75.9953 242.274 75.6668 242.279 75.3333V71.897H242.907V75.2825C242.907 75.5357 242.962 75.7618 243.074 75.9585C243.185 76.1545 243.343 76.309 243.549 76.4227C243.756 76.5343 244.004 76.5894 244.292 76.5894C244.581 76.5894 244.828 76.5336 245.035 76.4227C245.235 76.3172 245.4 76.1559 245.511 75.9585C245.624 75.7516 245.682 75.5186 245.678 75.2825V71.897V71.8977ZM247.557 77.0865V71.897H249.307C249.712 71.897 250.044 71.9664 250.304 72.1044C250.563 72.2418 250.756 72.4299 250.88 72.6695C251.005 72.9099 251.067 73.1824 251.067 73.4885C251.067 73.794 251.005 74.0651 250.88 74.3018C250.751 74.5431 250.55 74.7381 250.306 74.8598C250.048 74.9928 249.718 75.0593 249.317 75.0593H247.901V74.4914H249.297C249.573 74.4914 249.796 74.4513 249.965 74.3698C250.123 74.3003 250.253 74.179 250.334 74.0257C250.411 73.8755 250.45 73.6967 250.45 73.4885C250.45 73.2811 250.411 73.0987 250.334 72.9435C250.253 72.7851 250.122 72.6584 249.962 72.5837C249.792 72.4978 249.567 72.4549 249.287 72.4549H248.184V77.0865H247.557ZM249.995 74.7546L251.27 77.0865H250.541L249.287 74.7546H249.995ZM252.112 77.0865V71.897H253.862C254.266 71.897 254.598 71.9664 254.858 72.1044C255.118 72.2418 255.31 72.4299 255.435 72.6695C255.559 72.9099 255.622 73.1824 255.622 73.4885C255.622 73.794 255.559 74.0651 255.435 74.3018C255.306 74.5428 255.105 74.7377 254.861 74.8598C254.603 74.9928 254.273 75.0593 253.872 75.0593H252.456V74.4914H253.852C254.129 74.4914 254.351 74.4513 254.519 74.3698C254.69 74.289 254.812 74.1738 254.889 74.0257C254.966 73.8755 255.004 73.6967 255.004 73.4885C255.004 73.2811 254.966 73.0987 254.889 72.9435C254.808 72.7855 254.677 72.6588 254.517 72.5837C254.346 72.4978 254.121 72.4549 253.842 72.4549H252.739V77.0865H252.112ZM254.55 74.7546L255.824 77.0865H255.096L253.842 74.7546H254.55ZM256.667 77.0865V71.897H259.792V72.4549H257.294V74.2074H259.63V74.7654H257.294V76.5286H259.832V77.0865H256.667ZM265.029 71.8977V77.0865H264.422L261.6 73.0121H261.55V77.0865H260.922V71.897H261.529L264.361 75.9814H264.412V71.897H265.029V71.8977ZM266.001 72.4549V71.897H269.885V72.4549H268.256V77.0865H267.629V72.4549H266.001Z"/>
</mask>
<path d="M241.266 73.5186H240.639C240.575 73.1869 240.386 72.8928 240.11 72.6981C239.979 72.6029 239.833 72.5308 239.678 72.485C239.517 72.4371 239.35 72.413 239.182 72.4134C238.869 72.4134 238.585 72.4935 238.33 72.6523C238.077 72.8111 237.876 73.045 237.726 73.3541C237.578 73.6631 237.503 74.0422 237.503 74.4914C237.503 74.9413 237.578 75.3204 237.726 75.6287C237.876 75.9384 238.077 76.1724 238.33 76.3311C238.585 76.4899 238.869 76.5693 239.182 76.5693C239.354 76.5693 239.519 76.5457 239.678 76.4978C239.836 76.4513 239.98 76.3812 240.11 76.2882C240.385 76.0911 240.573 75.7967 240.639 75.4649H241.266C241.224 75.7158 241.137 75.957 241.008 76.1766C240.764 76.5907 240.376 76.8995 239.918 77.0436C239.681 77.1207 239.432 77.1591 239.182 77.1573C238.74 77.1573 238.348 77.0493 238.004 76.8333C237.66 76.6166 237.39 76.309 237.192 75.9105C236.995 75.5121 236.896 75.0393 236.896 74.4921C236.896 73.9442 236.995 73.4714 237.192 73.0729C237.39 72.6745 237.66 72.3669 238.004 72.1502C238.348 71.9342 238.74 71.8262 239.182 71.8262C239.444 71.8262 239.689 71.8641 239.918 71.9406C240.149 72.0164 240.357 72.128 240.543 72.2747C240.729 72.4199 240.883 72.5973 241.008 72.8069C241.133 73.0143 241.219 73.2518 241.266 73.5186ZM245.678 71.8977H246.305V75.3326C246.305 75.6874 246.222 76.005 246.055 76.2832C245.886 76.5626 245.644 76.7897 245.354 76.9392C245.052 77.098 244.698 77.1774 244.292 77.1774C243.886 77.1774 243.532 77.0987 243.23 76.9392C242.94 76.7896 242.697 76.5626 242.527 76.2832C242.359 75.9953 242.274 75.6668 242.279 75.3333V71.897H242.907V75.2825C242.907 75.5357 242.962 75.7618 243.074 75.9585C243.185 76.1545 243.343 76.309 243.549 76.4227C243.756 76.5343 244.004 76.5894 244.292 76.5894C244.581 76.5894 244.828 76.5336 245.035 76.4227C245.235 76.3172 245.4 76.1559 245.511 75.9585C245.624 75.7516 245.682 75.5186 245.678 75.2825V71.897V71.8977ZM247.557 77.0865V71.897H249.307C249.712 71.897 250.044 71.9664 250.304 72.1044C250.563 72.2418 250.756 72.4299 250.88 72.6695C251.005 72.9099 251.067 73.1824 251.067 73.4885C251.067 73.794 251.005 74.0651 250.88 74.3018C250.751 74.5431 250.55 74.7381 250.306 74.8598C250.048 74.9928 249.718 75.0593 249.317 75.0593H247.901V74.4914H249.297C249.573 74.4914 249.796 74.4513 249.965 74.3698C250.123 74.3003 250.253 74.179 250.334 74.0257C250.411 73.8755 250.45 73.6967 250.45 73.4885C250.45 73.2811 250.411 73.0987 250.334 72.9435C250.253 72.7851 250.122 72.6584 249.962 72.5837C249.792 72.4978 249.567 72.4549 249.287 72.4549H248.184V77.0865H247.557ZM249.995 74.7546L251.27 77.0865H250.541L249.287 74.7546H249.995ZM252.112 77.0865V71.897H253.862C254.266 71.897 254.598 71.9664 254.858 72.1044C255.118 72.2418 255.31 72.4299 255.435 72.6695C255.559 72.9099 255.622 73.1824 255.622 73.4885C255.622 73.794 255.559 74.0651 255.435 74.3018C255.306 74.5428 255.105 74.7377 254.861 74.8598C254.603 74.9928 254.273 75.0593 253.872 75.0593H252.456V74.4914H253.852C254.129 74.4914 254.351 74.4513 254.519 74.3698C254.69 74.289 254.812 74.1738 254.889 74.0257C254.966 73.8755 255.004 73.6967 255.004 73.4885C255.004 73.2811 254.966 73.0987 254.889 72.9435C254.808 72.7855 254.677 72.6588 254.517 72.5837C254.346 72.4978 254.121 72.4549 253.842 72.4549H252.739V77.0865H252.112ZM254.55 74.7546L255.824 77.0865H255.096L253.842 74.7546H254.55ZM256.667 77.0865V71.897H259.792V72.4549H257.294V74.2074H259.63V74.7654H257.294V76.5286H259.832V77.0865H256.667ZM265.029 71.8977V77.0865H264.422L261.6 73.0121H261.55V77.0865H260.922V71.897H261.529L264.361 75.9814H264.412V71.897H265.029V71.8977ZM266.001 72.4549V71.897H269.885V72.4549H268.256V77.0865H267.629V72.4549H266.001Z" fill="#928F8B" stroke="#11AF22" stroke-width="1.42917" mask="url(#path-25-inside-1_9615_4878)"/>
<path d="M269.887 67.9009H236.899C234.736 67.9009 232.982 69.6579 232.982 71.8253V77.1769C232.982 79.3444 234.736 81.1014 236.899 81.1014H269.887C272.05 81.1014 273.804 79.3444 273.804 77.1769V71.8253C273.804 69.6579 272.05 67.9009 269.887 67.9009Z" stroke="#11AF22" stroke-width="0.712442"/>
</g>
</g>
<defs>
<clipPath id="clip0_9615_4878">
<rect width="265.376" height="43.4982" fill="white" transform="translate(11.4297 93.3857)"/>
</clipPath>
<clipPath id="clip1_9615_4878">
<rect width="265.376" height="43.4982" fill="white" transform="translate(11.4297 93.3857)"/>
</clipPath>
<clipPath id="clip2_9615_4878">
<rect width="265.376" height="43.4982" fill="white" transform="translate(11.4297 11.8994)"/>
</clipPath>
<clipPath id="clip3_9615_4878">
<rect width="265.376" height="43.4982" fill="white" transform="translate(11.4297 11.8994)"/>
</clipPath>
<clipPath id="clip4_9615_4878">
<rect width="282.692" height="46.4984" fill="white" transform="translate(2.85938 51.5522)"/>
</clipPath>
<clipPath id="clip5_9615_4878">
<rect width="282.692" height="46.4984" fill="white" transform="translate(2.85938 51.5522)"/>
</clipPath>
</defs>
</svg>
