<svg width="145" height="44" viewBox="0 0 145 44" fill="none" xmlns="http://www.w3.org/2000/svg">
<g clip-path="url(#clip0_9798_8568)">
<path fill-rule="evenodd" clip-rule="evenodd" d="M5.05037 19.6429C5.40517 14.4745 8.33287 9.44678 12.1564 6.56287C14.6011 4.71923 17.9279 3.09527 21.599 2.54489C25.5578 1.95145 29.0798 2.43752 32.7421 3.74823L33.0888 3.83967C33.1067 3.84077 33.1439 3.83573 33.1584 3.83585L33.2976 3.80899C24.2137 -1.34551 14.6891 -0.971093 6.7528 5.93233C6.2741 6.34869 5.97942 6.74599 5.6104 7.08447C5.16382 7.49396 4.94671 7.75626 4.56002 8.23241C3.94516 8.98969 3.30314 9.86562 2.76666 10.8293C1.66519 12.8083 0.842794 14.7896 0.383576 17.3217C-0.646607 23.0012 0.483878 27.1503 2.69222 31.9859C3.46803 33.432 4.74745 35.3609 5.75419 36.3564C6.44104 37.0354 6.95086 37.5888 7.66465 38.1713C8.19728 38.6059 9.25319 39.5127 9.89397 39.7926C10.3591 40.4602 14.2384 42.1154 15.3735 42.4982C22.2115 44.8035 29.5396 43.7578 34.8567 39.6696C37.6704 37.5064 40.5887 34.6682 41.5279 29.8451C41.9998 27.4225 41.7956 24.715 40.9713 22.6315C40.2265 20.7493 38.703 18.7035 37.1748 18.0136C37.0565 17.75 35.7728 17.0505 35.365 16.8632C34.2819 16.3657 33.8364 16.5815 33.2667 17.2659C32.3667 18.3471 30.1639 19.1507 29.7203 16.8722C28.346 16.8469 28.0919 16.3676 27.8159 15.1681C26.5223 15.1302 26.2978 14.6553 26.0325 13.609C25.3486 13.3925 24.7848 13.5342 24.5071 12.7422C24.3625 12.3295 24.5916 11.7765 23.5179 11.3285C22.8965 11.0694 22.114 11.1636 21.719 11.5409C21.2099 12.027 21.351 12.5507 21.5405 13.2483C20.7681 12.9714 20.1147 12.7905 19.5478 13.3804C18.9154 14.0385 19.2853 14.6075 19.4802 15.3056C18.7913 14.9454 18.2149 14.6342 17.5451 15.2905C16.9562 15.8673 17.0783 16.4408 17.3273 17.2516C15.1559 16.649 14.4864 18.5645 16.603 20.2595C17.9884 21.369 18.7109 22.4009 20.0122 23.439C21.282 24.4517 23.0734 25.393 24.9258 24.1995C25.8481 23.6056 28.1912 21.4597 29.0462 23.4611C29.2545 24.5586 28.1492 25.5076 27.6079 25.9265L25.2371 27.546C25.3785 29.2574 28.1291 28.3617 29.4363 27.4747C30.3544 26.852 32.065 25.5111 33.4537 25.2779C43.4969 23.5924 23.6737 52.4932 8.2174 31.2237C5.47703 27.1623 4.71063 24.5949 5.05037 19.6429Z" fill="#203955"/>
<path fill-rule="evenodd" clip-rule="evenodd" d="M15.8819 20.2005C14.6326 19.4526 12.6547 21.3186 10.4477 20.119C6.58596 18.0198 12.9465 10.2741 15.6314 8.32034C20.1489 5.03294 25.863 4.49114 31.5306 5.32774C34.29 5.73495 34.729 6.09158 36.7624 6.53467C36.5452 6.13169 35.5121 5.36667 35.131 5.06881L33.2985 3.80829L33.1593 3.83513C33.1448 3.83502 33.1077 3.8401 33.0898 3.83897L32.7431 3.74753C29.0806 2.43682 25.5588 1.95075 21.6 2.54418C17.9289 3.09454 14.6019 4.71851 12.1573 6.56217C8.33383 9.4461 5.40613 14.4738 5.05131 19.6422C4.94632 21.1726 4.93415 24.6554 5.57755 25.7752C6.12459 27.0305 7.73797 27.8738 9.50768 28.0795C11.5421 28.3161 13.3179 27.7758 15.2128 27.6603C16.4877 27.5825 17.1438 28.7696 20.372 28.6997C23.2976 28.6367 27.4136 26.5163 28.6158 24.5429C29.1614 23.6474 28.6734 22.6736 27.4819 22.9371C25.6925 23.3329 24.3448 26.2977 20.9219 24.3426C19.0975 23.3006 18.0239 21.6305 17.5992 21.5021C17.2934 20.9627 16.4353 20.36 15.8819 20.2005Z" fill="#2FC5F4"/>
<path fill-rule="evenodd" clip-rule="evenodd" d="M30.425 16.2216C30.2171 16.9987 30.0269 17.8605 30.8757 18.0306C32.3198 18.3199 33.821 16.4943 33.2252 15.4696C32.8165 14.7664 31.965 15.175 31.2731 15.3076C31.3684 14.5518 31.6897 13.4822 30.7522 13.2903C29.1859 12.9699 27.734 15.165 28.4184 16.1765C28.9072 16.8989 29.741 16.4436 30.425 16.2216ZM26.7438 12.7277C26.5344 13.3303 26.0128 14.4033 26.8943 14.7483C28.4927 15.3736 30.1396 12.814 29.1189 11.9432C28.4275 11.3533 27.5266 12.0425 27.1758 12.2577C27.3359 11.7861 27.9199 10.6621 27.0057 10.3323C25.6789 9.85367 24.1194 11.9308 24.8219 12.8932C25.3767 13.6531 26.4576 12.8848 26.7438 12.7277Z" fill="#2FC5F4"/>
<path d="M60.113 19.5489C58.9957 20.4956 57.4594 21.2714 55.4731 21.2714C52.0903 21.2714 49.7627 18.8973 49.7627 15.685V15.654C49.7627 12.566 52.168 10.0366 55.4576 10.0366C57.4129 10.0366 58.5922 10.5642 59.725 11.5263L58.2199 13.3419C57.3819 12.6436 56.6369 12.2402 55.3801 12.2402C53.6421 12.2402 52.261 13.7764 52.261 15.623V15.654C52.261 17.6403 53.6266 19.0989 55.5508 19.0989C56.4198 19.0989 57.1956 18.8816 57.8009 18.4473V16.8955H55.3956V14.8315H60.113V19.5489ZM69.9229 17.1593C69.9229 17.392 69.9074 17.5316 69.8919 17.7489H64.1038C64.3365 18.8196 65.0813 19.3783 66.1366 19.3783C66.928 19.3783 67.5021 19.13 68.1539 18.5248L69.5039 19.7196C68.7281 20.6818 67.6108 21.2714 66.1056 21.2714C63.6072 21.2714 61.7607 19.5179 61.7607 16.973V16.942C61.7607 14.5678 63.452 12.6126 65.8728 12.6126C68.6504 12.6126 69.9229 14.7695 69.9229 17.1283V17.1593ZM67.6263 16.2748C67.4866 15.2195 66.8659 14.5057 65.8728 14.5057C64.8952 14.5057 64.259 15.204 64.0727 16.2748H67.6263ZM79.3 21.0852H76.9412V16.4455C76.9412 15.3282 76.4137 14.754 75.5136 14.754C74.6136 14.754 74.0394 15.3282 74.0394 16.4455V21.0852H71.6808V12.7677H74.0394V13.947C74.5826 13.2488 75.2809 12.6126 76.4757 12.6126C78.2602 12.6126 79.3 13.7919 79.3 15.7005V21.0852ZM89.1078 17.1593C89.1078 17.392 89.0923 17.5316 89.0768 17.7489H83.2887C83.5214 18.8196 84.2664 19.3783 85.3215 19.3783C86.1129 19.3783 86.6871 19.13 87.3388 18.5248L88.6888 19.7196C87.913 20.6818 86.7957 21.2714 85.2904 21.2714C82.7921 21.2714 80.9456 19.5179 80.9456 16.973V16.942C80.9456 14.5678 82.6369 12.6126 85.0577 12.6126C87.8354 12.6126 89.1078 14.7695 89.1078 17.1283V17.1593ZM86.8112 16.2748C86.6715 15.2195 86.0509 14.5057 85.0577 14.5057C84.0801 14.5057 83.4439 15.204 83.2576 16.2748H86.8112ZM95.8778 15.0799H95.7538C94.1865 15.0799 93.2244 16.0265 93.2244 18.0128V21.0852H90.8657V12.7677H93.2244V14.4437C93.7055 13.2954 94.4813 12.5505 95.8778 12.6126V15.0799ZM104.111 21.0852H101.83V20.1852C101.256 20.8214 100.465 21.2404 99.3162 21.2404C97.7489 21.2404 96.4611 20.3404 96.4611 18.6955V18.6645C96.4611 16.8488 97.8421 16.011 99.8129 16.011C100.651 16.011 101.256 16.1506 101.846 16.3523V16.2127C101.846 15.235 101.24 14.692 100.061 14.692C99.1611 14.692 98.5249 14.8627 97.7644 15.142L97.1748 13.3419C98.0904 12.9384 98.9904 12.6746 100.402 12.6746C102.978 12.6746 104.111 14.0092 104.111 16.2592V21.0852ZM101.877 18.1523V17.7334C101.473 17.5472 100.946 17.423 100.371 17.423C99.3629 17.423 98.7421 17.8265 98.7421 18.5713V18.6024C98.7421 19.2386 99.2697 19.6111 100.03 19.6111C101.132 19.6111 101.877 19.0058 101.877 18.1523ZM110.736 20.7439C110.239 21.0386 109.665 21.2249 108.874 21.2249C107.431 21.2249 106.453 20.6507 106.453 18.7266V14.785H105.46V12.7677H106.453V10.6418H108.812V12.7677H110.767V14.785H108.812V18.3386C108.812 18.8816 109.044 19.1455 109.572 19.1455C110.007 19.1455 110.395 19.0369 110.736 18.8506V20.7439ZM115.035 11.8522H112.552V9.75732H115.035V11.8522ZM114.973 21.0852H112.614V12.7677H114.973V21.0852ZM125.785 16.942C125.785 19.3318 123.861 21.2714 121.269 21.2714C118.693 21.2714 116.785 19.3628 116.785 16.973V16.942C116.785 14.5523 118.709 12.6126 121.3 12.6126C123.876 12.6126 125.785 14.5212 125.785 16.911V16.942ZM123.457 16.973V16.942C123.457 15.7161 122.573 14.6454 121.269 14.6454C119.919 14.6454 119.112 15.685 119.112 16.911V16.942C119.112 18.1679 119.997 19.2386 121.3 19.2386C122.65 19.2386 123.457 18.1989 123.457 16.973ZM135.112 21.0852H132.753V16.4455C132.753 15.3282 132.225 14.754 131.326 14.754C130.426 14.754 129.852 15.3282 129.852 16.4455V21.0852H127.493V12.7677H129.852V13.947C130.394 13.2488 131.094 12.6126 132.288 12.6126C134.073 12.6126 135.112 13.7919 135.112 15.7005V21.0852ZM143.259 18.5558C143.259 20.4024 141.879 21.2404 140.079 21.2404C138.914 21.2404 137.611 20.8524 136.509 19.9834L137.519 18.4316C138.418 19.0834 139.365 19.4248 140.14 19.4248C140.823 19.4248 141.133 19.1766 141.133 18.8041V18.7731C141.133 18.261 140.326 18.0903 139.411 17.811C138.248 17.4696 136.928 16.9265 136.928 15.3127V15.2816C136.928 13.5902 138.294 12.6436 139.97 12.6436C141.026 12.6436 142.174 13.0005 143.073 13.6057L142.174 15.235C141.351 14.754 140.528 14.4592 139.924 14.4592C139.35 14.4592 139.054 14.7075 139.054 15.0333V15.0643C139.054 15.5299 139.846 15.7472 140.745 16.0575C141.91 16.4455 143.259 17.0041 143.259 18.5248V18.5558Z" fill="#203955"/>
<path d="M54.4971 28.9121H50.6392V31.9203H49.8848V25.2356H50.6392V28.2055H54.4971V25.2356H55.2515V31.9203H54.4971V28.9121ZM58.8016 27.5657C58.5088 27.5657 58.2414 27.6008 57.9995 27.6708C57.7638 27.7345 57.5316 27.8204 57.3023 27.9286L57.0827 27.327C57.3565 27.1997 57.6334 27.101 57.9136 27.0309C58.1936 26.9546 58.5151 26.9164 58.878 26.9164C59.5528 26.9164 60.0717 27.0851 60.4345 27.4225C60.7973 27.7535 60.9788 28.2469 60.9788 28.9026V31.9203H60.2722V31.1753C60.1003 31.3982 59.8679 31.5956 59.575 31.7674C59.2886 31.9393 58.9258 32.0253 58.4865 32.0253C58.2572 32.0253 58.0312 31.9934 57.8085 31.9298C57.592 31.8661 57.3946 31.7707 57.2164 31.6434C57.0445 31.5097 56.9045 31.3473 56.7963 31.1563C56.6943 30.9653 56.6434 30.7393 56.6434 30.4783C56.6434 30.2173 56.6943 29.988 56.7963 29.7908C56.8981 29.587 57.0413 29.4183 57.2259 29.2846C57.4169 29.1509 57.6398 29.0491 57.8944 28.9791C58.1554 28.909 58.4419 28.874 58.7538 28.874C59.0721 28.874 59.3491 28.8931 59.5846 28.9313C59.8202 28.9694 60.0494 29.0205 60.2722 29.0841V28.9121C60.2722 28.4665 60.1417 28.1323 59.8807 27.9096C59.626 27.6803 59.2663 27.5657 58.8016 27.5657ZM58.8302 29.4183C58.3654 29.4183 58.009 29.5106 57.7607 29.6952C57.5124 29.8798 57.3882 30.1314 57.3882 30.4497C57.3882 30.6088 57.4201 30.7488 57.4838 30.8698C57.5538 30.9907 57.6461 31.0958 57.7607 31.185C57.8753 31.2676 58.0059 31.3313 58.1522 31.376C58.305 31.4205 58.4641 31.4427 58.6297 31.4427C58.8589 31.4427 59.0721 31.411 59.2695 31.3473C59.4732 31.2773 59.6483 31.185 59.7948 31.0703C59.9475 30.9493 60.0653 30.8094 60.1481 30.6502C60.2371 30.4847 60.2817 30.3032 60.2817 30.1058V29.6284C60.0971 29.5774 59.8838 29.5298 59.6419 29.4851C59.4064 29.4406 59.1358 29.4183 58.8302 29.4183ZM63.2812 29.0936V31.9203H62.5459V26.9833H63.2812V27.8426C63.4468 27.5752 63.6631 27.3492 63.9305 27.1646C64.1979 26.9736 64.5449 26.8782 64.9714 26.8782C65.2706 26.8782 65.5349 26.9259 65.764 27.0214C65.9996 27.1169 66.1969 27.2538 66.3561 27.432C66.5215 27.6039 66.6457 27.8109 66.7285 28.0528C66.8176 28.2947 66.8622 28.5621 66.8622 28.8549V31.9203H66.1269V29.0363C66.1269 28.5779 66.0091 28.2151 65.7736 27.9477C65.538 27.6803 65.2007 27.5466 64.7613 27.5466C64.5513 27.5466 64.3539 27.5849 64.1693 27.6612C63.9911 27.7312 63.835 27.8363 63.7014 27.9764C63.5677 28.1101 63.4626 28.2724 63.3862 28.4634C63.3162 28.6544 63.2812 28.8645 63.2812 29.0936ZM73.1285 31.9203H72.3932V30.9271C72.2914 31.0735 72.1768 31.2136 72.0495 31.3473C71.9286 31.481 71.7916 31.5987 71.6389 31.7006C71.4861 31.8024 71.3142 31.882 71.1232 31.9393C70.9386 31.9966 70.7316 32.0253 70.5025 32.0253C70.2033 32.0253 69.9136 31.9679 69.6335 31.8534C69.3534 31.7388 69.1019 31.5733 68.8792 31.3568C68.6563 31.1339 68.4781 30.8634 68.3444 30.5451C68.2107 30.2268 68.1439 29.8639 68.1439 29.4565C68.1439 29.0491 68.2107 28.6861 68.3444 28.3678C68.4781 28.0495 68.6563 27.7822 68.8792 27.5657C69.1019 27.3429 69.3534 27.1743 69.6335 27.0596C69.9136 26.9386 70.2033 26.8782 70.5025 26.8782C70.7316 26.8782 70.9417 26.9069 71.1327 26.9641C71.3237 27.0214 71.4957 27.0978 71.6484 27.1933C71.8012 27.2888 71.9381 27.4003 72.059 27.5276C72.1863 27.6549 72.2978 27.7885 72.3932 27.9286V24.9492H73.1285V31.9203ZM72.4218 29.447C72.4218 29.1604 72.3709 28.8995 72.2691 28.6639C72.1736 28.4284 72.0399 28.2279 71.868 28.0623C71.7026 27.8968 71.5116 27.7695 71.2951 27.6803C71.0849 27.5849 70.8653 27.5371 70.6362 27.5371C70.3943 27.5371 70.1683 27.5816 69.9582 27.6708C69.748 27.7535 69.5634 27.8777 69.4043 28.0431C69.2515 28.2024 69.1274 28.4028 69.0319 28.6449C68.9428 28.8804 68.8982 29.1478 68.8982 29.447C68.8982 29.7397 68.9428 30.004 69.0319 30.2395C69.1274 30.4751 69.2548 30.6788 69.4138 30.8506C69.5731 31.0162 69.7577 31.1436 69.9677 31.2326C70.1778 31.3218 70.4007 31.3663 70.6362 31.3663C70.8653 31.3663 71.0849 31.3218 71.2951 31.2326C71.5116 31.1372 71.7026 31.0066 71.868 30.8411C72.0399 30.6757 72.1736 30.4751 72.2691 30.2395C72.3709 29.9977 72.4218 29.7334 72.4218 29.447ZM78.494 25.9041H77.6536V25.0924H78.494V25.9041ZM78.4367 31.9203H77.7014V26.9833H78.4367V31.9203ZM80.8784 29.0936V31.9203H80.1431V26.9833H80.8784V27.8426C81.044 27.5752 81.2604 27.3492 81.5278 27.1646C81.7952 26.9736 82.1421 26.8782 82.5686 26.8782C82.8679 26.8782 83.1321 26.9259 83.3613 27.0214C83.5968 27.1169 83.7942 27.2538 83.9533 27.432C84.1189 27.6039 84.243 27.8109 84.3258 28.0528C84.4148 28.2947 84.4595 28.5621 84.4595 28.8549V31.9203H83.7242V29.0363C83.7242 28.5779 83.6063 28.2151 83.3708 27.9477C83.1353 27.6803 82.7979 27.5466 82.3586 27.5466C82.1485 27.5466 81.9511 27.5849 81.7665 27.6612C81.5883 27.7312 81.4323 27.8363 81.2986 27.9764C81.1649 28.1101 81.0599 28.2724 80.9834 28.4634C80.9134 28.6544 80.8784 28.8645 80.8784 29.0936ZM93.6269 28.9121H89.769V31.9203H89.0146V25.2356H89.769V28.2055H93.6269V25.2356H94.3813V31.9203H93.6269V28.9121ZM97.9314 27.5657C97.6386 27.5657 97.3712 27.6008 97.1293 27.6708C96.8938 27.7345 96.6614 27.8204 96.4322 27.9286L96.2125 27.327C96.4863 27.1997 96.7632 27.101 97.0434 27.0309C97.3234 26.9546 97.645 26.9164 98.0078 26.9164C98.6827 26.9164 99.2015 27.0851 99.5644 27.4225C99.9273 27.7535 100.109 28.2469 100.109 28.9026V31.9203H99.402V31.1753C99.2302 31.3982 98.9978 31.5956 98.705 31.7674C98.4184 31.9393 98.0556 32.0253 97.6163 32.0253C97.3871 32.0253 97.1611 31.9934 96.9383 31.9298C96.7218 31.8661 96.5245 31.7707 96.3462 31.6434C96.1744 31.5097 96.0343 31.3473 95.9261 31.1563C95.8242 30.9653 95.7733 30.7393 95.7733 30.4783C95.7733 30.2173 95.8242 29.988 95.9261 29.7908C96.0279 29.587 96.1711 29.4183 96.3559 29.2846C96.5468 29.1509 96.7696 29.0491 97.0242 28.9791C97.2853 28.909 97.5718 28.874 97.8837 28.874C98.2021 28.874 98.479 28.8931 98.7145 28.9313C98.95 28.9694 99.1793 29.0205 99.402 29.0841V28.9121C99.402 28.4665 99.2716 28.1323 99.0105 27.9096C98.7559 27.6803 98.3962 27.5657 97.9314 27.5657ZM97.96 29.4183C97.4954 29.4183 97.1388 29.5106 96.8906 29.6952C96.6423 29.8798 96.5182 30.1314 96.5182 30.4497C96.5182 30.6088 96.55 30.7488 96.6136 30.8698C96.6837 30.9907 96.776 31.0958 96.8906 31.185C97.0051 31.2676 97.1357 31.3313 97.2822 31.376C97.4349 31.4205 97.5941 31.4427 97.7596 31.4427C97.9887 31.4427 98.2021 31.411 98.3994 31.3473C98.603 31.2773 98.7781 31.185 98.9246 31.0703C99.0773 30.9493 99.1951 30.8094 99.2779 30.6502C99.367 30.4847 99.4116 30.3032 99.4116 30.1058V29.6284C99.227 29.5774 99.0137 29.5298 98.7718 29.4851C98.5363 29.4406 98.2657 29.4183 97.96 29.4183ZM102.411 29.0936V31.9203H101.676V26.9833H102.411V27.8426C102.577 27.5752 102.793 27.3492 103.06 27.1646C103.328 26.9736 103.675 26.8782 104.101 26.8782C104.401 26.8782 104.665 26.9259 104.894 27.0214C105.129 27.1169 105.327 27.2538 105.486 27.432C105.652 27.6039 105.776 27.8109 105.858 28.0528C105.947 28.2947 105.992 28.5621 105.992 28.8549V31.9203H105.257V29.0363C105.257 28.5779 105.139 28.2151 104.903 27.9477C104.668 27.6803 104.33 27.5466 103.891 27.5466C103.681 27.5466 103.484 27.5849 103.299 27.6612C103.121 27.7312 102.965 27.8363 102.831 27.9764C102.698 28.1101 102.592 28.2724 102.516 28.4634C102.446 28.6544 102.411 28.8645 102.411 29.0936ZM112.258 31.9203H111.523V30.9271C111.421 31.0735 111.307 31.2136 111.179 31.3473C111.058 31.481 110.922 31.5987 110.769 31.7006C110.616 31.8024 110.444 31.882 110.253 31.9393C110.068 31.9966 109.862 32.0253 109.632 32.0253C109.333 32.0253 109.043 31.9679 108.763 31.8534C108.483 31.7388 108.232 31.5733 108.009 31.3568C107.786 31.1339 107.608 30.8634 107.474 30.5451C107.34 30.2268 107.274 29.8639 107.274 29.4565C107.274 29.0491 107.34 28.6861 107.474 28.3678C107.608 28.0495 107.786 27.7822 108.009 27.5657C108.232 27.3429 108.483 27.1743 108.763 27.0596C109.043 26.9386 109.333 26.8782 109.632 26.8782C109.862 26.8782 110.072 26.9069 110.263 26.9641C110.454 27.0214 110.626 27.0978 110.778 27.1933C110.931 27.2888 111.068 27.4003 111.189 27.5276C111.316 27.6549 111.428 27.7885 111.523 27.9286V24.9492H112.258V31.9203ZM111.552 29.447C111.552 29.1604 111.501 28.8995 111.399 28.6639C111.304 28.4284 111.17 28.2279 110.998 28.0623C110.832 27.8968 110.641 27.7695 110.425 27.6803C110.215 27.5849 109.995 27.5371 109.766 27.5371C109.524 27.5371 109.298 27.5816 109.088 27.6708C108.878 27.7535 108.693 27.8777 108.534 28.0431C108.381 28.2024 108.257 28.4028 108.162 28.6449C108.073 28.8804 108.028 29.1478 108.028 29.447C108.028 29.7397 108.073 30.004 108.162 30.2395C108.257 30.4751 108.385 30.6788 108.544 30.8506C108.703 31.0162 108.888 31.1436 109.098 31.2326C109.308 31.3218 109.531 31.3663 109.766 31.3663C109.995 31.3663 110.215 31.3218 110.425 31.2326C110.641 31.1372 110.832 31.0066 110.998 30.8411C111.17 30.6757 111.304 30.4751 111.399 30.2395C111.501 29.9977 111.552 29.7334 111.552 29.447Z" fill="#121212"/>
</g>
<defs>
<clipPath id="clip0_9798_8568">
<rect width="144.084" height="43.4002" fill="white" transform="translate(0 0.299805)"/>
</clipPath>
</defs>
</svg>
