<svg width="232" height="150" viewBox="0 0 232 150" fill="none" xmlns="http://www.w3.org/2000/svg">
<path d="M3.38282 1.18433L3.38281 148.929M25.9392 1.18433V148.929M48.4956 1.18433V148.929M71.052 1.18433V148.929M93.6084 1.18433V148.929M116.165 1.18433V148.929M138.721 1.18433V148.929M161.278 1.18433V148.929M183.834 1.18433V148.929M206.39 1.18433V148.929M205.263 1.12795L3.38282 1.12793M206.39 25.8272H3.38282M206.39 50.5264H3.38282M206.39 75.2257H3.38282M206.39 99.9249H3.38282M206.39 124.624H3.38282M205.263 149.323H3.38282" stroke="#DFDFDF" stroke-width="0.902256" stroke-linecap="round" stroke-dasharray="4.51 4.51"/>
<path fill-rule="evenodd" clip-rule="evenodd" d="M145.856 5.40967L140.763 18.6385L138.557 13.8984L138.431 13.6612L132.477 11.369L145.856 5.40967Z" fill="#FF2D55"/>
<path d="M23.6836 133.083C99.2475 133.083 148.308 102.744 148.308 15.2256" stroke="#91C2F4" stroke-width="2.25564"/>
<path d="M25.9395 133.083H134.21" stroke="#3E89FF" stroke-width="1.12782"/>
<path d="M23.6848 135.902C25.242 135.902 26.5043 134.64 26.5043 133.083C26.5043 131.526 25.242 130.263 23.6848 130.263C22.1276 130.263 20.8652 131.526 20.8652 133.083C20.8652 134.64 22.1276 135.902 23.6848 135.902Z" fill="white" stroke="#3E89FF" stroke-width="1.12782"/>
<path d="M133.646 129.699L136.465 132.519L133.646 135.338L130.826 132.519L133.646 129.699Z" fill="#3E89FF"/>
<path d="M148.873 18.0449V126.316" stroke="#3E89FF" stroke-width="1.12782"/>
<path d="M146.052 15.7893C146.052 17.3465 147.315 18.6088 148.872 18.6088C150.429 18.6088 151.691 17.3465 151.691 15.7893C151.691 14.2321 150.429 12.9697 148.872 12.9697C147.315 12.9697 146.052 14.2321 146.052 15.7893Z" fill="white" stroke="#3E89FF" stroke-width="1.12782"/>
<path d="M152.256 125.752L149.437 128.571L146.617 125.752L149.437 122.932L152.256 125.752Z" fill="#3E89FF"/>
<rect x="19.5" y="9.56592" width="108" height="22" rx="11" fill="#00A105"/>
<path d="M28.424 25.5659V16.6259H31.676C32.276 16.6259 32.804 16.7379 33.26 16.9619C33.724 17.1779 34.084 17.4979 34.34 17.9219C34.596 18.3379 34.724 18.8379 34.724 19.4219C34.724 19.9979 34.592 20.4939 34.328 20.9099C34.072 21.3259 33.716 21.6459 33.26 21.8699C32.804 22.0939 32.276 22.2059 31.676 22.2059H29.84V25.5659H28.424ZM29.84 20.9459H31.712C32.032 20.9459 32.312 20.8819 32.552 20.7539C32.792 20.6259 32.98 20.4499 33.116 20.2259C33.252 19.9939 33.32 19.7219 33.32 19.4099C33.32 19.0979 33.252 18.8299 33.116 18.6059C32.98 18.3739 32.792 18.1979 32.552 18.0779C32.312 17.9499 32.032 17.8859 31.712 17.8859H29.84V20.9459ZM36.0498 25.5659V19.0739H37.3458V20.3819L37.2258 20.1899C37.3698 19.7659 37.6018 19.4619 37.9218 19.2779C38.2418 19.0859 38.6258 18.9899 39.0738 18.9899H39.4698V20.2259H38.9058C38.4578 20.2259 38.0938 20.3659 37.8138 20.6459C37.5418 20.9179 37.4058 21.3099 37.4058 21.8219V25.5659H36.0498ZM43.5295 25.7099C42.9055 25.7099 42.3335 25.5619 41.8135 25.2659C41.3015 24.9699 40.8935 24.5659 40.5895 24.0539C40.2855 23.5419 40.1335 22.9619 40.1335 22.3139C40.1335 21.6579 40.2855 21.0779 40.5895 20.5739C40.8935 20.0619 41.3015 19.6619 41.8135 19.3739C42.3255 19.0779 42.8975 18.9299 43.5295 18.9299C44.1695 18.9299 44.7415 19.0779 45.2455 19.3739C45.7575 19.6619 46.1615 20.0619 46.4575 20.5739C46.7615 21.0779 46.9135 21.6579 46.9135 22.3139C46.9135 22.9699 46.7615 23.5539 46.4575 24.0659C46.1535 24.5779 45.7455 24.9819 45.2335 25.2779C44.7215 25.5659 44.1535 25.7099 43.5295 25.7099ZM43.5295 24.4499C43.9135 24.4499 44.2535 24.3579 44.5495 24.1739C44.8455 23.9899 45.0775 23.7379 45.2455 23.4179C45.4215 23.0899 45.5095 22.7219 45.5095 22.3139C45.5095 21.9059 45.4215 21.5419 45.2455 21.2219C45.0775 20.9019 44.8455 20.6499 44.5495 20.4659C44.2535 20.2819 43.9135 20.1899 43.5295 20.1899C43.1535 20.1899 42.8135 20.2819 42.5095 20.4659C42.2135 20.6499 41.9775 20.9019 41.8015 21.2219C41.6335 21.5419 41.5495 21.9059 41.5495 22.3139C41.5495 22.7219 41.6335 23.0899 41.8015 23.4179C41.9775 23.7379 42.2135 23.9899 42.5095 24.1739C42.8135 24.3579 43.1535 24.4499 43.5295 24.4499ZM51.2373 25.7099C50.6133 25.7099 50.0533 25.5619 49.5573 25.2659C49.0693 24.9619 48.6813 24.5539 48.3933 24.0419C48.1133 23.5299 47.9733 22.9539 47.9733 22.3139C47.9733 21.6739 48.1173 21.0979 48.4053 20.5859C48.6933 20.0739 49.0813 19.6699 49.5693 19.3739C50.0573 19.0779 50.6093 18.9299 51.2253 18.9299C51.7453 18.9299 52.2053 19.0339 52.6053 19.2419C53.0053 19.4499 53.3213 19.7379 53.5533 20.1059L53.3493 20.4179V16.4819H54.6933V25.5659H53.4093V24.2459L53.5653 24.4979C53.3413 24.8899 53.0213 25.1899 52.6053 25.3979C52.1893 25.6059 51.7333 25.7099 51.2373 25.7099ZM51.3693 24.4499C51.7453 24.4499 52.0813 24.3579 52.3773 24.1739C52.6813 23.9899 52.9173 23.7379 53.0853 23.4179C53.2613 23.0899 53.3493 22.7219 53.3493 22.3139C53.3493 21.9059 53.2613 21.5419 53.0853 21.2219C52.9173 20.9019 52.6813 20.6499 52.3773 20.4659C52.0813 20.2819 51.7453 20.1899 51.3693 20.1899C50.9933 20.1899 50.6533 20.2819 50.3493 20.4659C50.0453 20.6499 49.8093 20.9019 49.6413 21.2219C49.4733 21.5419 49.3893 21.9059 49.3893 22.3139C49.3893 22.7219 49.4733 23.0899 49.6413 23.4179C49.8093 23.7379 50.0413 23.9899 50.3373 24.1739C50.6413 24.3579 50.9853 24.4499 51.3693 24.4499ZM58.5924 25.7099C58.1044 25.7099 57.6764 25.6019 57.3084 25.3859C56.9404 25.1619 56.6524 24.8539 56.4444 24.4619C56.2444 24.0619 56.1444 23.6019 56.1444 23.0819V19.0739H57.5004V22.9619C57.5004 23.2579 57.5604 23.5179 57.6804 23.7419C57.8004 23.9659 57.9684 24.1419 58.1844 24.2699C58.4004 24.3899 58.6484 24.4499 58.9284 24.4499C59.2164 24.4499 59.4684 24.3859 59.6844 24.2579C59.9004 24.1299 60.0684 23.9499 60.1884 23.7179C60.3164 23.4859 60.3804 23.2139 60.3804 22.9019V19.0739H61.7244V25.5659H60.4404V24.2939L60.5844 24.4619C60.4324 24.8619 60.1804 25.1699 59.8284 25.3859C59.4764 25.6019 59.0644 25.7099 58.5924 25.7099ZM66.3916 25.7099C65.7436 25.7099 65.1676 25.5619 64.6636 25.2659C64.1676 24.9619 63.7716 24.5539 63.4756 24.0419C63.1876 23.5299 63.0436 22.9499 63.0436 22.3019C63.0436 21.6619 63.1876 21.0859 63.4756 20.5739C63.7636 20.0619 64.1596 19.6619 64.6636 19.3739C65.1676 19.0779 65.7436 18.9299 66.3916 18.9299C66.8316 18.9299 67.2436 19.0099 67.6276 19.1699C68.0116 19.3219 68.3436 19.5339 68.6236 19.8059C68.9116 20.0779 69.1236 20.3939 69.2596 20.7539L68.0716 21.3059C67.9356 20.9699 67.7156 20.7019 67.4116 20.5019C67.1156 20.2939 66.7756 20.1899 66.3916 20.1899C66.0236 20.1899 65.6916 20.2819 65.3956 20.4659C65.1076 20.6419 64.8796 20.8939 64.7116 21.2219C64.5436 21.5419 64.4596 21.9059 64.4596 22.3139C64.4596 22.7219 64.5436 23.0899 64.7116 23.4179C64.8796 23.7379 65.1076 23.9899 65.3956 24.1739C65.6916 24.3579 66.0236 24.4499 66.3916 24.4499C66.7836 24.4499 67.1236 24.3499 67.4116 24.1499C67.7076 23.9419 67.9276 23.6659 68.0716 23.3219L69.2596 23.8859C69.1316 24.2299 68.9236 24.5419 68.6356 24.8219C68.3556 25.0939 68.0236 25.3099 67.6396 25.4699C67.2556 25.6299 66.8396 25.7099 66.3916 25.7099ZM73.393 25.6379C72.713 25.6379 72.185 25.4459 71.809 25.0619C71.433 24.6779 71.245 24.1379 71.245 23.4419V20.2979H70.105V19.0739H70.285C70.589 19.0739 70.825 18.9859 70.993 18.8099C71.161 18.6339 71.245 18.3939 71.245 18.0899V17.5859H72.601V19.0739H74.077V20.2979H72.601V23.3819C72.601 23.6059 72.637 23.7979 72.709 23.9579C72.781 24.1099 72.897 24.2299 73.057 24.3179C73.217 24.3979 73.425 24.4379 73.681 24.4379C73.745 24.4379 73.817 24.4339 73.897 24.4259C73.977 24.4179 74.053 24.4099 74.125 24.4019V25.5659C74.013 25.5819 73.889 25.5979 73.753 25.6139C73.617 25.6299 73.497 25.6379 73.393 25.6379ZM77.6779 25.5659V16.6259H79.0939V24.3059H82.9579V25.5659H77.6779ZM85.9587 25.7099C85.5187 25.7099 85.1307 25.6339 84.7947 25.4819C84.4667 25.3219 84.2107 25.1059 84.0267 24.8339C83.8427 24.5539 83.7507 24.2259 83.7507 23.8499C83.7507 23.4979 83.8267 23.1819 83.9787 22.9019C84.1387 22.6219 84.3827 22.3859 84.7107 22.1939C85.0387 22.0019 85.4507 21.8659 85.9467 21.7859L88.2027 21.4139V22.4819L86.2107 22.8299C85.8507 22.8939 85.5867 23.0099 85.4187 23.1779C85.2507 23.3379 85.1667 23.5459 85.1667 23.8019C85.1667 24.0499 85.2587 24.2539 85.4427 24.4139C85.6347 24.5659 85.8787 24.6419 86.1747 24.6419C86.5427 24.6419 86.8627 24.5619 87.1347 24.4019C87.4147 24.2419 87.6307 24.0299 87.7827 23.7659C87.9347 23.4939 88.0107 23.1939 88.0107 22.8659V21.1979C88.0107 20.8779 87.8907 20.6179 87.6507 20.4179C87.4187 20.2099 87.1067 20.1059 86.7147 20.1059C86.3547 20.1059 86.0387 20.2019 85.7667 20.3939C85.5027 20.5779 85.3067 20.8179 85.1787 21.1139L84.0507 20.5499C84.1707 20.2299 84.3667 19.9499 84.6387 19.7099C84.9107 19.4619 85.2267 19.2699 85.5867 19.1339C85.9547 18.9979 86.3427 18.9299 86.7507 18.9299C87.2627 18.9299 87.7147 19.0259 88.1067 19.2179C88.5067 19.4099 88.8147 19.6779 89.0307 20.0219C89.2547 20.3579 89.3667 20.7499 89.3667 21.1979V25.5659H88.0707V24.3899L88.3467 24.4259C88.1947 24.6899 87.9987 24.9179 87.7587 25.1099C87.5267 25.3019 87.2587 25.4499 86.9547 25.5539C86.6587 25.6579 86.3267 25.7099 85.9587 25.7099ZM93.2682 25.7099C92.7802 25.7099 92.3522 25.6019 91.9842 25.3859C91.6162 25.1619 91.3282 24.8539 91.1202 24.4619C90.9202 24.0619 90.8202 23.6019 90.8202 23.0819V19.0739H92.1762V22.9619C92.1762 23.2579 92.2362 23.5179 92.3562 23.7419C92.4762 23.9659 92.6442 24.1419 92.8602 24.2699C93.0762 24.3899 93.3242 24.4499 93.6042 24.4499C93.8922 24.4499 94.1442 24.3859 94.3602 24.2579C94.5762 24.1299 94.7442 23.9499 94.8642 23.7179C94.9922 23.4859 95.0562 23.2139 95.0562 22.9019V19.0739H96.4002V25.5659H95.1162V24.2939L95.2602 24.4619C95.1082 24.8619 94.8562 25.1699 94.5042 25.3859C94.1522 25.6019 93.7402 25.7099 93.2682 25.7099ZM97.9834 25.5659V19.0739H99.2794V20.3459L99.1234 20.1779C99.2834 19.7699 99.5394 19.4619 99.8914 19.2539C100.243 19.0379 100.651 18.9299 101.115 18.9299C101.595 18.9299 102.019 19.0339 102.387 19.2419C102.755 19.4499 103.043 19.7379 103.251 20.1059C103.459 20.4739 103.563 20.8979 103.563 21.3779V25.5659H102.219V21.7379C102.219 21.4099 102.159 21.1339 102.039 20.9099C101.919 20.6779 101.747 20.5019 101.523 20.3819C101.307 20.2539 101.059 20.1899 100.779 20.1899C100.499 20.1899 100.247 20.2539 100.023 20.3819C99.8074 20.5019 99.6394 20.6779 99.5194 20.9099C99.3994 21.1419 99.3394 21.4179 99.3394 21.7379V25.5659H97.9834ZM108.099 25.7099C107.451 25.7099 106.875 25.5619 106.371 25.2659C105.875 24.9619 105.479 24.5539 105.183 24.0419C104.895 23.5299 104.751 22.9499 104.751 22.3019C104.751 21.6619 104.895 21.0859 105.183 20.5739C105.471 20.0619 105.867 19.6619 106.371 19.3739C106.875 19.0779 107.451 18.9299 108.099 18.9299C108.539 18.9299 108.951 19.0099 109.335 19.1699C109.719 19.3219 110.051 19.5339 110.331 19.8059C110.619 20.0779 110.831 20.3939 110.967 20.7539L109.779 21.3059C109.643 20.9699 109.423 20.7019 109.119 20.5019C108.823 20.2939 108.483 20.1899 108.099 20.1899C107.731 20.1899 107.399 20.2819 107.103 20.4659C106.815 20.6419 106.587 20.8939 106.419 21.2219C106.251 21.5419 106.167 21.9059 106.167 22.3139C106.167 22.7219 106.251 23.0899 106.419 23.4179C106.587 23.7379 106.815 23.9899 107.103 24.1739C107.399 24.3579 107.731 24.4499 108.099 24.4499C108.491 24.4499 108.831 24.3499 109.119 24.1499C109.415 23.9419 109.635 23.6659 109.779 23.3219L110.967 23.8859C110.839 24.2299 110.631 24.5419 110.343 24.8219C110.063 25.0939 109.731 25.3099 109.347 25.4699C108.963 25.6299 108.547 25.7099 108.099 25.7099ZM112.292 25.5659V16.4819H113.648V20.3459L113.432 20.1779C113.592 19.7699 113.848 19.4619 114.2 19.2539C114.552 19.0379 114.96 18.9299 115.424 18.9299C115.904 18.9299 116.328 19.0339 116.696 19.2419C117.064 19.4499 117.352 19.7379 117.56 20.1059C117.768 20.4739 117.872 20.8939 117.872 21.3659V25.5659H116.528V21.7379C116.528 21.4099 116.464 21.1339 116.336 20.9099C116.216 20.6779 116.048 20.5019 115.832 20.3819C115.616 20.2539 115.368 20.1899 115.088 20.1899C114.816 20.1899 114.568 20.2539 114.344 20.3819C114.128 20.5019 113.956 20.6779 113.828 20.9099C113.708 21.1419 113.648 21.4179 113.648 21.7379V25.5659H112.292Z" fill="white"/>
<g clip-path="url(#clip0_9476_1651)">
<rect x="137.064" y="73.2261" width="38" height="22" rx="11" fill="#32ADE6"/>
<path d="M148.256 89.2261V85.1941L145.196 80.2861H146.792L149.24 84.2581H148.676L151.112 80.2861H152.708L149.66 85.1941V89.2261H148.256ZM155.633 89.3701C155.009 89.3701 154.437 89.2221 153.917 88.9261C153.405 88.6301 152.997 88.2261 152.693 87.7141C152.389 87.2021 152.237 86.6221 152.237 85.9741C152.237 85.3181 152.389 84.7381 152.693 84.2341C152.997 83.7221 153.405 83.3221 153.917 83.0341C154.429 82.7381 155.001 82.5901 155.633 82.5901C156.273 82.5901 156.845 82.7381 157.349 83.0341C157.861 83.3221 158.265 83.7221 158.561 84.2341C158.865 84.7381 159.017 85.3181 159.017 85.9741C159.017 86.6301 158.865 87.2141 158.561 87.7261C158.257 88.2381 157.849 88.6421 157.337 88.9381C156.825 89.2261 156.257 89.3701 155.633 89.3701ZM155.633 88.1101C156.017 88.1101 156.357 88.0181 156.653 87.8341C156.949 87.6501 157.181 87.3981 157.349 87.0781C157.525 86.7501 157.613 86.3821 157.613 85.9741C157.613 85.5661 157.525 85.2021 157.349 84.8821C157.181 84.5621 156.949 84.3101 156.653 84.1261C156.357 83.9421 156.017 83.8501 155.633 83.8501C155.257 83.8501 154.917 83.9421 154.613 84.1261C154.317 84.3101 154.081 84.5621 153.905 84.8821C153.737 85.2021 153.653 85.5661 153.653 85.9741C153.653 86.3821 153.737 86.7501 153.905 87.0781C154.081 87.3981 154.317 87.6501 154.613 87.8341C154.917 88.0181 155.257 88.1101 155.633 88.1101ZM162.657 89.3701C162.169 89.3701 161.741 89.2621 161.373 89.0461C161.005 88.8221 160.717 88.5141 160.509 88.1221C160.309 87.7221 160.209 87.2621 160.209 86.7421V82.7341H161.565V86.6221C161.565 86.9181 161.625 87.1781 161.745 87.4021C161.865 87.6261 162.033 87.8021 162.249 87.9301C162.465 88.0501 162.713 88.1101 162.993 88.1101C163.281 88.1101 163.533 88.0461 163.749 87.9181C163.965 87.7901 164.133 87.6101 164.253 87.3781C164.381 87.1461 164.445 86.8741 164.445 86.5621V82.7341H165.789V89.2261H164.505V87.9541L164.649 88.1221C164.497 88.5221 164.245 88.8301 163.893 89.0461C163.541 89.2621 163.129 89.3701 162.657 89.3701Z" fill="#080F1A"/>
<path fill-rule="evenodd" clip-rule="evenodd" d="M126.506 64.8081L131.598 78.037L133.804 73.2968L133.93 73.0597L139.885 70.7675L126.506 64.8081Z" fill="#3A3C99"/>
</g>
<defs>
<clipPath id="clip0_9476_1651">
<rect width="49.6241" height="33.8346" fill="white" transform="translate(126.506 61.0923)"/>
</clipPath>
</defs>
</svg>
