<svg width="238" height="150" viewBox="0 0 238 150" fill="none" xmlns="http://www.w3.org/2000/svg">
<path fill-rule="evenodd" clip-rule="evenodd" d="M59.2273 47.9118L45.1436 46.4181L49.1477 43.0634L49.344 42.8805L50.0163 36.541L59.2273 47.9118Z" fill="#97A339"/>
<path d="M128.11 22.9282H67.8544C61.3559 22.9282 56.0879 28.1962 56.0879 34.6947C56.0879 41.1931 61.3559 46.4611 67.8544 46.4611H128.11C134.609 46.4611 139.877 41.1931 139.877 34.6947C139.877 28.1962 134.609 22.9282 128.11 22.9282Z" fill="#B9B9B9"/>
<path opacity="0.5" d="M70.605 39.2021L72.1515 29.7959H73.2501L71.7097 39.2021H70.605ZM66.3438 36.6833L66.5331 35.5849H73.6604L73.4773 36.6833H66.3438ZM67.3032 39.2021L68.8436 29.7959H69.9421L68.4017 39.2021H67.3032ZM66.8993 33.4196L67.0823 32.3147H74.197L74.0266 33.4196H66.8993ZM77.7575 39.2021V29.7959H81.1159C81.8441 29.7959 82.4479 29.9306 82.9278 30.1999C83.4076 30.465 83.7674 30.8291 84.0073 31.2921C84.2472 31.7508 84.367 32.2685 84.367 32.845C84.367 33.4216 84.2472 33.9414 84.0073 34.4043C83.7674 34.863 83.4054 35.2271 82.9214 35.4964C82.4416 35.7616 81.8356 35.8942 81.1033 35.8942H78.8055V34.6947H80.9708C81.4379 34.6947 81.8146 34.6148 82.1008 34.4548C82.3912 34.2949 82.6015 34.076 82.732 33.7983C82.8667 33.5164 82.9341 33.1986 82.9341 32.845C82.9341 32.4873 82.8667 32.1717 82.732 31.8981C82.6015 31.6203 82.3912 31.4035 82.1008 31.2478C81.8104 31.0921 81.4315 31.0143 80.9645 31.0143H79.1779V39.2021H77.7575ZM85.3708 39.2021V32.1443H86.6902V33.2743H86.7661C86.8964 32.8956 87.1237 32.5967 87.4478 32.3779C87.776 32.1548 88.1464 32.0432 88.5589 32.0432C88.643 32.0432 88.742 32.0475 88.8555 32.0559C88.9734 32.0601 89.0682 32.0665 89.1396 32.0749V33.3879C89.085 33.3711 88.986 33.3543 88.8429 33.3374C88.7041 33.3206 88.5631 33.3122 88.42 33.3122C88.096 33.3122 87.8056 33.3816 87.5488 33.5205C87.2964 33.6552 87.0963 33.8425 86.9491 34.0824C86.806 34.3181 86.7344 34.5916 86.7344 34.903V39.2021H85.3708ZM92.5108 39.3474C91.85 39.3474 91.2714 39.1958 90.7748 38.8928C90.2823 38.5898 89.8993 38.1647 89.6257 37.6176C89.3564 37.0705 89.2218 36.435 89.2218 35.7111C89.2218 34.9788 89.3564 34.339 89.6257 33.792C89.8993 33.2406 90.2823 32.8134 90.7748 32.5104C91.2714 32.2074 91.85 32.0559 92.5108 32.0559C93.1757 32.0559 93.7544 32.2074 94.2469 32.5104C94.7393 32.8134 95.1222 33.2406 95.3958 33.792C95.6694 34.339 95.8062 34.9788 95.8062 35.7111C95.8062 36.435 95.6694 37.0705 95.3958 37.6176C95.1222 38.1647 94.7393 38.5898 94.2469 38.8928C93.7544 39.1958 93.1757 39.3474 92.5108 39.3474ZM92.5108 38.1921C92.9442 38.1921 93.302 38.0784 93.5839 37.8511C93.866 37.6239 94.0742 37.323 94.209 36.9484C94.3478 36.5696 94.4172 36.1572 94.4172 35.7111C94.4172 35.2566 94.3478 34.8399 94.209 34.4612C94.0742 34.0824 93.866 33.7794 93.5839 33.5521C93.302 33.3248 92.9442 33.2112 92.5108 33.2112C92.0815 33.2112 91.7259 33.3248 91.4439 33.5521C91.1661 33.7794 90.9578 34.0824 90.8189 34.4612C90.68 34.8399 90.6106 35.2566 90.6106 35.7111C90.6106 36.1572 90.68 36.5696 90.8189 36.9484C90.9578 37.323 91.1661 37.6239 91.4439 37.8511C91.7259 38.0784 92.0815 38.1921 92.5108 38.1921ZM99.4234 39.341C98.8511 39.341 98.3419 39.1958 97.8956 38.9054C97.4495 38.6109 97.1002 38.1921 96.8478 37.6492C96.5953 37.102 96.469 36.4497 96.469 35.6921C96.469 34.9262 96.5973 34.2718 96.8541 33.7289C97.1108 33.186 97.4623 32.7714 97.9084 32.4852C98.3545 32.199 98.8594 32.0559 99.4234 32.0559C99.8653 32.0559 100.219 32.1296 100.484 32.2768C100.753 32.4199 100.962 32.5883 101.109 32.7819C101.26 32.9755 101.376 33.146 101.456 33.2932H101.538V29.7959H102.902V39.2021H101.57V38.1037H101.456C101.376 38.251 101.258 38.4214 101.103 38.615C100.947 38.8086 100.734 38.9791 100.465 39.1264C100.2 39.2695 99.8527 39.341 99.4234 39.341ZM99.7201 38.1732C100.116 38.1732 100.45 38.068 100.724 37.8575C100.997 37.6471 101.204 37.3546 101.343 36.98C101.486 36.6054 101.557 36.172 101.557 35.6795C101.557 35.1871 101.488 34.7579 101.349 34.3917C101.21 34.0214 101.004 33.7352 100.73 33.5331C100.457 33.3269 100.12 33.2238 99.7201 33.2238C99.3077 33.2238 98.9647 33.3311 98.6911 33.5458C98.4176 33.7604 98.2114 34.0529 98.0724 34.4232C97.9336 34.7936 97.8641 35.2123 97.8641 35.6795C97.8641 36.1509 97.9336 36.5759 98.0724 36.9548C98.2114 37.3293 98.4176 37.626 98.6911 37.8448C98.969 38.0637 99.3118 38.1732 99.7201 38.1732ZM108.691 36.2855V32.1443H110.054V39.2021H108.716V37.9775H108.64C108.472 38.352 108.211 38.6655 107.857 38.918C107.504 39.1706 107.062 39.2947 106.532 39.2906C106.077 39.2906 105.675 39.1916 105.326 38.9939C104.981 38.796 104.709 38.4993 104.512 38.1037C104.318 37.708 104.221 37.2178 104.221 36.6328V32.1443H105.585V36.475C105.585 36.9506 105.72 37.3315 105.989 37.6176C106.258 37.9038 106.605 38.0447 107.031 38.0406C107.287 38.0406 107.542 37.9775 107.794 37.8511C108.051 37.7249 108.264 37.5314 108.432 37.2704C108.605 37.0094 108.691 36.6812 108.691 36.2855ZM114.328 39.3474C113.651 39.3474 113.066 39.1916 112.573 38.8802C112.081 38.5687 111.702 38.1395 111.437 37.5923C111.172 37.0452 111.039 36.4182 111.039 35.7111C111.039 34.9915 111.174 34.358 111.443 33.8109C111.717 33.2595 112.098 32.8303 112.586 32.5231C113.078 32.2116 113.655 32.0559 114.316 32.0559C114.855 32.0559 115.332 32.1548 115.748 32.3527C116.17 32.5463 116.509 32.8219 116.765 33.1797C117.026 33.5373 117.179 33.954 117.225 34.4295H115.888C115.842 34.2065 115.75 34.0024 115.616 33.8172C115.486 33.6321 115.313 33.4848 115.098 33.3753C114.884 33.2659 114.629 33.2112 114.335 33.2112C113.952 33.2112 113.617 33.3122 113.331 33.5142C113.049 33.712 112.828 33.996 112.668 34.3664C112.508 34.7368 112.428 35.1745 112.428 35.6795C112.428 36.1887 112.506 36.6328 112.662 37.0116C112.817 37.3904 113.038 37.6828 113.325 37.889C113.615 38.0911 113.952 38.1921 114.335 38.1921C114.731 38.1921 115.066 38.0827 115.345 37.8638C115.626 37.6449 115.808 37.3461 115.888 36.9674H117.225C117.179 37.4261 117.033 37.8344 116.784 38.1921C116.536 38.5498 116.203 38.8318 115.786 39.038C115.369 39.2443 114.884 39.3474 114.328 39.3474ZM121.48 32.1443V33.2491H117.63V32.1443H121.48ZM118.659 30.465H120.029V37.1316C120.029 37.4555 120.097 37.6934 120.231 37.8448C120.366 37.9921 120.582 38.0658 120.881 38.0658C120.953 38.0658 121.028 38.0616 121.108 38.0532C121.193 38.0447 121.276 38.0321 121.361 38.0153L121.62 39.1516C121.48 39.1979 121.329 39.2338 121.165 39.259C121.001 39.2843 120.837 39.2969 120.672 39.2969C120.063 39.2969 119.575 39.1264 119.209 38.7855C118.842 38.4404 118.659 37.9816 118.659 37.4093V30.465ZM128.716 29.7959V39.2021H127.314V31.2226H127.251L125.016 32.6935V31.33L127.352 29.7959H128.716Z" fill="#3F4418"/>
<path d="M137.387 51.6328H64.7014C59.9443 51.6328 56.0879 56.9008 56.0879 63.3993C56.0879 69.8977 59.9443 75.1657 64.7014 75.1657H137.387C142.144 75.1657 146 69.8977 146 63.3993C146 56.9008 142.144 51.6328 137.387 51.6328Z" fill="#B9B9B9"/>
<path d="M162.871 80.3374H70.2173C62.4139 80.3374 56.0879 85.6054 56.0879 92.1039C56.0879 98.6023 62.4139 103.87 70.2173 103.87H162.871C170.674 103.87 177 98.6023 177 92.1039C177 85.6054 170.674 80.3374 162.871 80.3374Z" fill="#B9B9B9"/>
<path d="M174.543 109.042H69.545C62.1128 109.042 56.0879 114.31 56.0879 120.808C56.0879 127.306 62.1128 132.574 69.545 132.574H174.543C181.975 132.574 188 127.306 188 120.808C188 114.31 181.975 109.042 174.543 109.042Z" fill="#B9B9B9"/>
<path d="M71.078 69V58.57H74.872C75.572 58.57 76.188 58.7007 76.72 58.962C77.2613 59.214 77.6813 59.5873 77.98 60.082C78.2787 60.5673 78.428 61.1507 78.428 61.832C78.428 62.504 78.274 63.0827 77.966 63.568C77.6673 64.0533 77.252 64.4267 76.72 64.688C76.188 64.9493 75.572 65.08 74.872 65.08H72.73V69H71.078ZM72.73 63.61H74.914C75.2873 63.61 75.614 63.5353 75.894 63.386C76.174 63.2367 76.3933 63.0313 76.552 62.77C76.7107 62.4993 76.79 62.182 76.79 61.818C76.79 61.454 76.7107 61.1413 76.552 60.88C76.3933 60.6093 76.174 60.404 75.894 60.264C75.614 60.1147 75.2873 60.04 74.914 60.04H72.73V63.61ZM81.7506 69.168C81.2373 69.168 80.7846 69.0793 80.3926 68.902C80.0099 68.7153 79.7113 68.4633 79.4966 68.146C79.2819 67.8193 79.1746 67.4367 79.1746 66.998C79.1746 66.5873 79.2633 66.2187 79.4406 65.892C79.6273 65.5653 79.9119 65.29 80.2946 65.066C80.6773 64.842 81.1579 64.6833 81.7366 64.59L84.3686 64.156V65.402L82.0446 65.808C81.6246 65.8827 81.3166 66.018 81.1206 66.214C80.9246 66.4007 80.8266 66.6433 80.8266 66.942C80.8266 67.2313 80.9339 67.4693 81.1486 67.656C81.3726 67.8333 81.6573 67.922 82.0026 67.922C82.4319 67.922 82.8053 67.8287 83.1226 67.642C83.4493 67.4553 83.7013 67.208 83.8786 66.9C84.0559 66.5827 84.1446 66.2327 84.1446 65.85V63.904C84.1446 63.5307 84.0046 63.2273 83.7246 62.994C83.4539 62.7513 83.0899 62.63 82.6326 62.63C82.2126 62.63 81.8439 62.742 81.5266 62.966C81.2186 63.1807 80.9899 63.4607 80.8406 63.806L79.5246 63.148C79.6646 62.7747 79.8933 62.448 80.2106 62.168C80.5279 61.8787 80.8966 61.6547 81.3166 61.496C81.7459 61.3373 82.1986 61.258 82.6746 61.258C83.2719 61.258 83.7993 61.37 84.2566 61.594C84.7233 61.818 85.0826 62.1307 85.3346 62.532C85.5959 62.924 85.7266 63.3813 85.7266 63.904V69H84.2146V67.628L84.5366 67.67C84.3593 67.978 84.1306 68.244 83.8506 68.468C83.5799 68.692 83.2673 68.8647 82.9126 68.986C82.5673 69.1073 82.1799 69.168 81.7506 69.168ZM87.5763 69V61.426H89.1583V69H87.5763ZM87.5763 60.39V58.57H89.1583V60.39H87.5763ZM91.008 69V61.426H92.52V62.91L92.338 62.714C92.5247 62.238 92.8233 61.8787 93.234 61.636C93.6447 61.384 94.1207 61.258 94.662 61.258C95.222 61.258 95.7167 61.3793 96.146 61.622C96.5753 61.8647 96.9113 62.2007 97.154 62.63C97.3967 63.0593 97.518 63.554 97.518 64.114V69H95.95V64.534C95.95 64.1513 95.88 63.8293 95.74 63.568C95.6 63.2973 95.3993 63.092 95.138 62.952C94.886 62.8027 94.5967 62.728 94.27 62.728C93.9433 62.728 93.6493 62.8027 93.388 62.952C93.136 63.092 92.94 63.2973 92.8 63.568C92.66 63.8387 92.59 64.1607 92.59 64.534V69H91.008ZM101.812 69V58.57H105.606C106.306 58.57 106.922 58.7007 107.454 58.962C107.996 59.214 108.416 59.5873 108.714 60.082C109.013 60.5673 109.162 61.1507 109.162 61.832C109.162 62.504 109.008 63.0827 108.7 63.568C108.402 64.0533 107.986 64.4267 107.454 64.688C106.922 64.9493 106.306 65.08 105.606 65.08H103.464V69H101.812ZM103.464 63.61H105.648C106.022 63.61 106.348 63.5353 106.628 63.386C106.908 63.2367 107.128 63.0313 107.286 62.77C107.445 62.4993 107.524 62.182 107.524 61.818C107.524 61.454 107.445 61.1413 107.286 60.88C107.128 60.6093 106.908 60.404 106.628 60.264C106.348 60.1147 106.022 60.04 105.648 60.04H103.464V63.61ZM114.09 69.168C113.362 69.168 112.694 68.9953 112.088 68.65C111.49 68.3047 111.014 67.8333 110.66 67.236C110.305 66.6387 110.128 65.962 110.128 65.206C110.128 64.4407 110.305 63.764 110.66 63.176C111.014 62.5787 111.49 62.112 112.088 61.776C112.685 61.4307 113.352 61.258 114.09 61.258C114.836 61.258 115.504 61.4307 116.092 61.776C116.689 62.112 117.16 62.5787 117.506 63.176C117.86 63.764 118.038 64.4407 118.038 65.206C118.038 65.9713 117.86 66.6527 117.506 67.25C117.151 67.8473 116.675 68.3187 116.078 68.664C115.48 69 114.818 69.168 114.09 69.168ZM114.09 67.698C114.538 67.698 114.934 67.5907 115.28 67.376C115.625 67.1613 115.896 66.8673 116.092 66.494C116.297 66.1113 116.4 65.682 116.4 65.206C116.4 64.73 116.297 64.3053 116.092 63.932C115.896 63.5587 115.625 63.2647 115.28 63.05C114.934 62.8353 114.538 62.728 114.09 62.728C113.651 62.728 113.254 62.8353 112.9 63.05C112.554 63.2647 112.279 63.5587 112.074 63.932C111.878 64.3053 111.78 64.73 111.78 65.206C111.78 65.682 111.878 66.1113 112.074 66.494C112.279 66.8673 112.554 67.1613 112.9 67.376C113.254 67.5907 113.651 67.698 114.09 67.698ZM119.582 69V61.426H121.164V69H119.582ZM119.582 60.39V58.57H121.164V60.39H119.582ZM123.014 69V61.426H124.526V62.91L124.344 62.714C124.531 62.238 124.829 61.8787 125.24 61.636C125.651 61.384 126.127 61.258 126.668 61.258C127.228 61.258 127.723 61.3793 128.152 61.622C128.581 61.8647 128.917 62.2007 129.16 62.63C129.403 63.0593 129.524 63.554 129.524 64.114V69H127.956V64.534C127.956 64.1513 127.886 63.8293 127.746 63.568C127.606 63.2973 127.405 63.092 127.144 62.952C126.892 62.8027 126.603 62.728 126.276 62.728C125.949 62.728 125.655 62.8027 125.394 62.952C125.142 63.092 124.946 63.2973 124.806 63.568C124.666 63.8387 124.596 64.1607 124.596 64.534V69H123.014ZM134.493 69.084C133.7 69.084 133.084 68.86 132.645 68.412C132.206 67.964 131.987 67.334 131.987 66.522V62.854H130.657V61.426H130.867C131.222 61.426 131.497 61.3233 131.693 61.118C131.889 60.9127 131.987 60.6327 131.987 60.278V59.69H133.569V61.426H135.291V62.854H133.569V66.452C133.569 66.7133 133.611 66.9373 133.695 67.124C133.779 67.3013 133.914 67.4413 134.101 67.544C134.288 67.6373 134.53 67.684 134.829 67.684C134.904 67.684 134.988 67.6793 135.081 67.67C135.174 67.6607 135.263 67.6513 135.347 67.642V69C135.216 69.0187 135.072 69.0373 134.913 69.056C134.754 69.0747 134.614 69.084 134.493 69.084Z" fill="#4C4C27"/>
<path d="M71.078 98V87.57H74.872C75.572 87.57 76.188 87.7007 76.72 87.962C77.2613 88.214 77.6813 88.5873 77.98 89.082C78.2787 89.5673 78.428 90.1507 78.428 90.832C78.428 91.504 78.274 92.0827 77.966 92.568C77.6673 93.0533 77.252 93.4267 76.72 93.688C76.188 93.9493 75.572 94.08 74.872 94.08H72.73V98H71.078ZM72.73 92.61H74.914C75.2873 92.61 75.614 92.5353 75.894 92.386C76.174 92.2367 76.3933 92.0313 76.552 91.77C76.7107 91.4993 76.79 91.182 76.79 90.818C76.79 90.454 76.7107 90.1413 76.552 89.88C76.3933 89.6093 76.174 89.404 75.894 89.264C75.614 89.1147 75.2873 89.04 74.914 89.04H72.73V92.61ZM79.9748 98V90.426H81.4868V91.952L81.3468 91.728C81.5148 91.2333 81.7854 90.8787 82.1588 90.664C82.5321 90.44 82.9801 90.328 83.5028 90.328H83.9648V91.77H83.3068C82.7841 91.77 82.3594 91.9333 82.0328 92.26C81.7154 92.5773 81.5568 93.0347 81.5568 93.632V98H79.9748ZM88.701 98.168C87.973 98.168 87.3057 97.9953 86.699 97.65C86.1017 97.3047 85.6257 96.8333 85.271 96.236C84.9164 95.6387 84.739 94.962 84.739 94.206C84.739 93.4407 84.9164 92.764 85.271 92.176C85.6257 91.5787 86.1017 91.112 86.699 90.776C87.2964 90.4307 87.9637 90.258 88.701 90.258C89.4477 90.258 90.115 90.4307 90.703 90.776C91.3004 91.112 91.7717 91.5787 92.117 92.176C92.4717 92.764 92.649 93.4407 92.649 94.206C92.649 94.9713 92.4717 95.6527 92.117 96.25C91.7624 96.8473 91.2864 97.3187 90.689 97.664C90.0917 98 89.429 98.168 88.701 98.168ZM88.701 96.698C89.149 96.698 89.5457 96.5907 89.891 96.376C90.2364 96.1613 90.507 95.8673 90.703 95.494C90.9084 95.1113 91.011 94.682 91.011 94.206C91.011 93.73 90.9084 93.3053 90.703 92.932C90.507 92.5587 90.2364 92.2647 89.891 92.05C89.5457 91.8353 89.149 91.728 88.701 91.728C88.2624 91.728 87.8657 91.8353 87.511 92.05C87.1657 92.2647 86.8904 92.5587 86.685 92.932C86.489 93.3053 86.391 93.73 86.391 94.206C86.391 94.682 86.489 95.1113 86.685 95.494C86.8904 95.8673 87.1657 96.1613 87.511 96.376C87.8657 96.5907 88.2624 96.698 88.701 96.698ZM97.6935 98.168C96.9655 98.168 96.3122 97.9953 95.7335 97.65C95.1642 97.2953 94.7115 96.8193 94.3755 96.222C94.0489 95.6247 93.8855 94.9527 93.8855 94.206C93.8855 93.4593 94.0535 92.7873 94.3895 92.19C94.7255 91.5927 95.1782 91.1213 95.7475 90.776C96.3169 90.4307 96.9609 90.258 97.6795 90.258C98.2862 90.258 98.8229 90.3793 99.2895 90.622C99.7562 90.8647 100.125 91.2007 100.396 91.63L100.158 91.994V87.402H101.726V98H100.228V96.46L100.41 96.754C100.148 97.2113 99.7749 97.5613 99.2895 97.804C98.8042 98.0467 98.2722 98.168 97.6935 98.168ZM97.8475 96.698C98.2862 96.698 98.6782 96.5907 99.0235 96.376C99.3782 96.1613 99.6535 95.8673 99.8495 95.494C100.055 95.1113 100.158 94.682 100.158 94.206C100.158 93.73 100.055 93.3053 99.8495 92.932C99.6535 92.5587 99.3782 92.2647 99.0235 92.05C98.6782 91.8353 98.2862 91.728 97.8475 91.728C97.4089 91.728 97.0122 91.8353 96.6575 92.05C96.3029 92.2647 96.0275 92.5587 95.8315 92.932C95.6355 93.3053 95.5375 93.73 95.5375 94.206C95.5375 94.682 95.6355 95.1113 95.8315 95.494C96.0275 95.8673 96.2982 96.1613 96.6435 96.376C96.9982 96.5907 97.3995 96.698 97.8475 96.698ZM106.274 98.168C105.705 98.168 105.206 98.042 104.776 97.79C104.347 97.5287 104.011 97.1693 103.768 96.712C103.535 96.2453 103.418 95.7087 103.418 95.102V90.426H105V94.962C105 95.3073 105.07 95.6107 105.21 95.872C105.35 96.1333 105.546 96.3387 105.798 96.488C106.05 96.628 106.34 96.698 106.666 96.698C107.002 96.698 107.296 96.6233 107.548 96.474C107.8 96.3247 107.996 96.1147 108.136 95.844C108.286 95.5733 108.36 95.256 108.36 94.892V90.426H109.928V98H108.43V96.516L108.598 96.712C108.421 97.1787 108.127 97.538 107.716 97.79C107.306 98.042 106.825 98.168 106.274 98.168ZM115.374 98.168C114.618 98.168 113.946 97.9953 113.358 97.65C112.779 97.2953 112.317 96.8193 111.972 96.222C111.636 95.6247 111.468 94.948 111.468 94.192C111.468 93.4453 111.636 92.7733 111.972 92.176C112.308 91.5787 112.77 91.112 113.358 90.776C113.946 90.4307 114.618 90.258 115.374 90.258C115.887 90.258 116.368 90.3513 116.816 90.538C117.264 90.7153 117.651 90.9627 117.978 91.28C118.314 91.5973 118.561 91.966 118.72 92.386L117.334 93.03C117.175 92.638 116.918 92.3253 116.564 92.092C116.218 91.8493 115.822 91.728 115.374 91.728C114.944 91.728 114.557 91.8353 114.212 92.05C113.876 92.2553 113.61 92.5493 113.414 92.932C113.218 93.3053 113.12 93.73 113.12 94.206C113.12 94.682 113.218 95.1113 113.414 95.494C113.61 95.8673 113.876 96.1613 114.212 96.376C114.557 96.5907 114.944 96.698 115.374 96.698C115.831 96.698 116.228 96.5813 116.564 96.348C116.909 96.1053 117.166 95.7833 117.334 95.382L118.72 96.04C118.57 96.4413 118.328 96.8053 117.992 97.132C117.665 97.4493 117.278 97.7013 116.83 97.888C116.382 98.0747 115.896 98.168 115.374 98.168ZM123.542 98.084C122.748 98.084 122.132 97.86 121.694 97.412C121.255 96.964 121.036 96.334 121.036 95.522V91.854H119.706V90.426H119.916C120.27 90.426 120.546 90.3233 120.742 90.118C120.938 89.9127 121.036 89.6327 121.036 89.278V88.69H122.618V90.426H124.34V91.854H122.618V95.452C122.618 95.7133 122.66 95.9373 122.744 96.124C122.828 96.3013 122.963 96.4413 123.15 96.544C123.336 96.6373 123.579 96.684 123.878 96.684C123.952 96.684 124.036 96.6793 124.13 96.67C124.223 96.6607 124.312 96.6513 124.396 96.642V98C124.265 98.0187 124.12 98.0373 123.962 98.056C123.803 98.0747 123.663 98.084 123.542 98.084ZM133.427 98.168C132.69 98.168 132.004 98.0327 131.369 97.762C130.744 97.4913 130.193 97.118 129.717 96.642C129.25 96.1567 128.886 95.5873 128.625 94.934C128.364 94.2807 128.233 93.562 128.233 92.778C128.233 92.0033 128.359 91.2893 128.611 90.636C128.872 89.9733 129.236 89.404 129.703 88.928C130.17 88.4427 130.716 88.0693 131.341 87.808C131.966 87.5373 132.652 87.402 133.399 87.402C134.136 87.402 134.794 87.528 135.373 87.78C135.961 88.032 136.456 88.3633 136.857 88.774C137.258 89.1753 137.548 89.614 137.725 90.09L136.255 90.804C136.04 90.2347 135.686 89.7773 135.191 89.432C134.696 89.0773 134.099 88.9 133.399 88.9C132.708 88.9 132.097 89.0633 131.565 89.39C131.033 89.7167 130.618 90.1693 130.319 90.748C130.03 91.3267 129.885 92.0033 129.885 92.778C129.885 93.5527 130.034 94.234 130.333 94.822C130.641 95.4007 131.061 95.8533 131.593 96.18C132.125 96.4973 132.736 96.656 133.427 96.656C134.006 96.656 134.533 96.5393 135.009 96.306C135.494 96.0633 135.882 95.7273 136.171 95.298C136.46 94.8593 136.605 94.3507 136.605 93.772V93.058L137.347 93.73H133.399V92.33H138.243V93.31C138.243 94.0753 138.112 94.7613 137.851 95.368C137.59 95.9653 137.235 96.474 136.787 96.894C136.339 97.314 135.826 97.6313 135.247 97.846C134.668 98.0607 134.062 98.168 133.427 98.168ZM143.43 98.168C142.702 98.168 142.034 97.9953 141.428 97.65C140.83 97.3047 140.354 96.8333 140 96.236C139.645 95.6387 139.468 94.962 139.468 94.206C139.468 93.4407 139.645 92.764 140 92.176C140.354 91.5787 140.83 91.112 141.428 90.776C142.025 90.4307 142.692 90.258 143.43 90.258C144.176 90.258 144.844 90.4307 145.432 90.776C146.029 91.112 146.5 91.5787 146.846 92.176C147.2 92.764 147.378 93.4407 147.378 94.206C147.378 94.9713 147.2 95.6527 146.846 96.25C146.491 96.8473 146.015 97.3187 145.418 97.664C144.82 98 144.158 98.168 143.43 98.168ZM143.43 96.698C143.878 96.698 144.274 96.5907 144.62 96.376C144.965 96.1613 145.236 95.8673 145.432 95.494C145.637 95.1113 145.74 94.682 145.74 94.206C145.74 93.73 145.637 93.3053 145.432 92.932C145.236 92.5587 144.965 92.2647 144.62 92.05C144.274 91.8353 143.878 91.728 143.43 91.728C142.991 91.728 142.594 91.8353 142.24 92.05C141.894 92.2647 141.619 92.5587 141.414 92.932C141.218 93.3053 141.12 93.73 141.12 94.206C141.12 94.682 141.218 95.1113 141.414 95.494C141.619 95.8673 141.894 96.1613 142.24 96.376C142.594 96.5907 142.991 96.698 143.43 96.698ZM151.19 98.168C150.677 98.168 150.224 98.0793 149.832 97.902C149.449 97.7153 149.151 97.4633 148.936 97.146C148.721 96.8193 148.614 96.4367 148.614 95.998C148.614 95.5873 148.703 95.2187 148.88 94.892C149.067 94.5653 149.351 94.29 149.734 94.066C150.117 93.842 150.597 93.6833 151.176 93.59L153.808 93.156V94.402L151.484 94.808C151.064 94.8827 150.756 95.018 150.56 95.214C150.364 95.4007 150.266 95.6433 150.266 95.942C150.266 96.2313 150.373 96.4693 150.588 96.656C150.812 96.8333 151.097 96.922 151.442 96.922C151.871 96.922 152.245 96.8287 152.562 96.642C152.889 96.4553 153.141 96.208 153.318 95.9C153.495 95.5827 153.584 95.2327 153.584 94.85V92.904C153.584 92.5307 153.444 92.2273 153.164 91.994C152.893 91.7513 152.529 91.63 152.072 91.63C151.652 91.63 151.283 91.742 150.966 91.966C150.658 92.1807 150.429 92.4607 150.28 92.806L148.964 92.148C149.104 91.7747 149.333 91.448 149.65 91.168C149.967 90.8787 150.336 90.6547 150.756 90.496C151.185 90.3373 151.638 90.258 152.114 90.258C152.711 90.258 153.239 90.37 153.696 90.594C154.163 90.818 154.522 91.1307 154.774 91.532C155.035 91.924 155.166 92.3813 155.166 92.904V98H153.654V96.628L153.976 96.67C153.799 96.978 153.57 97.244 153.29 97.468C153.019 97.692 152.707 97.8647 152.352 97.986C152.007 98.1073 151.619 98.168 151.19 98.168ZM157.016 98V87.402H158.598V98H157.016Z" fill="#4C4C27"/>
<path d="M66.078 127V116.57H69.872C70.572 116.57 71.188 116.701 71.72 116.962C72.2613 117.214 72.6813 117.587 72.98 118.082C73.2787 118.567 73.428 119.151 73.428 119.832C73.428 120.504 73.274 121.083 72.966 121.568C72.6673 122.053 72.252 122.427 71.72 122.688C71.188 122.949 70.572 123.08 69.872 123.08H67.73V127H66.078ZM67.73 121.61H69.914C70.2873 121.61 70.614 121.535 70.894 121.386C71.174 121.237 71.3933 121.031 71.552 120.77C71.7107 120.499 71.79 120.182 71.79 119.818C71.79 119.454 71.7107 119.141 71.552 118.88C71.3933 118.609 71.174 118.404 70.894 118.264C70.614 118.115 70.2873 118.04 69.914 118.04H67.73V121.61ZM74.9748 127V119.426H76.4868V120.952L76.3468 120.728C76.5148 120.233 76.7854 119.879 77.1588 119.664C77.5321 119.44 77.9801 119.328 78.5028 119.328H78.9648V120.77H78.3068C77.7841 120.77 77.3594 120.933 77.0328 121.26C76.7154 121.577 76.5568 122.035 76.5568 122.632V127H74.9748ZM83.701 127.168C82.973 127.168 82.3057 126.995 81.699 126.65C81.1017 126.305 80.6257 125.833 80.271 125.236C79.9164 124.639 79.739 123.962 79.739 123.206C79.739 122.441 79.9164 121.764 80.271 121.176C80.6257 120.579 81.1017 120.112 81.699 119.776C82.2964 119.431 82.9637 119.258 83.701 119.258C84.4477 119.258 85.115 119.431 85.703 119.776C86.3004 120.112 86.7717 120.579 87.117 121.176C87.4717 121.764 87.649 122.441 87.649 123.206C87.649 123.971 87.4717 124.653 87.117 125.25C86.7624 125.847 86.2864 126.319 85.689 126.664C85.0917 127 84.429 127.168 83.701 127.168ZM83.701 125.698C84.149 125.698 84.5457 125.591 84.891 125.376C85.2364 125.161 85.507 124.867 85.703 124.494C85.9084 124.111 86.011 123.682 86.011 123.206C86.011 122.73 85.9084 122.305 85.703 121.932C85.507 121.559 85.2364 121.265 84.891 121.05C84.5457 120.835 84.149 120.728 83.701 120.728C83.2624 120.728 82.8657 120.835 82.511 121.05C82.1657 121.265 81.8904 121.559 81.685 121.932C81.489 122.305 81.391 122.73 81.391 123.206C81.391 123.682 81.489 124.111 81.685 124.494C81.8904 124.867 82.1657 125.161 82.511 125.376C82.8657 125.591 83.2624 125.698 83.701 125.698ZM92.6935 127.168C91.9655 127.168 91.3122 126.995 90.7335 126.65C90.1642 126.295 89.7115 125.819 89.3755 125.222C89.0489 124.625 88.8855 123.953 88.8855 123.206C88.8855 122.459 89.0535 121.787 89.3895 121.19C89.7255 120.593 90.1782 120.121 90.7475 119.776C91.3169 119.431 91.9609 119.258 92.6795 119.258C93.2862 119.258 93.8229 119.379 94.2895 119.622C94.7562 119.865 95.1249 120.201 95.3955 120.63L95.1575 120.994V116.402H96.7255V127H95.2275V125.46L95.4095 125.754C95.1482 126.211 94.7749 126.561 94.2895 126.804C93.8042 127.047 93.2722 127.168 92.6935 127.168ZM92.8475 125.698C93.2862 125.698 93.6782 125.591 94.0235 125.376C94.3782 125.161 94.6535 124.867 94.8495 124.494C95.0549 124.111 95.1575 123.682 95.1575 123.206C95.1575 122.73 95.0549 122.305 94.8495 121.932C94.6535 121.559 94.3782 121.265 94.0235 121.05C93.6782 120.835 93.2862 120.728 92.8475 120.728C92.4089 120.728 92.0122 120.835 91.6575 121.05C91.3029 121.265 91.0275 121.559 90.8315 121.932C90.6355 122.305 90.5375 122.73 90.5375 123.206C90.5375 123.682 90.6355 124.111 90.8315 124.494C91.0275 124.867 91.2982 125.161 91.6435 125.376C91.9982 125.591 92.3995 125.698 92.8475 125.698ZM101.274 127.168C100.705 127.168 100.206 127.042 99.7764 126.79C99.3471 126.529 99.0111 126.169 98.7684 125.712C98.5351 125.245 98.4184 124.709 98.4184 124.102V119.426H100V123.962C100 124.307 100.07 124.611 100.21 124.872C100.35 125.133 100.546 125.339 100.798 125.488C101.05 125.628 101.34 125.698 101.666 125.698C102.002 125.698 102.296 125.623 102.548 125.474C102.8 125.325 102.996 125.115 103.136 124.844C103.286 124.573 103.36 124.256 103.36 123.892V119.426H104.928V127H103.43V125.516L103.598 125.712C103.421 126.179 103.127 126.538 102.716 126.79C102.306 127.042 101.825 127.168 101.274 127.168ZM110.374 127.168C109.618 127.168 108.946 126.995 108.358 126.65C107.779 126.295 107.317 125.819 106.972 125.222C106.636 124.625 106.468 123.948 106.468 123.192C106.468 122.445 106.636 121.773 106.972 121.176C107.308 120.579 107.77 120.112 108.358 119.776C108.946 119.431 109.618 119.258 110.374 119.258C110.887 119.258 111.368 119.351 111.816 119.538C112.264 119.715 112.651 119.963 112.978 120.28C113.314 120.597 113.561 120.966 113.72 121.386L112.334 122.03C112.175 121.638 111.918 121.325 111.564 121.092C111.218 120.849 110.822 120.728 110.374 120.728C109.944 120.728 109.557 120.835 109.212 121.05C108.876 121.255 108.61 121.549 108.414 121.932C108.218 122.305 108.12 122.73 108.12 123.206C108.12 123.682 108.218 124.111 108.414 124.494C108.61 124.867 108.876 125.161 109.212 125.376C109.557 125.591 109.944 125.698 110.374 125.698C110.831 125.698 111.228 125.581 111.564 125.348C111.909 125.105 112.166 124.783 112.334 124.382L113.72 125.04C113.57 125.441 113.328 125.805 112.992 126.132C112.665 126.449 112.278 126.701 111.83 126.888C111.382 127.075 110.896 127.168 110.374 127.168ZM118.542 127.084C117.748 127.084 117.132 126.86 116.694 126.412C116.255 125.964 116.036 125.334 116.036 124.522V120.854H114.706V119.426H114.916C115.27 119.426 115.546 119.323 115.742 119.118C115.938 118.913 116.036 118.633 116.036 118.278V117.69H117.618V119.426H119.34V120.854H117.618V124.452C117.618 124.713 117.66 124.937 117.744 125.124C117.828 125.301 117.963 125.441 118.15 125.544C118.336 125.637 118.579 125.684 118.878 125.684C118.952 125.684 119.036 125.679 119.13 125.67C119.223 125.661 119.312 125.651 119.396 125.642V127C119.265 127.019 119.12 127.037 118.962 127.056C118.803 127.075 118.663 127.084 118.542 127.084ZM127.195 127.168C126.542 127.168 125.935 127.047 125.375 126.804C124.815 126.552 124.339 126.211 123.947 125.782C123.555 125.353 123.266 124.858 123.079 124.298L124.479 123.71C124.731 124.354 125.1 124.849 125.585 125.194C126.07 125.539 126.63 125.712 127.265 125.712C127.638 125.712 127.965 125.656 128.245 125.544C128.525 125.423 128.74 125.255 128.889 125.04C129.048 124.825 129.127 124.578 129.127 124.298C129.127 123.915 129.02 123.612 128.805 123.388C128.59 123.164 128.273 122.987 127.853 122.856L125.893 122.24C125.109 121.997 124.512 121.629 124.101 121.134C123.69 120.63 123.485 120.042 123.485 119.37C123.485 118.782 123.63 118.269 123.919 117.83C124.208 117.382 124.605 117.032 125.109 116.78C125.622 116.528 126.206 116.402 126.859 116.402C127.484 116.402 128.054 116.514 128.567 116.738C129.08 116.953 129.519 117.251 129.883 117.634C130.256 118.017 130.527 118.46 130.695 118.964L129.323 119.566C129.118 119.015 128.796 118.591 128.357 118.292C127.928 117.993 127.428 117.844 126.859 117.844C126.514 117.844 126.21 117.905 125.949 118.026C125.688 118.138 125.482 118.306 125.333 118.53C125.193 118.745 125.123 118.997 125.123 119.286C125.123 119.622 125.23 119.921 125.445 120.182C125.66 120.443 125.986 120.639 126.425 120.77L128.245 121.344C129.076 121.596 129.701 121.96 130.121 122.436C130.541 122.903 130.751 123.486 130.751 124.186C130.751 124.765 130.597 125.278 130.289 125.726C129.99 126.174 129.575 126.529 129.043 126.79C128.511 127.042 127.895 127.168 127.195 127.168ZM136.105 127.168C135.377 127.168 134.71 126.995 134.103 126.65C133.506 126.305 133.03 125.833 132.675 125.236C132.321 124.639 132.143 123.962 132.143 123.206C132.143 122.441 132.321 121.764 132.675 121.176C133.03 120.579 133.506 120.112 134.103 119.776C134.701 119.431 135.368 119.258 136.105 119.258C136.852 119.258 137.519 119.431 138.107 119.776C138.705 120.112 139.176 120.579 139.521 121.176C139.876 121.764 140.053 122.441 140.053 123.206C140.053 123.971 139.876 124.653 139.521 125.25C139.167 125.847 138.691 126.319 138.093 126.664C137.496 127 136.833 127.168 136.105 127.168ZM136.105 125.698C136.553 125.698 136.95 125.591 137.295 125.376C137.641 125.161 137.911 124.867 138.107 124.494C138.313 124.111 138.415 123.682 138.415 123.206C138.415 122.73 138.313 122.305 138.107 121.932C137.911 121.559 137.641 121.265 137.295 121.05C136.95 120.835 136.553 120.728 136.105 120.728C135.667 120.728 135.27 120.835 134.915 121.05C134.57 121.265 134.295 121.559 134.089 121.932C133.893 122.305 133.795 122.73 133.795 123.206C133.795 123.682 133.893 124.111 134.089 124.494C134.295 124.867 134.57 125.161 134.915 125.376C135.27 125.591 135.667 125.698 136.105 125.698ZM141.598 127V116.402H143.18V127H141.598ZM147.731 127.168C147.162 127.168 146.663 127.042 146.233 126.79C145.804 126.529 145.468 126.169 145.225 125.712C144.992 125.245 144.875 124.709 144.875 124.102V119.426H146.457V123.962C146.457 124.307 146.527 124.611 146.667 124.872C146.807 125.133 147.003 125.339 147.255 125.488C147.507 125.628 147.797 125.698 148.123 125.698C148.459 125.698 148.753 125.623 149.005 125.474C149.257 125.325 149.453 125.115 149.593 124.844C149.743 124.573 149.817 124.256 149.817 123.892V119.426H151.385V127H149.887V125.516L150.055 125.712C149.878 126.179 149.584 126.538 149.173 126.79C148.763 127.042 148.282 127.168 147.731 127.168ZM156.509 127.084C155.715 127.084 155.099 126.86 154.661 126.412C154.222 125.964 154.003 125.334 154.003 124.522V120.854H152.673V119.426H152.883C153.237 119.426 153.513 119.323 153.709 119.118C153.905 118.913 154.003 118.633 154.003 118.278V117.69H155.585V119.426H157.307V120.854H155.585V124.452C155.585 124.713 155.627 124.937 155.711 125.124C155.795 125.301 155.93 125.441 156.117 125.544C156.303 125.637 156.546 125.684 156.845 125.684C156.919 125.684 157.003 125.679 157.097 125.67C157.19 125.661 157.279 125.651 157.363 125.642V127C157.232 127.019 157.087 127.037 156.929 127.056C156.77 127.075 156.63 127.084 156.509 127.084ZM158.906 127V119.426H160.488V127H158.906ZM158.906 118.39V116.57H160.488V118.39H158.906ZM165.992 127.168C165.264 127.168 164.597 126.995 163.99 126.65C163.393 126.305 162.917 125.833 162.562 125.236C162.207 124.639 162.03 123.962 162.03 123.206C162.03 122.441 162.207 121.764 162.562 121.176C162.917 120.579 163.393 120.112 163.99 119.776C164.587 119.431 165.255 119.258 165.992 119.258C166.739 119.258 167.406 119.431 167.994 119.776C168.591 120.112 169.063 120.579 169.408 121.176C169.763 121.764 169.94 122.441 169.94 123.206C169.94 123.971 169.763 124.653 169.408 125.25C169.053 125.847 168.577 126.319 167.98 126.664C167.383 127 166.72 127.168 165.992 127.168ZM165.992 125.698C166.44 125.698 166.837 125.591 167.182 125.376C167.527 125.161 167.798 124.867 167.994 124.494C168.199 124.111 168.302 123.682 168.302 123.206C168.302 122.73 168.199 122.305 167.994 121.932C167.798 121.559 167.527 121.265 167.182 121.05C166.837 120.835 166.44 120.728 165.992 120.728C165.553 120.728 165.157 120.835 164.802 121.05C164.457 121.265 164.181 121.559 163.976 121.932C163.78 122.305 163.682 122.73 163.682 123.206C163.682 123.682 163.78 124.111 163.976 124.494C164.181 124.867 164.457 125.161 164.802 125.376C165.157 125.591 165.553 125.698 165.992 125.698ZM171.485 127V119.426H172.997V120.91L172.815 120.714C173.001 120.238 173.3 119.879 173.711 119.636C174.121 119.384 174.597 119.258 175.139 119.258C175.699 119.258 176.193 119.379 176.623 119.622C177.052 119.865 177.388 120.201 177.631 120.63C177.873 121.059 177.995 121.554 177.995 122.114V127H176.427V122.534C176.427 122.151 176.357 121.829 176.217 121.568C176.077 121.297 175.876 121.092 175.615 120.952C175.363 120.803 175.073 120.728 174.747 120.728C174.42 120.728 174.126 120.803 173.865 120.952C173.613 121.092 173.417 121.297 173.277 121.568C173.137 121.839 173.067 122.161 173.067 122.534V127H171.485Z" fill="#4C4C27"/>
<rect y="12" width="70" height="22" rx="11" fill="#003267"/>
<path d="M8.924 28V19.06H12.176C12.776 19.06 13.304 19.172 13.76 19.396C14.216 19.612 14.572 19.932 14.828 20.356C15.092 20.772 15.224 21.272 15.224 21.856C15.224 22.472 15.068 23 14.756 23.44C14.452 23.88 14.04 24.2 13.52 24.4L15.584 28H13.976L11.78 24.1L12.704 24.64H10.34V28H8.924ZM10.34 23.38H12.2C12.528 23.38 12.812 23.316 13.052 23.188C13.292 23.06 13.476 22.884 13.604 22.66C13.74 22.428 13.808 22.156 13.808 21.844C13.808 21.532 13.74 21.264 13.604 21.04C13.476 20.808 13.292 20.632 13.052 20.512C12.812 20.384 12.528 20.32 12.2 20.32H10.34V23.38ZM19.3283 28.144C18.6803 28.144 18.1043 27.996 17.6003 27.7C17.1043 27.396 16.7163 26.988 16.4363 26.476C16.1563 25.956 16.0163 25.376 16.0163 24.736C16.0163 24.08 16.1563 23.5 16.4363 22.996C16.7243 22.492 17.1083 22.096 17.5883 21.808C18.0683 21.512 18.6123 21.364 19.2203 21.364C19.7083 21.364 20.1443 21.448 20.5283 21.616C20.9123 21.784 21.2363 22.016 21.5003 22.312C21.7643 22.6 21.9643 22.932 22.1003 23.308C22.2443 23.684 22.3163 24.084 22.3163 24.508C22.3163 24.612 22.3123 24.72 22.3043 24.832C22.2963 24.944 22.2803 25.048 22.2563 25.144H17.0843V24.064H21.4883L20.8403 24.556C20.9203 24.164 20.8923 23.816 20.7563 23.512C20.6283 23.2 20.4283 22.956 20.1563 22.78C19.8923 22.596 19.5803 22.504 19.2203 22.504C18.8603 22.504 18.5403 22.596 18.2603 22.78C17.9803 22.956 17.7643 23.212 17.6123 23.548C17.4603 23.876 17.4003 24.276 17.4323 24.748C17.3923 25.188 17.4523 25.572 17.6123 25.9C17.7803 26.228 18.0123 26.484 18.3083 26.668C18.6123 26.852 18.9563 26.944 19.3403 26.944C19.7323 26.944 20.0643 26.856 20.3363 26.68C20.6163 26.504 20.8363 26.276 20.9963 25.996L22.1003 26.536C21.9723 26.84 21.7723 27.116 21.5003 27.364C21.2363 27.604 20.9163 27.796 20.5403 27.94C20.1723 28.076 19.7683 28.144 19.3283 28.144ZM26.0397 28.144C25.3757 28.144 24.7917 27.98 24.2877 27.652C23.7917 27.324 23.4437 26.884 23.2437 26.332L24.2877 25.84C24.4637 26.208 24.7037 26.5 25.0077 26.716C25.3197 26.932 25.6637 27.04 26.0397 27.04C26.3597 27.04 26.6197 26.968 26.8197 26.824C27.0197 26.68 27.1197 26.484 27.1197 26.236C27.1197 26.076 27.0757 25.948 26.9877 25.852C26.8997 25.748 26.7877 25.664 26.6517 25.6C26.5237 25.536 26.3917 25.488 26.2557 25.456L25.2357 25.168C24.6757 25.008 24.2557 24.768 23.9757 24.448C23.7037 24.12 23.5677 23.74 23.5677 23.308C23.5677 22.916 23.6677 22.576 23.8677 22.288C24.0677 21.992 24.3437 21.764 24.6957 21.604C25.0477 21.444 25.4437 21.364 25.8837 21.364C26.4757 21.364 27.0037 21.512 27.4677 21.808C27.9317 22.096 28.2597 22.5 28.4517 23.02L27.4077 23.512C27.2797 23.2 27.0757 22.952 26.7957 22.768C26.5237 22.584 26.2157 22.492 25.8717 22.492C25.5757 22.492 25.3397 22.564 25.1637 22.708C24.9877 22.844 24.8997 23.024 24.8997 23.248C24.8997 23.4 24.9397 23.528 25.0197 23.632C25.0997 23.728 25.2037 23.808 25.3317 23.872C25.4597 23.928 25.5917 23.976 25.7277 24.016L26.7837 24.328C27.3197 24.48 27.7317 24.72 28.0197 25.048C28.3077 25.368 28.4517 25.752 28.4517 26.2C28.4517 26.584 28.3477 26.924 28.1397 27.22C27.9397 27.508 27.6597 27.736 27.2997 27.904C26.9397 28.064 26.5197 28.144 26.0397 28.144ZM32.8283 28.144C32.1803 28.144 31.6043 27.996 31.1003 27.7C30.6043 27.396 30.2163 26.988 29.9363 26.476C29.6563 25.956 29.5163 25.376 29.5163 24.736C29.5163 24.08 29.6563 23.5 29.9363 22.996C30.2243 22.492 30.6083 22.096 31.0883 21.808C31.5683 21.512 32.1123 21.364 32.7203 21.364C33.2083 21.364 33.6443 21.448 34.0283 21.616C34.4123 21.784 34.7363 22.016 35.0003 22.312C35.2643 22.6 35.4643 22.932 35.6003 23.308C35.7443 23.684 35.8163 24.084 35.8163 24.508C35.8163 24.612 35.8123 24.72 35.8043 24.832C35.7963 24.944 35.7803 25.048 35.7563 25.144H30.5843V24.064H34.9883L34.3403 24.556C34.4203 24.164 34.3923 23.816 34.2563 23.512C34.1283 23.2 33.9283 22.956 33.6563 22.78C33.3923 22.596 33.0803 22.504 32.7203 22.504C32.3603 22.504 32.0403 22.596 31.7603 22.78C31.4803 22.956 31.2643 23.212 31.1123 23.548C30.9603 23.876 30.9003 24.276 30.9323 24.748C30.8923 25.188 30.9523 25.572 31.1123 25.9C31.2803 26.228 31.5123 26.484 31.8083 26.668C32.1123 26.852 32.4563 26.944 32.8403 26.944C33.2323 26.944 33.5643 26.856 33.8363 26.68C34.1163 26.504 34.3363 26.276 34.4963 25.996L35.6003 26.536C35.4723 26.84 35.2723 27.116 35.0003 27.364C34.7363 27.604 34.4163 27.796 34.0403 27.94C33.6723 28.076 33.2683 28.144 32.8283 28.144ZM39.0251 28.144C38.5851 28.144 38.1971 28.068 37.8611 27.916C37.5331 27.756 37.2771 27.54 37.0931 27.268C36.9091 26.988 36.8171 26.66 36.8171 26.284C36.8171 25.932 36.8931 25.616 37.0451 25.336C37.2051 25.056 37.4491 24.82 37.7771 24.628C38.1051 24.436 38.5171 24.3 39.0131 24.22L41.2691 23.848V24.916L39.2771 25.264C38.9171 25.328 38.6531 25.444 38.4851 25.612C38.3171 25.772 38.2331 25.98 38.2331 26.236C38.2331 26.484 38.3251 26.688 38.5091 26.848C38.7011 27 38.9451 27.076 39.2411 27.076C39.6091 27.076 39.9291 26.996 40.2011 26.836C40.4811 26.676 40.6971 26.464 40.8491 26.2C41.0011 25.928 41.0771 25.628 41.0771 25.3V23.632C41.0771 23.312 40.9571 23.052 40.7171 22.852C40.4851 22.644 40.1731 22.54 39.7811 22.54C39.4211 22.54 39.1051 22.636 38.8331 22.828C38.5691 23.012 38.3731 23.252 38.2451 23.548L37.1171 22.984C37.2371 22.664 37.4331 22.384 37.7051 22.144C37.9771 21.896 38.2931 21.704 38.6531 21.568C39.0211 21.432 39.4091 21.364 39.8171 21.364C40.3291 21.364 40.7811 21.46 41.1731 21.652C41.5731 21.844 41.8811 22.112 42.0971 22.456C42.3211 22.792 42.4331 23.184 42.4331 23.632V28H41.1371V26.824L41.4131 26.86C41.2611 27.124 41.0651 27.352 40.8251 27.544C40.5931 27.736 40.3251 27.884 40.0211 27.988C39.7251 28.092 39.3931 28.144 39.0251 28.144ZM44.0186 28V21.508H45.3146V22.816L45.1946 22.624C45.3386 22.2 45.5706 21.896 45.8906 21.712C46.2106 21.52 46.5946 21.424 47.0426 21.424H47.4386V22.66H46.8746C46.4266 22.66 46.0626 22.8 45.7826 23.08C45.5106 23.352 45.3746 23.744 45.3746 24.256V28H44.0186ZM51.4502 28.144C50.8022 28.144 50.2262 27.996 49.7222 27.7C49.2262 27.396 48.8302 26.988 48.5342 26.476C48.2462 25.964 48.1022 25.384 48.1022 24.736C48.1022 24.096 48.2462 23.52 48.5342 23.008C48.8222 22.496 49.2182 22.096 49.7222 21.808C50.2262 21.512 50.8022 21.364 51.4502 21.364C51.8902 21.364 52.3022 21.444 52.6862 21.604C53.0702 21.756 53.4022 21.968 53.6822 22.24C53.9702 22.512 54.1822 22.828 54.3182 23.188L53.1302 23.74C52.9942 23.404 52.7742 23.136 52.4702 22.936C52.1742 22.728 51.8342 22.624 51.4502 22.624C51.0822 22.624 50.7502 22.716 50.4542 22.9C50.1662 23.076 49.9382 23.328 49.7702 23.656C49.6022 23.976 49.5182 24.34 49.5182 24.748C49.5182 25.156 49.6022 25.524 49.7702 25.852C49.9382 26.172 50.1662 26.424 50.4542 26.608C50.7502 26.792 51.0822 26.884 51.4502 26.884C51.8422 26.884 52.1822 26.784 52.4702 26.584C52.7662 26.376 52.9862 26.1 53.1302 25.756L54.3182 26.32C54.1902 26.664 53.9822 26.976 53.6942 27.256C53.4142 27.528 53.0822 27.744 52.6982 27.904C52.3142 28.064 51.8982 28.144 51.4502 28.144ZM55.6436 28V18.916H56.9996V22.78L56.7836 22.612C56.9436 22.204 57.1996 21.896 57.5516 21.688C57.9036 21.472 58.3116 21.364 58.7756 21.364C59.2556 21.364 59.6796 21.468 60.0476 21.676C60.4156 21.884 60.7036 22.172 60.9116 22.54C61.1196 22.908 61.2236 23.328 61.2236 23.8V28H59.8796V24.172C59.8796 23.844 59.8156 23.568 59.6876 23.344C59.5676 23.112 59.3996 22.936 59.1836 22.816C58.9676 22.688 58.7196 22.624 58.4396 22.624C58.1676 22.624 57.9196 22.688 57.6956 22.816C57.4796 22.936 57.3076 23.112 57.1796 23.344C57.0596 23.576 56.9996 23.852 56.9996 24.172V28H55.6436Z" fill="white"/>
<rect x="199.064" y="103.226" width="38" height="22" rx="11" fill="#6B7428"/>
<path d="M210.256 119.226V115.194L207.196 110.286H208.792L211.24 114.258H210.676L213.112 110.286H214.708L211.66 115.194V119.226H210.256ZM217.633 119.37C217.009 119.37 216.437 119.222 215.917 118.926C215.405 118.63 214.997 118.226 214.693 117.714C214.389 117.202 214.237 116.622 214.237 115.974C214.237 115.318 214.389 114.738 214.693 114.234C214.997 113.722 215.405 113.322 215.917 113.034C216.429 112.738 217.001 112.59 217.633 112.59C218.273 112.59 218.845 112.738 219.349 113.034C219.861 113.322 220.265 113.722 220.561 114.234C220.865 114.738 221.017 115.318 221.017 115.974C221.017 116.63 220.865 117.214 220.561 117.726C220.257 118.238 219.849 118.642 219.337 118.938C218.825 119.226 218.257 119.37 217.633 119.37ZM217.633 118.11C218.017 118.11 218.357 118.018 218.653 117.834C218.949 117.65 219.181 117.398 219.349 117.078C219.525 116.75 219.613 116.382 219.613 115.974C219.613 115.566 219.525 115.202 219.349 114.882C219.181 114.562 218.949 114.31 218.653 114.126C218.357 113.942 218.017 113.85 217.633 113.85C217.257 113.85 216.917 113.942 216.613 114.126C216.317 114.31 216.081 114.562 215.905 114.882C215.737 115.202 215.653 115.566 215.653 115.974C215.653 116.382 215.737 116.75 215.905 117.078C216.081 117.398 216.317 117.65 216.613 117.834C216.917 118.018 217.257 118.11 217.633 118.11ZM224.657 119.37C224.169 119.37 223.741 119.262 223.373 119.046C223.005 118.822 222.717 118.514 222.509 118.122C222.309 117.722 222.209 117.262 222.209 116.742V112.734H223.565V116.622C223.565 116.918 223.625 117.178 223.745 117.402C223.865 117.626 224.033 117.802 224.249 117.93C224.465 118.05 224.713 118.11 224.993 118.11C225.281 118.11 225.533 118.046 225.749 117.918C225.965 117.79 226.133 117.61 226.253 117.378C226.381 117.146 226.445 116.874 226.445 116.562V112.734H227.789V119.226H226.505V117.954L226.649 118.122C226.497 118.522 226.245 118.83 225.893 119.046C225.541 119.262 225.129 119.37 224.657 119.37Z" fill="white"/>
<path fill-rule="evenodd" clip-rule="evenodd" d="M191 92.7129L196.088 105.93L198.292 101.194L198.418 100.957L204.367 98.667L191 92.7129Z" fill="#6ECDDD"/>
</svg>
