<svg width="71" height="70" viewBox="0 0 71 70" fill="none" xmlns="http://www.w3.org/2000/svg">
<rect x="0.5" width="70" height="70" rx="24" fill="#97A339"/>
<path d="M46.5803 35C50.1841 34.2872 53.7301 32.5259 55.8937 30.2113L58.3501 27.5835L54.8183 26.9014C51.7074 26.3005 47.8033 26.96 44.4687 28.5017C46.9655 25.8067 48.7991 22.2974 49.1888 19.1532L49.6316 15.5835L46.3734 17.1076C43.5035 18.4501 40.7327 21.2782 38.9408 24.4856C39.3767 20.8378 38.7975 16.921 37.2647 14.148L35.5247 11L33.7845 14.148C32.2517 16.921 31.6725 20.8378 32.1083 24.4856C30.3167 21.2782 27.5458 18.4499 24.6759 17.1076L21.4177 15.5835L21.8603 19.1532C22.2502 22.2974 24.0838 25.8067 26.5805 28.5017C23.2459 26.96 19.3417 26.3006 16.2309 26.9014L12.6992 27.5835L15.1555 30.2113C17.3191 32.5259 20.865 34.2872 24.469 35C20.8651 35.7128 17.3191 37.4739 15.1555 39.7887L12.6992 42.4165L16.2309 43.0986C19.3417 43.6995 23.2458 43.04 26.5805 41.4982C24.0838 44.1934 22.2502 47.7025 21.8603 50.8467L21.4177 54.4162L24.6758 52.8925C27.5457 51.5499 30.3166 48.7218 32.1082 45.5144C31.6724 49.1622 32.2516 53.079 33.7844 55.8519L35.5244 59L37.2644 55.8519C38.7973 53.079 39.3764 49.1622 38.9408 45.5144C40.7324 48.7218 43.5032 51.5502 46.3731 52.8925L49.6311 54.4162L49.1886 50.8467C48.7986 47.7025 46.965 44.1934 44.4685 41.4982C47.8031 43.04 51.7071 43.6993 54.818 43.0986L58.3496 42.4165L55.8935 39.7887C53.7301 37.4742 50.1841 35.7128 46.5803 35Z" fill="#003267"/>
</svg>
