<svg width="71" height="70" viewBox="0 0 71 70" fill="none" xmlns="http://www.w3.org/2000/svg">
<rect x="0.5" width="70" height="70" rx="24" fill="#003267"/>
<path d="M44.8713 46.694V58.7374C44.8713 59.7539 44.5537 60.4436 43.9229 60.8067C43.2876 61.1651 42.5298 61.088 41.6404 60.5752L19.0376 47.5244C18.1481 47.0116 17.3858 46.213 16.755 45.1193C16.1243 44.0303 15.8066 42.973 15.8066 41.9565V16.0183C15.8066 14.9973 16.1243 14.3076 16.755 13.9491L16.9547 13.8493C17.5446 13.6087 18.2389 13.7177 19.0376 14.176L24.8823 17.5521L28.1132 19.4172L39.1764 25.8064C39.6347 26.0696 40.0204 26.4689 40.329 26.9998C40.6376 27.5353 40.7918 28.0662 40.7918 28.5881C40.7918 29.1099 40.6376 29.4639 40.329 29.6409C40.0204 29.8178 39.6347 29.7724 39.1764 29.5093L28.1132 23.12L24.8823 21.255L19.0376 17.8788V43.8215L41.6404 56.8724V44.8289C41.6404 44.3025 41.7947 43.9531 42.1033 43.7761L42.1986 43.7308C42.489 43.6082 42.8429 43.6718 43.2559 43.9077C43.7142 44.1709 44.0954 44.5703 44.404 45.1057C44.7171 45.6366 44.8713 46.1676 44.8713 46.694Z" fill="white"/>
<path d="M55.0763 31.5057C55.0763 32.0275 54.913 32.386 54.5908 32.5675L39.7748 41.0124L39.6569 41.0714L35.1281 43.3358L31.693 45.0556L30.6992 45.5502L31.634 45.0193L34.8603 43.1769L38.7402 40.967L45.5151 37.1053C45.8373 36.9238 46.0007 36.5653 46.0007 36.0435C46.0007 35.5217 45.8373 34.9907 45.5151 34.4643C45.193 33.938 44.8163 33.5522 44.3852 33.3027C44.3535 33.2845 44.3217 33.2664 44.29 33.2527C43.9406 33.0712 43.6956 33.3073 43.4414 33.4117L52.3718 28.6469C52.6668 28.479 53.0298 28.5153 53.4609 28.7648C53.8919 29.0144 54.2686 29.4001 54.5908 29.9265C54.913 30.4529 55.0763 30.9793 55.0763 31.5057Z" fill="#CEDB63"/>
<path d="M46 36.0436C46 36.5655 46.0319 37.5413 45.7097 37.7228L39.1299 41.3531L34.8189 43.3951L31.6333 45.0194L30.6985 45.5504C30.3763 45.7364 29.9997 45.7046 29.5686 45.4551C29.1375 45.2055 28.7609 44.8062 28.4387 44.248L27.4358 42.5191L26.1335 40.2729L24.9446 38.2218L21.5775 32.4088C21.2826 31.9006 21.1328 31.3833 21.1328 30.8569C21.1328 30.3305 21.2826 29.9857 21.5775 29.8178L21.6774 29.7678C21.9587 29.6635 22.299 29.7225 22.7074 29.9584C23.1658 30.2262 23.5424 30.6119 23.8374 31.1201L24.881 32.9216L28.112 38.4941L28.7972 39.6784L29.5686 41.008L30.34 40.5678L36.1076 37.2825L38.4492 35.9077L43.2955 33.1848L43.3863 33.1394C43.6404 33.0351 43.9399 33.0714 44.2893 33.2529C44.321 33.2665 44.3528 33.2846 44.3846 33.3028C44.8157 33.5524 45.1923 33.9381 45.5145 34.4645C45.8367 34.9909 46 35.5172 46 36.0436Z" fill="#97A339"/>
<path d="M41.64 47.0933V56.8725L19.0371 43.8215L25.7622 40.459L26.1343 40.2729L27.4366 42.5192L28.4395 44.2481C28.7617 44.8062 29.1383 45.2056 29.5694 45.4551C30.0005 45.7047 30.3771 45.7365 30.6993 45.5504L31.6931 45.0558L35.1282 43.336L41.64 47.0933Z" fill="#B8D2F9"/>
<path d="M21.1336 30.8571C21.1336 31.3834 21.2833 31.9008 21.5783 32.409L24.9453 38.2219L26.1343 40.273L25.7622 40.4591L19.0371 43.8216V17.8789L24.8818 21.255L28.1127 23.1201V26.5507L21.5783 29.8179C21.2833 29.9858 21.1336 30.3307 21.1336 30.8571Z" fill="#97B7EA"/>
<path d="M38.3678 35.9938L36.108 37.2825L30.3404 40.5679L29.569 41.0081L28.7976 39.6785L28.1124 38.4941L24.8814 32.9217L23.8377 31.1202C23.5428 30.6119 23.1662 30.2262 22.7079 29.9585C22.2995 29.7225 21.9591 29.6635 21.6777 29.7679L30.6535 25.28C30.9485 25.1121 31.3252 25.1575 31.7835 25.4207C32.2418 25.6884 32.6184 26.0741 32.9134 26.5824L38.3678 35.9938Z" fill="#D4E5FF"/>
<path d="M49.8679 24.0504C49.8679 24.5768 49.7136 24.9262 49.405 25.1032L49.3097 25.1485L40.3293 29.641C40.6379 29.464 40.7923 29.1146 40.7923 28.5882C40.7923 28.0618 40.6379 27.5354 40.3293 27C40.0208 26.469 39.6351 26.0697 39.1768 25.8065L28.1136 19.4173L24.8827 17.5522L19.0379 14.1761C18.2393 13.7178 17.545 13.6089 16.9551 13.8494L25.831 9.41139C26.4618 9.04837 27.2242 9.12551 28.1136 9.63829L48.2524 21.2687C48.7107 21.5319 49.0964 21.9312 49.405 22.4621C49.7136 22.9976 49.8679 23.5285 49.8679 24.0504Z" fill="white"/>
<path d="M53.9457 42.1561V54.1995C53.9457 55.2159 53.6281 55.9057 52.9973 56.2687L52.7976 56.3686L43.9217 60.8065C44.5524 60.4435 44.87 59.7538 44.87 58.7373V46.6939C44.87 46.1675 44.7158 45.6366 44.4027 45.1057C44.0941 44.5702 43.7129 44.1709 43.2546 43.9077C42.8416 43.6717 42.4877 43.6082 42.1973 43.7307L51.1776 39.2383C51.4862 39.0613 51.8719 39.1067 52.3302 39.3699C52.7885 39.633 53.1698 40.0324 53.4783 40.5678C53.7914 41.0988 53.9457 41.6297 53.9457 42.1561Z" fill="white" stroke="#D4E5FF" stroke-width="0.453782"/>
</svg>
