<svg width="232" height="150" viewBox="0 0 232 150" fill="none" xmlns="http://www.w3.org/2000/svg">
<path d="M60 71.0909C60 49.8348 60 39.2068 67.3564 32.6035C74.7127 26 86.5527 26 110.233 26H117.767C141.447 26 153.287 26 160.643 32.6035C168 39.2068 168 49.8348 168 71.0909V150H60V71.0909Z" fill="#050504"/>
<path d="M142.344 39.0864H86.6562C79.6664 39.0864 74 44.1376 74 50.3685V71.8044C74 78.0353 79.6664 83.0864 86.6562 83.0864H142.344C149.334 83.0864 155 78.0353 155 71.8044V50.3685C155 44.1376 149.334 39.0864 142.344 39.0864Z" fill="#232322"/>
<path d="M150.57 106.086H78.4297C75.9832 106.086 74 107.877 74 110.086C74 112.296 75.9832 114.086 78.4297 114.086H150.57C153.017 114.086 155 112.296 155 110.086C155 107.877 153.017 106.086 150.57 106.086Z" fill="#232322"/>
<path d="M141.59 122.086H87.41C84.9744 122.086 83 123.877 83 126.086C83 128.296 84.9744 130.086 87.41 130.086H141.59C144.026 130.086 146 128.296 146 126.086C146 123.877 144.026 122.086 141.59 122.086Z" fill="#232322"/>
<rect x="175" y="91.3667" width="38" height="22" rx="11" fill="#9747FF"/>
<path d="M186.192 107.367V103.335L183.132 98.4267H184.728L187.176 102.399H186.612L189.048 98.4267H190.644L187.596 103.335V107.367H186.192ZM193.569 107.511C192.945 107.511 192.373 107.363 191.853 107.067C191.341 106.771 190.933 106.367 190.629 105.855C190.325 105.343 190.173 104.763 190.173 104.115C190.173 103.459 190.325 102.879 190.629 102.375C190.933 101.863 191.341 101.463 191.853 101.175C192.365 100.879 192.937 100.731 193.569 100.731C194.209 100.731 194.781 100.879 195.285 101.175C195.797 101.463 196.201 101.863 196.497 102.375C196.801 102.879 196.953 103.459 196.953 104.115C196.953 104.771 196.801 105.355 196.497 105.867C196.193 106.379 195.785 106.783 195.273 107.079C194.761 107.367 194.193 107.511 193.569 107.511ZM193.569 106.251C193.953 106.251 194.293 106.159 194.589 105.975C194.885 105.791 195.117 105.539 195.285 105.219C195.461 104.891 195.549 104.523 195.549 104.115C195.549 103.707 195.461 103.343 195.285 103.023C195.117 102.703 194.885 102.451 194.589 102.267C194.293 102.083 193.953 101.991 193.569 101.991C193.193 101.991 192.853 102.083 192.549 102.267C192.253 102.451 192.017 102.703 191.841 103.023C191.673 103.343 191.589 103.707 191.589 104.115C191.589 104.523 191.673 104.891 191.841 105.219C192.017 105.539 192.253 105.791 192.549 105.975C192.853 106.159 193.193 106.251 193.569 106.251ZM200.592 107.511C200.104 107.511 199.676 107.403 199.308 107.187C198.94 106.963 198.652 106.655 198.444 106.263C198.244 105.863 198.144 105.403 198.144 104.883V100.875H199.5V104.763C199.5 105.059 199.56 105.319 199.68 105.543C199.8 105.767 199.968 105.943 200.184 106.071C200.4 106.191 200.648 106.251 200.928 106.251C201.216 106.251 201.468 106.187 201.684 106.059C201.9 105.931 202.068 105.751 202.188 105.519C202.316 105.287 202.38 105.015 202.38 104.703V100.875H203.724V107.367H202.44V106.095L202.584 106.263C202.432 106.663 202.18 106.971 201.828 107.187C201.476 107.403 201.064 107.511 200.592 107.511Z" fill="white"/>
<path fill-rule="evenodd" clip-rule="evenodd" d="M175 78L180.092 91.2288L182.298 86.4887L182.424 86.2516L188.379 83.9594L175 78Z" fill="#606C7D"/>
<rect x="18.5" y="102" width="57" height="22" rx="11" fill="#DBDBD8"/>
<path d="M27.424 118V109.06H30.352C31.28 109.06 32.084 109.248 32.764 109.624C33.452 109.992 33.984 110.512 34.36 111.184C34.736 111.856 34.924 112.636 34.924 113.524C34.924 114.404 34.736 115.184 34.36 115.864C33.984 116.536 33.452 117.06 32.764 117.436C32.084 117.812 31.28 118 30.352 118H27.424ZM28.84 116.74H30.376C31.008 116.74 31.556 116.608 32.02 116.344C32.492 116.08 32.856 115.708 33.112 115.228C33.368 114.748 33.496 114.18 33.496 113.524C33.496 112.868 33.364 112.304 33.1 111.832C32.844 111.352 32.484 110.98 32.02 110.716C31.556 110.452 31.008 110.32 30.376 110.32H28.84V116.74ZM39.2345 118.144C38.5865 118.144 38.0105 117.996 37.5065 117.7C37.0105 117.396 36.6225 116.988 36.3425 116.476C36.0625 115.956 35.9225 115.376 35.9225 114.736C35.9225 114.08 36.0625 113.5 36.3425 112.996C36.6305 112.492 37.0145 112.096 37.4945 111.808C37.9745 111.512 38.5185 111.364 39.1265 111.364C39.6145 111.364 40.0505 111.448 40.4345 111.616C40.8185 111.784 41.1425 112.016 41.4065 112.312C41.6705 112.6 41.8705 112.932 42.0065 113.308C42.1505 113.684 42.2225 114.084 42.2225 114.508C42.2225 114.612 42.2185 114.72 42.2105 114.832C42.2025 114.944 42.1865 115.048 42.1625 115.144H36.9905V114.064H41.3945L40.7465 114.556C40.8265 114.164 40.7985 113.816 40.6625 113.512C40.5345 113.2 40.3345 112.956 40.0625 112.78C39.7985 112.596 39.4865 112.504 39.1265 112.504C38.7665 112.504 38.4465 112.596 38.1665 112.78C37.8865 112.956 37.6705 113.212 37.5185 113.548C37.3665 113.876 37.3065 114.276 37.3385 114.748C37.2985 115.188 37.3585 115.572 37.5185 115.9C37.6865 116.228 37.9185 116.484 38.2145 116.668C38.5185 116.852 38.8625 116.944 39.2465 116.944C39.6385 116.944 39.9705 116.856 40.2425 116.68C40.5225 116.504 40.7425 116.276 40.9025 115.996L42.0065 116.536C41.8785 116.84 41.6785 117.116 41.4065 117.364C41.1425 117.604 40.8225 117.796 40.4465 117.94C40.0785 118.076 39.6745 118.144 39.2345 118.144ZM45.9459 118.144C45.2819 118.144 44.6979 117.98 44.1939 117.652C43.6979 117.324 43.3499 116.884 43.1499 116.332L44.1939 115.84C44.3699 116.208 44.6099 116.5 44.9139 116.716C45.2259 116.932 45.5699 117.04 45.9459 117.04C46.2659 117.04 46.5259 116.968 46.7259 116.824C46.9259 116.68 47.0259 116.484 47.0259 116.236C47.0259 116.076 46.9819 115.948 46.8939 115.852C46.8059 115.748 46.6939 115.664 46.5579 115.6C46.4299 115.536 46.2979 115.488 46.1619 115.456L45.1419 115.168C44.5819 115.008 44.1619 114.768 43.8819 114.448C43.6099 114.12 43.4739 113.74 43.4739 113.308C43.4739 112.916 43.5739 112.576 43.7739 112.288C43.9739 111.992 44.2499 111.764 44.6019 111.604C44.9539 111.444 45.3499 111.364 45.7899 111.364C46.3819 111.364 46.9099 111.512 47.3739 111.808C47.8379 112.096 48.1659 112.5 48.3579 113.02L47.3139 113.512C47.1859 113.2 46.9819 112.952 46.7019 112.768C46.4299 112.584 46.1219 112.492 45.7779 112.492C45.4819 112.492 45.2459 112.564 45.0699 112.708C44.8939 112.844 44.8059 113.024 44.8059 113.248C44.8059 113.4 44.8459 113.528 44.9259 113.632C45.0059 113.728 45.1099 113.808 45.2379 113.872C45.3659 113.928 45.4979 113.976 45.6339 114.016L46.6899 114.328C47.2259 114.48 47.6379 114.72 47.9259 115.048C48.2139 115.368 48.3579 115.752 48.3579 116.2C48.3579 116.584 48.2539 116.924 48.0459 117.22C47.8459 117.508 47.5659 117.736 47.2059 117.904C46.8459 118.064 46.4259 118.144 45.9459 118.144ZM49.6865 118V111.508H51.0425V118H49.6865ZM49.6865 110.62V109.06H51.0425V110.62H49.6865ZM55.7599 120.64C55.2879 120.64 54.8519 120.564 54.4519 120.412C54.0519 120.26 53.7079 120.048 53.4199 119.776C53.1319 119.512 52.9159 119.2 52.7719 118.84L54.0199 118.324C54.1319 118.628 54.3359 118.88 54.6319 119.08C54.9359 119.28 55.3079 119.38 55.7479 119.38C56.0919 119.38 56.3999 119.312 56.6719 119.176C56.9439 119.048 57.1599 118.856 57.3199 118.6C57.4799 118.352 57.5599 118.052 57.5599 117.7V116.236L57.7999 116.512C57.5759 116.928 57.2639 117.244 56.8639 117.46C56.4719 117.676 56.0279 117.784 55.5319 117.784C54.9319 117.784 54.3919 117.644 53.9119 117.364C53.4319 117.084 53.0519 116.7 52.7719 116.212C52.4999 115.724 52.3639 115.176 52.3639 114.568C52.3639 113.952 52.4999 113.404 52.7719 112.924C53.0519 112.444 53.4279 112.064 53.8999 111.784C54.3719 111.504 54.9119 111.364 55.5199 111.364C56.0159 111.364 56.4559 111.472 56.8399 111.688C57.2319 111.896 57.5519 112.2 57.7999 112.6L57.6199 112.936V111.508H58.9039V117.7C58.9039 118.26 58.7679 118.76 58.4959 119.2C58.2319 119.648 57.8639 120 57.3919 120.256C56.9199 120.512 56.3759 120.64 55.7599 120.64ZM55.6879 116.524C56.0479 116.524 56.3679 116.44 56.6479 116.272C56.9279 116.096 57.1479 115.864 57.3079 115.576C57.4759 115.28 57.5599 114.948 57.5599 114.58C57.5599 114.212 57.4759 113.88 57.3079 113.584C57.1399 113.288 56.9159 113.056 56.6359 112.888C56.3559 112.712 56.0399 112.624 55.6879 112.624C55.3199 112.624 54.9919 112.712 54.7039 112.888C54.4159 113.056 54.1879 113.288 54.0199 113.584C53.8599 113.872 53.7799 114.204 53.7799 114.58C53.7799 114.94 53.8599 115.268 54.0199 115.564C54.1879 115.86 54.4159 116.096 54.7039 116.272C54.9919 116.44 55.3199 116.524 55.6879 116.524ZM60.4912 118V111.508H61.7872V112.78L61.6312 112.612C61.7912 112.204 62.0472 111.896 62.3992 111.688C62.7512 111.472 63.1592 111.364 63.6232 111.364C64.1032 111.364 64.5272 111.468 64.8952 111.676C65.2632 111.884 65.5512 112.172 65.7592 112.54C65.9672 112.908 66.0712 113.332 66.0712 113.812V118H64.7272V114.172C64.7272 113.844 64.6672 113.568 64.5472 113.344C64.4272 113.112 64.2552 112.936 64.0312 112.816C63.8152 112.688 63.5672 112.624 63.2872 112.624C63.0072 112.624 62.7552 112.688 62.5312 112.816C62.3152 112.936 62.1472 113.112 62.0272 113.344C61.9072 113.576 61.8472 113.852 61.8472 114.172V118H60.4912Z" fill="#060C15"/>
<path fill-rule="evenodd" clip-rule="evenodd" d="M68.379 91L63.2867 104.229L61.0806 99.4887L60.9547 99.2516L55 96.9594L68.379 91Z" fill="#F56630"/>
</svg>
