<svg width="368" height="279" viewBox="0 0 368 279" fill="none" xmlns="http://www.w3.org/2000/svg">
<g filter="url(#filter0_d_9450_93558)">
<rect x="24.5" y="11.5" width="351" height="242.204" rx="5.00314" fill="white" stroke="#989898"/>
<rect opacity="0.3" x="294.281" y="218.767" width="56.6325" height="22.3301" rx="4.85437" fill="#2E365A"/>
<rect opacity="0.5" x="305.459" y="228.374" width="34.3145" height="3.30189" rx="1.65094" fill="white"/>
<path d="M39.0266 42.8113V34.2016H42.1584C42.7362 34.2016 43.2447 34.3095 43.6839 34.5252C44.1307 34.7332 44.4774 35.0414 44.724 35.4497C44.9705 35.8504 45.0938 36.3319 45.0938 36.8943C45.0938 37.449 44.9667 37.9267 44.7124 38.3273C44.4659 38.7279 44.123 39.0361 43.6839 39.2518C43.2447 39.4676 42.7362 39.5754 42.1584 39.5754H40.3903V42.8113H39.0266ZM40.3903 38.362H42.1931C42.5013 38.362 42.7709 38.3004 43.002 38.1771C43.2332 38.0538 43.4142 37.8843 43.5452 37.6686C43.6762 37.4452 43.7417 37.1832 43.7417 36.8827C43.7417 36.5823 43.6762 36.3242 43.5452 36.1084C43.4142 35.885 43.2332 35.7155 43.002 35.6C42.7709 35.4767 42.5013 35.4151 42.1931 35.4151H40.3903V38.362ZM46.3706 42.8113V36.5592H47.6187V37.8188L47.5032 37.6339C47.6418 37.2256 47.8653 36.9328 48.1734 36.7556C48.4816 36.5707 48.8514 36.4783 49.2829 36.4783H49.6642V37.6686H49.1211C48.6896 37.6686 48.3391 37.8034 48.0694 38.0731C47.8075 38.335 47.6765 38.7125 47.6765 39.2056V42.8113H46.3706ZM53.5739 42.95C52.973 42.95 52.4221 42.8074 51.9213 42.5224C51.4282 42.2373 51.0353 41.8482 50.7425 41.3551C50.4498 40.8621 50.3034 40.3035 50.3034 39.6794C50.3034 39.0477 50.4498 38.4891 50.7425 38.0037C51.0353 37.5107 51.4282 37.1254 51.9213 36.8481C52.4144 36.563 52.9653 36.4205 53.5739 36.4205C54.1903 36.4205 54.7411 36.563 55.2265 36.8481C55.7196 37.1254 56.1087 37.5107 56.3937 38.0037C56.6865 38.4891 56.8329 39.0477 56.8329 39.6794C56.8329 40.3112 56.6865 40.8736 56.3937 41.3667C56.1009 41.8598 55.708 42.2489 55.2149 42.5339C54.7219 42.8113 54.1748 42.95 53.5739 42.95ZM53.5739 41.7365C53.9437 41.7365 54.2712 41.6479 54.5562 41.4707C54.8413 41.2935 55.0647 41.0508 55.2265 40.7426C55.396 40.4268 55.4807 40.0724 55.4807 39.6794C55.4807 39.2865 55.396 38.936 55.2265 38.6278C55.0647 38.3196 54.8413 38.0769 54.5562 37.8997C54.2712 37.7225 53.9437 37.6339 53.5739 37.6339C53.2118 37.6339 52.8844 37.7225 52.5916 37.8997C52.3065 38.0769 52.0792 38.3196 51.9098 38.6278C51.748 38.936 51.6671 39.2865 51.6671 39.6794C51.6671 40.0724 51.748 40.4268 51.9098 40.7426C52.0792 41.0508 52.3065 41.2935 52.5916 41.4707C52.8844 41.6479 53.2118 41.7365 53.5739 41.7365ZM57.1486 45.3653C57.0638 45.3653 56.9714 45.3576 56.8712 45.3422C56.7634 45.3345 56.6748 45.3229 56.6054 45.3075V44.175C56.7518 44.1981 56.8982 44.2096 57.0446 44.2096C57.3682 44.2096 57.6263 44.1249 57.8189 43.9554C58.0115 43.7936 58.1078 43.547 58.1078 43.2158V36.5592H59.4137V43.2158C59.4137 43.6703 59.3174 44.0594 59.1248 44.383C58.9322 44.7066 58.6664 44.9493 58.3274 45.111C57.9884 45.2805 57.5954 45.3653 57.1486 45.3653ZM58.1078 35.704V34.2016H59.4137V35.704H58.1078ZM63.8759 42.95C63.2518 42.95 62.6971 42.8074 62.2117 42.5224C61.7341 42.2296 61.3604 41.8367 61.0907 41.3436C60.8211 40.8428 60.6863 40.2842 60.6863 39.6679C60.6863 39.0361 60.8211 38.4776 61.0907 37.9922C61.3681 37.5068 61.7379 37.1254 62.2002 36.8481C62.6624 36.563 63.1863 36.4205 63.7719 36.4205C64.2419 36.4205 64.6617 36.5014 65.0316 36.6632C65.4014 36.825 65.7134 37.0484 65.9676 37.3334C66.2219 37.6108 66.4145 37.9305 66.5455 38.2926C66.6841 38.6548 66.7535 39.04 66.7535 39.4483C66.7535 39.5485 66.7496 39.6525 66.7419 39.7603C66.7342 39.8682 66.7188 39.9684 66.6957 40.0608H61.7148V39.0207H65.9561L65.332 39.4945C65.4091 39.117 65.3821 38.7819 65.2511 38.4891C65.1279 38.1886 64.9352 37.9537 64.6733 37.7842C64.4191 37.607 64.1186 37.5184 63.7719 37.5184C63.4252 37.5184 63.117 37.607 62.8474 37.7842C62.5777 37.9537 62.3697 38.2002 62.2233 38.5238C62.0769 38.8397 62.0191 39.2249 62.0499 39.6794C62.0114 40.1032 62.0692 40.473 62.2233 40.7889C62.3851 41.1048 62.6085 41.3513 62.8936 41.5285C63.1863 41.7057 63.5176 41.7943 63.8874 41.7943C64.265 41.7943 64.5847 41.7095 64.8466 41.5401C65.1163 41.3706 65.3282 41.151 65.4823 40.8813L66.5455 41.4014C66.4222 41.6941 66.2296 41.9599 65.9676 42.1988C65.7134 42.4299 65.4052 42.6148 65.0431 42.7535C64.6887 42.8845 64.2996 42.95 63.8759 42.95ZM70.998 42.95C70.374 42.95 69.8192 42.8074 69.3339 42.5224C68.8562 42.2296 68.4748 41.8367 68.1898 41.3436C67.9124 40.8505 67.7737 40.2919 67.7737 39.6679C67.7737 39.0515 67.9124 38.4968 68.1898 38.0037C68.4671 37.5107 68.8485 37.1254 69.3339 36.8481C69.8192 36.563 70.374 36.4205 70.998 36.4205C71.4218 36.4205 71.8185 36.4975 72.1883 36.6516C72.5582 36.798 72.8779 37.0022 73.1475 37.2641C73.4249 37.5261 73.6291 37.8304 73.76 38.1771L72.6159 38.7087C72.485 38.3851 72.2731 38.127 71.9803 37.9344C71.6953 37.7341 71.3678 37.6339 70.998 37.6339C70.6436 37.6339 70.3239 37.7225 70.0388 37.8997C69.7615 38.0692 69.5419 38.3119 69.3801 38.6278C69.2183 38.936 69.1374 39.2865 69.1374 39.6794C69.1374 40.0724 69.2183 40.4268 69.3801 40.7426C69.5419 41.0508 69.7615 41.2935 70.0388 41.4707C70.3239 41.6479 70.6436 41.7365 70.998 41.7365C71.3755 41.7365 71.703 41.6402 71.9803 41.4476C72.2654 41.2473 72.4773 40.9815 72.6159 40.6502L73.76 41.1934C73.6368 41.5246 73.4365 41.8251 73.1591 42.0948C72.8894 42.3567 72.5697 42.5647 72.1999 42.7188C71.8301 42.8729 71.4295 42.95 70.998 42.95ZM77.7407 42.8806C77.0858 42.8806 76.5773 42.6957 76.2152 42.3259C75.8531 41.9561 75.672 41.436 75.672 40.7658V37.7379H74.5741V36.5592H74.7475C75.0403 36.5592 75.2675 36.4744 75.4293 36.3049C75.5911 36.1354 75.672 35.9043 75.672 35.6115V35.1261H76.9779V36.5592H78.3994V37.7379H76.9779V40.708C76.9779 40.9237 77.0126 41.1086 77.0819 41.2627C77.1513 41.4091 77.263 41.5246 77.4171 41.6094C77.5712 41.6864 77.7715 41.725 78.018 41.725C78.0796 41.725 78.149 41.7211 78.226 41.7134C78.3031 41.7057 78.3763 41.698 78.4456 41.6903V42.8113C78.3377 42.8267 78.2183 42.8421 78.0874 42.8575C77.9564 42.8729 77.8408 42.8806 77.7407 42.8806ZM82.0313 42.95C81.3918 42.95 80.8294 42.792 80.344 42.4761C79.8664 42.1603 79.5312 41.7365 79.3386 41.2049L80.344 40.7311C80.5135 41.0855 80.7447 41.3667 81.0374 41.5747C81.3379 41.7827 81.6692 41.8868 82.0313 41.8868C82.3395 41.8868 82.5899 41.8174 82.7825 41.6787C82.9751 41.5401 83.0714 41.3513 83.0714 41.1125C83.0714 40.9584 83.029 40.8351 82.9443 40.7426C82.8595 40.6425 82.7517 40.5616 82.6207 40.5C82.4974 40.4383 82.3703 40.3921 82.2393 40.3613L81.257 40.0839C80.7177 39.9298 80.3132 39.6987 80.0436 39.3905C79.7816 39.0746 79.6507 38.7087 79.6507 38.2926C79.6507 37.9151 79.747 37.5877 79.9396 37.3103C80.1322 37.0253 80.398 36.8057 80.737 36.6516C81.076 36.4975 81.4573 36.4205 81.8811 36.4205C82.4512 36.4205 82.9597 36.563 83.4065 36.8481C83.8534 37.1254 84.1693 37.5145 84.3542 38.0153L83.3488 38.4891C83.2255 38.1886 83.029 37.9498 82.7594 37.7726C82.4974 37.5954 82.2008 37.5068 81.8695 37.5068C81.5845 37.5068 81.3572 37.5761 81.1877 37.7148C81.0182 37.8458 80.9334 38.0191 80.9334 38.2349C80.9334 38.3812 80.972 38.5045 81.049 38.6047C81.126 38.6971 81.2262 38.7742 81.3495 38.8358C81.4727 38.8897 81.5999 38.936 81.7308 38.9745L82.7478 39.275C83.264 39.4213 83.6608 39.6525 83.9382 39.9684C84.2155 40.2765 84.3542 40.6463 84.3542 41.0778C84.3542 41.4476 84.254 41.775 84.0537 42.0601C83.8611 42.3375 83.5915 42.557 83.2448 42.7188C82.8981 42.8729 82.4936 42.95 82.0313 42.95ZM87.6539 45.1226V36.5592H88.902V37.8535L88.7517 37.553C88.9829 37.1986 89.2911 36.9213 89.6763 36.7209C90.0615 36.5206 90.5006 36.4205 90.9937 36.4205C91.587 36.4205 92.1186 36.563 92.5885 36.8481C93.0662 37.1331 93.4399 37.5222 93.7095 38.0153C93.9869 38.5084 94.1256 39.0631 94.1256 39.6794C94.1256 40.2958 93.9869 40.8505 93.7095 41.3436C93.4399 41.8367 93.0701 42.2296 92.6001 42.5224C92.1301 42.8074 91.5947 42.95 90.9937 42.95C90.5084 42.95 90.0653 42.8498 89.6647 42.6495C89.2718 42.4492 88.9675 42.1603 88.7517 41.7827L88.9598 41.5401V45.1226H87.6539ZM90.8666 41.7365C91.2364 41.7365 91.5639 41.6479 91.8489 41.4707C92.134 41.2935 92.3574 41.0508 92.5192 40.7426C92.6887 40.4268 92.7734 40.0724 92.7734 39.6794C92.7734 39.2865 92.6887 38.936 92.5192 38.6278C92.3574 38.3196 92.134 38.0769 91.8489 37.8997C91.5639 37.7225 91.2364 37.6339 90.8666 37.6339C90.5045 37.6339 90.1771 37.7225 89.8843 37.8997C89.5992 38.0769 89.372 38.3196 89.2025 38.6278C89.0407 38.936 88.9598 39.2865 88.9598 39.6794C88.9598 40.0724 89.0407 40.4268 89.2025 40.7426C89.372 41.0508 89.5992 41.2935 89.8843 41.4707C90.1771 41.6479 90.5045 41.7365 90.8666 41.7365ZM95.3959 42.8113V34.0629H96.7018V42.8113H95.3959ZM100.101 42.95C99.677 42.95 99.3034 42.8768 98.9798 42.7304C98.6639 42.5763 98.4174 42.3683 98.2402 42.1063C98.063 41.8367 97.9744 41.5208 97.9744 41.1587C97.9744 40.8197 98.0476 40.5154 98.1939 40.2457C98.348 39.9761 98.583 39.7488 98.8989 39.5639C99.2148 39.379 99.6116 39.248 100.089 39.1709L102.262 38.8127V39.8412L100.343 40.1764C99.9968 40.238 99.7425 40.3497 99.5807 40.5115C99.4189 40.6656 99.338 40.8659 99.338 41.1125C99.338 41.3513 99.4266 41.5478 99.6038 41.7018C99.7888 41.8482 100.024 41.9214 100.309 41.9214C100.663 41.9214 100.971 41.8444 101.233 41.6903C101.503 41.5362 101.711 41.332 101.857 41.0778C102.004 40.8158 102.077 40.5269 102.077 40.211V38.6047C102.077 38.2965 101.961 38.0461 101.73 37.8535C101.507 37.6532 101.206 37.553 100.829 37.553C100.482 37.553 100.178 37.6455 99.9159 37.8304C99.6616 38.0076 99.4729 38.2387 99.3496 38.5238L98.2633 37.9806C98.3788 37.6724 98.5676 37.4028 98.8296 37.1717C99.0915 36.9328 99.3958 36.7479 99.7425 36.6169C100.097 36.486 100.471 36.4205 100.864 36.4205C101.357 36.4205 101.792 36.5129 102.169 36.6978C102.555 36.8827 102.851 37.1408 103.059 37.4721C103.275 37.7957 103.383 38.1732 103.383 38.6047V42.8113H102.135V41.6787L102.401 41.7134C102.254 41.9676 102.065 42.1872 101.834 42.3721C101.611 42.557 101.353 42.6996 101.06 42.7997C100.775 42.8999 100.455 42.95 100.101 42.95ZM104.91 42.8113V36.5592H106.158V37.7842L106.008 37.6224C106.162 37.2294 106.408 36.9328 106.747 36.7325C107.086 36.5245 107.479 36.4205 107.926 36.4205C108.388 36.4205 108.797 36.5206 109.151 36.7209C109.505 36.9213 109.783 37.1986 109.983 37.553C110.183 37.9074 110.284 38.3158 110.284 38.778V42.8113H108.989V39.1247C108.989 38.8088 108.931 38.543 108.816 38.3273C108.7 38.1039 108.535 37.9344 108.319 37.8188C108.111 37.6956 107.872 37.6339 107.602 37.6339C107.333 37.6339 107.09 37.6956 106.874 37.8188C106.666 37.9344 106.505 38.1039 106.389 38.3273C106.273 38.5507 106.216 38.8165 106.216 39.1247V42.8113H104.91ZM111.681 42.8113V36.5592H112.929V37.7842L112.779 37.6224C112.933 37.2294 113.18 36.9328 113.519 36.7325C113.858 36.5245 114.251 36.4205 114.697 36.4205C115.16 36.4205 115.568 36.5206 115.922 36.7209C116.277 36.9213 116.554 37.1986 116.755 37.553C116.955 37.9074 117.055 38.3158 117.055 38.778V42.8113H115.761V39.1247C115.761 38.8088 115.703 38.543 115.587 38.3273C115.472 38.1039 115.306 37.9344 115.09 37.8188C114.882 37.6956 114.644 37.6339 114.374 37.6339C114.104 37.6339 113.862 37.6956 113.646 37.8188C113.438 37.9344 113.276 38.1039 113.16 38.3273C113.045 38.5507 112.987 38.8165 112.987 39.1247V42.8113H111.681ZM118.453 42.8113V36.5592H119.759V42.8113H118.453ZM118.453 35.704V34.2016H119.759V35.704H118.453ZM121.285 42.8113V36.5592H122.534V37.7842L122.383 37.6224C122.537 37.2294 122.784 36.9328 123.123 36.7325C123.462 36.5245 123.855 36.4205 124.302 36.4205C124.764 36.4205 125.172 36.5206 125.527 36.7209C125.881 36.9213 126.158 37.1986 126.359 37.553C126.559 37.9074 126.659 38.3158 126.659 38.778V42.8113H125.365V39.1247C125.365 38.8088 125.307 38.543 125.192 38.3273C125.076 38.1039 124.91 37.9344 124.695 37.8188C124.487 37.6956 124.248 37.6339 123.978 37.6339C123.708 37.6339 123.466 37.6956 123.25 37.8188C123.042 37.9344 122.88 38.1039 122.765 38.3273C122.649 38.5507 122.591 38.8165 122.591 39.1247V42.8113H121.285ZM131.073 45.3537C130.619 45.3537 130.199 45.2805 129.813 45.1342C129.428 44.9878 129.097 44.7836 128.82 44.5217C128.542 44.2674 128.334 43.9669 128.196 43.6202L129.397 43.1233C129.505 43.4161 129.702 43.6588 129.987 43.8514C130.28 44.044 130.638 44.1403 131.062 44.1403C131.393 44.1403 131.689 44.0748 131.951 43.9438C132.213 43.8206 132.421 43.6357 132.575 43.3891C132.73 43.1503 132.807 42.8614 132.807 42.5224V41.1125L133.038 41.3783C132.822 41.7789 132.522 42.0832 132.136 42.2912C131.759 42.4993 131.331 42.6033 130.854 42.6033C130.276 42.6033 129.756 42.4684 129.293 42.1988C128.831 41.9291 128.465 41.5593 128.196 41.0893C127.934 40.6194 127.803 40.0916 127.803 39.5061C127.803 38.9129 127.934 38.3851 128.196 37.9228C128.465 37.4606 128.827 37.0946 129.282 36.825C129.736 36.5553 130.256 36.4205 130.842 36.4205C131.32 36.4205 131.743 36.5245 132.113 36.7325C132.491 36.9328 132.799 37.2256 133.038 37.6108L132.864 37.9344V36.5592H134.101V42.5224C134.101 43.0617 133.97 43.5432 133.708 43.9669C133.454 44.3984 133.099 44.7374 132.645 44.9839C132.19 45.2305 131.666 45.3537 131.073 45.3537ZM131.004 41.3898C131.35 41.3898 131.659 41.3089 131.928 41.1471C132.198 40.9776 132.41 40.7542 132.564 40.4768C132.726 40.1918 132.807 39.872 132.807 39.5176C132.807 39.1632 132.726 38.8435 132.564 38.5584C132.402 38.2734 132.186 38.05 131.917 37.8882C131.647 37.7187 131.343 37.6339 131.004 37.6339C130.649 37.6339 130.333 37.7187 130.056 37.8882C129.779 38.05 129.559 38.2734 129.397 38.5584C129.243 38.8358 129.166 39.1555 129.166 39.5176C129.166 39.8643 129.243 40.1802 129.397 40.4653C129.559 40.7504 129.779 40.9776 130.056 41.1471C130.333 41.3089 130.649 41.3898 131.004 41.3898Z" fill="black"/>
<rect x="38.2115" y="176.777" width="312.458" height="30.5825" rx="6.5534" stroke="#F1F1F1" stroke-width="0.485437"/>
<rect x="46.4414" y="68.783" width="17.0874" height="16.9903" rx="8.49515" fill="#008EFF" fill-opacity="0.1"/>
<path fill-rule="evenodd" clip-rule="evenodd" d="M51.4219 80.0109C51.4219 80.413 51.7479 80.739 52.15 80.739H57.0405C57.4426 80.739 57.7686 80.413 57.7686 80.0109V76.153C57.7686 75.7509 57.4426 75.4249 57.0405 75.4249H53.9606L53.2269 74.5473C53.0885 74.3818 52.8839 74.2861 52.6682 74.2861H52.15C51.7479 74.2861 51.4219 74.6121 51.4219 75.0143V80.0109Z" stroke="#008EFF" stroke-width="0.970874"/>
<path d="M72.299 80.6499V74.8635H74.3417C74.7248 74.8635 75.0614 74.936 75.3514 75.081C75.6414 75.226 75.8666 75.4331 76.0271 75.7023C76.1928 75.9716 76.2757 76.2874 76.2757 76.6499C76.2757 77.0124 76.1928 77.3282 76.0271 77.5975C75.8666 77.8616 75.6414 78.0687 75.3514 78.2188C75.0666 78.3638 74.73 78.4363 74.3417 78.4363H73.0601V80.6499H72.299ZM73.0601 77.7373H74.365C74.598 77.7373 74.7999 77.6933 74.9708 77.6052C75.1417 77.5172 75.2737 77.3904 75.3669 77.2247C75.4601 77.059 75.5067 76.8674 75.5067 76.6499C75.5067 76.4272 75.4601 76.2357 75.3669 76.0751C75.2737 75.9094 75.1417 75.7826 74.9708 75.6946C74.7999 75.6065 74.598 75.5625 74.365 75.5625H73.0601V77.7373ZM77.2196 80.6499V76.4635H77.9264V77.2324L77.8487 77.1237C77.9471 76.8855 78.0973 76.7094 78.2992 76.5955C78.5011 76.4764 78.7471 76.4169 79.0371 76.4169H79.2934V77.1004H78.9283C78.6332 77.1004 78.395 77.1936 78.2138 77.38C78.0325 77.5612 77.9419 77.8201 77.9419 78.1567V80.6499H77.2196ZM81.9234 80.7431C81.5195 80.7431 81.1544 80.6499 80.8282 80.4635C80.502 80.2719 80.2431 80.0104 80.0515 79.679C79.8599 79.3476 79.7641 78.9722 79.7641 78.5528C79.7641 78.1334 79.8573 77.7606 80.0437 77.4344C80.2353 77.1082 80.4942 76.8493 80.8204 76.6577C81.1467 76.4661 81.5143 76.3703 81.9234 76.3703C82.3272 76.3703 82.6923 76.4661 83.0185 76.6577C83.3447 76.8441 83.601 77.1004 83.7874 77.4266C83.979 77.7528 84.0748 78.1282 84.0748 78.5528C84.0748 78.9774 83.9764 79.3554 83.7797 79.6868C83.5829 80.013 83.3214 80.2719 82.9952 80.4635C82.6742 80.6499 82.3169 80.7431 81.9234 80.7431ZM81.9234 80.0441C82.1822 80.0441 82.4153 79.9794 82.6224 79.8499C82.8347 79.7205 83.0004 79.5418 83.1195 79.314C83.2437 79.0861 83.3059 78.8324 83.3059 78.5528C83.3059 78.268 83.2437 78.0169 83.1195 77.7994C83.0004 77.5768 82.8347 77.4007 82.6224 77.2713C82.4153 77.1366 82.1822 77.0693 81.9234 77.0693C81.6593 77.0693 81.4211 77.1366 81.2088 77.2713C81.0017 77.4007 80.836 77.5768 80.7117 77.7994C80.5874 78.0169 80.5253 78.268 80.5253 78.5528C80.5253 78.8324 80.5874 79.0861 80.7117 79.314C80.836 79.5418 81.0017 79.7205 81.2088 79.8499C81.4211 79.9794 81.6593 80.0441 81.9234 80.0441ZM84.3024 82.3586C84.2558 82.3586 84.1988 82.3561 84.1315 82.3509C84.0642 82.3457 84.0098 82.3379 83.9684 82.3276V81.6751C84.0719 81.6907 84.1755 81.6984 84.2791 81.6984C84.4914 81.6984 84.6674 81.6389 84.8072 81.5198C84.947 81.4007 85.0169 81.2195 85.0169 80.9761V76.4635H85.7392V80.9761C85.7392 81.2764 85.6771 81.5276 85.5528 81.7295C85.4286 81.9366 85.2577 82.092 85.0402 82.1955C84.8227 82.3043 84.5768 82.3586 84.3024 82.3586ZM85.0169 75.7955V74.8635H85.7392V75.7955H85.0169ZM88.7863 80.7431C88.3824 80.7431 88.0225 80.6473 87.7067 80.4557C87.3908 80.2641 87.1423 80.0027 86.961 79.6713C86.7798 79.3347 86.6892 78.9593 86.6892 78.545C86.6892 78.1256 86.7772 77.7528 86.9533 77.4266C87.1345 77.1004 87.3779 76.8441 87.6834 76.6577C87.994 76.4661 88.341 76.3703 88.7241 76.3703C89.0348 76.3703 89.3093 76.4272 89.5474 76.5412C89.7908 76.6499 89.9953 76.8001 90.161 76.9916C90.3319 77.1781 90.4614 77.3929 90.5494 77.6363C90.6426 77.8745 90.6892 78.123 90.6892 78.3819C90.6892 78.4389 90.684 78.5036 90.6737 78.5761C90.6685 78.6434 90.6607 78.7082 90.6504 78.7703H87.2173V78.1489H90.2309L89.8892 78.4285C89.9358 78.1593 89.9099 77.9185 89.8115 77.7062C89.7131 77.4939 89.5682 77.3256 89.3766 77.2014C89.185 77.0771 88.9675 77.015 88.7241 77.015C88.4808 77.015 88.2581 77.0771 88.0562 77.2014C87.8542 77.3256 87.6963 77.5043 87.5824 77.7373C87.4737 77.9651 87.4296 78.237 87.4504 78.5528C87.4296 78.8583 87.4762 79.1276 87.5902 79.3606C87.7093 79.5884 87.8749 79.7671 88.0872 79.8965C88.3047 80.0208 88.5403 80.0829 88.794 80.0829C89.0737 80.0829 89.3093 80.0182 89.5008 79.8887C89.6924 79.7593 89.8478 79.5936 89.9669 79.3916L90.5727 79.7023C90.4898 79.8939 90.3604 80.07 90.1843 80.2305C90.0135 80.3858 89.8089 80.5101 89.5707 80.6033C89.3377 80.6965 89.0762 80.7431 88.7863 80.7431ZM93.5727 80.7431C93.1637 80.7431 92.7986 80.6473 92.4776 80.4557C92.1617 80.2641 91.9132 80.0027 91.732 79.6713C91.5507 79.3399 91.4601 78.9671 91.4601 78.5528C91.4601 78.1334 91.5507 77.7606 91.732 77.4344C91.9132 77.1082 92.1617 76.8493 92.4776 76.6577C92.7986 76.4661 93.1637 76.3703 93.5727 76.3703C93.8472 76.3703 94.1035 76.4195 94.3417 76.5179C94.5799 76.6162 94.7896 76.7483 94.9708 76.914C95.152 77.0797 95.2841 77.2739 95.3669 77.4965L94.7223 77.8072C94.6239 77.5897 94.4737 77.4137 94.2718 77.279C94.0698 77.1392 93.8368 77.0693 93.5727 77.0693C93.319 77.0693 93.0886 77.134 92.8815 77.2635C92.6795 77.3929 92.519 77.569 92.3999 77.7916C92.2808 78.0143 92.2213 78.2706 92.2213 78.5606C92.2213 78.8402 92.2808 79.0939 92.3999 79.3217C92.519 79.5444 92.6795 79.7205 92.8815 79.8499C93.0886 79.9794 93.319 80.0441 93.5727 80.0441C93.8368 80.0441 94.0698 79.9768 94.2718 79.8421C94.4737 79.7023 94.6239 79.5185 94.7223 79.2907L95.3669 79.6169C95.2841 79.8344 95.152 80.0285 94.9708 80.1994C94.7896 80.3651 94.5799 80.4972 94.3417 80.5955C94.1035 80.6939 93.8472 80.7431 93.5727 80.7431ZM98.0119 80.6965C97.6028 80.6965 97.287 80.58 97.0643 80.347C96.8468 80.114 96.7381 79.7852 96.7381 79.3606V77.1548H95.9769V76.4635H96.1323C96.3187 76.4635 96.4663 76.4065 96.575 76.2926C96.6837 76.1787 96.7381 76.0285 96.7381 75.8421V75.5004H97.4604V76.4635H98.4002V77.1548H97.4604V79.3373C97.4604 79.4771 97.4811 79.5988 97.5226 79.7023C97.5692 79.8059 97.6442 79.8887 97.7478 79.9509C97.8514 80.0078 97.9886 80.0363 98.1595 80.0363C98.1957 80.0363 98.2397 80.0337 98.2915 80.0285C98.3485 80.0234 98.4002 80.0182 98.4468 80.013V80.6499C98.3795 80.6654 98.3044 80.6758 98.2216 80.681C98.1387 80.6913 98.0688 80.6965 98.0119 80.6965ZM100.733 80.6499V76.4635H101.455V80.6499H100.733ZM100.733 75.7955V74.8635H101.455V75.7955H100.733ZM102.576 80.6499V76.4635H103.283V77.279L103.166 77.2091C103.27 76.945 103.436 76.7405 103.663 76.5955C103.896 76.4454 104.168 76.3703 104.479 76.3703C104.779 76.3703 105.046 76.4376 105.279 76.5722C105.517 76.7069 105.704 76.8933 105.838 77.1315C105.978 77.3696 106.048 77.6389 106.048 77.9392V80.6499H105.318V78.1722C105.318 77.9392 105.276 77.7425 105.194 77.5819C105.111 77.4214 104.992 77.2972 104.836 77.2091C104.686 77.1159 104.513 77.0693 104.316 77.0693C104.119 77.0693 103.943 77.1159 103.788 77.2091C103.638 77.2972 103.518 77.424 103.43 77.5897C103.342 77.7502 103.298 77.9444 103.298 78.1722V80.6499H102.576ZM107.082 80.6499V76.4635H107.804V80.6499H107.082ZM107.082 75.7955V74.8635H107.804V75.7955H107.082ZM110.626 80.6965C110.217 80.6965 109.901 80.58 109.678 80.347C109.461 80.114 109.352 79.7852 109.352 79.3606V77.1548H108.591V76.4635H108.746C108.932 76.4635 109.08 76.4065 109.189 76.2926C109.298 76.1787 109.352 76.0285 109.352 75.8421V75.5004H110.074V76.4635H111.014V77.1548H110.074V79.3373C110.074 79.4771 110.095 79.5988 110.136 79.7023C110.183 79.8059 110.258 79.8887 110.362 79.9509C110.465 80.0078 110.602 80.0363 110.773 80.0363C110.809 80.0363 110.853 80.0337 110.905 80.0285C110.962 80.0234 111.014 80.0182 111.061 80.013V80.6499C110.993 80.6654 110.918 80.6758 110.835 80.681C110.753 80.6913 110.683 80.6965 110.626 80.6965ZM112.004 80.6499V76.4635H112.727V80.6499H112.004ZM112.004 75.7955V74.8635H112.727V75.7955H112.004ZM115.075 80.7431C114.8 80.7431 114.557 80.6939 114.344 80.5955C114.137 80.492 113.974 80.3522 113.855 80.1761C113.736 79.9949 113.676 79.7878 113.676 79.5548C113.676 79.3321 113.723 79.1328 113.816 78.9567C113.915 78.7755 114.065 78.6227 114.267 78.4984C114.474 78.3742 114.733 78.2861 115.043 78.2344L116.597 77.9781V78.5839L115.207 78.8169C114.937 78.8635 114.741 78.9489 114.616 79.0732C114.497 79.1975 114.438 79.3502 114.438 79.5315C114.438 79.7023 114.505 79.8447 114.64 79.9586C114.779 80.0726 114.953 80.1295 115.16 80.1295C115.424 80.1295 115.652 80.0751 115.843 79.9664C116.04 79.8525 116.193 79.6997 116.302 79.5082C116.416 79.3166 116.473 79.1043 116.473 78.8713V77.8072C116.473 77.5794 116.387 77.3955 116.216 77.2557C116.051 77.1107 115.83 77.0383 115.556 77.0383C115.318 77.0383 115.106 77.1004 114.919 77.2247C114.738 77.3438 114.603 77.5043 114.515 77.7062L113.886 77.38C113.964 77.1884 114.088 77.0175 114.259 76.8674C114.43 76.712 114.629 76.5904 114.857 76.5023C115.085 76.4143 115.323 76.3703 115.572 76.3703C115.893 76.3703 116.175 76.4324 116.418 76.5567C116.662 76.6758 116.851 76.8441 116.985 77.0616C117.125 77.2739 117.195 77.5224 117.195 77.8072V80.6499H116.488V79.8577L116.62 79.9043C116.532 80.07 116.413 80.215 116.263 80.3392C116.113 80.4635 115.937 80.5619 115.735 80.6344C115.533 80.7069 115.313 80.7431 115.075 80.7431ZM119.94 80.6965C119.531 80.6965 119.215 80.58 118.992 80.347C118.775 80.114 118.666 79.7852 118.666 79.3606V77.1548H117.905V76.4635H118.06C118.247 76.4635 118.394 76.4065 118.503 76.2926C118.612 76.1787 118.666 76.0285 118.666 75.8421V75.5004H119.389V76.4635H120.328V77.1548H119.389V79.3373C119.389 79.4771 119.409 79.5988 119.451 79.7023C119.497 79.8059 119.572 79.8887 119.676 79.9509C119.779 80.0078 119.917 80.0363 120.088 80.0363C120.124 80.0363 120.168 80.0337 120.22 80.0285C120.277 80.0234 120.328 80.0182 120.375 80.013V80.6499C120.308 80.6654 120.233 80.6758 120.15 80.681C120.067 80.6913 119.997 80.6965 119.94 80.6965ZM121.318 80.6499V76.4635H122.041V80.6499H121.318ZM121.318 75.7955V74.8635H122.041V75.7955H121.318ZM125.15 80.7431C124.746 80.7431 124.381 80.6499 124.055 80.4635C123.729 80.2719 123.47 80.0104 123.278 79.679C123.087 79.3476 122.991 78.9722 122.991 78.5528C122.991 78.1334 123.084 77.7606 123.27 77.4344C123.462 77.1082 123.721 76.8493 124.047 76.6577C124.373 76.4661 124.741 76.3703 125.15 76.3703C125.554 76.3703 125.919 76.4661 126.245 76.6577C126.571 76.8441 126.828 77.1004 127.014 77.4266C127.206 77.7528 127.301 78.1282 127.301 78.5528C127.301 78.9774 127.203 79.3554 127.006 79.6868C126.81 80.013 126.548 80.2719 126.222 80.4635C125.901 80.6499 125.544 80.7431 125.15 80.7431ZM125.15 80.0441C125.409 80.0441 125.642 79.9794 125.849 79.8499C126.061 79.7205 126.227 79.5418 126.346 79.314C126.47 79.0861 126.533 78.8324 126.533 78.5528C126.533 78.268 126.47 78.0169 126.346 77.7994C126.227 77.5768 126.061 77.4007 125.849 77.2713C125.642 77.1366 125.409 77.0693 125.15 77.0693C124.886 77.0693 124.648 77.1366 124.435 77.2713C124.228 77.4007 124.063 77.5768 123.938 77.7994C123.814 78.0169 123.752 78.268 123.752 78.5528C123.752 78.8324 123.814 79.0861 123.938 79.314C124.063 79.5418 124.228 79.7205 124.435 79.8499C124.648 79.9794 124.886 80.0441 125.15 80.0441ZM128.244 80.6499V76.4635H128.95V77.279L128.834 77.2091C128.937 76.945 129.103 76.7405 129.331 76.5955C129.564 76.4454 129.836 76.3703 130.146 76.3703C130.447 76.3703 130.713 76.4376 130.946 76.5722C131.185 76.7069 131.371 76.8933 131.506 77.1315C131.645 77.3696 131.715 77.6389 131.715 77.9392V80.6499H130.985V78.1722C130.985 77.9392 130.944 77.7425 130.861 77.5819C130.778 77.4214 130.659 77.2972 130.504 77.2091C130.354 77.1159 130.18 77.0693 129.983 77.0693C129.787 77.0693 129.611 77.1159 129.455 77.2091C129.305 77.2972 129.186 77.424 129.098 77.5897C129.01 77.7502 128.966 77.9444 128.966 78.1722V80.6499H128.244Z" fill="#2A2829"/>
<rect x="38.2115" y="61.7276" width="312.458" height="30.5825" rx="6.5534" stroke="#F1F1F1" stroke-width="0.485437"/>
<rect x="249.852" y="76.5337" width="91.7836" height="1.45631" rx="0.728155" fill="#DBDBD8"/>
<rect x="249.852" y="76.5337" width="78.1137" height="1.45631" rx="0.728155" fill="#008EFF"/>
<rect x="192.246" y="67.3105" width="46.38" height="19.9029" rx="4.85437" fill="#F2F3F4"/>
<path d="M205.718 79.762L204.297 74.6989H204.997L206.187 79.1571H206.024L207.26 74.6989H207.96L209.191 79.1571H209.021L210.217 74.6989H210.917L209.496 79.762H208.756L207.519 75.3241H207.695L206.459 79.762H205.718ZM212.915 79.8435C212.561 79.8435 212.246 79.7597 211.97 79.5921C211.694 79.4244 211.476 79.1956 211.318 78.9057C211.159 78.6112 211.08 78.2827 211.08 77.9202C211.08 77.5532 211.157 77.227 211.311 76.9416C211.469 76.6561 211.682 76.4319 211.95 76.2688C212.222 76.1011 212.525 76.0173 212.86 76.0173C213.132 76.0173 213.372 76.0671 213.581 76.1668C213.794 76.262 213.973 76.3934 214.118 76.561C214.267 76.7241 214.38 76.9121 214.457 77.1251C214.539 77.3335 214.58 77.551 214.58 77.7775C214.58 77.8273 214.575 77.884 214.566 77.9474C214.562 78.0063 214.555 78.0629 214.546 78.1173H211.542V77.5736H214.179L213.88 77.8183C213.921 77.5827 213.898 77.372 213.812 77.1862C213.726 77.0005 213.599 76.8532 213.431 76.7445C213.264 76.6357 213.073 76.5814 212.86 76.5814C212.647 76.5814 212.453 76.6357 212.276 76.7445C212.099 76.8532 211.961 77.0095 211.861 77.2134C211.766 77.4128 211.728 77.6506 211.746 77.927C211.728 78.1943 211.768 78.4299 211.868 78.6338C211.972 78.8332 212.117 78.9895 212.303 79.1027C212.493 79.2115 212.7 79.2658 212.922 79.2658C213.166 79.2658 213.372 79.2092 213.54 79.0959C213.708 78.9827 213.844 78.8377 213.948 78.661L214.478 78.9328C214.405 79.1005 214.292 79.2545 214.138 79.395C213.989 79.5309 213.81 79.6396 213.601 79.7212C213.397 79.8027 213.168 79.8435 212.915 79.8435ZM217.089 79.8435C216.736 79.8435 216.421 79.7597 216.145 79.5921C215.868 79.4244 215.651 79.1956 215.492 78.9057C215.334 78.6112 215.254 78.2827 215.254 77.9202C215.254 77.5532 215.331 77.227 215.485 76.9416C215.644 76.6561 215.857 76.4319 216.124 76.2688C216.396 76.1011 216.7 76.0173 217.035 76.0173C217.307 76.0173 217.547 76.0671 217.755 76.1668C217.968 76.262 218.147 76.3934 218.292 76.561C218.442 76.7241 218.555 76.9121 218.632 77.1251C218.714 77.3335 218.754 77.551 218.754 77.7775C218.754 77.8273 218.75 77.884 218.741 77.9474C218.736 78.0063 218.729 78.0629 218.72 78.1173H215.716V77.5736H218.353L218.054 77.8183C218.095 77.5827 218.072 77.372 217.986 77.1862C217.9 77.0005 217.773 76.8532 217.606 76.7445C217.438 76.6357 217.248 76.5814 217.035 76.5814C216.822 76.5814 216.627 76.6357 216.45 76.7445C216.274 76.8532 216.136 77.0095 216.036 77.2134C215.941 77.4128 215.902 77.6506 215.92 77.927C215.902 78.1943 215.943 78.4299 216.043 78.6338C216.147 78.8332 216.292 78.9895 216.478 79.1027C216.668 79.2115 216.874 79.2658 217.096 79.2658C217.341 79.2658 217.547 79.2092 217.715 79.0959C217.882 78.9827 218.018 78.8377 218.122 78.661L218.652 78.9328C218.58 79.1005 218.467 79.2545 218.313 79.395C218.163 79.5309 217.984 79.6396 217.776 79.7212C217.572 79.8027 217.343 79.8435 217.089 79.8435ZM219.578 79.762V74.6173H220.21V78.1445L219.952 78.0833L221.896 76.0989H222.705L221.298 77.5736L222.8 79.762H222.052L220.679 77.7775L221.074 77.7571L220.007 78.8717L220.21 78.4095V79.762H219.578ZM225.263 79.762V75.2765H224.305V74.6989H225.936V79.762H225.263Z" fill="#2A2829"/>
<rect opacity="0.1" x="46.4414" y="107.305" width="17.0874" height="16.9903" rx="8.49515" fill="#FABB18"/>
<path fill-rule="evenodd" clip-rule="evenodd" d="M51.4219 117.983C51.4219 118.385 51.7479 118.711 52.15 118.711H57.0405C57.4426 118.711 57.7686 118.385 57.7686 117.983V114.125C57.7686 113.723 57.4426 113.397 57.0405 113.397H53.9606L53.2269 112.519C53.0885 112.353 52.8839 112.258 52.6682 112.258H52.15C51.7479 112.258 51.4219 112.584 51.4219 112.986V117.983Z" stroke="#FABB18" stroke-width="0.970874"/>
<path d="M71.3243 119V113.214H73.2195C73.8046 113.214 74.3146 113.333 74.7496 113.571C75.1845 113.809 75.5211 114.146 75.7593 114.581C75.9975 115.011 76.1166 115.518 76.1166 116.103C76.1166 116.683 75.9975 117.191 75.7593 117.625C75.5211 118.06 75.1845 118.4 74.7496 118.643C74.3146 118.881 73.8046 119 73.2195 119H71.3243ZM72.0855 118.301H73.2273C73.657 118.301 74.0273 118.211 74.3379 118.029C74.6538 117.848 74.8972 117.594 75.068 117.268C75.2389 116.937 75.3243 116.548 75.3243 116.103C75.3243 115.653 75.2363 115.264 75.0603 114.938C74.8894 114.612 74.646 114.361 74.3302 114.185C74.0195 114.003 73.6519 113.913 73.2273 113.913H72.0855V118.301ZM78.9221 119.093C78.5182 119.093 78.1583 118.998 77.8425 118.806C77.5266 118.614 77.2781 118.353 77.0969 118.022C76.9156 117.685 76.825 117.31 76.825 116.895C76.825 116.476 76.913 116.103 77.0891 115.777C77.2703 115.451 77.5137 115.194 77.8192 115.008C78.1299 114.816 78.4768 114.721 78.86 114.721C79.1706 114.721 79.4451 114.778 79.6833 114.892C79.9266 115 80.1312 115.15 80.2969 115.342C80.4677 115.528 80.5972 115.743 80.6852 115.987C80.7784 116.225 80.825 116.473 80.825 116.732C80.825 116.789 80.8198 116.854 80.8095 116.926C80.8043 116.994 80.7965 117.058 80.7862 117.121H77.3532V116.499H80.3668L80.025 116.779C80.0716 116.51 80.0457 116.269 79.9473 116.057C79.849 115.844 79.704 115.676 79.5124 115.552C79.3208 115.427 79.1033 115.365 78.86 115.365C78.6166 115.365 78.3939 115.427 78.192 115.552C77.9901 115.676 77.8321 115.855 77.7182 116.088C77.6095 116.315 77.5655 116.587 77.5862 116.903C77.5655 117.209 77.6121 117.478 77.726 117.711C77.8451 117.939 78.0108 118.117 78.2231 118.247C78.4405 118.371 78.6761 118.433 78.9299 118.433C79.2095 118.433 79.4451 118.369 79.6367 118.239C79.8283 118.11 79.9836 117.944 80.1027 117.742L80.7085 118.053C80.6257 118.244 80.4962 118.42 80.3202 118.581C80.1493 118.736 79.9448 118.86 79.7066 118.954C79.4736 119.047 79.2121 119.093 78.9221 119.093ZM82.2095 119V115.505H81.4095V114.814H82.2095V114.519C82.2095 114.218 82.2743 113.965 82.4037 113.758C82.5383 113.55 82.7144 113.392 82.9319 113.284C83.1545 113.175 83.4005 113.121 83.6697 113.121C83.7267 113.121 83.7888 113.126 83.8561 113.136C83.9286 113.141 83.9882 113.149 84.0348 113.159V113.804C83.9934 113.794 83.9442 113.789 83.8872 113.789C83.8303 113.783 83.7862 113.781 83.7552 113.781C83.517 113.781 83.3202 113.838 83.1649 113.952C83.0147 114.066 82.9396 114.255 82.9396 114.519V114.814H85.1144V115.505H82.9396V119H82.2095ZM84.6639 119V114.814H85.394V119H84.6639ZM86.3936 119V114.814H87.1004V115.629L86.9839 115.559C87.0875 115.295 87.2532 115.091 87.481 114.946C87.714 114.796 87.9859 114.721 88.2966 114.721C88.5969 114.721 88.8635 114.788 89.0966 114.923C89.3347 115.057 89.5212 115.244 89.6558 115.482C89.7956 115.72 89.8655 115.989 89.8655 116.29V119H89.1354V116.523C89.1354 116.29 89.094 116.093 89.0111 115.932C88.9283 115.772 88.8092 115.647 88.6538 115.559C88.5037 115.466 88.3302 115.42 88.1334 115.42C87.9367 115.42 87.7606 115.466 87.6053 115.559C87.4551 115.647 87.336 115.774 87.248 115.94C87.16 116.101 87.116 116.295 87.116 116.523V119H86.3936ZM90.8991 119V114.814H91.6214V119H90.8991ZM90.8991 114.146V113.214H91.6214V114.146H90.8991ZM94.4432 119.047C94.0342 119.047 93.7183 118.93 93.4956 118.697C93.2782 118.464 93.1694 118.136 93.1694 117.711V115.505H92.4083V114.814H92.5636C92.75 114.814 92.8976 114.757 93.0063 114.643C93.1151 114.529 93.1694 114.379 93.1694 114.192V113.851H93.8918V114.814H94.8316V115.505H93.8918V117.688C93.8918 117.827 93.9125 117.949 93.9539 118.053C94.0005 118.156 94.0756 118.239 94.1791 118.301C94.2827 118.358 94.4199 118.387 94.5908 118.387C94.627 118.387 94.6711 118.384 94.7228 118.379C94.7798 118.374 94.8316 118.369 94.8782 118.363V119C94.8109 119.016 94.7358 119.026 94.6529 119.031C94.5701 119.042 94.5002 119.047 94.4432 119.047ZM95.8217 119V114.814H96.5441V119H95.8217ZM95.8217 114.146V113.214H96.5441V114.146H95.8217ZM99.6532 119.093C99.2493 119.093 98.8843 119 98.5581 118.814C98.2319 118.622 97.973 118.361 97.7814 118.029C97.5898 117.698 97.494 117.323 97.494 116.903C97.494 116.484 97.5872 116.111 97.7736 115.785C97.9652 115.458 98.2241 115.2 98.5503 115.008C98.8765 114.816 99.2442 114.721 99.6532 114.721C100.057 114.721 100.422 114.816 100.748 115.008C101.075 115.194 101.331 115.451 101.517 115.777C101.709 116.103 101.805 116.479 101.805 116.903C101.805 117.328 101.706 117.706 101.51 118.037C101.313 118.363 101.051 118.622 100.725 118.814C100.404 119 100.047 119.093 99.6532 119.093ZM99.6532 118.394C99.9121 118.394 100.145 118.33 100.352 118.2C100.565 118.071 100.73 117.892 100.849 117.664C100.974 117.436 101.036 117.183 101.036 116.903C101.036 116.618 100.974 116.367 100.849 116.15C100.73 115.927 100.565 115.751 100.352 115.622C100.145 115.487 99.9121 115.42 99.6532 115.42C99.3892 115.42 99.151 115.487 98.9387 115.622C98.7315 115.751 98.5659 115.927 98.4416 116.15C98.3173 116.367 98.2552 116.618 98.2552 116.903C98.2552 117.183 98.3173 117.436 98.4416 117.664C98.5659 117.892 98.7315 118.071 98.9387 118.2C99.151 118.33 99.3892 118.394 99.6532 118.394ZM102.747 119V114.814H103.454V115.629L103.337 115.559C103.441 115.295 103.606 115.091 103.834 114.946C104.067 114.796 104.339 114.721 104.65 114.721C104.95 114.721 105.217 114.788 105.45 114.923C105.688 115.057 105.874 115.244 106.009 115.482C106.149 115.72 106.219 115.989 106.219 116.29V119H105.489V116.523C105.489 116.29 105.447 116.093 105.364 115.932C105.281 115.772 105.162 115.647 105.007 115.559C104.857 115.466 104.683 115.42 104.487 115.42C104.29 115.42 104.114 115.466 103.958 115.559C103.808 115.647 103.689 115.774 103.601 115.94C103.513 116.101 103.469 116.295 103.469 116.523V119H102.747ZM110.203 119.093C109.876 119.093 109.586 119.034 109.333 118.915C109.079 118.791 108.88 118.617 108.735 118.394C108.595 118.167 108.525 117.905 108.525 117.61C108.525 117.356 108.571 117.134 108.665 116.942C108.758 116.745 108.872 116.577 109.006 116.437C109.146 116.297 109.286 116.181 109.426 116.088C109.571 115.989 109.69 115.912 109.783 115.855L110.226 115.598C110.376 115.51 110.521 115.414 110.661 115.311C110.801 115.207 110.917 115.088 111.01 114.954C111.104 114.814 111.15 114.658 111.15 114.488C111.15 114.286 111.083 114.117 110.948 113.983C110.814 113.848 110.645 113.781 110.443 113.781C110.241 113.781 110.073 113.848 109.938 113.983C109.804 114.117 109.737 114.288 109.737 114.495C109.737 114.635 109.77 114.772 109.838 114.907C109.905 115.042 109.988 115.171 110.086 115.295C110.184 115.414 110.283 115.526 110.381 115.629L113.527 119H112.571L109.814 116.095C109.69 115.966 109.566 115.824 109.441 115.668C109.317 115.513 109.211 115.342 109.123 115.156C109.04 114.964 108.999 114.754 108.999 114.526C108.999 114.247 109.063 114.003 109.193 113.796C109.327 113.584 109.504 113.418 109.721 113.299C109.938 113.18 110.179 113.121 110.443 113.121C110.702 113.121 110.938 113.18 111.15 113.299C111.368 113.413 111.541 113.574 111.671 113.781C111.8 113.988 111.865 114.226 111.865 114.495C111.865 114.77 111.8 115.011 111.671 115.218C111.541 115.42 111.386 115.593 111.205 115.738C111.023 115.878 110.852 115.994 110.692 116.088L110.257 116.352C110.127 116.435 109.99 116.533 109.845 116.647C109.7 116.756 109.576 116.888 109.472 117.043C109.369 117.193 109.317 117.377 109.317 117.594C109.317 117.853 109.4 118.055 109.566 118.2C109.737 118.345 109.957 118.418 110.226 118.418C110.397 118.418 110.549 118.389 110.684 118.332C110.819 118.275 110.938 118.2 111.041 118.107C111.15 118.014 111.246 117.913 111.329 117.804C111.412 117.69 111.489 117.579 111.562 117.47L112.455 116.142H113.286L112.238 117.742C112.16 117.871 112.061 118.014 111.942 118.169C111.823 118.325 111.683 118.472 111.523 118.612C111.362 118.752 111.173 118.868 110.956 118.961C110.744 119.049 110.493 119.093 110.203 119.093ZM115.793 120.554V114.814H116.5V115.715L116.407 115.536C116.562 115.288 116.774 115.091 117.043 114.946C117.313 114.796 117.621 114.721 117.968 114.721C118.361 114.721 118.713 114.816 119.024 115.008C119.34 115.2 119.588 115.461 119.77 115.792C119.951 116.119 120.041 116.492 120.041 116.911C120.041 117.32 119.951 117.69 119.77 118.022C119.588 118.353 119.34 118.614 119.024 118.806C118.713 118.998 118.359 119.093 117.96 119.093C117.623 119.093 117.315 119.018 117.036 118.868C116.761 118.718 116.549 118.506 116.399 118.231L116.515 118.107V120.554H115.793ZM117.906 118.394C118.17 118.394 118.405 118.33 118.612 118.2C118.819 118.071 118.98 117.895 119.094 117.672C119.213 117.444 119.273 117.191 119.273 116.911C119.273 116.621 119.213 116.367 119.094 116.15C118.98 115.927 118.819 115.751 118.612 115.622C118.405 115.487 118.17 115.42 117.906 115.42C117.641 115.42 117.403 115.484 117.191 115.614C116.984 115.743 116.818 115.922 116.694 116.15C116.575 116.372 116.515 116.626 116.515 116.911C116.515 117.191 116.575 117.444 116.694 117.672C116.818 117.895 116.984 118.071 117.191 118.2C117.403 118.33 117.641 118.394 117.906 118.394ZM120.989 119V113.121H121.711V119H120.989ZM124.059 119.093C123.784 119.093 123.541 119.044 123.329 118.946C123.122 118.842 122.959 118.703 122.84 118.526C122.72 118.345 122.661 118.138 122.661 117.905C122.661 117.682 122.707 117.483 122.801 117.307C122.899 117.126 123.049 116.973 123.251 116.849C123.458 116.725 123.717 116.636 124.028 116.585L125.581 116.328V116.934L124.191 117.167C123.922 117.214 123.725 117.299 123.601 117.424C123.482 117.548 123.422 117.701 123.422 117.882C123.422 118.053 123.489 118.195 123.624 118.309C123.764 118.423 123.937 118.48 124.144 118.48C124.408 118.48 124.636 118.425 124.828 118.317C125.025 118.203 125.177 118.05 125.286 117.858C125.4 117.667 125.457 117.455 125.457 117.222V116.158C125.457 115.93 125.372 115.746 125.201 115.606C125.035 115.461 124.815 115.389 124.54 115.389C124.302 115.389 124.09 115.451 123.904 115.575C123.722 115.694 123.588 115.855 123.5 116.057L122.871 115.73C122.948 115.539 123.073 115.368 123.243 115.218C123.414 115.062 123.614 114.941 123.841 114.853C124.069 114.765 124.307 114.721 124.556 114.721C124.877 114.721 125.159 114.783 125.403 114.907C125.646 115.026 125.835 115.194 125.97 115.412C126.109 115.624 126.179 115.873 126.179 116.158V119H125.473V118.208L125.605 118.255C125.517 118.42 125.397 118.565 125.247 118.69C125.097 118.814 124.921 118.912 124.719 118.985C124.517 119.057 124.297 119.093 124.059 119.093ZM127.299 119V114.814H128.006V115.629L127.89 115.559C127.993 115.295 128.159 115.091 128.387 114.946C128.62 114.796 128.892 114.721 129.202 114.721C129.503 114.721 129.769 114.788 130.002 114.923C130.24 115.057 130.427 115.244 130.561 115.482C130.701 115.72 130.771 115.989 130.771 116.29V119H130.041V116.523C130.041 116.29 130 116.093 129.917 115.932C129.834 115.772 129.715 115.647 129.559 115.559C129.409 115.466 129.236 115.42 129.039 115.42C128.842 115.42 128.666 115.466 128.511 115.559C128.361 115.647 128.242 115.774 128.154 115.94C128.066 116.101 128.022 116.295 128.022 116.523V119H127.299ZM131.805 119V114.814H132.512V115.629L132.395 115.559C132.499 115.295 132.664 115.091 132.892 114.946C133.125 114.796 133.397 114.721 133.708 114.721C134.008 114.721 134.275 114.788 134.508 114.923C134.746 115.057 134.932 115.244 135.067 115.482C135.207 115.72 135.277 115.989 135.277 116.29V119H134.546V116.523C134.546 116.29 134.505 116.093 134.422 115.932C134.339 115.772 134.22 115.647 134.065 115.559C133.915 115.466 133.741 115.42 133.545 115.42C133.348 115.42 133.172 115.466 133.016 115.559C132.866 115.647 132.747 115.774 132.659 115.94C132.571 116.101 132.527 116.295 132.527 116.523V119H131.805ZM136.31 119V114.814H137.033V119H136.31ZM136.31 114.146V113.214H137.033V114.146H136.31ZM138.153 119V114.814H138.86V115.629L138.744 115.559C138.847 115.295 139.013 115.091 139.241 114.946C139.474 114.796 139.746 114.721 140.056 114.721C140.357 114.721 140.623 114.788 140.856 114.923C141.094 115.057 141.281 115.244 141.415 115.482C141.555 115.72 141.625 115.989 141.625 116.29V119H140.895V116.523C140.895 116.29 140.854 116.093 140.771 115.932C140.688 115.772 140.569 115.647 140.414 115.559C140.263 115.466 140.09 115.42 139.893 115.42C139.696 115.42 139.52 115.466 139.365 115.559C139.215 115.647 139.096 115.774 139.008 115.94C138.92 116.101 138.876 116.295 138.876 116.523V119H138.153ZM144.655 120.709C144.36 120.709 144.085 120.662 143.832 120.569C143.583 120.476 143.368 120.347 143.187 120.181C143.011 120.02 142.876 119.831 142.783 119.614L143.459 119.303C143.531 119.5 143.669 119.666 143.87 119.8C144.078 119.94 144.336 120.01 144.647 120.01C144.885 120.01 145.1 119.963 145.292 119.87C145.489 119.782 145.644 119.647 145.758 119.466C145.872 119.29 145.929 119.075 145.929 118.822V117.882L146.061 118.022C145.916 118.306 145.706 118.524 145.432 118.674C145.162 118.824 144.865 118.899 144.538 118.899C144.145 118.899 143.793 118.809 143.482 118.627C143.171 118.441 142.928 118.19 142.752 117.874C142.576 117.553 142.488 117.198 142.488 116.81C142.488 116.416 142.576 116.062 142.752 115.746C142.928 115.43 143.169 115.181 143.474 115C143.785 114.814 144.137 114.721 144.531 114.721C144.857 114.721 145.152 114.796 145.416 114.946C145.685 115.091 145.9 115.293 146.061 115.552L145.952 115.746V114.814H146.659V118.822C146.659 119.184 146.573 119.508 146.402 119.792C146.232 120.077 145.993 120.3 145.688 120.46C145.388 120.626 145.043 120.709 144.655 120.709ZM144.601 118.2C144.849 118.2 145.072 118.138 145.269 118.014C145.47 117.89 145.631 117.724 145.75 117.517C145.869 117.304 145.929 117.069 145.929 116.81C145.929 116.556 145.869 116.323 145.75 116.111C145.631 115.899 145.47 115.73 145.269 115.606C145.072 115.482 144.849 115.42 144.601 115.42C144.347 115.42 144.116 115.482 143.909 115.606C143.702 115.73 143.539 115.899 143.42 116.111C143.306 116.318 143.249 116.551 143.249 116.81C143.249 117.069 143.306 117.304 143.42 117.517C143.539 117.724 143.7 117.89 143.902 118.014C144.109 118.138 144.342 118.2 144.601 118.2Z" fill="#2A2829"/>
<rect x="38.2115" y="100.078" width="312.458" height="30.5825" rx="6.5534" stroke="#F1F1F1" stroke-width="0.485437"/>
<rect x="249.852" y="114.884" width="91.7836" height="1.45631" rx="0.728155" fill="#DBDBD8"/>
<rect x="249.852" y="114.884" width="28.3162" height="1.45631" rx="0.728155" fill="#FABB18"/>
<rect x="192.246" y="105.661" width="46.38" height="19.9029" rx="4.85437" fill="#F2F3F4"/>
<path d="M200.694 118.112L199.273 113.049H199.973L201.163 117.507H201L202.236 113.049H202.936L204.166 117.507H203.997L205.193 113.049H205.893L204.472 118.112H203.732L202.495 113.674H202.671L201.434 118.112H200.694ZM207.891 118.194C207.537 118.194 207.222 118.11 206.946 117.942C206.67 117.775 206.452 117.546 206.294 117.256C206.135 116.961 206.056 116.633 206.056 116.27C206.056 115.903 206.133 115.577 206.287 115.292C206.445 115.006 206.658 114.782 206.926 114.619C207.197 114.451 207.501 114.367 207.836 114.367C208.108 114.367 208.348 114.417 208.557 114.517C208.77 114.612 208.949 114.743 209.094 114.911C209.243 115.074 209.356 115.262 209.433 115.475C209.515 115.684 209.556 115.901 209.556 116.128C209.556 116.177 209.551 116.234 209.542 116.297C209.538 116.356 209.531 116.413 209.522 116.467H206.518V115.924H209.155L208.856 116.168C208.896 115.933 208.874 115.722 208.788 115.536C208.702 115.351 208.575 115.203 208.407 115.095C208.24 114.986 208.049 114.931 207.836 114.931C207.623 114.931 207.429 114.986 207.252 115.095C207.075 115.203 206.937 115.36 206.837 115.564C206.742 115.763 206.704 116.001 206.722 116.277C206.704 116.544 206.744 116.78 206.844 116.984C206.948 117.183 207.093 117.34 207.279 117.453C207.469 117.562 207.675 117.616 207.897 117.616C208.142 117.616 208.348 117.559 208.516 117.446C208.684 117.333 208.819 117.188 208.924 117.011L209.454 117.283C209.381 117.451 209.268 117.605 209.114 117.745C208.964 117.881 208.785 117.99 208.577 118.071C208.373 118.153 208.144 118.194 207.891 118.194ZM212.065 118.194C211.712 118.194 211.397 118.11 211.121 117.942C210.844 117.775 210.627 117.546 210.468 117.256C210.31 116.961 210.23 116.633 210.23 116.27C210.23 115.903 210.307 115.577 210.461 115.292C210.62 115.006 210.833 114.782 211.1 114.619C211.372 114.451 211.676 114.367 212.011 114.367C212.283 114.367 212.523 114.417 212.731 114.517C212.944 114.612 213.123 114.743 213.268 114.911C213.418 115.074 213.531 115.262 213.608 115.475C213.69 115.684 213.73 115.901 213.73 116.128C213.73 116.177 213.726 116.234 213.717 116.297C213.712 116.356 213.705 116.413 213.696 116.467H210.692V115.924H213.329L213.03 116.168C213.071 115.933 213.048 115.722 212.962 115.536C212.876 115.351 212.749 115.203 212.582 115.095C212.414 114.986 212.224 114.931 212.011 114.931C211.798 114.931 211.603 114.986 211.426 115.095C211.25 115.203 211.112 115.36 211.012 115.564C210.917 115.763 210.878 116.001 210.896 116.277C210.878 116.544 210.919 116.78 211.019 116.984C211.123 117.183 211.268 117.34 211.454 117.453C211.644 117.562 211.85 117.616 212.072 117.616C212.317 117.616 212.523 117.559 212.69 117.446C212.858 117.333 212.994 117.188 213.098 117.011L213.628 117.283C213.556 117.451 213.443 117.605 213.289 117.745C213.139 117.881 212.96 117.99 212.752 118.071C212.548 118.153 212.319 118.194 212.065 118.194ZM214.554 118.112V112.967H215.186V116.495L214.928 116.433L216.872 114.449H217.681L216.274 115.924L217.776 118.112H217.028L215.655 116.128L216.05 116.107L214.983 117.222L215.186 116.76V118.112H214.554ZM219.396 118.112V117.65L220.796 116.134C221.073 115.84 221.292 115.597 221.456 115.407C221.623 115.217 221.746 115.047 221.823 114.897C221.9 114.748 221.938 114.589 221.938 114.422C221.938 114.145 221.857 113.932 221.693 113.783C221.53 113.633 221.315 113.559 221.048 113.559C220.776 113.559 220.545 113.638 220.355 113.797C220.164 113.951 220.033 114.17 219.96 114.456L219.356 114.299C219.415 114.028 219.523 113.792 219.682 113.593C219.84 113.393 220.037 113.239 220.273 113.131C220.509 113.022 220.767 112.967 221.048 112.967C221.356 112.967 221.626 113.029 221.857 113.151C222.092 113.269 222.276 113.434 222.407 113.647C222.543 113.86 222.611 114.107 222.611 114.388C222.611 114.574 222.572 114.755 222.495 114.931C222.418 115.108 222.305 115.296 222.156 115.496C222.006 115.69 221.811 115.917 221.571 116.175L220.321 117.534H222.72V118.112H219.396ZM223.689 116.705V116.114H226.747V116.705H223.689ZM230.118 118.112V116.943H227.631V116.393L230.105 113.049H230.744V116.393H231.403V116.943H230.744V118.112H230.118ZM228.134 116.631L228.039 116.393H230.118V113.606L230.315 113.661L228.134 116.631Z" fill="#2A2829"/>
<rect opacity="0.1" x="46.4414" y="145.277" width="17.0874" height="16.9903" rx="8.49515" fill="#F23936"/>
<path fill-rule="evenodd" clip-rule="evenodd" d="M51.4219 156.505C51.4219 156.907 51.7479 157.233 52.15 157.233H57.0405C57.4426 157.233 57.7686 156.907 57.7686 156.505V152.647C57.7686 152.245 57.4426 151.919 57.0405 151.919H53.9606L53.2269 151.041C53.0885 150.875 52.8839 150.78 52.6682 150.78H52.15C51.7479 150.78 51.4219 151.106 51.4219 151.508V156.505Z" stroke="#F23936" stroke-width="0.970874"/>
<path d="M71.8107 157.349V151.563H75.5777V152.262H72.5718V154.095H75.4223V154.794H72.5718V156.65H75.5777V157.349H71.8107ZM75.9617 157.349L77.4297 155.252L75.9695 153.163H76.8394L78.0899 154.98H77.6471L78.8821 153.163H79.7598L78.2996 155.252L79.752 157.349H78.8821L77.6471 155.532H78.0821L76.8471 157.349H75.9617ZM82.1769 157.442C81.7731 157.442 81.4132 157.347 81.0973 157.155C80.7815 156.963 80.5329 156.702 80.3517 156.37C80.1705 156.034 80.0799 155.659 80.0799 155.244C80.0799 154.825 80.1679 154.452 80.3439 154.126C80.5252 153.8 80.7685 153.543 81.074 153.357C81.3847 153.165 81.7316 153.07 82.1148 153.07C82.4255 153.07 82.6999 153.126 82.9381 153.24C83.1815 153.349 83.386 153.499 83.5517 153.691C83.7226 153.877 83.852 154.092 83.94 154.336C84.0332 154.574 84.0799 154.822 84.0799 155.081C84.0799 155.138 84.0747 155.203 84.0643 155.275C84.0591 155.343 84.0514 155.407 84.041 155.47H80.608V154.848H83.6216L83.2799 155.128C83.3265 154.859 83.3006 154.618 83.2022 154.405C83.1038 154.193 82.9588 154.025 82.7672 153.901C82.5756 153.776 82.3582 153.714 82.1148 153.714C81.8714 153.714 81.6488 153.776 81.4468 153.901C81.2449 154.025 81.087 154.203 80.9731 154.436C80.8643 154.664 80.8203 154.936 80.841 155.252C80.8203 155.558 80.8669 155.827 80.9808 156.06C81.0999 156.288 81.2656 156.466 81.4779 156.596C81.6954 156.72 81.931 156.782 82.1847 156.782C82.4643 156.782 82.6999 156.717 82.8915 156.588C83.0831 156.459 83.2384 156.293 83.3575 156.091L83.9633 156.402C83.8805 156.593 83.751 156.769 83.575 156.93C83.4041 157.085 83.1996 157.209 82.9614 157.303C82.7284 157.396 82.4669 157.442 82.1769 157.442ZM86.9634 157.442C86.5543 157.442 86.1893 157.347 85.8683 157.155C85.5524 156.963 85.3039 156.702 85.1226 156.37C84.9414 156.039 84.8508 155.666 84.8508 155.252C84.8508 154.833 84.9414 154.46 85.1226 154.134C85.3039 153.807 85.5524 153.548 85.8683 153.357C86.1893 153.165 86.5543 153.07 86.9634 153.07C87.2378 153.07 87.4942 153.119 87.7323 153.217C87.9705 153.315 88.1802 153.448 88.3615 153.613C88.5427 153.779 88.6747 153.973 88.7576 154.196L88.1129 154.506C88.0145 154.289 87.8644 154.113 87.6624 153.978C87.4605 153.838 87.2275 153.769 86.9634 153.769C86.7097 153.769 86.4793 153.833 86.2721 153.963C86.0702 154.092 85.9097 154.268 85.7906 154.491C85.6715 154.714 85.612 154.97 85.612 155.26C85.612 155.539 85.6715 155.793 85.7906 156.021C85.9097 156.244 86.0702 156.42 86.2721 156.549C86.4793 156.679 86.7097 156.743 86.9634 156.743C87.2275 156.743 87.4605 156.676 87.6624 156.541C87.8644 156.402 88.0145 156.218 88.1129 155.99L88.7576 156.316C88.6747 156.534 88.5427 156.728 88.3615 156.899C88.1802 157.064 87.9705 157.196 87.7323 157.295C87.4942 157.393 87.2378 157.442 86.9634 157.442ZM91.1851 157.442C90.8847 157.442 90.6129 157.372 90.3695 157.233C90.1313 157.093 89.9449 156.899 89.8103 156.65C89.6809 156.396 89.6161 156.106 89.6161 155.78V153.163H90.3385V155.703C90.3385 155.91 90.3799 156.091 90.4627 156.246C90.5508 156.402 90.6699 156.523 90.82 156.611C90.9754 156.699 91.1514 156.743 91.3482 156.743C91.5449 156.743 91.7184 156.699 91.8686 156.611C92.0239 156.523 92.143 156.396 92.2258 156.231C92.3139 156.065 92.3579 155.868 92.3579 155.64V153.163H93.088V157.349H92.3812V156.534L92.4977 156.603C92.3993 156.868 92.231 157.075 91.9928 157.225C91.7598 157.37 91.4906 157.442 91.1851 157.442ZM95.908 157.396C95.4989 157.396 95.1831 157.279 94.9604 157.046C94.743 156.813 94.6342 156.484 94.6342 156.06V153.854H93.8731V153.163H94.0284C94.2148 153.163 94.3624 153.106 94.4711 152.992C94.5799 152.878 94.6342 152.728 94.6342 152.541V152.2H95.3565V153.163H96.2964V153.854H95.3565V156.036C95.3565 156.176 95.3773 156.298 95.4187 156.402C95.4653 156.505 95.5404 156.588 95.6439 156.65C95.7475 156.707 95.8847 156.736 96.0556 156.736C96.0918 156.736 96.1358 156.733 96.1876 156.728C96.2446 156.723 96.2964 156.717 96.343 156.712V157.349C96.2756 157.365 96.2006 157.375 96.1177 157.38C96.0349 157.391 95.965 157.396 95.908 157.396ZM97.2865 157.349V153.163H98.0089V157.349H97.2865ZM97.2865 152.495V151.563H98.0089V152.495H97.2865ZM101.118 157.442C100.714 157.442 100.349 157.349 100.023 157.163C99.6967 156.971 99.4378 156.71 99.2462 156.378C99.0546 156.047 98.9588 155.671 98.9588 155.252C98.9588 154.833 99.052 154.46 99.2384 154.134C99.43 153.807 99.6889 153.548 100.015 153.357C100.341 153.165 100.709 153.07 101.118 153.07C101.522 153.07 101.887 153.165 102.213 153.357C102.539 153.543 102.796 153.8 102.982 154.126C103.174 154.452 103.269 154.827 103.269 155.252C103.269 155.677 103.171 156.055 102.974 156.386C102.778 156.712 102.516 156.971 102.19 157.163C101.869 157.349 101.512 157.442 101.118 157.442ZM101.118 156.743C101.377 156.743 101.61 156.679 101.817 156.549C102.029 156.42 102.195 156.241 102.314 156.013C102.438 155.785 102.501 155.532 102.501 155.252C102.501 154.967 102.438 154.716 102.314 154.499C102.195 154.276 102.029 154.1 101.817 153.97C101.61 153.836 101.377 153.769 101.118 153.769C100.854 153.769 100.616 153.836 100.403 153.97C100.196 154.1 100.031 154.276 99.9064 154.499C99.7821 154.716 99.72 154.967 99.72 155.252C99.72 155.532 99.7821 155.785 99.9064 156.013C100.031 156.241 100.196 156.42 100.403 156.549C100.616 156.679 100.854 156.743 101.118 156.743ZM104.212 157.349V153.163H104.918V153.978L104.802 153.908C104.905 153.644 105.071 153.44 105.299 153.295C105.532 153.145 105.804 153.07 106.114 153.07C106.415 153.07 106.681 153.137 106.914 153.271C107.153 153.406 107.339 153.592 107.474 153.831C107.614 154.069 107.683 154.338 107.683 154.638V157.349H106.953V154.871C106.953 154.638 106.912 154.442 106.829 154.281C106.746 154.121 106.627 153.996 106.472 153.908C106.322 153.815 106.148 153.769 105.951 153.769C105.755 153.769 105.579 153.815 105.423 153.908C105.273 153.996 105.154 154.123 105.066 154.289C104.978 154.449 104.934 154.644 104.934 154.871V157.349H104.212ZM111.667 157.442C111.341 157.442 111.051 157.383 110.797 157.264C110.544 157.139 110.344 156.966 110.199 156.743C110.06 156.515 109.99 156.254 109.99 155.959C109.99 155.705 110.036 155.482 110.129 155.291C110.223 155.094 110.337 154.926 110.471 154.786C110.611 154.646 110.751 154.53 110.891 154.436C111.036 154.338 111.155 154.26 111.248 154.203L111.691 153.947C111.841 153.859 111.986 153.763 112.126 153.66C112.265 153.556 112.382 153.437 112.475 153.303C112.568 153.163 112.615 153.007 112.615 152.836C112.615 152.635 112.548 152.466 112.413 152.332C112.278 152.197 112.11 152.13 111.908 152.13C111.706 152.13 111.538 152.197 111.403 152.332C111.269 152.466 111.201 152.637 111.201 152.844C111.201 152.984 111.235 153.121 111.302 153.256C111.37 153.391 111.452 153.52 111.551 153.644C111.649 153.763 111.748 153.875 111.846 153.978L114.992 157.349H114.036L111.279 154.444C111.155 154.315 111.03 154.172 110.906 154.017C110.782 153.862 110.676 153.691 110.588 153.504C110.505 153.313 110.463 153.103 110.463 152.875C110.463 152.596 110.528 152.352 110.658 152.145C110.792 151.933 110.968 151.767 111.186 151.648C111.403 151.529 111.644 151.47 111.908 151.47C112.167 151.47 112.403 151.529 112.615 151.648C112.832 151.762 113.006 151.923 113.135 152.13C113.265 152.337 113.329 152.575 113.329 152.844C113.329 153.119 113.265 153.359 113.135 153.567C113.006 153.769 112.851 153.942 112.669 154.087C112.488 154.227 112.317 154.343 112.157 154.436L111.722 154.701C111.592 154.783 111.455 154.882 111.31 154.996C111.165 155.104 111.041 155.236 110.937 155.392C110.834 155.542 110.782 155.726 110.782 155.943C110.782 156.202 110.865 156.404 111.03 156.549C111.201 156.694 111.421 156.767 111.691 156.767C111.862 156.767 112.014 156.738 112.149 156.681C112.284 156.624 112.403 156.549 112.506 156.456C112.615 156.363 112.711 156.262 112.794 156.153C112.876 156.039 112.954 155.928 113.027 155.819L113.92 154.491H114.751L113.702 156.091C113.625 156.22 113.526 156.363 113.407 156.518C113.288 156.673 113.148 156.821 112.988 156.961C112.827 157.101 112.638 157.217 112.421 157.31C112.208 157.398 111.957 157.442 111.667 157.442ZM71.7252 167.349V163.163H72.4476V167.349H71.7252ZM71.7252 162.495V161.563H72.4476V162.495H71.7252ZM73.5684 167.349V163.163H74.2752V164.017L74.1742 163.885C74.2778 163.621 74.4435 163.419 74.6713 163.279C74.8991 163.139 75.1554 163.07 75.4402 163.07C75.7664 163.07 76.059 163.16 76.3179 163.341C76.582 163.523 76.7632 163.761 76.8616 164.056L76.6596 164.064C76.7684 163.737 76.9522 163.492 77.2111 163.326C77.47 163.155 77.7574 163.07 78.0732 163.07C78.3632 163.07 78.6247 163.137 78.8577 163.271C79.0959 163.406 79.2849 163.592 79.4247 163.831C79.5645 164.069 79.6344 164.338 79.6344 164.638V167.349H78.9043V164.871C78.9043 164.638 78.8629 164.442 78.78 164.281C78.6972 164.121 78.5833 163.996 78.4383 163.908C78.2985 163.815 78.1328 163.769 77.9412 163.769C77.7548 163.769 77.5865 163.815 77.4363 163.908C77.2914 163.996 77.1749 164.123 77.0868 164.289C77.004 164.449 76.9626 164.644 76.9626 164.871V167.349H76.2325V164.871C76.2325 164.638 76.191 164.442 76.1082 164.281C76.0253 164.121 75.9114 163.996 75.7664 163.908C75.6266 163.815 75.4609 163.769 75.2694 163.769C75.0829 163.769 74.9147 163.815 74.7645 163.908C74.6195 163.996 74.503 164.123 74.415 164.289C74.3321 164.449 74.2907 164.644 74.2907 164.871V167.349H73.5684ZM80.6603 168.903V163.163H81.3671V164.064L81.2739 163.885C81.4292 163.636 81.6415 163.44 81.9108 163.295C82.1801 163.145 82.4881 163.07 82.8351 163.07C83.2286 163.07 83.5807 163.165 83.8914 163.357C84.2072 163.548 84.4558 163.81 84.637 164.141C84.8182 164.468 84.9089 164.84 84.9089 165.26C84.9089 165.669 84.8182 166.039 84.637 166.37C84.4558 166.702 84.2072 166.963 83.8914 167.155C83.5807 167.347 83.226 167.442 82.8273 167.442C82.4907 167.442 82.1826 167.367 81.903 167.217C81.6286 167.067 81.4163 166.855 81.2661 166.58L81.3826 166.456V168.903H80.6603ZM82.7729 166.743C83.037 166.743 83.2726 166.679 83.4797 166.549C83.6868 166.42 83.8474 166.244 83.9613 166.021C84.0804 165.793 84.1399 165.539 84.1399 165.26C84.1399 164.97 84.0804 164.716 83.9613 164.499C83.8474 164.276 83.6868 164.1 83.4797 163.97C83.2726 163.836 83.037 163.769 82.7729 163.769C82.5089 163.769 82.2707 163.833 82.0584 163.963C81.8513 164.092 81.6856 164.271 81.5613 164.499C81.4422 164.721 81.3826 164.975 81.3826 165.26C81.3826 165.539 81.4422 165.793 81.5613 166.021C81.6856 166.244 81.8513 166.42 82.0584 166.549C82.2707 166.679 82.5089 166.743 82.7729 166.743ZM85.856 167.349V161.47H86.5783V167.349H85.856ZM89.6254 167.442C89.2215 167.442 88.8616 167.347 88.5457 167.155C88.2299 166.963 87.9813 166.702 87.8001 166.37C87.6189 166.034 87.5283 165.659 87.5283 165.244C87.5283 164.825 87.6163 164.452 87.7924 164.126C87.9736 163.8 88.2169 163.543 88.5224 163.357C88.8331 163.165 89.1801 163.07 89.5632 163.07C89.8739 163.07 90.1483 163.126 90.3865 163.24C90.6299 163.349 90.8344 163.499 91.0001 163.691C91.171 163.877 91.3004 164.092 91.3885 164.336C91.4817 164.574 91.5283 164.822 91.5283 165.081C91.5283 165.138 91.5231 165.203 91.5127 165.275C91.5076 165.343 91.4998 165.407 91.4894 165.47H88.0564V164.848H91.07L90.7283 165.128C90.7749 164.859 90.749 164.618 90.6506 164.405C90.5522 164.193 90.4072 164.025 90.2157 163.901C90.0241 163.776 89.8066 163.714 89.5632 163.714C89.3199 163.714 89.0972 163.776 88.8953 163.901C88.6933 164.025 88.5354 164.203 88.4215 164.436C88.3127 164.664 88.2687 164.936 88.2894 165.252C88.2687 165.558 88.3153 165.827 88.4292 166.06C88.5483 166.288 88.714 166.466 88.9263 166.596C89.1438 166.72 89.3794 166.782 89.6331 166.782C89.9127 166.782 90.1483 166.717 90.3399 166.588C90.5315 166.459 90.6868 166.293 90.8059 166.091L91.4118 166.402C91.3289 166.593 91.1995 166.769 91.0234 166.93C90.8525 167.085 90.648 167.209 90.4098 167.303C90.1768 167.396 89.9153 167.442 89.6254 167.442ZM92.4701 167.349V163.163H93.1769V164.017L93.0759 163.885C93.1795 163.621 93.3452 163.419 93.573 163.279C93.8008 163.139 94.0571 163.07 94.3419 163.07C94.6681 163.07 94.9607 163.16 95.2196 163.341C95.4837 163.523 95.6649 163.761 95.7633 164.056L95.5613 164.064C95.6701 163.737 95.8539 163.492 96.1128 163.326C96.3717 163.155 96.6591 163.07 96.9749 163.07C97.2649 163.07 97.5264 163.137 97.7594 163.271C97.9976 163.406 98.1866 163.592 98.3264 163.831C98.4662 164.069 98.5361 164.338 98.5361 164.638V167.349H97.806V164.871C97.806 164.638 97.7646 164.442 97.6817 164.281C97.5989 164.121 97.485 163.996 97.34 163.908C97.2002 163.815 97.0345 163.769 96.8429 163.769C96.6565 163.769 96.4882 163.815 96.338 163.908C96.1931 163.996 96.0766 164.123 95.9885 164.289C95.9057 164.449 95.8643 164.644 95.8643 164.871V167.349H95.1342V164.871C95.1342 164.638 95.0927 164.442 95.0099 164.281C94.927 164.121 94.8131 163.996 94.6681 163.908C94.5283 163.815 94.3626 163.769 94.1711 163.769C93.9846 163.769 93.8164 163.815 93.6662 163.908C93.5212 163.996 93.4047 164.123 93.3167 164.289C93.2338 164.449 93.1924 164.644 93.1924 164.871V167.349H92.4701ZM101.488 167.442C101.084 167.442 100.724 167.347 100.409 167.155C100.093 166.963 99.8442 166.702 99.663 166.37C99.4818 166.034 99.3911 165.659 99.3911 165.244C99.3911 164.825 99.4792 164.452 99.6552 164.126C99.8364 163.8 100.08 163.543 100.385 163.357C100.696 163.165 101.043 163.07 101.426 163.07C101.737 163.07 102.011 163.126 102.249 163.24C102.493 163.349 102.697 163.499 102.863 163.691C103.034 163.877 103.163 164.092 103.251 164.336C103.345 164.574 103.391 164.822 103.391 165.081C103.391 165.138 103.386 165.203 103.376 165.275C103.37 165.343 103.363 165.407 103.352 165.47H99.9193V164.848H102.933L102.591 165.128C102.638 164.859 102.612 164.618 102.513 164.405C102.415 164.193 102.27 164.025 102.079 163.901C101.887 163.776 101.669 163.714 101.426 163.714C101.183 163.714 100.96 163.776 100.758 163.901C100.556 164.025 100.398 164.203 100.284 164.436C100.176 164.664 100.132 164.936 100.152 165.252C100.132 165.558 100.178 165.827 100.292 166.06C100.411 166.288 100.577 166.466 100.789 166.596C101.007 166.72 101.242 166.782 101.496 166.782C101.776 166.782 102.011 166.717 102.203 166.588C102.394 166.459 102.55 166.293 102.669 166.091L103.275 166.402C103.192 166.593 103.062 166.769 102.886 166.93C102.715 167.085 102.511 167.209 102.273 167.303C102.04 167.396 101.778 167.442 101.488 167.442ZM104.333 167.349V163.163H105.04V163.978L104.923 163.908C105.027 163.644 105.192 163.44 105.42 163.295C105.653 163.145 105.925 163.07 106.236 163.07C106.536 163.07 106.803 163.137 107.036 163.271C107.274 163.406 107.46 163.592 107.595 163.831C107.735 164.069 107.805 164.338 107.805 164.638V167.349H107.075V164.871C107.075 164.638 107.033 164.442 106.95 164.281C106.868 164.121 106.748 163.996 106.593 163.908C106.443 163.815 106.27 163.769 106.073 163.769C105.876 163.769 105.7 163.815 105.545 163.908C105.394 163.996 105.275 164.123 105.187 164.289C105.099 164.449 105.055 164.644 105.055 164.871V167.349H104.333ZM110.539 167.396C110.13 167.396 109.814 167.279 109.592 167.046C109.374 166.813 109.266 166.484 109.266 166.06V163.854H108.504V163.163H108.66C108.846 163.163 108.994 163.106 109.102 162.992C109.211 162.878 109.266 162.728 109.266 162.541V162.2H109.988V163.163H110.928V163.854H109.988V166.036C109.988 166.176 110.009 166.298 110.05 166.402C110.097 166.505 110.172 166.588 110.275 166.65C110.379 166.707 110.516 166.736 110.687 166.736C110.723 166.736 110.767 166.733 110.819 166.728C110.876 166.723 110.928 166.717 110.974 166.712V167.349C110.907 167.365 110.832 167.375 110.749 167.38C110.666 167.391 110.596 167.396 110.539 167.396ZM113.092 167.442C112.818 167.442 112.574 167.393 112.362 167.295C112.155 167.191 111.992 167.051 111.873 166.875C111.753 166.694 111.694 166.487 111.694 166.254C111.694 166.031 111.741 165.832 111.834 165.656C111.932 165.475 112.082 165.322 112.284 165.198C112.491 165.073 112.75 164.985 113.061 164.934L114.614 164.677V165.283L113.224 165.516C112.955 165.563 112.758 165.648 112.634 165.772C112.515 165.897 112.455 166.049 112.455 166.231C112.455 166.402 112.522 166.544 112.657 166.658C112.797 166.772 112.97 166.829 113.177 166.829C113.442 166.829 113.669 166.774 113.861 166.666C114.058 166.552 114.21 166.399 114.319 166.207C114.433 166.016 114.49 165.803 114.49 165.57V164.506C114.49 164.279 114.405 164.095 114.234 163.955C114.068 163.81 113.848 163.737 113.574 163.737C113.335 163.737 113.123 163.8 112.937 163.924C112.755 164.043 112.621 164.203 112.533 164.405L111.904 164.079C111.981 163.888 112.106 163.717 112.276 163.567C112.447 163.411 112.647 163.29 112.875 163.202C113.102 163.114 113.341 163.07 113.589 163.07C113.91 163.07 114.192 163.132 114.436 163.256C114.679 163.375 114.868 163.543 115.003 163.761C115.142 163.973 115.212 164.222 115.212 164.506V167.349H114.506V166.557L114.638 166.603C114.55 166.769 114.43 166.914 114.28 167.038C114.13 167.163 113.954 167.261 113.752 167.334C113.55 167.406 113.33 167.442 113.092 167.442ZM117.957 167.396C117.548 167.396 117.233 167.279 117.01 167.046C116.792 166.813 116.684 166.484 116.684 166.06V163.854H115.923V163.163H116.078C116.264 163.163 116.412 163.106 116.521 162.992C116.629 162.878 116.684 162.728 116.684 162.541V162.2H117.406V163.163H118.346V163.854H117.406V166.036C117.406 166.176 117.427 166.298 117.468 166.402C117.515 166.505 117.59 166.588 117.693 166.65C117.797 166.707 117.934 166.736 118.105 166.736C118.141 166.736 118.185 166.733 118.237 166.728C118.294 166.723 118.346 166.717 118.392 166.712V167.349C118.325 167.365 118.25 167.375 118.167 167.38C118.084 167.391 118.014 167.396 117.957 167.396ZM119.336 167.349V163.163H120.058V167.349H119.336ZM119.336 162.495V161.563H120.058V162.495H119.336ZM123.167 167.442C122.764 167.442 122.399 167.349 122.072 167.163C121.746 166.971 121.487 166.71 121.296 166.378C121.104 166.047 121.008 165.671 121.008 165.252C121.008 164.833 121.101 164.46 121.288 164.134C121.479 163.807 121.738 163.548 122.065 163.357C122.391 163.165 122.758 163.07 123.167 163.07C123.571 163.07 123.936 163.165 124.263 163.357C124.589 163.543 124.845 163.8 125.032 164.126C125.223 164.452 125.319 164.827 125.319 165.252C125.319 165.677 125.221 166.055 125.024 166.386C124.827 166.712 124.566 166.971 124.239 167.163C123.918 167.349 123.561 167.442 123.167 167.442ZM123.167 166.743C123.426 166.743 123.659 166.679 123.867 166.549C124.079 166.42 124.244 166.241 124.364 166.013C124.488 165.785 124.55 165.532 124.55 165.252C124.55 164.967 124.488 164.716 124.364 164.499C124.244 164.276 124.079 164.1 123.867 163.97C123.659 163.836 123.426 163.769 123.167 163.769C122.903 163.769 122.665 163.836 122.453 163.97C122.246 164.1 122.08 164.276 121.956 164.499C121.832 164.716 121.769 164.967 121.769 165.252C121.769 165.532 121.832 165.785 121.956 166.013C122.08 166.241 122.246 166.42 122.453 166.549C122.665 166.679 122.903 166.743 123.167 166.743ZM126.261 167.349V163.163H126.968V163.978L126.851 163.908C126.955 163.644 127.121 163.44 127.348 163.295C127.581 163.145 127.853 163.07 128.164 163.07C128.464 163.07 128.731 163.137 128.964 163.271C129.202 163.406 129.389 163.592 129.523 163.831C129.663 164.069 129.733 164.338 129.733 164.638V167.349H129.003V164.871C129.003 164.638 128.961 164.442 128.879 164.281C128.796 164.121 128.677 163.996 128.521 163.908C128.371 163.815 128.198 163.769 128.001 163.769C127.804 163.769 127.628 163.815 127.473 163.908C127.323 163.996 127.203 164.123 127.115 164.289C127.027 164.449 126.983 164.644 126.983 164.871V167.349H126.261Z" fill="#2A2829"/>
<rect x="38.2115" y="138.427" width="312.458" height="30.5825" rx="6.5534" stroke="#F1F1F1" stroke-width="0.485437"/>
<rect x="249.852" y="153.233" width="91.7836" height="1.45631" rx="0.728155" fill="#DBDBD8"/>
<rect x="249.852" y="153.233" width="49.3093" height="1.45631" rx="0.728155" fill="#F23936"/>
<rect x="192" y="144.009" width="46.38" height="19.9029" rx="4.85437" fill="#F2F3F4"/>
<path d="M198.821 156.46L197.401 151.397H198.101L199.29 155.856H199.127L200.364 151.397H201.064L202.294 155.856H202.124L203.32 151.397H204.02L202.6 156.46H201.859L200.622 152.023H200.799L199.562 156.46H198.821ZM206.018 156.542C205.665 156.542 205.35 156.458 205.074 156.291C204.797 156.123 204.58 155.894 204.421 155.604C204.263 155.31 204.183 154.981 204.183 154.619C204.183 154.252 204.26 153.925 204.414 153.64C204.573 153.355 204.786 153.13 205.053 152.967C205.325 152.8 205.629 152.716 205.964 152.716C206.236 152.716 206.476 152.766 206.684 152.865C206.897 152.96 207.076 153.092 207.221 153.259C207.371 153.423 207.484 153.611 207.561 153.824C207.643 154.032 207.683 154.249 207.683 154.476C207.683 154.526 207.679 154.582 207.67 154.646C207.665 154.705 207.659 154.761 207.649 154.816H204.646V154.272H207.282L206.983 154.517C207.024 154.281 207.002 154.07 206.915 153.885C206.829 153.699 206.703 153.552 206.535 153.443C206.367 153.334 206.177 153.28 205.964 153.28C205.751 153.28 205.556 153.334 205.38 153.443C205.203 153.552 205.065 153.708 204.965 153.912C204.87 154.111 204.831 154.349 204.849 154.625C204.831 154.893 204.872 155.128 204.972 155.332C205.076 155.532 205.221 155.688 205.407 155.801C205.597 155.91 205.803 155.964 206.025 155.964C206.27 155.964 206.476 155.908 206.644 155.794C206.811 155.681 206.947 155.536 207.051 155.359L207.581 155.631C207.509 155.799 207.396 155.953 207.242 156.093C207.092 156.229 206.913 156.338 206.705 156.42C206.501 156.501 206.272 156.542 206.018 156.542ZM210.193 156.542C209.84 156.542 209.525 156.458 209.248 156.291C208.972 156.123 208.754 155.894 208.596 155.604C208.437 155.31 208.358 154.981 208.358 154.619C208.358 154.252 208.435 153.925 208.589 153.64C208.748 153.355 208.961 153.13 209.228 152.967C209.5 152.8 209.803 152.716 210.139 152.716C210.41 152.716 210.651 152.766 210.859 152.865C211.072 152.96 211.251 153.092 211.396 153.259C211.545 153.423 211.659 153.611 211.736 153.824C211.817 154.032 211.858 154.249 211.858 154.476C211.858 154.526 211.853 154.582 211.844 154.646C211.84 154.705 211.833 154.761 211.824 154.816H208.82V154.272H211.457L211.158 154.517C211.199 154.281 211.176 154.07 211.09 153.885C211.004 153.699 210.877 153.552 210.709 153.443C210.542 153.334 210.352 153.28 210.139 153.28C209.926 153.28 209.731 153.334 209.554 153.443C209.377 153.552 209.239 153.708 209.14 153.912C209.044 154.111 209.006 154.349 209.024 154.625C209.006 154.893 209.047 155.128 209.146 155.332C209.251 155.532 209.396 155.688 209.581 155.801C209.772 155.91 209.978 155.964 210.2 155.964C210.444 155.964 210.651 155.908 210.818 155.794C210.986 155.681 211.122 155.536 211.226 155.359L211.756 155.631C211.684 155.799 211.57 155.953 211.416 156.093C211.267 156.229 211.088 156.338 210.879 156.42C210.675 156.501 210.447 156.542 210.193 156.542ZM212.682 156.46V151.316H213.314V154.843L213.056 154.782L215 152.797H215.808L214.401 154.272L215.903 156.46H215.156L213.783 154.476L214.177 154.456L213.11 155.57L213.314 155.108V156.46H212.682ZM219.196 156.542C218.933 156.542 218.686 156.497 218.455 156.406C218.224 156.311 218.022 156.177 217.85 156.005C217.683 155.828 217.56 155.622 217.483 155.387L218.027 155.156C218.122 155.405 218.276 155.6 218.489 155.74C218.707 155.876 218.942 155.944 219.196 155.944C219.404 155.944 219.588 155.899 219.746 155.808C219.91 155.713 220.036 155.584 220.127 155.421C220.218 155.253 220.263 155.067 220.263 154.863C220.263 154.65 220.215 154.462 220.12 154.299C220.03 154.136 219.905 154.009 219.746 153.919C219.588 153.824 219.407 153.776 219.203 153.776C218.994 153.776 218.804 153.824 218.632 153.919C218.46 154.014 218.335 154.134 218.258 154.279L217.721 154.163L218.109 151.397H220.732V151.975H218.36L218.618 151.717L218.319 153.864L218.088 153.728C218.238 153.538 218.412 153.402 218.611 153.321C218.815 153.235 219.035 153.192 219.271 153.192C219.601 153.192 219.891 153.266 220.141 153.416C220.39 153.565 220.585 153.765 220.725 154.014C220.866 154.263 220.936 154.546 220.936 154.863C220.936 155.181 220.859 155.466 220.705 155.72C220.555 155.973 220.349 156.175 220.086 156.325C219.828 156.47 219.531 156.542 219.196 156.542ZM221.936 155.054V154.462H224.994V155.054H221.936ZM227.97 156.46V151.975H227.012V151.397H228.643V156.46H227.97ZM232.135 156.46V155.292H229.648V154.741L232.122 151.397H232.76V154.741H233.42V155.292H232.76V156.46H232.135ZM230.151 154.979L230.056 154.741H232.135V151.955L232.332 152.009L230.151 154.979Z" fill="#2A2829"/>
<rect opacity="0.1" x="46.4434" y="183.799" width="17.0874" height="16.9903" rx="8.49515" fill="#45C646"/>
<path fill-rule="evenodd" clip-rule="evenodd" d="M51.4238 195.027C51.4238 195.429 51.7498 195.755 52.152 195.755H57.0424C57.4446 195.755 57.7706 195.429 57.7706 195.027V191.169C57.7706 190.767 57.4446 190.441 57.0424 190.441H53.9625L53.2288 189.563C53.0905 189.398 52.8859 189.302 52.6702 189.302H52.152C51.7498 189.302 51.4238 189.628 51.4238 190.03V195.027Z" stroke="#45C646" stroke-width="0.970874"/>
<path d="M71.8165 195.7V189.914H73.7117C74.2968 189.914 74.8068 190.033 75.2418 190.271C75.6767 190.509 76.0133 190.846 76.2515 191.281C76.4897 191.711 76.6088 192.218 76.6088 192.803C76.6088 193.383 76.4897 193.89 76.2515 194.325C76.0133 194.76 75.6767 195.1 75.2418 195.343C74.8068 195.581 74.2968 195.7 73.7117 195.7H71.8165ZM72.5777 195.001H73.7194C74.1492 195.001 74.5194 194.911 74.8301 194.729C75.146 194.548 75.3894 194.294 75.5602 193.968C75.7311 193.637 75.8165 193.248 75.8165 192.803C75.8165 192.353 75.7285 191.964 75.5525 191.638C75.3816 191.312 75.1382 191.061 74.8224 190.885C74.5117 190.703 74.144 190.613 73.7194 190.613H72.5777V195.001ZM79.4143 195.793C79.0104 195.793 78.6505 195.698 78.3347 195.506C78.0188 195.314 77.7703 195.053 77.589 194.722C77.4078 194.385 77.3172 194.01 77.3172 193.595C77.3172 193.176 77.4052 192.803 77.5813 192.477C77.7625 192.151 78.0059 191.894 78.3114 191.708C78.6221 191.516 78.969 191.421 79.3522 191.421C79.6628 191.421 79.9373 191.478 80.1755 191.591C80.4188 191.7 80.6234 191.85 80.789 192.042C80.9599 192.228 81.0894 192.443 81.1774 192.687C81.2706 192.925 81.3172 193.173 81.3172 193.432C81.3172 193.489 81.312 193.554 81.3017 193.626C81.2965 193.694 81.2887 193.758 81.2784 193.821H77.8454V193.199H80.859L80.5172 193.479C80.5638 193.21 80.5379 192.969 80.4395 192.757C80.3412 192.544 80.1962 192.376 80.0046 192.252C79.813 192.127 79.5955 192.065 79.3522 192.065C79.1088 192.065 78.8861 192.127 78.6842 192.252C78.4823 192.376 78.3243 192.555 78.2104 192.788C78.1017 193.015 78.0577 193.287 78.0784 193.603C78.0577 193.909 78.1043 194.178 78.2182 194.411C78.3373 194.639 78.503 194.817 78.7153 194.947C78.9327 195.071 79.1683 195.133 79.4221 195.133C79.7017 195.133 79.9373 195.068 80.1289 194.939C80.3204 194.81 80.4758 194.644 80.5949 194.442L81.2007 194.753C81.1178 194.944 80.9884 195.12 80.8123 195.281C80.6415 195.436 80.4369 195.56 80.1988 195.654C79.9657 195.747 79.7043 195.793 79.4143 195.793ZM82.259 195.7V191.514H82.9658V192.368L82.8648 192.236C82.9684 191.972 83.1341 191.77 83.3619 191.63C83.5898 191.49 83.8461 191.421 84.1309 191.421C84.4571 191.421 84.7496 191.511 85.0085 191.692C85.2726 191.874 85.4538 192.112 85.5522 192.407L85.3503 192.415C85.459 192.089 85.6428 191.843 85.9017 191.677C86.1606 191.506 86.448 191.421 86.7639 191.421C87.0538 191.421 87.3153 191.488 87.5483 191.623C87.7865 191.757 87.9755 191.944 88.1153 192.182C88.2551 192.42 88.325 192.689 88.325 192.99V195.7H87.5949V193.223C87.5949 192.99 87.5535 192.793 87.4707 192.632C87.3878 192.472 87.2739 192.347 87.1289 192.259C86.9891 192.166 86.8234 192.12 86.6318 192.12C86.4454 192.12 86.2771 192.166 86.127 192.259C85.982 192.347 85.8655 192.474 85.7775 192.64C85.6946 192.801 85.6532 192.995 85.6532 193.223V195.7H84.9231V193.223C84.9231 192.99 84.8817 192.793 84.7988 192.632C84.716 192.472 84.6021 192.347 84.4571 192.259C84.3173 192.166 84.1516 192.12 83.96 192.12C83.7736 192.12 83.6053 192.166 83.4551 192.259C83.3101 192.347 83.1936 192.474 83.1056 192.64C83.0228 192.801 82.9813 192.995 82.9813 193.223V195.7H82.259ZM91.3393 195.793C90.9354 195.793 90.5704 195.7 90.2441 195.514C89.9179 195.322 89.659 195.061 89.4674 194.729C89.2759 194.398 89.1801 194.023 89.1801 193.603C89.1801 193.184 89.2733 192.811 89.4597 192.485C89.6513 192.158 89.9102 191.9 90.2364 191.708C90.5626 191.516 90.9302 191.421 91.3393 191.421C91.7432 191.421 92.1082 191.516 92.4344 191.708C92.7606 191.894 93.017 192.151 93.2034 192.477C93.395 192.803 93.4907 193.179 93.4907 193.603C93.4907 194.028 93.3924 194.406 93.1956 194.737C92.9988 195.063 92.7373 195.322 92.4111 195.514C92.0901 195.7 91.7328 195.793 91.3393 195.793ZM91.3393 195.094C91.5982 195.094 91.8312 195.03 92.0383 194.9C92.2506 194.771 92.4163 194.592 92.5354 194.364C92.6597 194.136 92.7218 193.883 92.7218 193.603C92.7218 193.318 92.6597 193.067 92.5354 192.85C92.4163 192.627 92.2506 192.451 92.0383 192.322C91.8312 192.187 91.5982 192.12 91.3393 192.12C91.0752 192.12 90.837 192.187 90.6247 192.322C90.4176 192.451 90.2519 192.627 90.1276 192.85C90.0034 193.067 89.9412 193.318 89.9412 193.603C89.9412 193.883 90.0034 194.136 90.1276 194.364C90.2519 194.592 90.4176 194.771 90.6247 194.9C90.837 195.03 91.0752 195.094 91.3393 195.094ZM97.0026 195.793C96.7281 195.793 96.4848 195.744 96.2725 195.646C96.0654 195.542 95.9023 195.402 95.7832 195.226C95.6641 195.045 95.6045 194.838 95.6045 194.605C95.6045 194.382 95.6511 194.183 95.7443 194.007C95.8427 193.826 95.9929 193.673 96.1948 193.549C96.4019 193.424 96.6608 193.336 96.9715 193.285L98.5249 193.028V193.634L97.1346 193.867C96.8654 193.914 96.6686 193.999 96.5443 194.123C96.4252 194.248 96.3657 194.401 96.3657 194.582C96.3657 194.753 96.433 194.895 96.5676 195.009C96.7074 195.123 96.8809 195.18 97.088 195.18C97.3521 195.18 97.5799 195.125 97.7715 195.017C97.9683 194.903 98.121 194.75 98.2298 194.558C98.3437 194.367 98.4006 194.155 98.4006 193.922V192.857C98.4006 192.63 98.3152 192.446 98.1443 192.306C97.9786 192.161 97.7586 192.089 97.4841 192.089C97.2459 192.089 97.0336 192.151 96.8472 192.275C96.666 192.394 96.5314 192.555 96.4434 192.757L95.8142 192.43C95.8919 192.239 96.0162 192.068 96.187 191.918C96.3579 191.762 96.5573 191.641 96.7851 191.553C97.0129 191.465 97.2511 191.421 97.4997 191.421C97.8207 191.421 98.1029 191.483 98.3463 191.607C98.5896 191.726 98.7786 191.894 98.9133 192.112C99.0531 192.324 99.123 192.573 99.123 192.857V195.7H98.4162V194.908L98.5482 194.955C98.4602 195.12 98.3411 195.265 98.1909 195.39C98.0408 195.514 97.8647 195.612 97.6628 195.685C97.4608 195.757 97.2408 195.793 97.0026 195.793ZM100.243 195.7V191.514H100.95V192.329L100.833 192.259C100.937 191.995 101.102 191.791 101.33 191.646C101.563 191.496 101.835 191.421 102.146 191.421C102.446 191.421 102.713 191.488 102.946 191.623C103.184 191.757 103.37 191.944 103.505 192.182C103.645 192.42 103.715 192.689 103.715 192.99V195.7H102.985V193.223C102.985 192.99 102.943 192.793 102.86 192.632C102.778 192.472 102.658 192.347 102.503 192.259C102.353 192.166 102.179 192.12 101.983 192.12C101.786 192.12 101.61 192.166 101.455 192.259C101.304 192.347 101.185 192.474 101.097 192.64C101.009 192.801 100.965 192.995 100.965 193.223V195.7H100.243ZM106.651 195.793C106.258 195.793 105.903 195.698 105.587 195.506C105.277 195.314 105.031 195.053 104.849 194.722C104.668 194.39 104.578 194.02 104.578 193.611C104.578 193.191 104.668 192.819 104.849 192.492C105.031 192.161 105.277 191.9 105.587 191.708C105.903 191.516 106.258 191.421 106.651 191.421C106.998 191.421 107.306 191.496 107.576 191.646C107.845 191.791 108.057 191.988 108.212 192.236L108.096 192.415V189.821H108.826V195.7H108.119V194.807L108.212 194.931C108.067 195.206 107.855 195.418 107.576 195.568C107.301 195.718 106.993 195.793 106.651 195.793ZM106.713 195.094C106.978 195.094 107.213 195.03 107.42 194.9C107.627 194.771 107.79 194.595 107.91 194.372C108.034 194.144 108.096 193.89 108.096 193.611C108.096 193.326 108.034 193.072 107.91 192.85C107.79 192.622 107.627 192.443 107.42 192.314C107.213 192.184 106.978 192.12 106.713 192.12C106.455 192.12 106.219 192.187 106.007 192.322C105.8 192.451 105.636 192.627 105.517 192.85C105.398 193.067 105.339 193.321 105.339 193.611C105.339 193.89 105.398 194.144 105.517 194.372C105.636 194.595 105.8 194.771 106.007 194.9C106.214 195.03 106.449 195.094 106.713 195.094ZM113.228 195.793C112.819 195.793 112.454 195.698 112.133 195.506C111.817 195.314 111.569 195.053 111.388 194.722C111.206 194.39 111.116 194.017 111.116 193.603C111.116 193.184 111.206 192.811 111.388 192.485C111.569 192.158 111.817 191.9 112.133 191.708C112.454 191.516 112.819 191.421 113.228 191.421C113.503 191.421 113.759 191.47 113.997 191.568C114.235 191.667 114.445 191.799 114.626 191.964C114.808 192.13 114.94 192.324 115.023 192.547L114.378 192.857C114.28 192.64 114.129 192.464 113.927 192.329C113.725 192.19 113.492 192.12 113.228 192.12C112.975 192.12 112.744 192.184 112.537 192.314C112.335 192.443 112.175 192.619 112.056 192.842C111.936 193.065 111.877 193.321 111.877 193.611C111.877 193.89 111.936 194.144 112.056 194.372C112.175 194.595 112.335 194.771 112.537 194.9C112.744 195.03 112.975 195.094 113.228 195.094C113.492 195.094 113.725 195.027 113.927 194.892C114.129 194.753 114.28 194.569 114.378 194.341L115.023 194.667C114.94 194.885 114.808 195.079 114.626 195.25C114.445 195.415 114.235 195.547 113.997 195.646C113.759 195.744 113.503 195.793 113.228 195.793ZM115.967 195.7V189.821H116.689V195.7H115.967ZM119.798 195.793C119.394 195.793 119.029 195.7 118.703 195.514C118.377 195.322 118.118 195.061 117.926 194.729C117.735 194.398 117.639 194.023 117.639 193.603C117.639 193.184 117.732 192.811 117.918 192.485C118.11 192.158 118.369 191.9 118.695 191.708C119.021 191.516 119.389 191.421 119.798 191.421C120.202 191.421 120.567 191.516 120.893 191.708C121.219 191.894 121.476 192.151 121.662 192.477C121.854 192.803 121.949 193.179 121.949 193.603C121.949 194.028 121.851 194.406 121.654 194.737C121.458 195.063 121.196 195.322 120.87 195.514C120.549 195.7 120.192 195.793 119.798 195.793ZM119.798 195.094C120.057 195.094 120.29 195.03 120.497 194.9C120.709 194.771 120.875 194.592 120.994 194.364C121.118 194.136 121.181 193.883 121.181 193.603C121.181 193.318 121.118 193.067 120.994 192.85C120.875 192.627 120.709 192.451 120.497 192.322C120.29 192.187 120.057 192.12 119.798 192.12C119.534 192.12 119.296 192.187 119.083 192.322C118.876 192.451 118.711 192.627 118.586 192.85C118.462 193.067 118.4 193.318 118.4 193.603C118.4 193.883 118.462 194.136 118.586 194.364C118.711 194.592 118.876 194.771 119.083 194.9C119.296 195.03 119.534 195.094 119.798 195.094ZM124.391 195.793C123.971 195.793 123.606 195.69 123.295 195.483C122.985 195.276 122.765 194.996 122.635 194.644L123.21 194.364C123.329 194.613 123.492 194.81 123.699 194.955C123.906 195.1 124.137 195.172 124.391 195.172C124.618 195.172 124.807 195.118 124.958 195.009C125.108 194.9 125.183 194.758 125.183 194.582C125.183 194.457 125.147 194.359 125.074 194.287C125.007 194.209 124.924 194.149 124.826 194.108C124.727 194.061 124.637 194.028 124.554 194.007L123.925 193.828C123.547 193.72 123.27 193.564 123.094 193.362C122.923 193.16 122.837 192.925 122.837 192.656C122.837 192.407 122.899 192.192 123.024 192.011C123.153 191.824 123.327 191.679 123.544 191.576C123.767 191.472 124.015 191.421 124.29 191.421C124.657 191.421 124.986 191.514 125.276 191.7C125.571 191.887 125.781 192.148 125.905 192.485L125.315 192.757C125.222 192.539 125.082 192.368 124.895 192.244C124.709 192.114 124.499 192.05 124.266 192.05C124.054 192.05 123.886 192.104 123.761 192.213C123.637 192.316 123.575 192.448 123.575 192.609C123.575 192.728 123.606 192.826 123.668 192.904C123.73 192.977 123.806 193.034 123.894 193.075C123.982 193.111 124.067 193.142 124.15 193.168L124.833 193.37C125.175 193.468 125.439 193.621 125.626 193.828C125.817 194.035 125.913 194.284 125.913 194.574C125.913 194.807 125.848 195.017 125.719 195.203C125.589 195.39 125.411 195.534 125.183 195.638C124.955 195.742 124.691 195.793 124.391 195.793ZM128.785 195.793C128.381 195.793 128.021 195.698 127.705 195.506C127.389 195.314 127.141 195.053 126.959 194.722C126.778 194.385 126.688 194.01 126.688 193.595C126.688 193.176 126.776 192.803 126.952 192.477C127.133 192.151 127.376 191.894 127.682 191.708C127.993 191.516 128.339 191.421 128.723 191.421C129.033 191.421 129.308 191.478 129.546 191.591C129.789 191.7 129.994 191.85 130.159 192.042C130.33 192.228 130.46 192.443 130.548 192.687C130.641 192.925 130.688 193.173 130.688 193.432C130.688 193.489 130.682 193.554 130.672 193.626C130.667 193.694 130.659 193.758 130.649 193.821H127.216V193.199H130.229L129.888 193.479C129.934 193.21 129.908 192.969 129.81 192.757C129.712 192.544 129.567 192.376 129.375 192.252C129.183 192.127 128.966 192.065 128.723 192.065C128.479 192.065 128.257 192.127 128.055 192.252C127.853 192.376 127.695 192.555 127.581 192.788C127.472 193.015 127.428 193.287 127.449 193.603C127.428 193.909 127.475 194.178 127.589 194.411C127.708 194.639 127.873 194.817 128.086 194.947C128.303 195.071 128.539 195.133 128.793 195.133C129.072 195.133 129.308 195.068 129.499 194.939C129.691 194.81 129.846 194.644 129.965 194.442L130.571 194.753C130.488 194.944 130.359 195.12 130.183 195.281C130.012 195.436 129.807 195.56 129.569 195.654C129.336 195.747 129.075 195.793 128.785 195.793Z" fill="#2A2829"/>
<rect x="249.855" y="191.583" width="91.7836" height="1.45631" rx="0.728155" fill="#DBDBD8"/>
<rect x="249.855" y="191.583" width="62.9792" height="1.45631" rx="0.728155" fill="#45C646"/>
<rect x="192" y="182.36" width="46.38" height="19.9029" rx="4.85437" fill="#F2F3F4"/>
<path d="M197.371 194.811L195.951 189.748H196.651L197.84 194.206H197.677L198.914 189.748H199.614L200.844 194.206H200.674L201.87 189.748H202.57L201.15 194.811H200.409L199.172 190.373H199.349L198.112 194.811H197.371ZM204.568 194.893C204.215 194.893 203.9 194.809 203.624 194.641C203.347 194.474 203.13 194.245 202.971 193.955C202.813 193.66 202.733 193.332 202.733 192.97C202.733 192.603 202.81 192.276 202.965 191.991C203.123 191.705 203.336 191.481 203.603 191.318C203.875 191.15 204.179 191.067 204.514 191.067C204.786 191.067 205.026 191.116 205.234 191.216C205.447 191.311 205.626 191.443 205.771 191.61C205.921 191.773 206.034 191.961 206.111 192.174C206.193 192.383 206.233 192.6 206.233 192.827C206.233 192.877 206.229 192.933 206.22 192.997C206.215 193.056 206.209 193.112 206.199 193.167H203.196V192.623H205.832L205.533 192.868C205.574 192.632 205.552 192.421 205.465 192.236C205.379 192.05 205.253 191.903 205.085 191.794C204.917 191.685 204.727 191.631 204.514 191.631C204.301 191.631 204.106 191.685 203.93 191.794C203.753 191.903 203.615 192.059 203.515 192.263C203.42 192.462 203.381 192.7 203.399 192.976C203.381 193.244 203.422 193.479 203.522 193.683C203.626 193.882 203.771 194.039 203.957 194.152C204.147 194.261 204.353 194.315 204.575 194.315C204.82 194.315 205.026 194.259 205.194 194.145C205.361 194.032 205.497 193.887 205.601 193.71L206.132 193.982C206.059 194.15 205.946 194.304 205.792 194.444C205.642 194.58 205.463 194.689 205.255 194.771C205.051 194.852 204.822 194.893 204.568 194.893ZM208.743 194.893C208.39 194.893 208.075 194.809 207.798 194.641C207.522 194.474 207.304 194.245 207.146 193.955C206.987 193.66 206.908 193.332 206.908 192.97C206.908 192.603 206.985 192.276 207.139 191.991C207.298 191.705 207.511 191.481 207.778 191.318C208.05 191.15 208.353 191.067 208.689 191.067C208.96 191.067 209.201 191.116 209.409 191.216C209.622 191.311 209.801 191.443 209.946 191.61C210.095 191.773 210.209 191.961 210.286 192.174C210.367 192.383 210.408 192.6 210.408 192.827C210.408 192.877 210.403 192.933 210.394 192.997C210.39 193.056 210.383 193.112 210.374 193.167H207.37V192.623H210.007L209.708 192.868C209.749 192.632 209.726 192.421 209.64 192.236C209.554 192.05 209.427 191.903 209.259 191.794C209.092 191.685 208.902 191.631 208.689 191.631C208.476 191.631 208.281 191.685 208.104 191.794C207.927 191.903 207.789 192.059 207.69 192.263C207.594 192.462 207.556 192.7 207.574 192.976C207.556 193.244 207.597 193.479 207.696 193.683C207.801 193.882 207.946 194.039 208.131 194.152C208.322 194.261 208.528 194.315 208.75 194.315C208.994 194.315 209.201 194.259 209.368 194.145C209.536 194.032 209.672 193.887 209.776 193.71L210.306 193.982C210.234 194.15 210.12 194.304 209.966 194.444C209.817 194.58 209.638 194.689 209.429 194.771C209.225 194.852 208.997 194.893 208.743 194.893ZM211.232 194.811V189.667H211.864V193.194L211.606 193.133L213.55 191.148H214.358L212.952 192.623L214.453 194.811H213.706L212.333 192.827L212.727 192.806L211.66 193.921L211.864 193.459V194.811H211.232ZM216.917 194.811V190.326H215.959V189.748H217.59V194.811H216.917ZM220.341 194.893C220.078 194.893 219.831 194.848 219.6 194.757C219.369 194.662 219.168 194.528 218.995 194.356C218.828 194.179 218.705 193.973 218.628 193.737L219.172 193.506C219.267 193.756 219.421 193.95 219.634 194.091C219.852 194.227 220.087 194.295 220.341 194.295C220.549 194.295 220.733 194.249 220.891 194.159C221.055 194.064 221.181 193.935 221.272 193.771C221.363 193.604 221.408 193.418 221.408 193.214C221.408 193.001 221.36 192.813 221.265 192.65C221.175 192.487 221.05 192.36 220.891 192.27C220.733 192.174 220.552 192.127 220.348 192.127C220.139 192.127 219.949 192.174 219.777 192.27C219.605 192.365 219.48 192.485 219.403 192.63L218.866 192.514L219.254 189.748H221.877V190.326H219.505L219.763 190.068L219.464 192.215L219.233 192.079C219.383 191.889 219.557 191.753 219.756 191.671C219.96 191.585 220.18 191.542 220.416 191.542C220.746 191.542 221.036 191.617 221.286 191.767C221.535 191.916 221.73 192.115 221.87 192.365C222.011 192.614 222.081 192.897 222.081 193.214C222.081 193.531 222.004 193.817 221.85 194.071C221.7 194.324 221.494 194.526 221.231 194.675C220.973 194.82 220.676 194.893 220.341 194.893ZM223.081 193.404V192.813H226.139V193.404H223.081ZM229.115 194.811V190.326H228.157V189.748H229.788V194.811H229.115ZM232.48 194.893C232.154 194.893 231.864 194.82 231.61 194.675C231.361 194.53 231.164 194.333 231.019 194.084C230.874 193.83 230.801 193.543 230.801 193.221C230.801 193.044 230.822 192.87 230.862 192.698C230.903 192.526 230.969 192.351 231.06 192.174C231.15 191.998 231.266 191.814 231.406 191.624L232.833 189.748H233.635L231.889 192.018L231.766 192.004C231.834 191.914 231.909 191.844 231.991 191.794C232.077 191.744 232.167 191.708 232.262 191.685C232.362 191.662 232.466 191.651 232.575 191.651C232.874 191.651 233.141 191.721 233.377 191.862C233.617 191.998 233.805 192.186 233.941 192.426C234.082 192.666 234.152 192.942 234.152 193.255C234.152 193.568 234.079 193.848 233.934 194.098C233.789 194.342 233.59 194.537 233.336 194.682C233.087 194.823 232.802 194.893 232.48 194.893ZM232.48 194.295C232.67 194.295 232.84 194.252 232.99 194.166C233.139 194.075 233.257 193.95 233.343 193.792C233.434 193.633 233.479 193.457 233.479 193.262C233.479 193.058 233.436 192.881 233.35 192.732C233.264 192.578 233.146 192.455 232.996 192.365C232.847 192.274 232.675 192.229 232.48 192.229C232.29 192.229 232.117 192.274 231.963 192.365C231.809 192.455 231.689 192.578 231.603 192.732C231.517 192.881 231.474 193.058 231.474 193.262C231.474 193.457 231.517 193.633 231.603 193.792C231.694 193.95 231.814 194.075 231.963 194.166C232.117 194.252 232.29 194.295 232.48 194.295Z" fill="#2A2829"/>
</g>
<defs>
<filter id="filter0_d_9450_93558" x="-3.51572" y="-0.00628662" width="407.031" height="298.235" filterUnits="userSpaceOnUse" color-interpolation-filters="sRGB">
<feFlood flood-opacity="0" result="BackgroundImageFix"/>
<feColorMatrix in="SourceAlpha" type="matrix" values="0 0 0 0 0 0 0 0 0 0 0 0 0 0 0 0 0 0 127 0" result="hardAlpha"/>
<feOffset dy="16.5094"/>
<feGaussianBlur stdDeviation="13.7579"/>
<feComposite in2="hardAlpha" operator="out"/>
<feColorMatrix type="matrix" values="0 0 0 0 0 0 0 0 0 0 0 0 0 0 0 0 0 0 0.07 0"/>
<feBlend mode="normal" in2="BackgroundImageFix" result="effect1_dropShadow_9450_93558"/>
<feBlend mode="normal" in="SourceGraphic" in2="effect1_dropShadow_9450_93558" result="shape"/>
</filter>
</defs>
</svg>
