<svg width="325" height="234" viewBox="0 0 325 234" fill="none" xmlns="http://www.w3.org/2000/svg">
<g clip-path="url(#clip0_9450_93618)">
<path d="M300.285 0H21.4907C15.0658 0 9.85742 5.16781 9.85742 11.5426V71.9514C9.85742 78.3262 15.0658 83.494 21.4907 83.494H300.285C306.71 83.494 311.918 78.3262 311.918 71.9514V11.5426C311.918 5.16781 306.71 0 300.285 0Z" fill="white" stroke="#989898" stroke-width="0.738458"/>
<path d="M79.963 7.42188H21.9743C19.1062 7.42188 16.7812 9.91398 16.7812 12.9881V70.5062C16.7812 73.5804 19.1062 76.0725 21.9743 76.0725H79.963C82.831 76.0725 85.156 73.5804 85.156 70.5062V12.9881C85.156 9.91398 82.831 7.42188 79.963 7.42188Z" fill="#F7F7F7"/>
<path d="M155.695 31.542H96.8403C94.2113 31.542 92.0801 33.8264 92.0801 36.6444C92.0801 39.4624 94.2113 41.7468 96.8403 41.7468H155.695C158.324 41.7468 160.455 39.4624 160.455 36.6444C160.455 33.8264 158.324 31.542 155.695 31.542Z" fill="#EFEFEF"/>
<path d="M141.846 46.3857H96.8403C94.2113 46.3857 92.0801 48.6702 92.0801 51.4882C92.0801 54.3061 94.2113 56.5906 96.8403 56.5906H141.846C144.476 56.5906 146.607 54.3061 146.607 51.4882C146.607 48.6702 144.476 46.3857 141.846 46.3857Z" fill="#EFEFEF"/>
<path d="M291.82 39.4278C291.82 29.9491 284.652 22.2651 275.809 22.2651C266.966 22.2651 259.797 29.9491 259.797 39.4278C259.797 48.9065 266.966 56.5904 275.809 56.5904C284.652 56.5904 291.82 48.9065 291.82 39.4278Z" fill="#11AF22"/>
<path d="M269.857 -52.4159L274.726 -47.1975L284.463 -57.6343M269.857 39.4275L274.726 44.6458L284.463 34.2091" stroke="white" stroke-width="2.08735" stroke-linecap="round" stroke-linejoin="round"/>
<path fill-rule="evenodd" clip-rule="evenodd" d="M59.3001 42.2107H56.92V46.0375H53.3498V48.5887H59.3001V42.2107ZM45.0193 38.3839H48.5895V35.8326H42.6392V42.2107H45.0193V38.3839ZM61.6802 30.7302H40.259C39.6284 30.7322 39.024 31.0016 38.578 31.4796C38.1321 31.9576 37.8807 32.6054 37.8789 33.2814V51.1399C37.8807 51.8159 38.1321 52.4637 38.578 52.9417C39.024 53.4197 39.6284 53.6891 40.259 53.6911H61.6802C62.3109 53.6891 62.9153 53.4197 63.3612 52.9417C63.8072 52.4637 64.0585 51.8159 64.0604 51.1399V33.2814C64.0585 32.6054 63.8072 31.9576 63.3612 31.4796C62.9153 31.0016 62.3109 30.7322 61.6802 30.7302ZM61.6802 51.1529H40.259V33.2684H61.6802V51.1529Z" fill="#FF4310"/>
</g>
<g filter="url(#filter0_d_9450_93618)">
<rect x="16" y="111" width="304" height="112.56" rx="11.9489" fill="white"/>
<rect x="16.4721" y="111.472" width="303.056" height="111.616" rx="11.4768" stroke="#97A339" stroke-width="0.944108"/>
</g>
<path d="M36.4413 178.554V168.124H37.7713L43.6233 176.202L42.9933 176.3V168.124H44.6313V178.554H43.3013L37.4913 170.42L38.0933 170.308V178.554H36.4413ZM50.1929 178.722C49.4369 178.722 48.7649 178.55 48.1769 178.204C47.5982 177.85 47.1456 177.374 46.8189 176.776C46.4922 176.17 46.3289 175.493 46.3289 174.746C46.3289 173.981 46.4922 173.304 46.8189 172.716C47.1549 172.128 47.6029 171.666 48.1629 171.33C48.7229 170.985 49.3576 170.812 50.0669 170.812C50.6362 170.812 51.1449 170.91 51.5929 171.106C52.0409 171.302 52.4189 171.573 52.7269 171.918C53.0349 172.254 53.2682 172.642 53.4269 173.08C53.5949 173.519 53.6789 173.986 53.6789 174.48C53.6789 174.602 53.6742 174.728 53.6649 174.858C53.6556 174.989 53.6369 175.11 53.6089 175.222H47.5749V173.962H52.7129L51.9569 174.536C52.0502 174.079 52.0176 173.673 51.8589 173.318C51.7096 172.954 51.4762 172.67 51.1589 172.464C50.8509 172.25 50.4869 172.142 50.0669 172.142C49.6469 172.142 49.2736 172.25 48.9469 172.464C48.6202 172.67 48.3682 172.968 48.1909 173.36C48.0136 173.743 47.9436 174.21 47.9809 174.76C47.9342 175.274 48.0042 175.722 48.1909 176.104C48.3869 176.487 48.6576 176.786 49.0029 177C49.3576 177.215 49.7589 177.322 50.2069 177.322C50.6642 177.322 51.0516 177.22 51.3689 177.014C51.6956 176.809 51.9522 176.543 52.1389 176.216L53.4269 176.846C53.2776 177.201 53.0442 177.523 52.7269 177.812C52.4189 178.092 52.0456 178.316 51.6069 178.484C51.1776 178.643 50.7062 178.722 50.1929 178.722ZM54.3301 178.554L56.9761 174.76L54.3301 170.98H56.1921L58.3621 174.144H57.4661L59.6361 170.98H61.4981L58.8381 174.76L61.4841 178.554H59.6221L57.4801 175.376H58.3481L56.1921 178.554H54.3301ZM65.8543 178.638C65.061 178.638 64.445 178.414 64.0063 177.966C63.5676 177.518 63.3483 176.888 63.3483 176.076V172.408H62.0183V170.98H62.2283C62.583 170.98 62.8583 170.878 63.0543 170.672C63.2503 170.467 63.3483 170.187 63.3483 169.832V169.244H64.9303V170.98H66.6523V172.408H64.9303V176.006C64.9303 176.268 64.9723 176.492 65.0563 176.678C65.1403 176.856 65.2756 176.996 65.4623 177.098C65.649 177.192 65.8916 177.238 66.1903 177.238C66.265 177.238 66.349 177.234 66.4423 177.224C66.5356 177.215 66.6243 177.206 66.7083 177.196V178.554C66.5776 178.573 66.433 178.592 66.2743 178.61C66.1156 178.629 65.9756 178.638 65.8543 178.638ZM67.4821 178.554L71.1501 168.124H73.1941L76.8621 178.554H75.0981L74.3001 176.216H70.0581L69.2461 178.554H67.4821ZM70.5341 174.746H73.7961L71.9481 169.286H72.4101L70.5341 174.746ZM77.9455 181.354V170.98H79.4575V172.548L79.2755 172.184C79.5555 171.755 79.9288 171.419 80.3955 171.176C80.8622 170.934 81.3942 170.812 81.9915 170.812C82.7102 170.812 83.3542 170.985 83.9235 171.33C84.5022 171.676 84.9548 172.147 85.2815 172.744C85.6175 173.342 85.7855 174.014 85.7855 174.76C85.7855 175.507 85.6175 176.179 85.2815 176.776C84.9548 177.374 84.5068 177.85 83.9375 178.204C83.3682 178.55 82.7195 178.722 81.9915 178.722C81.4035 178.722 80.8668 178.601 80.3815 178.358C79.9055 178.116 79.5368 177.766 79.2755 177.308L79.5275 177.014V181.354H77.9455ZM81.8375 177.252C82.2855 177.252 82.6822 177.145 83.0275 176.93C83.3728 176.716 83.6435 176.422 83.8395 176.048C84.0448 175.666 84.1475 175.236 84.1475 174.76C84.1475 174.284 84.0448 173.86 83.8395 173.486C83.6435 173.113 83.3728 172.819 83.0275 172.604C82.6822 172.39 82.2855 172.282 81.8375 172.282C81.3988 172.282 81.0022 172.39 80.6475 172.604C80.3022 172.819 80.0268 173.113 79.8215 173.486C79.6255 173.86 79.5275 174.284 79.5275 174.76C79.5275 175.236 79.6255 175.666 79.8215 176.048C80.0268 176.422 80.3022 176.716 80.6475 176.93C81.0022 177.145 81.3988 177.252 81.8375 177.252ZM87.3244 181.354V170.98H88.8364V172.548L88.6544 172.184C88.9344 171.755 89.3077 171.419 89.7744 171.176C90.2411 170.934 90.7731 170.812 91.3704 170.812C92.0891 170.812 92.7331 170.985 93.3024 171.33C93.8811 171.676 94.3337 172.147 94.6604 172.744C94.9964 173.342 95.1644 174.014 95.1644 174.76C95.1644 175.507 94.9964 176.179 94.6604 176.776C94.3337 177.374 93.8857 177.85 93.3164 178.204C92.7471 178.55 92.0984 178.722 91.3704 178.722C90.7824 178.722 90.2457 178.601 89.7604 178.358C89.2844 178.116 88.9157 177.766 88.6544 177.308L88.9064 177.014V181.354H87.3244ZM91.2164 177.252C91.6644 177.252 92.0611 177.145 92.4064 176.93C92.7517 176.716 93.0224 176.422 93.2184 176.048C93.4237 175.666 93.5264 175.236 93.5264 174.76C93.5264 174.284 93.4237 173.86 93.2184 173.486C93.0224 173.113 92.7517 172.819 92.4064 172.604C92.0611 172.39 91.6644 172.282 91.2164 172.282C90.7777 172.282 90.3811 172.39 90.0264 172.604C89.6811 172.819 89.4057 173.113 89.2004 173.486C89.0044 173.86 88.9064 174.284 88.9064 174.76C88.9064 175.236 89.0044 175.666 89.2004 176.048C89.4057 176.422 89.6811 176.716 90.0264 176.93C90.3811 177.145 90.7777 177.252 91.2164 177.252ZM99.3046 178.554V168.124H100.635L106.487 176.202L105.857 176.3V168.124H107.495V178.554H106.165L100.355 170.42L100.957 170.308V178.554H99.3046ZM113.154 178.722C112.426 178.722 111.759 178.55 111.152 178.204C110.555 177.859 110.079 177.388 109.724 176.79C109.37 176.193 109.192 175.516 109.192 174.76C109.192 173.995 109.37 173.318 109.724 172.73C110.079 172.133 110.555 171.666 111.152 171.33C111.75 170.985 112.417 170.812 113.154 170.812C113.901 170.812 114.568 170.985 115.156 171.33C115.754 171.666 116.225 172.133 116.57 172.73C116.925 173.318 117.102 173.995 117.102 174.76C117.102 175.526 116.925 176.207 116.57 176.804C116.216 177.402 115.74 177.873 115.142 178.218C114.545 178.554 113.882 178.722 113.154 178.722ZM113.154 177.252C113.602 177.252 113.999 177.145 114.344 176.93C114.69 176.716 114.96 176.422 115.156 176.048C115.362 175.666 115.464 175.236 115.464 174.76C115.464 174.284 115.362 173.86 115.156 173.486C114.96 173.113 114.69 172.819 114.344 172.604C113.999 172.39 113.602 172.282 113.154 172.282C112.716 172.282 112.319 172.39 111.964 172.604C111.619 172.819 111.344 173.113 111.138 173.486C110.942 173.86 110.844 174.284 110.844 174.76C110.844 175.236 110.942 175.666 111.138 176.048C111.344 176.422 111.619 176.716 111.964 176.93C112.319 177.145 112.716 177.252 113.154 177.252ZM120.344 178.554L117.74 170.98H119.42L121.408 177.014H120.82L122.85 170.98H124.292L126.308 177.014H125.72L127.722 170.98H129.402L126.784 178.554H125.356L123.312 172.38H123.83L121.786 178.554H120.344ZM136.588 178.722C135.86 178.722 135.192 178.55 134.586 178.204C133.988 177.859 133.512 177.388 133.158 176.79C132.803 176.193 132.626 175.516 132.626 174.76C132.626 173.995 132.803 173.318 133.158 172.73C133.512 172.133 133.988 171.666 134.586 171.33C135.183 170.985 135.85 170.812 136.588 170.812C137.334 170.812 138.002 170.985 138.59 171.33C139.187 171.666 139.658 172.133 140.004 172.73C140.358 173.318 140.536 173.995 140.536 174.76C140.536 175.526 140.358 176.207 140.004 176.804C139.649 177.402 139.173 177.873 138.576 178.218C137.978 178.554 137.316 178.722 136.588 178.722ZM136.588 177.252C137.036 177.252 137.432 177.145 137.778 176.93C138.123 176.716 138.394 176.422 138.59 176.048C138.795 175.666 138.898 175.236 138.898 174.76C138.898 174.284 138.795 173.86 138.59 173.486C138.394 173.113 138.123 172.819 137.778 172.604C137.432 172.39 137.036 172.282 136.588 172.282C136.149 172.282 135.752 172.39 135.398 172.604C135.052 172.819 134.777 173.113 134.572 173.486C134.376 173.86 134.278 174.284 134.278 174.76C134.278 175.236 134.376 175.666 134.572 176.048C134.777 176.422 135.052 176.716 135.398 176.93C135.752 177.145 136.149 177.252 136.588 177.252ZM142.08 178.554V170.98H143.592V172.464L143.41 172.268C143.597 171.792 143.896 171.433 144.306 171.19C144.717 170.938 145.193 170.812 145.734 170.812C146.294 170.812 146.789 170.934 147.218 171.176C147.648 171.419 147.984 171.755 148.226 172.184C148.469 172.614 148.59 173.108 148.59 173.668V178.554H147.022V174.088C147.022 173.706 146.952 173.384 146.812 173.122C146.672 172.852 146.472 172.646 146.21 172.506C145.958 172.357 145.669 172.282 145.342 172.282C145.016 172.282 144.722 172.357 144.46 172.506C144.208 172.646 144.012 172.852 143.872 173.122C143.732 173.393 143.662 173.715 143.662 174.088V178.554H142.08ZM157.771 178.722C157.033 178.722 156.347 178.587 155.713 178.316C155.087 178.046 154.537 177.672 154.061 177.196C153.594 176.711 153.23 176.142 152.969 175.488C152.707 174.835 152.577 174.116 152.577 173.332C152.577 172.558 152.703 171.844 152.955 171.19C153.216 170.528 153.58 169.958 154.047 169.482C154.513 168.997 155.059 168.624 155.685 168.362C156.31 168.092 156.996 167.956 157.743 167.956C158.48 167.956 159.138 168.082 159.717 168.334C160.305 168.586 160.799 168.918 161.201 169.328C161.602 169.73 161.891 170.168 162.069 170.644L160.599 171.358C160.384 170.789 160.029 170.332 159.535 169.986C159.04 169.632 158.443 169.454 157.743 169.454C157.052 169.454 156.441 169.618 155.909 169.944C155.377 170.271 154.961 170.724 154.663 171.302C154.373 171.881 154.229 172.558 154.229 173.332C154.229 174.107 154.378 174.788 154.677 175.376C154.985 175.955 155.405 176.408 155.937 176.734C156.469 177.052 157.08 177.21 157.771 177.21C158.349 177.21 158.877 177.094 159.353 176.86C159.838 176.618 160.225 176.282 160.515 175.852C160.804 175.414 160.949 174.905 160.949 174.326V173.612L161.691 174.284H157.743V172.884H162.587V173.864C162.587 174.63 162.456 175.316 162.195 175.922C161.933 176.52 161.579 177.028 161.131 177.448C160.683 177.868 160.169 178.186 159.591 178.4C159.012 178.615 158.405 178.722 157.771 178.722ZM167.773 178.722C167.045 178.722 166.378 178.55 165.771 178.204C165.174 177.859 164.698 177.388 164.343 176.79C163.989 176.193 163.811 175.516 163.811 174.76C163.811 173.995 163.989 173.318 164.343 172.73C164.698 172.133 165.174 171.666 165.771 171.33C166.369 170.985 167.036 170.812 167.773 170.812C168.52 170.812 169.187 170.985 169.775 171.33C170.373 171.666 170.844 172.133 171.189 172.73C171.544 173.318 171.721 173.995 171.721 174.76C171.721 175.526 171.544 176.207 171.189 176.804C170.835 177.402 170.359 177.873 169.761 178.218C169.164 178.554 168.501 178.722 167.773 178.722ZM167.773 177.252C168.221 177.252 168.618 177.145 168.963 176.93C169.309 176.716 169.579 176.422 169.775 176.048C169.981 175.666 170.083 175.236 170.083 174.76C170.083 174.284 169.981 173.86 169.775 173.486C169.579 173.113 169.309 172.819 168.963 172.604C168.618 172.39 168.221 172.282 167.773 172.282C167.335 172.282 166.938 172.39 166.583 172.604C166.238 172.819 165.963 173.113 165.757 173.486C165.561 173.86 165.463 174.284 165.463 174.76C165.463 175.236 165.561 175.666 165.757 176.048C165.963 176.422 166.238 176.716 166.583 176.93C166.938 177.145 167.335 177.252 167.773 177.252ZM176.92 178.722C176.192 178.722 175.524 178.55 174.918 178.204C174.32 177.859 173.844 177.388 173.49 176.79C173.135 176.193 172.958 175.516 172.958 174.76C172.958 173.995 173.135 173.318 173.49 172.73C173.844 172.133 174.32 171.666 174.918 171.33C175.515 170.985 176.182 170.812 176.92 170.812C177.666 170.812 178.334 170.985 178.922 171.33C179.519 171.666 179.99 172.133 180.336 172.73C180.69 173.318 180.868 173.995 180.868 174.76C180.868 175.526 180.69 176.207 180.336 176.804C179.981 177.402 179.505 177.873 178.908 178.218C178.31 178.554 177.648 178.722 176.92 178.722ZM176.92 177.252C177.368 177.252 177.764 177.145 178.11 176.93C178.455 176.716 178.726 176.422 178.922 176.048C179.127 175.666 179.23 175.236 179.23 174.76C179.23 174.284 179.127 173.86 178.922 173.486C178.726 173.113 178.455 172.819 178.11 172.604C177.764 172.39 177.368 172.282 176.92 172.282C176.481 172.282 176.084 172.39 175.73 172.604C175.384 172.819 175.109 173.113 174.904 173.486C174.708 173.86 174.61 174.284 174.61 174.76C174.61 175.236 174.708 175.666 174.904 176.048C175.109 176.422 175.384 176.716 175.73 176.93C176.084 177.145 176.481 177.252 176.92 177.252ZM186.066 181.634C185.516 181.634 185.007 181.546 184.54 181.368C184.074 181.191 183.672 180.944 183.336 180.626C183 180.318 182.748 179.954 182.58 179.534L184.036 178.932C184.167 179.287 184.405 179.581 184.75 179.814C185.105 180.048 185.539 180.164 186.052 180.164C186.454 180.164 186.813 180.085 187.13 179.926C187.448 179.777 187.7 179.553 187.886 179.254C188.073 178.965 188.166 178.615 188.166 178.204V176.496L188.446 176.818C188.185 177.304 187.821 177.672 187.354 177.924C186.897 178.176 186.379 178.302 185.8 178.302C185.1 178.302 184.47 178.139 183.91 177.812C183.35 177.486 182.907 177.038 182.58 176.468C182.263 175.899 182.104 175.26 182.104 174.55C182.104 173.832 182.263 173.192 182.58 172.632C182.907 172.072 183.346 171.629 183.896 171.302C184.447 170.976 185.077 170.812 185.786 170.812C186.365 170.812 186.878 170.938 187.326 171.19C187.784 171.433 188.157 171.788 188.446 172.254L188.236 172.646V170.98H189.734V178.204C189.734 178.858 189.576 179.441 189.258 179.954C188.95 180.477 188.521 180.888 187.97 181.186C187.42 181.485 186.785 181.634 186.066 181.634ZM185.982 176.832C186.402 176.832 186.776 176.734 187.102 176.538C187.429 176.333 187.686 176.062 187.872 175.726C188.068 175.381 188.166 174.994 188.166 174.564C188.166 174.135 188.068 173.748 187.872 173.402C187.676 173.057 187.415 172.786 187.088 172.59C186.762 172.385 186.393 172.282 185.982 172.282C185.553 172.282 185.17 172.385 184.834 172.59C184.498 172.786 184.232 173.057 184.036 173.402C183.85 173.738 183.756 174.126 183.756 174.564C183.756 174.984 183.85 175.367 184.036 175.712C184.232 176.058 184.498 176.333 184.834 176.538C185.17 176.734 185.553 176.832 185.982 176.832ZM191.586 178.554V167.956H193.168V178.554H191.586ZM198.574 178.722C197.818 178.722 197.146 178.55 196.558 178.204C195.979 177.85 195.526 177.374 195.2 176.776C194.873 176.17 194.71 175.493 194.71 174.746C194.71 173.981 194.873 173.304 195.2 172.716C195.536 172.128 195.984 171.666 196.544 171.33C197.104 170.985 197.738 170.812 198.448 170.812C199.017 170.812 199.526 170.91 199.974 171.106C200.422 171.302 200.8 171.573 201.108 171.918C201.416 172.254 201.649 172.642 201.808 173.08C201.976 173.519 202.06 173.986 202.06 174.48C202.06 174.602 202.055 174.728 202.046 174.858C202.036 174.989 202.018 175.11 201.99 175.222H195.956V173.962H201.094L200.338 174.536C200.431 174.079 200.398 173.673 200.24 173.318C200.09 172.954 199.857 172.67 199.54 172.464C199.232 172.25 198.868 172.142 198.448 172.142C198.028 172.142 197.654 172.25 197.328 172.464C197.001 172.67 196.749 172.968 196.572 173.36C196.394 173.743 196.324 174.21 196.362 174.76C196.315 175.274 196.385 175.722 196.572 176.104C196.768 176.487 197.038 176.786 197.384 177C197.738 177.215 198.14 177.322 198.588 177.322C199.045 177.322 199.432 177.22 199.75 177.014C200.076 176.809 200.333 176.543 200.52 176.216L201.808 176.846C201.658 177.201 201.425 177.523 201.108 177.812C200.8 178.092 200.426 178.316 199.988 178.484C199.558 178.643 199.087 178.722 198.574 178.722ZM36.4413 200.554V190.124H40.2353C40.9353 190.124 41.5513 190.255 42.0833 190.516C42.6246 190.768 43.0446 191.142 43.3433 191.636C43.6419 192.122 43.7913 192.705 43.7913 193.386C43.7913 194.058 43.6373 194.637 43.3293 195.122C43.0306 195.608 42.6153 195.981 42.0833 196.242C41.5513 196.504 40.9353 196.634 40.2353 196.634H38.0933V200.554H36.4413ZM38.0933 195.164H40.2773C40.6506 195.164 40.9773 195.09 41.2573 194.94C41.5373 194.791 41.7566 194.586 41.9153 194.324C42.0739 194.054 42.1533 193.736 42.1533 193.372C42.1533 193.008 42.0739 192.696 41.9153 192.434C41.7566 192.164 41.5373 191.958 41.2573 191.818C40.9773 191.669 40.6506 191.594 40.2773 191.594H38.0933V195.164ZM45.3381 200.554V189.956H46.9201V200.554H45.3381ZM51.0377 200.722C50.5244 200.722 50.0717 200.634 49.6797 200.456C49.297 200.27 48.9984 200.018 48.7837 199.7C48.569 199.374 48.4617 198.991 48.4617 198.552C48.4617 198.142 48.5504 197.773 48.7277 197.446C48.9144 197.12 49.199 196.844 49.5817 196.62C49.9644 196.396 50.445 196.238 51.0237 196.144L53.6557 195.71V196.956L51.3317 197.362C50.9117 197.437 50.6037 197.572 50.4077 197.768C50.2117 197.955 50.1137 198.198 50.1137 198.496C50.1137 198.786 50.221 199.024 50.4357 199.21C50.6597 199.388 50.9444 199.476 51.2897 199.476C51.719 199.476 52.0924 199.383 52.4097 199.196C52.7364 199.01 52.9884 198.762 53.1657 198.454C53.343 198.137 53.4317 197.787 53.4317 197.404V195.458C53.4317 195.085 53.2917 194.782 53.0117 194.548C52.741 194.306 52.377 194.184 51.9197 194.184C51.4997 194.184 51.131 194.296 50.8137 194.52C50.5057 194.735 50.277 195.015 50.1277 195.36L48.8117 194.702C48.9517 194.329 49.1804 194.002 49.4977 193.722C49.815 193.433 50.1837 193.209 50.6037 193.05C51.033 192.892 51.4857 192.812 51.9617 192.812C52.559 192.812 53.0864 192.924 53.5437 193.148C54.0104 193.372 54.3697 193.685 54.6217 194.086C54.883 194.478 55.0137 194.936 55.0137 195.458V200.554H53.5017V199.182L53.8237 199.224C53.6464 199.532 53.4177 199.798 53.1377 200.022C52.867 200.246 52.5544 200.419 52.1997 200.54C51.8544 200.662 51.467 200.722 51.0377 200.722ZM57.5355 203.634C57.3488 203.634 57.1621 203.616 56.9755 203.578C56.7981 203.55 56.6348 203.504 56.4855 203.438V202.08C56.5975 202.108 56.7328 202.132 56.8915 202.15C57.0501 202.178 57.2041 202.192 57.3535 202.192C57.7921 202.192 58.1141 202.094 58.3195 201.898C58.5341 201.712 58.7255 201.422 58.8935 201.03L59.3975 199.882L59.3695 201.212L56.0935 192.98H57.7875L60.2095 199.294H59.6355L62.0435 192.98H63.7515L60.4055 201.38C60.2281 201.828 60.0041 202.22 59.7335 202.556C59.4721 202.902 59.1595 203.168 58.7955 203.354C58.4408 203.541 58.0208 203.634 57.5355 203.634ZM67.6342 200.722C66.8595 200.722 66.1782 200.531 65.5902 200.148C65.0115 199.766 64.6055 199.252 64.3722 198.608L65.5902 198.034C65.7955 198.464 66.0755 198.804 66.4302 199.056C66.7942 199.308 67.1955 199.434 67.6342 199.434C68.0075 199.434 68.3108 199.35 68.5442 199.182C68.7775 199.014 68.8942 198.786 68.8942 198.496C68.8942 198.31 68.8428 198.16 68.7402 198.048C68.6375 197.927 68.5068 197.829 68.3482 197.754C68.1988 197.68 68.0448 197.624 67.8862 197.586L66.6962 197.25C66.0428 197.064 65.5528 196.784 65.2262 196.41C64.9088 196.028 64.7502 195.584 64.7502 195.08C64.7502 194.623 64.8668 194.226 65.1002 193.89C65.3335 193.545 65.6555 193.279 66.0662 193.092C66.4768 192.906 66.9388 192.812 67.4522 192.812C68.1428 192.812 68.7588 192.985 69.3002 193.33C69.8415 193.666 70.2242 194.138 70.4482 194.744L69.2302 195.318C69.0808 194.954 68.8428 194.665 68.5162 194.45C68.1988 194.236 67.8395 194.128 67.4382 194.128C67.0928 194.128 66.8175 194.212 66.6122 194.38C66.4068 194.539 66.3042 194.749 66.3042 195.01C66.3042 195.188 66.3508 195.337 66.4442 195.458C66.5375 195.57 66.6588 195.664 66.8082 195.738C66.9575 195.804 67.1115 195.86 67.2702 195.906L68.5022 196.27C69.1275 196.448 69.6082 196.728 69.9442 197.11C70.2802 197.484 70.4482 197.932 70.4482 198.454C70.4482 198.902 70.3268 199.299 70.0842 199.644C69.8508 199.98 69.5242 200.246 69.1042 200.442C68.6842 200.629 68.1942 200.722 67.6342 200.722ZM75.2742 200.638C74.4809 200.638 73.8649 200.414 73.4262 199.966C72.9876 199.518 72.7682 198.888 72.7682 198.076V194.408H71.4382V192.98H71.6482C72.0029 192.98 72.2782 192.878 72.4742 192.672C72.6702 192.467 72.7682 192.187 72.7682 191.832V191.244H74.3502V192.98H76.0722V194.408H74.3502V198.006C74.3502 198.268 74.3922 198.492 74.4762 198.678C74.5602 198.856 74.6956 198.996 74.8822 199.098C75.0689 199.192 75.3116 199.238 75.6102 199.238C75.6849 199.238 75.7689 199.234 75.8622 199.224C75.9556 199.215 76.0442 199.206 76.1282 199.196V200.554C75.9976 200.573 75.8529 200.592 75.6942 200.61C75.5356 200.629 75.3956 200.638 75.2742 200.638ZM81.1893 200.722C80.4613 200.722 79.794 200.55 79.1873 200.204C78.59 199.859 78.114 199.388 77.7593 198.79C77.4047 198.193 77.2273 197.516 77.2273 196.76C77.2273 195.995 77.4047 195.318 77.7593 194.73C78.114 194.133 78.59 193.666 79.1873 193.33C79.7847 192.985 80.452 192.812 81.1893 192.812C81.936 192.812 82.6033 192.985 83.1913 193.33C83.7887 193.666 84.26 194.133 84.6053 194.73C84.96 195.318 85.1373 195.995 85.1373 196.76C85.1373 197.526 84.96 198.207 84.6053 198.804C84.2507 199.402 83.7747 199.873 83.1773 200.218C82.58 200.554 81.9173 200.722 81.1893 200.722ZM81.1893 199.252C81.6373 199.252 82.034 199.145 82.3793 198.93C82.7247 198.716 82.9953 198.422 83.1913 198.048C83.3967 197.666 83.4993 197.236 83.4993 196.76C83.4993 196.284 83.3967 195.86 83.1913 195.486C82.9953 195.113 82.7247 194.819 82.3793 194.604C82.034 194.39 81.6373 194.282 81.1893 194.282C80.7507 194.282 80.354 194.39 79.9993 194.604C79.654 194.819 79.3787 195.113 79.1733 195.486C78.9773 195.86 78.8793 196.284 78.8793 196.76C78.8793 197.236 78.9773 197.666 79.1733 198.048C79.3787 198.422 79.654 198.716 79.9993 198.93C80.354 199.145 80.7507 199.252 81.1893 199.252ZM86.6818 200.554V192.98H88.1938V194.506L88.0538 194.282C88.2218 193.788 88.4925 193.433 88.8658 193.218C89.2391 192.994 89.6871 192.882 90.2098 192.882H90.6718V194.324H90.0138C89.4911 194.324 89.0665 194.488 88.7398 194.814C88.4225 195.132 88.2638 195.589 88.2638 196.186V200.554H86.6818ZM95.3101 200.722C94.5541 200.722 93.8821 200.55 93.2941 200.204C92.7154 199.85 92.2627 199.374 91.9361 198.776C91.6094 198.17 91.4461 197.493 91.4461 196.746C91.4461 195.981 91.6094 195.304 91.9361 194.716C92.2721 194.128 92.7201 193.666 93.2801 193.33C93.8401 192.985 94.4747 192.812 95.1841 192.812C95.7534 192.812 96.2621 192.91 96.7101 193.106C97.1581 193.302 97.5361 193.573 97.8441 193.918C98.1521 194.254 98.3854 194.642 98.5441 195.08C98.7121 195.519 98.7961 195.986 98.7961 196.48C98.7961 196.602 98.7914 196.728 98.7821 196.858C98.7727 196.989 98.7541 197.11 98.7261 197.222H92.6921V195.962H97.8301L97.0741 196.536C97.1674 196.079 97.1347 195.673 96.9761 195.318C96.8267 194.954 96.5934 194.67 96.2761 194.464C95.9681 194.25 95.6041 194.142 95.1841 194.142C94.7641 194.142 94.3907 194.25 94.0641 194.464C93.7374 194.67 93.4854 194.968 93.3081 195.36C93.1307 195.743 93.0607 196.21 93.0981 196.76C93.0514 197.274 93.1214 197.722 93.3081 198.104C93.5041 198.487 93.7747 198.786 94.1201 199C94.4747 199.215 94.8761 199.322 95.3241 199.322C95.7814 199.322 96.1687 199.22 96.4861 199.014C96.8127 198.809 97.0694 198.543 97.2561 198.216L98.5441 198.846C98.3947 199.201 98.1614 199.523 97.8441 199.812C97.5361 200.092 97.1627 200.316 96.7241 200.484C96.2947 200.643 95.8234 200.722 95.3101 200.722Z" fill="#2A2829"/>
<path d="M40.8466 149.335C40.0078 149.335 39.2622 149.159 38.6098 148.807C37.9677 148.455 37.4655 147.973 37.103 147.362C36.7509 146.741 36.5749 146.037 36.5749 145.25V137.576H38.1127V145.218C38.1127 145.747 38.2266 146.218 38.4545 146.632C38.6926 147.036 39.0137 147.352 39.4175 147.58C39.8318 147.807 40.3081 147.921 40.8466 147.921C41.3851 147.921 41.8563 147.807 42.2602 147.58C42.6744 147.352 42.9954 147.036 43.2232 146.632C43.4614 146.218 43.5805 145.747 43.5805 145.218V137.576H45.1183V145.25C45.1183 146.037 44.9371 146.741 44.5747 147.362C44.2226 147.973 43.7255 148.455 43.0834 148.807C42.4414 149.159 41.6958 149.335 40.8466 149.335ZM47.4492 152.255V140.776H48.8628V142.578L48.6764 142.22C48.987 141.723 49.4116 141.33 49.9501 141.04C50.4886 140.74 51.1048 140.589 51.7986 140.589C52.5856 140.589 53.2898 140.781 53.9112 141.164C54.5429 141.547 55.0399 142.07 55.4024 142.733C55.7648 143.386 55.946 144.131 55.946 144.97C55.946 145.788 55.7648 146.528 55.4024 147.191C55.0399 147.854 54.5429 148.377 53.9112 148.76C53.2898 149.143 52.5805 149.335 51.7831 149.335C51.1099 149.335 50.4938 149.185 49.9346 148.884C49.3857 148.584 48.9611 148.159 48.6608 147.611L48.8938 147.362V152.255H47.4492ZM51.6743 147.937C52.2025 147.937 52.6737 147.807 53.0879 147.548C53.5021 147.29 53.8231 146.937 54.051 146.492C54.2891 146.037 54.4082 145.529 54.4082 144.97C54.4082 144.39 54.2891 143.883 54.051 143.448C53.8231 143.002 53.5021 142.65 53.0879 142.391C52.6737 142.122 52.2025 141.987 51.6743 141.987C51.1462 141.987 50.6698 142.117 50.2452 142.376C49.831 142.635 49.4996 142.992 49.2511 143.448C49.0129 143.893 48.8938 144.4 48.8938 144.97C48.8938 145.529 49.0129 146.037 49.2511 146.492C49.4996 146.937 49.831 147.29 50.2452 147.548C50.6698 147.807 51.1462 147.937 51.6743 147.937ZM61.646 149.335C60.859 149.335 60.1496 149.143 59.5179 148.76C58.8966 148.377 58.4047 147.854 58.0422 147.191C57.6798 146.528 57.4986 145.788 57.4986 144.97C57.4986 144.131 57.6798 143.386 58.0422 142.733C58.4047 142.07 58.8966 141.547 59.5179 141.164C60.1496 140.781 60.859 140.589 61.646 140.589C62.3398 140.589 62.956 140.74 63.4945 141.04C64.033 141.33 64.4576 141.723 64.7682 142.22L64.5352 142.578V137.39H65.9954V149.148H64.5818V147.362L64.7682 147.611C64.4783 148.159 64.0537 148.584 63.4945 148.884C62.9456 149.185 62.3295 149.335 61.646 149.335ZM61.7703 147.937C62.2984 147.937 62.7696 147.807 63.1838 147.548C63.598 147.29 63.9243 146.937 64.1624 146.492C64.411 146.037 64.5352 145.529 64.5352 144.97C64.5352 144.4 64.411 143.893 64.1624 143.448C63.9243 142.992 63.598 142.635 63.1838 142.376C62.7696 142.117 62.2984 141.987 61.7703 141.987C61.2525 141.987 60.7813 142.122 60.3567 142.391C59.9425 142.65 59.6163 143.002 59.3781 143.448C59.1399 143.883 59.0208 144.39 59.0208 144.97C59.0208 145.529 59.1399 146.037 59.3781 146.492C59.6163 146.937 59.9425 147.29 60.3567 147.548C60.7709 147.807 61.2421 147.937 61.7703 147.937ZM70.6857 149.335C70.1368 149.335 69.6501 149.236 69.2255 149.04C68.8113 148.833 68.4851 148.553 68.2469 148.201C68.0087 147.838 67.8896 147.424 67.8896 146.958C67.8896 146.513 67.9828 146.114 68.1692 145.762C68.366 145.4 68.6663 145.094 69.0702 144.846C69.4844 144.597 70.0022 144.421 70.6235 144.318L73.7302 143.805V145.017L70.9497 145.483C70.4112 145.576 70.0177 145.747 69.7692 145.995C69.531 146.244 69.4119 146.549 69.4119 146.912C69.4119 147.253 69.5465 147.538 69.8158 147.766C70.0954 147.994 70.4423 148.108 70.8565 148.108C71.3847 148.108 71.8403 147.999 72.2235 147.781C72.617 147.554 72.9225 147.248 73.14 146.865C73.3678 146.482 73.4817 146.057 73.4817 145.591V143.463C73.4817 143.008 73.3108 142.64 72.9691 142.36C72.6377 142.07 72.1976 141.925 71.6487 141.925C71.1724 141.925 70.7478 142.05 70.375 142.298C70.0125 142.536 69.7433 142.857 69.5672 143.261L68.309 142.609C68.4644 142.226 68.7129 141.884 69.0546 141.584C69.3964 141.273 69.7951 141.03 70.2507 140.854C70.7064 140.677 71.1827 140.589 71.6798 140.589C72.3219 140.589 72.8862 140.714 73.373 140.962C73.8597 141.2 74.2377 141.537 74.5069 141.972C74.7865 142.397 74.9263 142.894 74.9263 143.463V149.148H73.5128V147.564L73.7768 147.657C73.6008 147.989 73.3626 148.279 73.0623 148.527C72.762 148.776 72.4099 148.972 72.006 149.117C71.6021 149.262 71.162 149.335 70.6857 149.335ZM80.4163 149.242C79.5982 149.242 78.9665 149.009 78.5212 148.543C78.0863 148.077 77.8688 147.419 77.8688 146.57V142.158H76.3465V140.776H76.6572C77.03 140.776 77.3251 140.662 77.5426 140.434C77.7601 140.206 77.8688 139.906 77.8688 139.533V138.85H79.3134V140.776H81.193V142.158H79.3134V146.523C79.3134 146.803 79.3549 147.046 79.4377 147.253C79.5309 147.46 79.6811 147.626 79.8882 147.75C80.0953 147.864 80.3697 147.921 80.7115 147.921C80.7839 147.921 80.872 147.916 80.9755 147.906C81.0894 147.895 81.193 147.885 81.2862 147.875V149.148C81.1516 149.18 81.0014 149.2 80.8357 149.211C80.67 149.231 80.5302 149.242 80.4163 149.242ZM86.798 149.335C85.9903 149.335 85.2706 149.143 84.6389 148.76C84.0072 148.377 83.5101 147.854 83.1477 147.191C82.7852 146.518 82.604 145.767 82.604 144.939C82.604 144.1 82.78 143.354 83.1321 142.702C83.4946 142.05 83.9813 141.537 84.5923 141.164C85.2136 140.781 85.9075 140.589 86.6738 140.589C87.2951 140.589 87.844 140.703 88.3203 140.931C88.807 141.149 89.2161 141.449 89.5475 141.832C89.8892 142.205 90.1481 142.635 90.3242 143.121C90.5106 143.598 90.6038 144.095 90.6038 144.613C90.6038 144.727 90.5934 144.856 90.5727 145.001C90.5623 145.136 90.5468 145.265 90.5261 145.389H83.6603V144.147H89.6873L89.0038 144.706C89.097 144.167 89.0452 143.686 88.8485 143.261C88.6517 142.837 88.3618 142.5 87.9786 142.252C87.5954 142.003 87.1605 141.879 86.6738 141.879C86.1871 141.879 85.7418 142.003 85.3379 142.252C84.934 142.5 84.6182 142.857 84.3904 143.323C84.1729 143.779 84.0849 144.323 84.1263 144.954C84.0849 145.565 84.1781 146.104 84.4059 146.57C84.6441 147.026 84.9754 147.383 85.4 147.642C85.835 147.89 86.3062 148.014 86.8136 148.014C87.3728 148.014 87.844 147.885 88.2271 147.626C88.6103 147.367 88.921 147.036 89.1591 146.632L90.3708 147.253C90.2051 147.637 89.9462 147.989 89.5941 148.31C89.2523 148.62 88.8433 148.869 88.3669 149.055C87.9009 149.242 87.378 149.335 86.798 149.335Z" fill="#12233D"/>
<defs>
<filter id="filter0_d_9450_93618" x="11.2205" y="111" width="313.559" height="122.119" filterUnits="userSpaceOnUse" color-interpolation-filters="sRGB">
<feFlood flood-opacity="0" result="BackgroundImageFix"/>
<feColorMatrix in="SourceAlpha" type="matrix" values="0 0 0 0 0 0 0 0 0 0 0 0 0 0 0 0 0 0 127 0" result="hardAlpha"/>
<feOffset dy="4.77955"/>
<feGaussianBlur stdDeviation="2.38977"/>
<feComposite in2="hardAlpha" operator="out"/>
<feColorMatrix type="matrix" values="0 0 0 0 0.1375 0 0 0 0 0.155242 0 0 0 0 0.4125 0 0 0 0.08 0"/>
<feBlend mode="normal" in2="BackgroundImageFix" result="effect1_dropShadow_9450_93618"/>
<feBlend mode="normal" in="SourceGraphic" in2="effect1_dropShadow_9450_93618" result="shape"/>
</filter>
<clipPath id="clip0_9450_93618">
<rect width="320" height="95" fill="white"/>
</clipPath>
</defs>
</svg>
