<svg width="42" height="42" viewBox="0 0 42 42" fill="none" xmlns="http://www.w3.org/2000/svg">
<path d="M11.4551 32.4531H18.1369H24.8187" stroke="#0977A4" stroke-width="1.5" stroke-linecap="round" stroke-linejoin="round"/>
<path d="M11.4551 24.8223H12.4096H13.3642" stroke="#0977A4" stroke-width="1.5" stroke-linecap="round" stroke-linejoin="round"/>
<path d="M11.4551 17.1777H14.3187H17.1823" stroke="#0977A4" stroke-width="1.5" stroke-linecap="round" stroke-linejoin="round"/>
<path d="M11.4551 1.90869H29.5914L38.1824 10.4996V34.3632" stroke="#0977A4" stroke-width="1.5" stroke-linecap="round" stroke-linejoin="round"/>
<path d="M3.81836 38.5937V9.13916C3.81836 8.31073 4.48993 7.63916 5.31836 7.63916H25.5244C25.6835 7.63916 25.8361 7.70237 25.9486 7.81489L32.279 14.1453C32.3915 14.2578 32.4547 14.4104 32.4547 14.5695V38.5937C32.4547 39.4222 31.7831 40.0937 30.9547 40.0937H5.31836C4.48993 40.0937 3.81836 39.4222 3.81836 38.5937Z" stroke="#0977A4" stroke-width="1.5" stroke-linecap="round" stroke-linejoin="round"/>
<path d="M24.8184 7.63867V14.675C24.8184 15.0064 25.087 15.275 25.4184 15.275H32.4547" stroke="#0977A4" stroke-width="1.5" stroke-linecap="round" stroke-linejoin="round"/>
</svg>
