<svg width="42" height="42" viewBox="0 0 42 42" fill="none" xmlns="http://www.w3.org/2000/svg">
<path d="M1.75 36.75V29.75C1.75 25.8841 4.88401 22.75 8.75 22.75H19.25C23.116 22.75 26.25 25.884 26.25 29.75V36.75" stroke="#EB5017" stroke-width="1.5" stroke-linecap="round"/>
<path d="M22.75 22.8001C22.75 19.873 25.1229 17.5 28.0501 17.5H33.25C37.116 17.5 40.25 20.6341 40.25 24.5V27.125" stroke="#EB5017" stroke-width="1.5" stroke-linecap="round"/>
<path d="M14 22.749C17.866 22.749 21 19.615 21 15.749C21 11.8831 17.866 8.74902 14 8.74902C10.134 8.74902 7 11.8831 7 15.749C7 19.615 10.134 22.749 14 22.749Z" stroke="#EB5017" stroke-width="1.5" stroke-linecap="round" stroke-linejoin="round"/>
<path d="M31.5 17.5C34.3995 17.5 36.75 15.1495 36.75 12.25C36.75 9.35051 34.3995 7 31.5 7C28.6005 7 26.25 9.35051 26.25 12.25C26.25 15.1495 28.6005 17.5 31.5 17.5Z" stroke="#EB5017" stroke-width="1.5" stroke-linecap="round" stroke-linejoin="round"/>
</svg>
