<svg width="24" height="24" viewBox="0 0 24 24" fill="none" xmlns="http://www.w3.org/2000/svg">
<path d="M11.4 2.4L6.30002 7.5C6.10002 7.7 6.10002 8 6.30002 8.2L8.00002 9.9C8.20002 10.1 8.50002 10.1 8.70002 9.9L13.8 4.8C14 4.6 14 4.3 13.8 4.1L12.1 2.4C11.9 2.2 11.6 2.2 11.4 2.4Z" stroke="#17191C" stroke-width="1.5" stroke-miterlimit="10" stroke-linecap="round" stroke-linejoin="round"/>
<path d="M15.2999 6.30039L6.2999 15.3004C6.0999 15.5004 6.0999 15.8004 6.2999 16.0004L7.9999 17.7004C8.1999 17.9004 8.4999 17.9004 8.6999 17.7004L17.6999 8.70039C17.8999 8.50039 17.8999 8.20039 17.6999 8.00039L15.9999 6.30039C15.7999 6.10039 15.4999 6.10039 15.2999 6.30039Z" stroke="#17191C" stroke-width="1.5" stroke-miterlimit="10" stroke-linecap="round" stroke-linejoin="round"/>
<path d="M19.2 10.2008L10.2 19.2008C10 19.4008 10 19.7008 10.2 19.9008L11.9 21.6008C12.1 21.8008 12.4 21.8008 12.6 21.6008L21.6 12.6008C21.8 12.4008 21.8 12.1008 21.6 11.9008L19.9 10.2008C19.7 10.0008 19.4 10.0008 19.2 10.2008Z" stroke="#17191C" stroke-width="1.5" stroke-miterlimit="10" stroke-linecap="round" stroke-linejoin="round"/>
<path d="M4.1 13.8008L2.4 12.1008C2.2 11.9008 2.2 11.6008 2.4 11.4008L4.1 9.70078C4.3 9.50078 4.6 9.50078 4.8 9.70078L6.5 11.4008C6.7 11.6008 6.7 11.9008 6.5 12.1008L4.8 13.8008C4.6 14.0008 4.3 14.0008 4.1 13.8008Z" stroke="#17191C" stroke-width="1.5" stroke-miterlimit="10" stroke-linecap="round" stroke-linejoin="round"/>
</svg>
