<svg width="24" height="24" viewBox="0 0 24 24" fill="none" xmlns="http://www.w3.org/2000/svg">
<path d="M12.0002 18.1004C11.3002 18.1004 10.7002 17.5004 10.7002 16.8004V7.20039C10.7002 6.50039 11.3002 5.90039 12.0002 5.90039C12.7002 5.90039 13.3002 6.50039 13.3002 7.20039V16.9004C13.3002 17.6004 12.7002 18.1004 12.0002 18.1004Z" stroke="#17191C" stroke-width="1.5" stroke-miterlimit="10"/>
<path d="M6.69996 8.89955C6.99996 8.29955 7.79996 8.09955 8.49996 8.39955L16.9 13.1995C17.5 13.5995 17.7 14.3995 17.4 14.9995C17 15.5995 16.2 15.7995 15.6 15.4995L7.19996 10.6995C6.49996 10.3995 6.29996 9.59955 6.69996 8.89955Z" stroke="#17191C" stroke-width="1.5" stroke-miterlimit="10"/>
<path d="M6.69971 15.0985C6.29971 14.4985 6.59971 13.6985 7.19971 13.2985L15.5997 8.49854C16.1997 8.09854 16.9997 8.39854 17.3997 8.99854C17.7997 9.59854 17.4997 10.3985 16.8997 10.7985L8.49971 15.5985C7.79971 15.8985 6.99971 15.6985 6.69971 15.0985Z" stroke="#17191C" stroke-width="1.5" stroke-miterlimit="10"/>
<path d="M12 22C17.5228 22 22 17.5228 22 12C22 6.47715 17.5228 2 12 2C6.47715 2 2 6.47715 2 12C2 17.5228 6.47715 22 12 22Z" stroke="#17191C" stroke-width="1.5" stroke-miterlimit="10"/>
</svg>
