<svg width="24" height="24" viewBox="0 0 24 24" fill="none" xmlns="http://www.w3.org/2000/svg">
<path fill-rule="evenodd" clip-rule="evenodd" d="M13.5137 3.8065C14.5869 2.73174 16.3274 2.73108 17.4013 3.80503L19.8932 6.29688C20.958 7.36166 20.969 9.08542 19.918 10.1638L10.6849 19.637C9.97933 20.3609 9.01167 20.7691 8.00124 20.7691L5.24909 20.7689C3.96984 20.7689 2.94823 19.7025 3.00203 18.4234L3.12019 15.6144C3.15968 14.6754 3.54996 13.7854 4.2138 13.1205L13.5137 3.8065ZM16.3415 4.86649C15.8533 4.37833 15.0622 4.37863 14.5744 4.86716L12.9113 6.53276L17.1911 10.8125L18.8446 9.11603C19.3224 8.62586 19.3173 7.84233 18.8333 7.35834L16.3415 4.86649ZM5.27446 14.1812L11.8514 7.59422L16.144 11.8868L9.61148 18.5893C9.18816 19.0236 8.60756 19.2685 8.0013 19.2685L5.24916 19.2684C4.82274 19.2684 4.4822 18.9129 4.50014 18.4865L4.61829 15.6775C4.64199 15.1141 4.87616 14.5801 5.27446 14.1812ZM20.5148 20.6958C20.9289 20.6958 21.2645 20.3598 21.2645 19.9455C21.2645 19.5311 20.9289 19.1952 20.5148 19.1952H14.3931C13.9791 19.1952 13.6434 19.5311 13.6434 19.9455C13.6434 20.3598 13.9791 20.6958 14.3931 20.6958H20.5148Z" fill="#717171"/>
</svg>
