<svg width="24" height="24" viewBox="0 0 24 24" fill="none" xmlns="http://www.w3.org/2000/svg">
<path d="M10.8001 3.40078L7.20007 7.70078C7.10007 7.90078 7.00007 8.20078 6.90007 8.40078L5.20007 17.0008C5.10007 17.6008 5.40007 18.3008 5.90007 18.6008L11.2001 21.6008C11.6001 21.8008 12.3001 21.8008 12.7001 21.6008L18.0001 18.6008C18.5001 18.3008 18.8001 17.6008 18.7001 17.0008L17.0001 8.40078C17.0001 8.20078 16.8001 7.90078 16.7001 7.70078L13.1001 3.40078C12.5001 2.60078 11.5001 2.60078 10.8001 3.40078Z" stroke="#17191C" stroke-width="1.5" stroke-miterlimit="10" stroke-linecap="round" stroke-linejoin="round"/>
<path d="M16.8 8.5L12.5 20.7C12.3 21.1 11.7 21.1 11.6 20.7L7.20001 8.5" stroke="#17191C" stroke-width="1.5" stroke-miterlimit="10" stroke-linecap="round" stroke-linejoin="round"/>
</svg>
