<svg width="24" height="24" viewBox="0 0 24 24" fill="none" xmlns="http://www.w3.org/2000/svg">
<path d="M16.2 10C16.2 10 16 11 13 15C10.1 18.8 14.3 21.6 14.8 22H14.9C15.5 21.5 23.1 16.7 16.2 10Z" stroke="#17191C" stroke-width="1.5" stroke-miterlimit="10" stroke-linecap="round" stroke-linejoin="round"/>
<path d="M13.8 7.79982C13.8 5.49982 12.9 3.39982 12 2.19982C11.7 1.89982 11.2 1.99982 11.1 2.39982C10.7 3.89982 9.49999 7.09982 6.59999 10.8998C2.89999 15.6998 6.29999 20.8998 9.79999 21.8998C11.7 22.3998 9.29999 20.8998 8.99999 17.7998C8.69999 13.8998 13.8 10.9998 13.8 7.79982Z" stroke="#17191C" stroke-width="1.5" stroke-miterlimit="10" stroke-linecap="round" stroke-linejoin="round"/>
</svg>
