<svg width="21" height="22" viewBox="0 0 21 22" fill="none" xmlns="http://www.w3.org/2000/svg">
<path d="M10.375 2.2832C13.125 2.2832 13.5 2.2832 14.625 2.2832C15.625 2.2832 16.125 2.5332 16.5 2.6582C17 2.9082 17.375 3.0332 17.75 3.4082C18.125 3.7832 18.375 4.1582 18.5 4.6582C18.625 5.0332 18.75 5.5332 18.875 6.5332C18.875 7.6582 18.875 7.9082 18.875 10.7832C18.875 13.6582 18.875 13.9082 18.875 15.0332C18.875 16.0332 18.625 16.5332 18.5 16.9082C18.25 17.4082 18.125 17.7832 17.75 18.1582C17.375 18.5332 17 18.7832 16.5 18.9082C16.125 19.0332 15.625 19.1582 14.625 19.2832C13.5 19.2832 13.25 19.2832 10.375 19.2832C7.5 19.2832 7.25 19.2832 6.125 19.2832C5.125 19.2832 4.625 19.0332 4.25 18.9082C3.75 18.6582 3.375 18.5332 3 18.1582C2.625 17.7832 2.375 17.4082 2.25 16.9082C2.125 16.5332 2 16.0332 1.875 15.0332C1.875 13.9082 1.875 13.6582 1.875 10.7832C1.875 7.9082 1.875 7.6582 1.875 6.5332C1.875 5.5332 2.125 5.0332 2.25 4.6582C2.5 4.1582 2.625 3.7832 3 3.4082C3.375 3.0332 3.75 2.7832 4.25 2.6582C4.625 2.5332 5.125 2.4082 6.125 2.2832C7.25 2.2832 7.625 2.2832 10.375 2.2832ZM10.375 0.408203C7.5 0.408203 7.25 0.408203 6.125 0.408203C5 0.408203 4.25 0.658204 3.625 0.908204C3 1.1582 2.375 1.5332 1.75 2.1582C1.125 2.7832 0.875001 3.2832 0.500001 4.0332C0.250001 4.6582 0.125 5.4082 0 6.5332C0 7.6582 0 8.0332 0 10.7832C0 13.6582 0 13.9082 0 15.0332C0 16.1582 0.250001 16.9082 0.500001 17.5332C0.750001 18.1582 1.125 18.7832 1.75 19.4082C2.375 20.0332 2.875 20.2832 3.625 20.6582C4.25 20.9082 5 21.0332 6.125 21.1582C7.25 21.1582 7.625 21.1582 10.375 21.1582C13.125 21.1582 13.5 21.1582 14.625 21.1582C15.75 21.1582 16.5 20.9082 17.125 20.6582C17.75 20.4082 18.375 20.0332 19 19.4082C19.625 18.7832 19.875 18.2832 20.25 17.5332C20.5 16.9082 20.625 16.1582 20.75 15.0332C20.75 13.9082 20.75 13.5332 20.75 10.7832C20.75 8.0332 20.75 7.6582 20.75 6.5332C20.75 5.4082 20.5 4.6582 20.25 4.0332C20 3.4082 19.625 2.7832 19 2.1582C18.375 1.5332 17.875 1.2832 17.125 0.908204C16.5 0.658204 15.75 0.533203 14.625 0.408203C13.5 0.408203 13.25 0.408203 10.375 0.408203Z" fill="white"/>
<path d="M10.375 5.4082C7.375 5.4082 5 7.7832 5 10.7832C5 13.7832 7.375 16.1582 10.375 16.1582C13.375 16.1582 15.75 13.7832 15.75 10.7832C15.75 7.7832 13.375 5.4082 10.375 5.4082ZM10.375 14.2832C8.5 14.2832 6.875 12.7832 6.875 10.7832C6.875 8.9082 8.375 7.2832 10.375 7.2832C12.25 7.2832 13.875 8.7832 13.875 10.7832C13.875 12.6582 12.25 14.2832 10.375 14.2832Z" fill="white"/>
<path d="M15.875 6.5332C16.5654 6.5332 17.125 5.97356 17.125 5.2832C17.125 4.59285 16.5654 4.0332 15.875 4.0332C15.1846 4.0332 14.625 4.59285 14.625 5.2832C14.625 5.97356 15.1846 6.5332 15.875 6.5332Z" fill="white"/>
</svg>
