<svg width="20" height="21" viewBox="0 0 20 21" fill="none" xmlns="http://www.w3.org/2000/svg">
<path d="M4.50001 20.4082H0.249996V7.0332H4.50001V20.4082ZM2.375 5.1582C1 5.1582 0 4.1582 0 2.7832C0 1.4082 1.125 0.408203 2.375 0.408203C3.75 0.408203 4.75 1.4082 4.75 2.7832C4.75 4.1582 3.75 5.1582 2.375 5.1582ZM20 20.4082H15.75V13.1582C15.75 11.0332 14.875 10.4082 13.625 10.4082C12.375 10.4082 11.125 11.4082 11.125 13.2832V20.4082H6.875V7.0332H10.875V8.9082C11.25 8.0332 12.75 6.6582 14.875 6.6582C17.25 6.6582 19.75 8.0332 19.75 12.1582V20.4082H20Z" fill="white"/>
</svg>
