<svg width="24" height="24" viewBox="0 0 24 24" fill="none" xmlns="http://www.w3.org/2000/svg">
<path d="M18 7.16C17.94 7.15 17.87 7.15 17.81 7.16C16.43 7.11 15.33 5.98 15.33 4.58C15.33 3.15 16.48 2 17.91 2C19.34 2 20.49 3.16 20.49 4.58C20.48 5.98 19.38 7.11 18 7.16Z" stroke="#292D32" stroke-width="1.5" stroke-linecap="round" stroke-linejoin="round"/>
<path d="M16.9699 14.4402C18.3399 14.6702 19.8499 14.4302 20.9099 13.7202C22.3199 12.7802 22.3199 11.2402 20.9099 10.3002C19.8399 9.59016 18.3099 9.35016 16.9399 9.59016" stroke="#292D32" stroke-width="1.5" stroke-linecap="round" stroke-linejoin="round"/>
<path d="M5.96998 7.16C6.02998 7.15 6.09998 7.15 6.15998 7.16C7.53998 7.11 8.63998 5.98 8.63998 4.58C8.63998 3.15 7.48998 2 6.05998 2C4.62998 2 3.47998 3.16 3.47998 4.58C3.48998 5.98 4.58998 7.11 5.96998 7.16Z" stroke="#292D32" stroke-width="1.5" stroke-linecap="round" stroke-linejoin="round"/>
<path d="M6.99994 14.4402C5.62994 14.6702 4.11994 14.4302 3.05994 13.7202C1.64994 12.7802 1.64994 11.2402 3.05994 10.3002C4.12994 9.59016 5.65994 9.35016 7.02994 9.59016" stroke="#292D32" stroke-width="1.5" stroke-linecap="round" stroke-linejoin="round"/>
<path d="M12.0002 14.6288C11.9402 14.6188 11.8702 14.6188 11.8102 14.6288C10.4302 14.5788 9.3302 13.4488 9.3302 12.0488C9.3302 10.6188 10.4802 9.46875 11.9102 9.46875C13.3402 9.46875 14.4902 10.6288 14.4902 12.0488C14.4802 13.4488 13.3802 14.5888 12.0002 14.6288Z" stroke="#292D32" stroke-width="1.5" stroke-linecap="round" stroke-linejoin="round"/>
<path d="M9.09021 17.7794C7.68021 18.7194 7.68021 20.2594 9.09021 21.1994C10.6902 22.2694 13.3102 22.2694 14.9102 21.1994C16.3202 20.2594 16.3202 18.7194 14.9102 17.7794C13.3202 16.7194 10.6902 16.7194 9.09021 17.7794Z" stroke="#292D32" stroke-width="1.5" stroke-linecap="round" stroke-linejoin="round"/>
</svg>
