<svg width="24" height="24" viewBox="0 0 24 24" fill="none" xmlns="http://www.w3.org/2000/svg">
<path d="M21 11.5C21 16.75 16.75 21 11.5 21C6.25 21 2 16.75 2 11.5C2 6.25 6.25 2 11.5 2" stroke="#292D32" stroke-width="1.5" stroke-linecap="round" stroke-linejoin="round"/>
<path d="M22 22L20 20" stroke="#292D32" stroke-width="1.5" stroke-linecap="round" stroke-linejoin="round"/>
<path d="M14.4999 6.1291C14.1499 5.0291 14.5599 3.6591 15.7199 3.2891C16.3299 3.0891 17.0799 3.2591 17.5099 3.8491C17.9099 3.2391 18.6899 3.0991 19.2899 3.2891C20.4499 3.6591 20.8599 5.0291 20.5099 6.1291C19.9599 7.8791 18.0399 8.7891 17.5099 8.7891C16.9699 8.7891 15.0699 7.8991 14.4999 6.1291Z" stroke="#292D32" stroke-width="1.5" stroke-linecap="round" stroke-linejoin="round"/>
</svg>
