<svg width="24" height="24" viewBox="0 0 24 24" fill="none" xmlns="http://www.w3.org/2000/svg">
<path d="M20 11C20 15.97 15.97 20 11 20C6.03 20 2 15.97 2 11C2 6.03 6.03 2 11 2" stroke="#292D32" stroke-width="1.5" stroke-linecap="round" stroke-linejoin="round"/>
<path d="M13.4999 6.1291C13.1499 5.0291 13.5599 3.6591 14.7199 3.2891C15.3299 3.0891 16.0799 3.2591 16.5099 3.8491C16.9099 3.2391 17.6899 3.0991 18.2899 3.2891C19.4499 3.6591 19.8599 5.0291 19.5099 6.1291C18.9599 7.8791 17.0399 8.7891 16.5099 8.7891C15.9699 8.7891 14.0699 7.8991 13.4999 6.1291Z" stroke="#292D32" stroke-width="1.5" stroke-linecap="round" stroke-linejoin="round"/>
<path d="M18.9299 20.6888C19.4599 22.2888 20.6699 22.4488 21.5999 21.0488C22.4499 19.7688 21.8899 18.7188 20.3499 18.7188C19.2099 18.7088 18.5699 19.5988 18.9299 20.6888Z" stroke="#292D32" stroke-width="1.5" stroke-linecap="round" stroke-linejoin="round"/>
</svg>
