<svg width="16" height="16" viewBox="0 0 16 16" fill="none" xmlns="http://www.w3.org/2000/svg">
<path d="M4.17478 5.87775C4.56611 5.19995 5.13724 4.64358 5.82505 4.27013C6.51285 3.89669 7.29053 3.72072 8.0721 3.76168C8.85367 3.80264 9.6087 4.05893 10.2537 4.50223C10.8987 4.94553 11.4085 5.55855 11.7269 6.27354M3.19873 4.55972L3.58566 6.23576C3.65157 6.52122 3.9364 6.69921 4.22187 6.63331L5.89791 6.24638M11.5252 10.1215C11.1339 10.7993 10.5628 11.3556 9.87497 11.7291C9.18717 12.1025 8.40949 12.2785 7.62792 12.2375C6.84634 12.1966 6.09132 11.9403 5.44632 11.497C4.80132 11.0537 4.29147 10.4407 3.97314 9.72567M12.5013 11.4395L12.1144 9.76344C12.0485 9.47798 11.7636 9.29999 11.4782 9.36589L9.80211 9.75283" stroke="#717171" stroke-linecap="round"/>
</svg>
