<svg width="24" height="24" viewBox="0 0 24 24" fill="none" xmlns="http://www.w3.org/2000/svg">
<path d="M10.05 2.53126L4.03002 6.46126C2.10002 7.72126 2.10002 10.5413 4.03002 11.8013L10.05 15.7313C11.13 16.4413 12.91 16.4413 13.99 15.7313L19.98 11.8013C21.9 10.5413 21.9 7.73126 19.98 6.47126L13.99 2.54126C12.91 1.82126 11.13 1.82126 10.05 2.53126Z" stroke="#292D32" stroke-width="1.5" stroke-linecap="round" stroke-linejoin="round"/>
<path d="M5.63 13.0801L5.62 17.7701C5.62 19.0401 6.6 20.4001 7.8 20.8001L10.99 21.8601C11.54 22.0401 12.45 22.0401 13.01 21.8601L16.2 20.8001C17.4 20.4001 18.38 19.0401 18.38 17.7701V13.1301" stroke="#292D32" stroke-width="1.5" stroke-linecap="round" stroke-linejoin="round"/>
<path d="M21.4 15V9" stroke="#292D32" stroke-width="1.5" stroke-linecap="round" stroke-linejoin="round"/>
</svg>
