<svg width="24" height="24" viewBox="0 0 24 24" fill="none" xmlns="http://www.w3.org/2000/svg">
<path d="M15 22H9C4 22 2 20 2 15V9C2 4 4 2 9 2H15C20 2 22 4 22 9V15C22 20 20 22 15 22Z" stroke="black" stroke-width="1.5" stroke-linecap="round" stroke-linejoin="round"/>
<path d="M9.54988 17.7191H7.09988C6.42988 17.7191 5.87988 17.1691 5.87988 16.4991V7.50906C5.87988 6.83906 6.42988 6.28906 7.09988 6.28906H9.54988C10.2199 6.28906 10.7699 6.83906 10.7699 7.50906V16.4891C10.7699 17.1691 10.2199 17.7191 9.54988 17.7191Z" stroke="black" stroke-width="1.5" stroke-miterlimit="10"/>
<path d="M17.1399 13.6291H14.1999C13.6599 13.6291 13.2199 13.1891 13.2199 12.6491V7.26906C13.2199 6.72906 13.6599 6.28906 14.1999 6.28906H17.1399C17.6799 6.28906 18.1199 6.72906 18.1199 7.26906V12.6591C18.1299 13.1891 17.6799 13.6291 17.1399 13.6291Z" stroke="black" stroke-width="1.5" stroke-miterlimit="10"/>
</svg>
