<svg width="21" height="19" viewBox="0 0 21 19" fill="none" xmlns="http://www.w3.org/2000/svg">
<path d="M1.03374 0.0214195C1.02554 0.0337276 1.69014 0.940374 2.50652 2.03163C3.32291 3.12289 5.05825 5.44489 6.36283 7.18844L8.73405 10.3597L8.58226 10.532C8.49611 10.6263 6.75257 12.5093 4.70954 14.7165C2.66652 16.9277 0.988616 18.7492 0.984514 18.7697C0.976309 18.7902 1.33322 18.8066 1.84603 18.8025L2.71985 18.7984L3.00702 18.4825C3.16702 18.3102 4.65211 16.7062 6.3095 14.9134C7.96689 13.1206 9.36993 11.6027 9.42737 11.5371L9.52993 11.4181L10.3504 12.5176C10.8017 13.1206 12.0447 14.7862 13.1114 16.2139L15.0559 18.8066H18.0302C20.504 18.8066 21.0004 18.7984 20.984 18.7533C20.9717 18.7205 20.2168 17.7031 19.3061 16.4846C18.3953 15.2703 17.3533 13.8755 16.9923 13.3914C16.6272 12.9073 15.5564 11.4673 14.6047 10.1997C13.6529 8.92789 12.8734 7.86945 12.8734 7.85304C12.8734 7.82432 17.903 2.36393 19.6138 0.538332L20.102 0.0173187H19.2035L18.3092 0.0214195L17.2631 1.1537C16.6887 1.77728 15.2816 3.3034 14.1329 4.53824L12.0529 6.7864L9.52993 3.41416L7.00282 0.0378304L4.02854 0.0173187C2.39166 0.0050106 1.04195 0.00911331 1.03374 0.0214195ZM8.08176 3.65621C9.05404 4.9608 10.5555 6.96691 11.4171 8.1197C12.2786 9.26839 14.1903 11.8283 15.6672 13.8016C17.1441 15.779 18.3666 17.4159 18.3871 17.4446C18.4117 17.4815 18.1205 17.4938 17.0579 17.4938H15.7L13.0088 13.8919C6.79769 5.59258 3.66342 1.39985 3.6265 1.33831C3.60188 1.30139 3.88085 1.28908 4.95159 1.28908H6.3095L8.08176 3.65621Z" fill="white"/>
</svg>
