<svg width="24" height="24" viewBox="0 0 24 24" fill="none" xmlns="http://www.w3.org/2000/svg">
<path d="M19 9.9V16.8C19 17.6 18.6 18.3 17.9 18.6L11.4 21.7C10.9 21.9 10.2 21.9 9.69998 21.7L3.19998 18.6C2.49998 18.3 2.09998 17.6 2.09998 16.8V9.3C2.09998 8.5 2.49998 7.8 3.19998 7.5L9.69998 4.4C10.2 4.2 10.9 4.2 11.4 4.4L14 5.7C14 5.8 14 5.9 14 6C14 8.2 15.8 10 18 10C18.4 10 18.7 10 19 9.9Z" stroke="#17191C" stroke-width="1.5" stroke-miterlimit="10" stroke-linejoin="round"/>
<path d="M7 10.5V13.5C7 14.6 7.9 15.5 9 15.5C10.1 15.5 11 14.6 11 13.5V10.5" stroke="#17191C" stroke-width="1.5" stroke-miterlimit="10" stroke-linecap="round"/>
<path d="M14 10.5V15.4" stroke="#17191C" stroke-width="1.5" stroke-miterlimit="10" stroke-linecap="round"/>
<path d="M22 6C22 7.9 20.7 9.4 19 9.9C18.7 10 18.4 10 18 10C15.8 10 14 8.2 14 6C14 5.9 14 5.8 14 5.7C14.2 3.7 15.9 2 18 2C20.2 2 22 3.8 22 6Z" stroke="#17191C" stroke-width="1.5" stroke-miterlimit="10"/>
<path d="M19.0999 5.90078C19.2999 5.70078 19.4999 5.40078 19.4999 5.10078C19.4999 4.30078 18.8999 3.80078 17.9999 3.80078C17.0999 3.80078 16.4999 4.30078 16.4999 5.10078C16.4999 5.40078 16.5999 5.70078 16.8999 5.90078C16.5999 6.10078 16.3999 6.50078 16.3999 6.90078C16.3999 7.70078 16.9999 8.20078 17.9999 8.20078C18.9999 8.20078 19.5999 7.70078 19.5999 6.90078C19.5999 6.50078 19.3999 6.10078 19.0999 5.90078ZM17.9999 5.50078C17.6999 5.50078 17.5999 5.40078 17.5999 5.10078C17.5999 4.80078 17.7999 4.70078 17.9999 4.70078C18.1999 4.70078 18.3999 4.80078 18.3999 5.10078C18.3999 5.40078 18.2999 5.50078 17.9999 5.50078ZM17.9999 6.30078C18.2999 6.30078 18.5999 6.40078 18.5999 6.80078C18.5999 7.10078 18.3999 7.30078 17.9999 7.30078C17.5999 7.30078 17.3999 7.10078 17.3999 6.80078C17.3999 6.40078 17.8999 6.30078 17.9999 6.30078Z" fill="#17191C"/>
</svg>
