<svg width="102" height="87" viewBox="0 0 102 87" fill="none" xmlns="http://www.w3.org/2000/svg">
<path d="M96.825 67.4766C96.7803 67.4157 96.7349 67.3551 96.6897 67.2936C96.6348 67.3464 96.5423 67.3951 96.5367 67.4526C96.531 67.5064 96.6172 67.5694 96.6635 67.6284C96.7175 67.5777 96.7715 67.5274 96.825 67.4766ZM109.247 51.9292C109.188 51.9743 109.13 52.0194 109.071 52.0645C109.181 52.0743 109.291 52.084 109.4 52.0937C109.349 52.0389 109.298 51.984 109.247 51.9292ZM95.6788 64.6226C95.6367 64.5646 95.5946 64.5072 95.552 64.4498C95.5417 64.5575 95.5314 64.6646 95.5211 64.7723C95.5735 64.722 95.6264 64.6723 95.6788 64.6226ZM90.5452 65.772C90.4995 65.713 90.4542 65.6536 90.409 65.5946C90.3534 65.6443 90.2599 65.69 90.2538 65.7453C90.2481 65.7966 90.3355 65.8586 90.3817 65.916C90.4362 65.8679 90.4907 65.8197 90.5452 65.772ZM84.1245 57.6214C84.067 57.6655 84.009 57.7096 83.9514 57.7537C84.0593 57.7635 84.1672 57.7737 84.2751 57.7839C84.2247 57.7296 84.1744 57.6758 84.1245 57.6214ZM83.1352 58.3715C83.0854 58.3135 83.0391 58.2151 82.9836 58.21C82.9286 58.2043 82.8655 58.2936 82.8053 58.3412C82.8562 58.3966 82.9029 58.4899 82.96 58.4966C83.0124 58.5032 83.0761 58.4171 83.1352 58.3715ZM106.398 61.0251C106.345 61.0743 106.293 61.123 106.24 61.1717C106.337 61.1804 106.434 61.1892 106.531 61.1984C106.487 61.141 106.442 61.083 106.398 61.0251ZM94.539 67.4777C94.4932 67.4167 94.448 67.3557 94.4023 67.2946C94.3468 67.3469 94.2532 67.3956 94.247 67.4531C94.2419 67.5074 94.3293 67.5705 94.3755 67.6294C94.43 67.5792 94.4845 67.5284 94.539 67.4777ZM82.5457 52.1363C82.4152 52.0343 82.3166 51.8953 82.2107 51.8897C82.0658 51.882 81.9162 51.9769 81.7682 52.0271C81.8525 52.1178 81.9317 52.2762 82.0226 52.2834C82.1686 52.2942 82.3227 52.2055 82.5457 52.1363ZM105.29 64.6851C105.349 64.5256 105.452 64.378 105.44 64.2396C105.431 64.1401 105.27 64.0535 105.176 63.9612C105.126 64.1078 105.03 64.257 105.039 64.3995C105.045 64.4975 105.197 64.5862 105.29 64.6851ZM82.4522 43.8289C82.4214 43.9668 82.3906 44.1052 82.3598 44.2436H83.6425C83.6487 44.1559 83.6554 44.0683 83.6616 43.9806C83.2586 43.9299 82.8552 43.8796 82.4522 43.8289ZM79.4302 45.676C79.4302 45.7529 79.4307 45.8303 79.4307 45.9073H81.2866C81.284 45.8303 81.282 45.7529 81.2795 45.676H79.4302ZM84.9736 40.4026C84.823 40.3139 84.6719 40.2252 84.5213 40.1365C84.6693 40.2283 84.8173 40.3196 84.9653 40.4108C85.2573 40.579 85.5493 40.7472 85.8406 40.9148C85.8889 40.7974 85.9367 40.68 85.9851 40.5621C85.6479 40.5092 85.3107 40.4559 84.9736 40.4026ZM94.6844 36.9789C94.5364 36.8923 94.3884 36.8052 94.2404 36.7185C94.3817 36.8118 94.5236 36.9056 94.6644 36.9989C94.8098 37.0882 94.9548 37.1768 95.0998 37.266C94.9615 37.1702 94.8227 37.0743 94.6844 36.9789ZM90.6799 70.0211C89.9706 70.8613 89.1226 71.6212 88.5753 72.5563C86.0292 76.9063 83.5973 81.3241 81.0631 85.6819C79.1415 88.9866 77.1094 92.2267 75.1605 95.5161C74.161 97.2028 73.2461 98.9392 72.2753 100.643C70.6117 103.562 69.0519 106.549 67.231 109.367C65.2036 112.504 63.6201 115.892 61.4441 118.95C60 120.978 58.9607 123.292 57.7226 125.469C56.3381 127.902 54.9628 130.342 53.5037 132.729C53.3053 133.054 52.6403 133.094 52.2061 133.26C51.4316 132.017 52.2487 131.245 52.6717 130.509C55.0898 126.303 57.5788 122.139 60.0554 117.968C63.7239 111.79 67.4257 105.631 71.0685 99.4375C73.3391 95.5765 75.4905 91.6458 77.7611 87.7854C81.4044 81.5917 85.1118 75.436 88.7608 69.2454C89.1298 68.6189 89.2819 67.8658 89.5348 67.1711C89.6227 67.0235 89.7105 66.8758 89.7984 66.7282C89.7121 66.8773 89.6258 67.0265 89.5394 67.1757C88.0274 69.0475 86.4629 70.8803 85.0136 72.7998C81.9182 76.8976 78.8666 81.0293 75.8272 85.1692C73.7272 88.0294 71.7038 90.9455 69.5987 93.8022C65.9426 98.7633 62.2206 103.677 58.5815 108.651C55.5503 112.795 52.6249 117.017 49.6009 121.168C47.3483 124.259 45.0136 127.291 42.7245 130.338C41.7007 129.875 41.3281 129.397 41.9397 128.542C42.209 128.165 42.3755 127.714 42.651 127.343C45.712 123.218 48.7833 119.1 51.8561 114.984C54.929 110.867 58.0248 106.767 61.0776 102.636C63.1313 99.8564 65.1053 97.0182 67.1549 94.2359C70.8645 89.1994 74.6214 84.1971 78.3248 79.156C80.3698 76.3716 82.3422 73.5345 84.3548 70.7265C85.2244 69.5135 86.1335 68.3282 86.9759 67.0973C87.1707 66.8127 87.1671 66.3923 87.2545 66.0345C87.4446 65.8443 87.6342 65.6541 87.8239 65.4639C88.0135 65.2737 88.2037 65.0835 88.3939 64.8933C88.5866 64.7056 88.7793 64.518 88.9725 64.3304C89.0563 64.1827 89.1396 64.035 89.2234 63.8869C89.1365 64.0315 89.0491 64.1755 88.9613 64.3201C88.7737 64.5123 88.585 64.7046 88.3969 64.8969C88.2062 65.086 88.016 65.2757 87.8254 65.4654C87.6347 65.6546 87.4436 65.8438 87.253 66.033C86.2507 67.129 85.2573 68.2334 84.2454 69.3202C81.5426 72.2241 78.7904 75.0838 76.137 78.0322C74.1917 80.1931 72.3755 82.4684 70.4945 84.6868C70.1881 85.0477 69.8412 85.3743 69.5164 85.7198C66.605 88.82 63.6643 91.8929 60.7919 95.029C57.4832 98.6413 54.2449 102.317 50.9578 105.949C48.8054 108.328 46.6104 110.667 44.4539 113.042C40.9689 116.879 37.5029 120.733 34.0195 124.572C33.6397 124.99 33.1987 125.353 32.6529 125.867C32.3656 125.548 32.1174 125.274 31.9298 125.066C31.9607 124.743 31.9077 124.497 32.0059 124.389C34.4825 121.664 37.0106 118.986 39.4533 116.232C41.4453 113.986 43.3284 111.643 45.2834 109.365C45.8384 108.717 46.504 108.166 47.0724 107.529C49.9545 104.299 52.8166 101.051 55.6977 97.8205C56.2029 97.254 56.791 96.7619 57.2956 96.1959C60.1773 92.965 63.0445 89.7213 65.9189 86.4842C66.1075 86.2714 66.3193 86.0787 66.5146 85.8715C69.6265 82.5694 72.7867 79.3103 75.8363 75.9517C79.3126 72.1225 82.6907 68.2047 86.1114 64.3252C86.1983 64.1781 86.2846 64.0314 86.371 63.8848C86.2846 64.0314 86.1983 64.1786 86.1119 64.3257C85.5486 64.6134 84.8853 64.7928 84.4371 65.2055C81.0297 68.3436 77.6922 71.5581 74.2781 74.689C70.3876 78.2578 66.439 81.7645 62.5167 85.2984C60.5545 87.0661 58.5876 88.8276 56.6341 90.6051C52.1675 94.6691 47.719 98.7521 43.2431 102.806C39.4708 106.223 35.6702 109.608 31.8846 113.009C29.9203 114.774 27.9782 116.563 25.9887 118.298C25.444 118.774 24.7655 119.096 24.177 119.47C23.5248 118.977 22.9919 118.552 23.6631 117.807C23.7268 117.736 23.7875 117.662 23.858 117.599C26.8213 114.983 29.7929 112.377 32.7454 109.75C34.3607 108.313 35.9385 106.835 37.5425 105.387C39.6912 103.447 41.8477 101.516 44.0047 99.5852C44.3557 99.2709 44.7385 98.992 45.0829 98.6711C48.1953 95.7724 51.279 92.8424 54.417 89.9719C58.3826 86.3442 62.3913 82.7632 66.3825 79.1632C68.3432 77.3944 70.2935 75.6144 72.2707 73.8636C75.3702 71.1177 78.5005 68.4056 81.5882 65.6469C82.2106 65.0906 82.7031 64.3888 83.255 63.7541C83.4457 63.5644 83.6359 63.3747 83.827 63.185C84.0177 62.9953 84.2083 62.8061 84.3989 62.6164C84.5906 62.4278 84.7819 62.2391 84.9736 62.0504L85.2512 61.6182C85.1561 61.7603 85.0615 61.9018 84.967 62.0438C84.7778 62.235 84.5887 62.4262 84.3996 62.6175C84.2099 62.8077 84.0197 62.9979 83.8301 63.1881C83.6399 63.3783 83.4498 63.5685 83.2597 63.7582C81.9702 63.67 81.2244 64.7061 80.359 65.3254C73.8947 69.9549 67.4998 74.6808 61.0905 79.3867C56.7159 82.5986 52.3366 85.8044 47.9877 89.0512C41.6873 93.7555 35.4282 98.5142 29.1201 103.208C26.5705 105.106 23.9314 106.883 21.3494 108.738C20.4356 109.394 19.5887 110.142 18.6764 110.8C17.9395 111.331 17.15 111.79 16.3879 112.279C15.3456 110.987 16.19 110.33 16.9085 109.758C18.5202 108.475 20.1827 107.253 21.8417 106.03C26.0581 102.923 30.2754 99.8174 34.5077 96.7316C38.1371 94.0857 41.8004 91.4864 45.4232 88.8317C47.612 87.2276 49.7423 85.5439 51.9167 83.9203C54.3163 82.1295 56.7292 80.3561 59.1494 78.5935C63.0799 75.7308 67.0224 72.8833 70.9581 70.0282C73.3067 68.3241 75.6775 66.6481 77.9882 64.8948C78.865 64.2293 79.6019 63.3813 80.4026 62.6164C81.2563 62.66 81.8463 62.3093 82.1151 61.4773C82.4969 61.2886 82.8788 61.0999 83.2602 60.9108C83.4519 60.7221 83.643 60.5329 83.8342 60.3437C83.9232 60.1992 84.0116 60.0546 84.1 59.9095C84.0079 60.051 83.9154 60.192 83.8234 60.333C83.6338 60.5237 83.4442 60.7149 83.255 60.9057C82.8752 61.0969 82.4959 61.2876 82.1161 61.4783C81.265 61.4388 80.6688 61.7813 80.4037 62.6175C78.2559 63.7243 76.064 64.7538 73.9697 65.9535C68.9377 68.8347 63.9485 71.7903 58.949 74.7264C56.5294 76.1476 54.1205 77.5872 51.7137 79.0299C47.3818 81.6255 43.0581 84.234 38.7251 86.8282C36.3974 88.2211 34.0626 89.6028 31.7232 90.9753C27.5423 93.4289 23.3517 95.8647 19.1729 98.3219C16.8361 99.6964 14.5177 101.102 12.1854 102.485C11.4788 102.904 10.7536 103.292 9.71086 103.877C9.76534 103.01 9.60345 102.334 9.86864 102.033C10.4098 101.418 11.1483 100.95 11.8642 100.52C15.6324 98.2553 19.4124 96.0092 23.2011 93.7796C25.9424 92.1667 28.7084 90.5948 31.4564 88.9927C34.6074 87.1558 37.7527 85.3076 40.8975 83.4599C45.009 81.0441 49.1246 78.6356 53.2263 76.2029C56.2863 74.3886 59.3189 72.5291 62.3779 70.7122C66.5598 68.2282 70.8024 65.8412 74.9185 63.2527C76.3858 62.3294 78.2385 61.9294 79.2612 60.3391C79.641 60.1484 80.0208 59.9577 80.4006 59.767C80.7815 59.5778 81.1623 59.3881 81.5431 59.1984C81.634 59.0539 81.725 58.9098 81.8155 58.7652C81.726 58.9108 81.6361 59.0564 81.5467 59.202C81.1659 59.3917 80.7856 59.5819 80.4053 59.7721C80.0239 59.9613 79.642 60.15 79.2612 60.3391C78.2102 60.6924 77.1202 60.9579 76.1165 61.4137C72.2841 63.1543 68.4902 64.9794 64.6619 66.7297C58.7192 69.4464 52.7544 72.1164 46.8098 74.8295C44.1738 76.0327 41.5641 77.2934 38.942 78.5264C35.0463 80.3577 31.215 82.3443 27.2355 83.9705C23.879 85.3425 20.7661 87.1994 17.3453 88.4601C14.3182 89.5751 11.5214 91.31 8.62075 92.7671C7.95007 93.1039 7.27995 93.4453 6.5923 93.7442C5.88512 94.0518 5.17589 94.141 4.33561 93.3567C4.84698 92.9311 5.24882 92.4415 5.76738 92.1908C8.29132 90.9717 10.8631 89.851 13.3854 88.6282C16.3056 87.2127 19.1642 85.6675 22.1003 84.2868C25.9014 82.5007 29.7533 80.8232 33.5811 79.0949C33.9223 78.9411 34.2482 78.7546 34.5858 78.5936C38.556 76.7018 42.5097 74.7751 46.5015 72.929C54.1339 69.3987 61.7853 65.9099 69.4332 62.4124C72.9979 60.7821 76.5733 59.1764 80.1364 57.5425C80.4453 57.401 80.6962 57.1318 80.9737 56.9216C81.3098 56.8667 81.6459 56.8124 81.982 56.7576C81.9316 56.6391 81.8802 56.5207 81.8299 56.4028C81.5447 56.5761 81.2594 56.7493 80.9742 56.9226C78.8285 57.5148 76.6499 58.009 74.5458 58.7226C71.5542 59.7372 68.6057 60.8831 65.6599 62.0263C60.9841 63.8418 56.1825 65.3116 51.4584 66.9824C47.0077 68.5558 42.5163 70.0831 38.0204 71.5622C32.198 73.478 26.4349 75.5749 20.649 77.6036C17.5839 78.6787 14.5351 79.8004 11.4628 80.8529C8.30213 81.9362 5.12194 82.96 1.91086 84.0233C0.987316 83.0713 0.945171 82.4376 1.9453 82.0905C4.9251 81.0565 7.94087 80.1254 10.9258 79.1047C12.8592 78.4433 14.7526 77.6661 16.6834 76.9955C18.0824 76.5095 19.526 76.1491 20.927 75.6677C23.0362 74.9428 25.1212 74.1481 27.2243 73.4058C32.4767 71.5519 37.7646 69.7929 42.979 67.8396C47.8506 66.0155 52.8732 64.6595 57.7088 62.698C62.6837 60.6805 67.9017 59.2676 72.9758 57.4835C75.473 56.6048 78.0781 55.9829 80.4006 54.6417C80.9254 54.5997 81.4501 54.5582 82.2693 54.493C81.3596 54.0178 80.7836 53.8122 80.4053 54.6469C78.5885 55.0329 76.7666 55.3959 74.9565 55.8106C70.8867 56.7432 66.8157 57.6763 62.7567 58.6545C55.2697 60.4591 47.7899 62.2935 40.3085 64.1217C35.4421 65.3106 30.6281 66.8194 25.6984 67.6176C21.0802 68.3651 16.7142 70.0108 12.1207 70.7675C8.54679 71.3561 5.04739 72.2825 1.59529 73.3924C0.484675 73.7498 0.116177 73.3448 0.0298363 71.8847C4.24001 70.8983 8.36945 69.5356 12.6891 68.8024C16.0661 68.2292 19.3554 67.1501 22.6965 66.3487C24.9521 65.8079 27.2381 65.3931 29.4963 64.861C31.936 64.2852 34.3453 63.5777 36.7917 63.0343C43.1321 61.626 49.3769 59.8254 55.7543 58.5555C59.7543 57.7588 63.6771 56.5817 67.6452 55.6184C70.7103 54.874 73.7935 54.2014 76.8658 53.4857C77.7652 53.2765 78.6558 53.0294 80.0373 52.6746C79.3275 52.5126 79.0454 52.3634 78.7941 52.4044C75.492 52.9381 72.1956 53.5067 68.8941 54.0429C68.4295 54.1183 67.9443 54.0763 67.4689 54.0753C64.7399 54.0691 62.0829 54.5361 59.4294 55.1467C57.8886 55.5015 56.2873 55.6025 54.7095 55.785C51.2744 56.1824 47.83 56.5023 44.4031 56.9585C40.712 57.4507 37.0435 58.109 33.354 58.6099C30.0206 59.0626 26.6183 59.1518 23.3435 59.8537C19.4931 60.6796 15.563 60.6709 11.709 61.4152C8.41416 62.0515 5.03555 62.2612 1.69034 62.6277C1.15225 62.6867 0.5962 62.5826 0.02419 62.5529C-0.128449 61.4081 0.460003 61.0277 1.26122 60.9174C4.21996 60.5099 7.1941 60.2033 10.142 59.7347C13.5633 59.1912 16.9999 58.8703 20.4443 58.5258C24.876 58.0828 29.2507 57.0867 33.6602 56.3925C35.0396 56.1757 36.4252 56.1793 37.8293 55.8788C40.1945 55.3723 42.6793 55.4482 45.103 55.1785C47.2312 54.9422 49.3456 54.5751 51.4635 54.2526C53.028 54.0147 54.5835 53.7107 56.1531 53.5154C59.4901 53.0991 62.8677 52.9151 66.1657 52.2983C69.4019 51.6939 72.6906 51.7692 75.915 51.1976C77.538 50.91 79.1651 50.6439 80.7835 50.2127C77.4259 50.3963 74.0499 49.5575 70.7036 50.6018C70.0946 50.792 69.3803 50.6531 68.7143 50.6541C64.7184 50.6634 60.7215 50.6147 56.7262 50.6864C47.8218 50.8469 38.8947 50.7382 30.0242 51.3842C24.5281 51.7846 19.0331 51.3667 13.589 51.9163C10.1908 52.2593 6.8169 52.3224 3.42544 52.3757C2.58309 52.3885 1.65489 52.5721 1.12245 51.2868C1.65747 51.0756 2.20942 50.6875 2.77938 50.6598C7.49423 50.4275 12.2117 50.2353 16.9301 50.0871C19.211 50.0153 21.522 50.2814 23.7751 50.0174C30.1978 49.2632 36.6734 49.983 43.056 49.3714C48.367 48.8623 53.6605 49.3653 58.9243 48.888C67.2526 48.1333 75.5891 48.506 83.9205 48.3189C83.9986 48.3173 84.0748 48.2143 84.3888 47.9877C83.4966 47.9282 82.8176 47.8688 82.1372 47.8395C77.9908 47.6611 73.8484 47.3351 69.7076 47.1043C66.901 46.948 63.9901 47.1679 61.2853 46.5655C58.0305 45.8406 54.6756 46.7429 51.52 45.5668C51.4362 45.5356 51.3309 45.5643 51.2358 45.5586C47.6614 45.3628 44.0242 45.5058 40.53 44.868C37.3693 44.2913 34.1845 44.6645 31.0295 43.9632C28.7604 43.4587 26.2909 43.9042 23.916 43.8022C22.0505 43.7217 20.1947 43.4408 18.3321 43.268C16.5647 43.1044 14.8106 43.3572 13.0077 42.8225C11.5178 42.38 9.79874 42.6656 8.18241 42.6994C6.79839 42.7287 5.57159 42.4518 4.62081 41.387C4.93381 40.4272 5.67078 40.3145 6.44117 40.4277C7.07896 40.5211 7.68694 40.8805 8.32112 40.9215C11.9886 41.1578 15.6601 41.3439 19.3307 41.53C23.3794 41.7351 27.4653 41.6638 31.4647 42.2175C33.7266 42.5313 36.03 42.256 38.1859 42.7589C41.2371 43.4705 44.4051 42.6886 47.3813 43.7633C47.5514 43.8248 47.759 43.7801 47.9487 43.7904C51.7143 43.9888 55.5143 43.9391 59.2347 44.4584C62.8214 44.9598 66.4303 44.5835 69.9569 45.0613C72.7836 45.4448 75.5568 45.4397 78.4173 45.1285C75.7854 44.6953 73.1515 44.2723 70.5212 43.8253C67.9566 43.389 65.3983 42.9168 62.8337 42.48C58.9833 41.8248 55.2204 40.7661 51.3083 40.3437C47.8146 39.9664 44.3856 39.0174 40.9176 38.3781C38.1711 37.8715 35.404 37.4732 32.6529 36.9872C30.0935 36.535 27.5521 35.9757 24.9871 35.563C21.2194 34.957 17.5525 33.8255 13.719 33.5384C12.3817 33.4384 11.0774 32.9103 9.56437 32.5289C10.4617 30.7422 11.8827 31.1719 12.8952 31.3616C18.2761 32.3684 23.5943 33.7537 29.0014 34.5602C31.6729 34.9585 34.3521 35.2953 37.0091 35.8208C40.2947 36.4699 43.6003 37.0226 46.8987 37.6055C49.0023 37.9772 51.113 38.3073 53.2134 38.6954C56.5031 39.3024 59.783 39.9628 63.0748 40.5605C65.0889 40.9266 67.1241 41.1819 69.1372 41.5521C71.6005 42.0042 74.0366 42.6338 76.5133 42.9773C78.1255 43.2008 79.6724 44.1231 81.76 43.5689C76.6916 42.0775 71.9845 40.6759 67.2671 39.3091C59.2414 36.9831 51.2836 34.4345 43.1835 32.3459C37.6119 30.9089 32.1678 28.9802 26.662 27.2888C23.5578 26.3353 20.4392 25.4319 17.3381 24.4696C16.8473 24.3174 16.4167 23.9729 15.9752 23.7273C16.5174 22.5788 17.5134 22.4573 18.237 22.8234C21.1952 24.322 24.4942 24.5809 27.5891 25.5683C35.4626 28.0809 43.3901 30.4054 51.3869 32.5156C56.9523 33.9839 62.4011 35.8916 67.91 37.5773C72.1685 38.8805 76.4346 40.1617 80.7111 41.4059C81.3303 41.5859 82.0252 41.507 82.6851 41.5474C82.9678 41.7223 83.2494 41.8966 83.5321 42.0709C83.5835 41.9535 83.6354 41.8361 83.6873 41.7182C83.3543 41.6602 83.0217 41.6023 82.6886 41.5438C81.5246 41.0558 80.3657 40.5554 79.196 40.0812C73.3279 37.7039 67.5672 35.0764 61.68 32.7355C54.6668 29.9471 47.7914 26.8141 40.8399 23.8693C35.2714 21.5104 29.6787 19.209 24.1169 16.8912C24.0367 15.4931 24.3148 15.0712 25.172 15.3942C27.1748 16.1483 29.1459 16.9871 31.1266 17.7997C32.4191 18.3303 33.7064 18.8737 34.9959 19.4115C39.0344 21.0967 43.0765 22.7711 47.1094 24.4696C50.2002 25.7713 53.2627 27.1407 56.3654 28.4142C61.6163 30.5689 66.7782 32.9309 72.1221 34.8734C75.3578 36.0495 78.446 37.628 81.6083 39.0081C81.9424 39.1537 82.3273 39.1825 82.6886 39.2655C82.9759 39.4383 83.2637 39.6105 83.551 39.7828C83.6019 39.6613 83.6518 39.5393 83.7022 39.4178C83.363 39.3686 83.0237 39.3193 82.684 39.2701C82.0524 38.7574 81.4779 38.1438 80.7794 37.7475C74.769 34.3377 68.7337 30.9699 62.7099 27.5836C59.8766 25.9912 57.051 24.3835 54.2213 22.785C50.888 20.9014 47.5565 19.0137 44.218 17.1398C41.4633 15.5941 38.6932 14.0761 35.9411 12.5252C34.7472 11.8521 33.5826 11.1287 32.2921 10.3607C32.6251 9.88749 32.8302 9.59629 32.9977 9.35841C33.2501 9.35841 33.4424 9.30099 33.5724 9.36661C38.0786 11.6439 42.5112 14.0361 46.8144 16.6989C49.0829 18.1021 51.5472 19.2495 53.8938 20.5712C59.2681 23.5986 64.6808 26.5593 70.0664 29.5677C74.1409 31.8435 78.1933 34.1598 82.2693 36.4335C82.7447 36.6985 83.3059 36.8093 83.8276 36.9913C84.0979 37.8233 84.6981 38.1581 85.543 38.1264C85.9208 38.3196 86.2985 38.5129 86.6763 38.7062C86.8253 38.7923 86.9738 38.8779 87.1223 38.9641C86.9785 38.8728 86.8351 38.7821 86.6912 38.6913C86.3068 38.5047 85.9229 38.3181 85.5385 38.1315C85.2805 37.2866 84.6863 36.9426 83.8296 36.9887C83.2755 36.3566 82.8115 35.6035 82.1511 35.1138C79.5963 33.2221 76.9665 31.4292 74.3865 29.5703C70.2108 26.5619 66.0459 23.5386 61.8882 20.5056C58.2588 17.8586 54.6498 15.183 51.0235 12.5314C48.3058 10.5442 45.5696 8.58173 42.8586 6.58534C42.5729 6.37462 42.2841 6.0332 42.2127 5.70611C42.1448 5.39492 42.2856 4.96786 42.4815 4.69765C42.5945 4.54129 43.0478 4.48027 43.259 4.57465C43.6753 4.7597 44.0346 5.07653 44.4087 5.3503C48.9416 8.66834 53.4807 11.9782 58.0023 15.3111C61.5418 17.9201 65.0535 20.5666 68.5899 23.1802C69.8686 24.1251 71.1955 25.0054 72.4783 25.9446C76.8601 29.1519 81.227 32.3782 85.6175 35.5727C85.8935 35.7737 86.3253 35.7619 86.6846 35.849C86.8752 36.0387 87.0658 36.2284 87.256 36.4181C87.4461 36.6083 87.6363 36.7985 87.8265 36.9882C88.1097 37.6895 88.5115 38.1781 89.4598 37.6208C88.914 37.4112 88.3687 37.2015 87.8228 36.9918C87.6327 36.8021 87.4421 36.6124 87.2519 36.4227C87.0613 36.233 86.8711 36.0428 86.6809 35.8526C83.7371 32.5402 80.7321 29.2919 77.1937 26.5829C76.67 26.182 76.2213 25.6821 75.7439 25.2217C69.5468 19.2418 63.3617 13.2507 57.1456 7.2908C55.9969 6.18903 54.7162 5.2252 53.5161 4.17524C53.1626 3.86608 52.7467 3.5272 52.5977 3.11603C52.4656 2.75101 52.5536 2.20041 52.7597 1.86256C52.8681 1.68414 53.4956 1.65594 53.7829 1.78871C54.1945 1.97943 54.5235 2.36394 54.8637 2.69103C60.3901 7.9993 65.9061 13.3189 71.4391 18.621C75.7387 22.7409 80.0326 26.8684 84.3795 30.9391C87.1938 33.5748 90.099 36.1146 92.9637 38.697C93.1518 38.8887 93.34 39.081 93.5281 39.2727C93.6756 39.3583 93.8225 39.4439 93.97 39.5296C93.8261 39.4403 93.6818 39.3516 93.5379 39.263C93.3456 39.0753 93.1534 38.8872 92.9612 38.7C92.6276 38.0556 92.3723 37.3548 91.9488 36.7764C88.3075 31.8045 84.6314 26.8587 80.9757 21.898C79.2577 19.5674 77.5719 17.2127 75.8518 14.8836C72.8005 10.7524 69.7606 6.61253 66.6559 2.52187C65.9184 1.54983 65.9086 0.849001 67.084 0C68.0975 1.30116 69.1243 2.59362 70.1229 3.90764C72.2141 6.66019 74.3023 9.41533 76.3688 12.1863C77.5407 13.7582 78.6635 15.366 79.8137 16.9537C82.1136 20.1283 84.4165 23.3002 86.7184 26.4732C88.4186 28.8166 90.0981 31.1754 91.8306 33.4943C92.3193 34.1485 92.9627 34.6873 93.5357 35.2789C93.6807 35.3702 93.8262 35.462 93.9716 35.5532C93.8246 35.4635 93.6777 35.3733 93.5312 35.2835C93.3282 34.6693 93.2027 34.0157 92.9103 33.4471C89.1889 26.2127 85.4598 18.9814 81.6973 11.768C80.0085 8.53045 78.2406 5.3344 76.3411 1.8077C76.6464 1.52574 76.9577 1.2386 77.4244 0.807975C78.9925 2.43419 79.8667 4.18241 80.7707 5.85578C82.6337 9.30306 84.3081 12.8513 86.0925 16.3416C89.3251 22.6645 92.5793 28.9766 95.8377 35.2866C95.9528 35.5096 96.2032 35.6629 96.3902 35.8485C96.4463 36.1807 96.5017 36.5129 96.5577 36.8452C96.678 36.7923 96.7982 36.7391 96.9185 36.6862C96.7407 36.4084 96.5634 36.1305 96.3856 35.8526C96.0824 34.3089 95.9841 32.6883 95.4363 31.2359C93.9947 27.4124 93.1082 23.4196 91.7504 19.5848C90.2024 15.2112 89.0737 10.7155 87.5576 6.33976C87.2678 5.50256 87.0556 4.78276 87.5644 3.97736C89.0136 4.09116 89.1627 5.34054 89.4649 6.1993C90.2024 8.29153 90.6557 10.4817 91.3213 12.6016C91.9318 14.5452 92.7109 16.4354 93.34 18.3739C93.8539 19.957 94.2101 21.5904 94.7178 23.1761C95.4234 25.3811 96.2596 27.5457 96.9411 29.7579C97.8379 32.6689 98.6391 35.6096 99.6105 38.9856C99.7097 38.1873 99.8073 37.8351 99.7883 37.4896C99.6217 34.513 99.3438 31.5497 98.744 28.6203C98.5944 27.8892 98.7055 27.1084 98.6454 26.3542C98.4588 24.0236 98.3838 21.6734 98.0142 19.3705C97.4818 16.0509 96.9329 12.7441 96.9432 9.37173C96.9447 9.00208 96.9889 8.63244 97.0244 8.08593C97.4869 8.03981 97.9134 7.99672 98.2845 7.95983C98.4474 8.22797 98.6181 8.3792 98.6248 8.53813C98.7728 12.0869 99.225 15.5967 99.776 19.1065C100.167 21.596 99.9255 24.204 100.485 26.6408C101.054 29.1175 100.527 31.6907 101.463 34.1023C101.689 34.6832 101.526 35.4168 101.53 36.0802C101.536 37.0897 101.531 38.0991 101.531 39.6039C102.115 38.8805 102.508 38.617 102.549 38.3073C102.817 36.272 102.972 34.2213 103.236 32.1849C103.535 29.8871 103.916 27.5995 104.248 25.3057C104.487 23.6488 104.712 21.9893 104.93 20.3297C105.137 18.7604 105.319 17.1875 105.531 15.6187C105.567 15.348 105.683 15.086 105.781 14.8266C106.135 13.8869 106.854 13.3557 107.361 13.7003C108.089 14.195 107.675 14.7754 107.522 15.4326C107.144 17.0563 106.831 18.7148 106.713 20.3749C106.469 23.8221 105.542 27.1596 105.407 30.6474C105.279 33.9516 104.381 37.2251 103.84 40.5154C103.798 40.7707 103.908 41.0511 104.003 41.6971C106.31 36.8718 108.476 32.3664 110.618 27.8487C111.649 25.6734 112.602 23.4607 113.654 21.2956C114.07 20.4384 114.5 20.4625 115.84 21.3776C114.986 22.9633 114.064 24.5496 113.263 26.1948C111.914 28.9658 110.638 31.7717 109.341 34.5678C108.242 36.9385 107.148 39.3116 106.072 41.693C105.846 42.1944 105.705 42.7343 105.525 43.2562C105.436 43.4028 105.349 43.5489 105.261 43.6956C105.347 43.5474 105.434 43.3997 105.52 43.2516C105.757 43.1101 106.032 43.007 106.227 42.8214C110.877 38.3847 115.519 33.9383 120.164 29.4964C120.564 29.1145 120.984 28.7535 121.5 28.2875C121.924 28.6705 122.247 28.9617 122.589 29.2698C118.032 33.8465 113.547 38.3411 109.078 42.8532C108.422 43.5151 107.847 44.2575 107.235 44.9629C109.186 44.3728 111.164 43.8601 113.079 43.1716C115.178 42.4169 117.212 41.4833 119.286 40.6564C121.858 39.6311 124.441 38.6354 126.987 37.6393C127.762 38.8302 127.744 39.3957 126.926 39.7126C125.714 40.1812 124.449 40.5128 123.243 40.9943C118.227 42.9958 113.226 45.0352 108.214 47.0485C107.791 47.2187 107.333 47.3007 106.301 47.5883C109.56 47.9247 112.241 47.7401 114.913 47.7714C117.764 47.8052 120.616 47.7739 123.467 47.7806C126.196 47.7872 128.926 47.8067 131.591 47.82C131.856 48.9546 131.295 49.354 130.628 49.4719C129.889 49.6026 129.112 49.5242 128.352 49.5247C121.994 49.5268 115.636 49.5257 109.227 49.7288C113.173 51.6175 117.48 52.4501 121.506 54.0686C125.614 55.7194 130.131 56.3182 134 58.7206C133.468 59.7952 132.814 59.9454 131.863 59.5548C130.487 58.9903 129.077 58.5028 127.664 58.0372C122.465 56.3264 117.258 54.6387 112.054 52.9402C111.53 52.7689 111.01 52.5844 110.28 52.3347C110.862 54.026 112.4 54.3967 113.507 55.1698C116.644 57.3605 119.849 59.4573 123.051 61.5547C125.942 63.4485 128.88 65.2691 131.762 67.1752C132.537 67.6879 133.27 68.3251 133.85 69.0434C134.093 69.3443 133.89 70.0036 133.89 70.8531C130.823 68.7614 128.081 66.8548 125.302 65.003C120.714 61.9464 116.105 58.9211 111.491 55.9029C111.279 55.764 110.939 55.8199 110.659 55.785C110.468 55.5953 110.277 55.4056 110.087 55.2155C109.795 54.893 109.503 54.5705 109.21 54.248C109.117 54.387 109.023 54.5264 108.93 54.6659C109.317 54.8474 109.704 55.0293 110.091 55.2113C110.281 55.4015 110.471 55.5912 110.662 55.7814C111.654 57.6311 113.123 59.0831 114.595 60.5437C118.572 64.4919 122.555 68.4364 126.476 72.4404C128.521 74.5285 130.434 76.7459 132.425 78.8873C133.019 79.5266 133.135 80.1219 132.427 81.0032C131.859 80.5146 131.342 80.1393 130.907 79.6861C128.287 76.9571 125.724 74.1728 123.064 71.4838C121.373 69.7735 119.282 68.3964 117.842 66.5123C115.634 63.6259 112.835 61.3573 110.421 58.7017C110.179 58.4351 109.821 58.2736 109.517 58.0633C109.371 57.9726 109.225 57.8819 109.079 57.7911C109.226 57.8804 109.373 57.9695 109.521 58.0587C109.557 58.3386 109.503 58.677 109.643 58.8888C111.905 62.313 114.188 65.7228 116.473 69.1316C120.787 75.5672 125.108 81.9983 129.419 88.4355C129.824 89.0394 130.178 89.6761 130.574 90.3267C130.202 90.6384 129.922 90.8727 129.498 91.2295C128.933 90.681 128.295 90.2493 127.906 89.6562C124.475 84.4299 121.098 79.1693 117.687 73.9302C114.835 69.552 111.96 65.1881 109.085 60.8241C108.99 60.6785 108.791 60.6001 108.19 60.1617C111.135 67.3767 114.382 73.9313 117.428 80.5751C120.434 87.1317 123.42 93.6986 126.285 100.277C125.136 101.011 124.648 100.856 124.226 99.9235C122.879 96.9439 121.421 94.015 120.063 91.0404C118.825 88.3303 117.699 85.5696 116.458 82.8621C114.743 79.1242 112.932 75.4314 111.229 71.6878C110.191 69.4033 109.304 67.0506 108.296 64.7518C108.047 64.1842 107.594 63.7059 107.234 63.1871C107.181 62.8507 107.129 62.5139 107.076 62.1776C106.958 62.2268 106.839 62.2765 106.721 62.3263C106.892 62.6129 107.064 62.8994 107.235 63.1861C107.972 65.9571 108.651 68.744 109.454 71.495C111.508 78.5228 113.899 85.467 115.603 92.5764C116.73 97.2792 118.743 101.709 119.516 106.489C119.66 107.376 119.744 108.274 119.928 109.737C119.015 109.078 118.378 108.865 118.25 108.484C117.724 106.906 117.398 105.264 116.911 103.671C116.207 101.365 115.358 99.1012 114.694 96.7844C112.932 90.641 111.247 84.476 109.509 78.3254C108.98 76.4526 108.353 74.6075 107.815 72.7372C107.137 70.381 106.504 68.0119 105.765 65.3321C105.009 68.2334 106.029 70.6763 106.288 73.153C106.605 76.1886 107.286 79.1873 107.821 82.1998C108.176 84.2048 108.706 86.194 108.874 88.214C109.046 90.2673 109.081 92.3164 109.514 94.3543C110.148 97.3458 110.647 100.368 111.133 103.388C111.429 105.227 111.576 107.09 111.817 108.938C112.164 111.602 112.535 114.264 112.895 116.918C112.265 117.421 111.692 117.583 111.251 116.764C111.03 116.353 110.752 115.925 110.699 115.482C110.452 113.442 110.301 111.391 110.067 109.349C109.855 107.498 109.629 105.647 109.318 103.811C108.854 101.069 108.29 98.3455 107.807 95.6078C107.405 93.3249 106.973 91.0419 106.712 88.7415C106.491 86.7928 106.609 84.8385 106.13 82.877C105.383 79.8215 104.92 76.6915 104.434 73.578C104.089 71.371 103.903 69.1393 103.421 66.8958C103.363 67.4218 103.257 67.9468 103.256 68.4728C103.249 71.9841 102.982 75.5242 103.33 79.0017C104.069 86.3648 103.297 93.7673 103.954 101.086C104.59 108.184 104.106 115.253 104.397 122.328C104.42 122.872 104.332 123.421 104.299 123.911C103.24 124.239 102.924 123.627 102.71 122.996C102.593 122.652 102.67 122.243 102.661 121.864C102.466 112.888 102.263 103.911 102.082 94.9352C102.038 92.7527 102.253 90.5503 102.029 88.3898C101.266 81.0519 101.615 73.6883 101.139 66.316C101.081 66.8507 101.064 67.3936 100.958 67.9186C100.367 70.847 100.613 73.8605 99.9271 76.7977C99.5077 78.5956 99.6737 80.4982 99.369 82.3715C98.8427 85.5999 99.0734 88.9461 98.6196 92.1919C98.1668 95.4274 98.5128 98.7398 97.5846 101.917C97.5327 102.094 97.5645 102.294 97.5517 102.483C97.3564 105.384 97.4952 108.361 96.862 111.163C96.3204 113.559 96.9406 116.059 95.9014 118.353C95.7564 118.672 95.8742 119.104 95.8474 119.483C95.6496 122.289 95.4676 125.098 95.221 127.9C95.185 128.315 94.8365 128.703 94.5143 129.335C94.0965 128.85 93.5811 128.526 93.5852 128.211C93.6109 126.433 93.7547 124.657 93.8765 122.882C93.8955 122.609 94.0502 122.345 94.0703 122.071C94.2774 119.266 94.4079 116.454 94.6849 113.656C94.9321 111.159 95.3367 108.679 95.6733 106.191C95.6985 106.006 95.758 105.826 95.7719 105.64C95.9739 102.929 96.274 100.22 96.3439 97.5047C96.4447 93.5694 96.7566 89.6664 97.4859 85.7972C97.5203 85.6132 97.4946 85.4184 97.5074 85.2292C97.7027 82.3279 97.8225 79.419 98.1206 76.5285C98.3678 74.1302 98.8688 71.7585 99.1674 69.3643C99.2934 68.3528 99.1886 67.3126 98.9722 66.278C98.3031 69.6576 97.6591 73.0423 96.9525 76.4147C96.6487 77.8635 96.1656 79.2744 95.8516 80.7217C95.2431 83.5286 94.7004 86.3499 94.1222 89.1635C93.7496 90.9783 93.3626 92.7901 92.9818 94.6035C92.4113 97.3237 91.8449 100.045 91.2698 102.764C90.4655 106.571 89.634 110.373 88.8554 114.186C88.4658 116.092 88.2382 118.032 87.8147 119.93C86.8685 124.168 85.8458 128.389 84.8446 132.658C83.4277 132.444 83.0993 131.78 83.3825 130.634C84.2947 126.95 85.4351 123.297 85.9995 119.559C86.8043 114.223 88.5675 109.097 89.3544 103.799C90.1212 98.6398 91.5633 93.6453 92.435 88.5201C93.2408 83.7788 94.2861 79.075 95.5627 74.4245C96.0731 72.566 96.2206 70.6086 96.1409 68.6137C88.9515 90.5118 81.7615 112.41 74.6126 134.184C73.666 134.482 73.0025 134.503 73.002 133.52C73.0015 132.983 73.2066 132.435 73.3787 131.912C74.6846 127.948 76.0111 123.991 77.3195 120.029C78.9775 115.006 80.6283 109.981 82.2755 104.956C84.1225 99.3181 85.9609 93.6776 87.8049 88.0392C89.3616 83.2774 90.9445 78.5233 92.4637 73.7498C92.9108 72.3451 93.1802 70.8839 93.5312 69.4489C93.7075 69.1664 93.8837 68.8839 94.0605 68.6009C93.9386 68.5492 93.8174 68.4969 93.6961 68.4451C93.6426 68.7809 93.5892 69.1172 93.5362 69.4535C92.4169 71.6729 91.2375 73.8651 90.1936 76.1194C88.7932 79.1426 87.5325 82.231 86.1479 85.2625C83.6281 90.7815 80.8929 96.2092 78.5622 101.806C76.3374 107.149 73.8736 112.369 71.4171 117.602C68.8027 123.17 66.7032 128.972 63.8257 134.425C63.742 134.583 63.6032 134.713 63.3765 135C62.9618 134.693 62.5424 134.384 62.1271 134.077C64.1438 129.574 66.1152 125.174 68.0841 120.773C71.0531 114.138 74.0047 107.495 76.9943 100.869C78.4056 97.7395 79.9823 94.6814 81.3175 91.5213C84.0002 85.1707 87.4811 79.1714 89.652 72.5973C89.9413 71.7206 90.334 70.8783 90.6784 70.0195C90.8685 69.6401 91.0581 69.2597 91.2482 68.8798C91.4384 68.5005 91.6285 68.1206 91.8186 67.7407C92.0094 67.3613 92.2006 66.9824 92.3918 66.6031C92.4786 66.4554 92.5659 66.3072 92.6528 66.1591C92.5659 66.3072 92.4786 66.4554 92.3923 66.6035C92.2021 66.9839 92.013 67.3644 91.8234 67.7448C91.6327 68.1241 91.442 68.5035 91.2519 68.8834C91.0612 69.2623 90.8705 69.6417 90.6799 70.0211Z" fill="#6ECDDD"/>
</svg>
