<svg width="928" height="523" viewBox="0 0 928 523" fill="none" xmlns="http://www.w3.org/2000/svg">
<rect x="0.5" width="927" height="523" rx="24" fill="#0F151C"/>
<path d="M297.248 260.47V353.07H260.703V260.47C260.699 249.602 257.473 238.979 251.433 229.944C245.393 220.909 236.81 213.868 226.768 209.711C216.727 205.553 205.678 204.467 195.019 206.588C184.36 208.709 174.569 213.943 166.884 221.628C159.2 229.312 153.966 239.103 151.845 249.762C149.724 260.421 150.81 271.47 154.968 281.511C159.125 291.553 166.166 300.136 175.201 306.176C184.236 312.216 194.859 315.442 205.727 315.446C210.575 315.446 215.226 317.372 218.654 320.801C222.083 324.229 224.009 328.879 224.009 333.728C224.009 338.577 222.083 343.227 218.654 346.655C215.226 350.084 210.575 352.01 205.727 352.01C187.621 352.014 169.921 346.648 154.865 336.592C139.809 326.535 128.073 312.24 121.141 295.514C114.21 278.787 112.395 260.381 115.925 242.623C119.455 224.864 128.172 208.552 140.973 195.748C153.774 182.944 170.085 174.224 187.843 170.69C205.6 167.156 224.007 168.968 240.735 175.896C257.463 182.824 271.76 194.557 281.82 209.611C291.879 224.665 297.248 242.364 297.248 260.47Z" fill="#70BCA2"/>
<path d="M326.754 223.032H340.647C346.659 223.032 352.426 225.42 356.678 229.672C360.929 233.924 363.318 239.69 363.318 245.703V353.07H326.754V223.032Z" fill="#70BCA2"/>
<path d="M392.777 262.366H411.822C416.493 262.366 420.973 264.222 424.276 267.525C427.579 270.828 429.434 275.308 429.434 279.979V353.069H392.777V262.366Z" fill="#70BCA2"/>
<path d="M530.864 252.158C526.951 252.158 523.464 251.479 520.402 250.121C517.341 248.737 514.918 246.701 513.135 244.012C511.378 241.297 510.499 237.916 510.499 233.869C510.499 230.462 511.125 227.6 512.376 225.284C513.627 222.968 515.331 221.104 517.487 219.693C519.644 218.283 522.093 217.218 524.835 216.499C527.603 215.78 530.505 215.274 533.54 214.981C537.107 214.609 539.982 214.263 542.165 213.943C544.348 213.597 545.932 213.091 546.917 212.426C547.902 211.76 548.395 210.775 548.395 209.471V209.231C548.395 206.702 547.596 204.746 545.999 203.361C544.428 201.977 542.192 201.285 539.29 201.285C536.229 201.285 533.793 201.964 531.983 203.321C530.172 204.652 528.974 206.33 528.389 208.353L512.656 207.075C513.454 203.348 515.025 200.127 517.368 197.411C519.71 194.669 522.732 192.566 526.432 191.102C530.159 189.611 534.472 188.866 539.37 188.866C542.777 188.866 546.039 189.265 549.153 190.064C552.295 190.863 555.077 192.101 557.499 193.778C559.948 195.455 561.878 197.611 563.289 200.247C564.7 202.856 565.406 205.984 565.406 209.631V251H549.273V242.495H548.794C547.809 244.411 546.491 246.102 544.841 247.566C543.19 249.003 541.207 250.135 538.891 250.96C536.575 251.759 533.899 252.158 530.864 252.158ZM535.736 240.418C538.239 240.418 540.448 239.926 542.365 238.941C544.282 237.929 545.786 236.571 546.877 234.868C547.969 233.164 548.514 231.234 548.514 229.077V222.569C547.982 222.915 547.25 223.234 546.318 223.527C545.413 223.793 544.388 224.046 543.243 224.286C542.099 224.499 540.954 224.698 539.809 224.885C538.665 225.044 537.626 225.191 536.695 225.324C534.698 225.617 532.954 226.083 531.463 226.721C529.973 227.36 528.815 228.226 527.989 229.317C527.164 230.382 526.752 231.713 526.752 233.31C526.752 235.626 527.59 237.397 529.267 238.621C530.971 239.819 533.127 240.418 535.736 240.418ZM617.936 224.885V189.665H634.947V251H618.615V239.859H617.976C616.592 243.453 614.289 246.341 611.068 248.524C607.873 250.707 603.973 251.799 599.368 251.799C595.268 251.799 591.661 250.867 588.546 249.003C585.431 247.14 582.996 244.491 581.239 241.057C579.508 237.623 578.63 233.51 578.603 228.718V189.665H595.614V225.683C595.641 229.304 596.612 232.165 598.529 234.269C600.446 236.372 603.015 237.423 606.236 237.423C608.286 237.423 610.202 236.957 611.986 236.026C613.77 235.067 615.207 233.656 616.299 231.793C617.417 229.929 617.962 227.627 617.936 224.885ZM671.155 251.998C666.496 251.998 662.277 250.8 658.497 248.404C654.743 245.982 651.761 242.428 649.552 237.743C647.369 233.031 646.277 227.254 646.277 220.412C646.277 213.384 647.409 207.541 649.672 202.882C651.935 198.197 654.943 194.696 658.696 192.38C662.477 190.037 666.616 188.866 671.115 188.866C674.549 188.866 677.411 189.452 679.7 190.623C682.016 191.768 683.88 193.205 685.291 194.936C686.728 196.639 687.82 198.317 688.565 199.967H689.084V169.22H706.055V251H689.284V241.177H688.565C687.767 242.881 686.635 244.571 685.171 246.248C683.734 247.899 681.857 249.27 679.541 250.361C677.251 251.453 674.456 251.998 671.155 251.998ZM676.546 238.461C679.288 238.461 681.604 237.716 683.494 236.225C685.411 234.708 686.875 232.591 687.886 229.876C688.925 227.161 689.444 223.979 689.444 220.332C689.444 216.685 688.938 213.517 687.926 210.829C686.915 208.14 685.451 206.063 683.534 204.599C681.617 203.135 679.288 202.403 676.546 202.403C673.751 202.403 671.395 203.162 669.478 204.679C667.561 206.196 666.11 208.3 665.125 210.988C664.14 213.677 663.648 216.792 663.648 220.332C663.648 223.9 664.14 227.054 665.125 229.796C666.137 232.512 667.588 234.641 669.478 236.185C671.395 237.703 673.751 238.461 676.546 238.461ZM720.042 251V189.665H737.053V251H720.042ZM728.587 181.758C726.058 181.758 723.888 180.92 722.078 179.242C720.294 177.539 719.403 175.502 719.403 173.133C719.403 170.79 720.294 168.78 722.078 167.103C723.888 165.399 726.058 164.548 728.587 164.548C731.116 164.548 733.272 165.399 735.056 167.103C736.866 168.78 737.771 170.79 737.771 173.133C737.771 175.502 736.866 177.539 735.056 179.242C733.272 180.92 731.116 181.758 728.587 181.758ZM778.392 252.198C772.189 252.198 766.825 250.88 762.299 248.245C757.8 245.583 754.326 241.882 751.877 237.144C749.428 232.378 748.204 226.855 748.204 220.572C748.204 214.236 749.428 208.699 751.877 203.96C754.326 199.195 757.8 195.495 762.299 192.859C766.825 190.197 772.189 188.866 778.392 188.866C784.595 188.866 789.946 190.197 794.445 192.859C798.97 195.495 802.458 199.195 804.907 203.96C807.356 208.699 808.58 214.236 808.58 220.572C808.58 226.855 807.356 232.378 804.907 237.144C802.458 241.882 798.97 245.583 794.445 248.245C789.946 250.88 784.595 252.198 778.392 252.198ZM778.472 239.02C781.294 239.02 783.65 238.222 785.54 236.625C787.43 235.001 788.854 232.791 789.812 229.996C790.797 227.201 791.29 224.019 791.29 220.452C791.29 216.885 790.797 213.704 789.812 210.908C788.854 208.113 787.43 205.904 785.54 204.28C783.65 202.656 781.294 201.844 778.472 201.844C775.623 201.844 773.227 202.656 771.284 204.28C769.367 205.904 767.917 208.113 766.932 210.908C765.973 213.704 765.494 216.885 765.494 220.452C765.494 224.019 765.973 227.201 766.932 229.996C767.917 232.791 769.367 235.001 771.284 236.625C773.227 238.222 775.623 239.02 778.472 239.02ZM541.087 353.198C534.804 353.198 529.4 351.867 524.875 349.205C520.376 346.516 516.915 342.789 514.492 338.024C512.097 333.259 510.899 327.775 510.899 321.572C510.899 315.289 512.11 309.779 514.532 305.04C516.982 300.275 520.456 296.561 524.955 293.899C529.454 291.21 534.804 289.866 541.007 289.866C546.358 289.866 551.043 290.838 555.063 292.781C559.083 294.724 562.264 297.453 564.607 300.967C566.95 304.481 568.241 308.607 568.48 313.346H552.428C551.975 310.285 550.777 307.822 548.834 305.959C546.917 304.068 544.401 303.123 541.287 303.123C538.651 303.123 536.348 303.842 534.378 305.28C532.435 306.691 530.918 308.754 529.826 311.469C528.735 314.185 528.189 317.472 528.189 321.332C528.189 325.246 528.721 328.573 529.786 331.315C530.878 334.057 532.409 336.147 534.378 337.585C536.348 339.022 538.651 339.741 541.287 339.741C543.23 339.741 544.974 339.342 546.518 338.543C548.088 337.744 549.38 336.586 550.391 335.069C551.429 333.525 552.108 331.675 552.428 329.518H568.48C568.214 334.204 566.936 338.33 564.647 341.897C562.384 345.438 559.256 348.206 555.263 350.203C551.27 352.2 546.544 353.198 541.087 353.198ZM596.862 353.158C592.949 353.158 589.461 352.479 586.4 351.121C583.338 349.737 580.916 347.701 579.132 345.012C577.375 342.297 576.497 338.916 576.497 334.869C576.497 331.462 577.122 328.6 578.373 326.284C579.625 323.968 581.328 322.104 583.485 320.693C585.641 319.283 588.09 318.218 590.832 317.499C593.601 316.78 596.502 316.274 599.537 315.981C603.105 315.609 605.98 315.263 608.163 314.943C610.345 314.597 611.929 314.091 612.914 313.426C613.899 312.76 614.392 311.775 614.392 310.471V310.231C614.392 307.702 613.593 305.746 611.996 304.361C610.425 302.977 608.189 302.285 605.287 302.285C602.226 302.285 599.79 302.964 597.98 304.321C596.17 305.652 594.972 307.33 594.386 309.353L578.653 308.075C579.452 304.348 581.022 301.127 583.365 298.411C585.708 295.669 588.729 293.566 592.429 292.102C596.156 290.611 600.469 289.866 605.367 289.866C608.775 289.866 612.036 290.265 615.151 291.064C618.292 291.863 621.074 293.101 623.496 294.778C625.946 296.455 627.876 298.611 629.286 301.247C630.697 303.856 631.403 306.984 631.403 310.631V352H615.27V343.495H614.791C613.806 345.411 612.489 347.102 610.838 348.566C609.187 350.003 607.204 351.135 604.888 351.96C602.572 352.759 599.897 353.158 596.862 353.158ZM601.734 341.418C604.236 341.418 606.445 340.926 608.362 339.941C610.279 338.929 611.783 337.571 612.875 335.868C613.966 334.164 614.512 332.234 614.512 330.077V323.569C613.979 323.915 613.247 324.234 612.315 324.527C611.41 324.793 610.385 325.046 609.241 325.286C608.096 325.499 606.951 325.698 605.807 325.885C604.662 326.044 603.624 326.191 602.692 326.324C600.695 326.617 598.952 327.083 597.461 327.721C595.97 328.36 594.812 329.226 593.987 330.317C593.161 331.382 592.749 332.713 592.749 334.31C592.749 336.626 593.587 338.397 595.265 339.621C596.968 340.819 599.125 341.418 601.734 341.418ZM644.6 352V290.665H661.092V301.366H661.731C662.849 297.56 664.726 294.684 667.362 292.741C669.997 290.771 673.032 289.786 676.466 289.786C677.318 289.786 678.236 289.839 679.221 289.946C680.206 290.052 681.071 290.199 681.817 290.385V305.479C681.018 305.24 679.913 305.027 678.502 304.84C677.092 304.654 675.8 304.561 674.629 304.561C672.127 304.561 669.891 305.107 667.921 306.198C665.977 307.263 664.433 308.754 663.288 310.671C662.17 312.587 661.611 314.797 661.611 317.299V352H644.6ZM715.709 353.198C709.4 353.198 703.969 351.92 699.417 349.364C694.891 346.782 691.404 343.135 688.955 338.423C686.505 333.685 685.281 328.081 685.281 321.612C685.281 315.303 686.505 309.765 688.955 305C691.404 300.235 694.851 296.521 699.297 293.859C703.769 291.197 709.014 289.866 715.03 289.866C719.077 289.866 722.843 290.518 726.331 291.823C729.845 293.101 732.906 295.031 735.515 297.613C738.151 300.195 740.201 303.443 741.665 307.356C743.129 311.243 743.861 315.795 743.861 321.013V325.685H692.069V315.143H727.848C727.848 312.694 727.316 310.524 726.251 308.634C725.186 306.744 723.709 305.266 721.819 304.202C719.955 303.11 717.785 302.564 715.31 302.564C712.727 302.564 710.438 303.163 708.441 304.361C706.471 305.533 704.927 307.117 703.809 309.113C702.691 311.083 702.119 313.279 702.092 315.702V325.725C702.092 328.76 702.651 331.382 703.769 333.591C704.914 335.801 706.525 337.505 708.601 338.703C710.678 339.901 713.14 340.5 715.988 340.5C717.879 340.5 719.609 340.233 721.18 339.701C722.75 339.169 724.095 338.37 725.213 337.305C726.331 336.24 727.183 334.936 727.768 333.392L743.502 334.43C742.703 338.21 741.066 341.511 738.59 344.333C736.141 347.128 732.973 349.311 729.086 350.882C725.226 352.426 720.767 353.198 715.709 353.198Z" fill="#CFE9E0"/>
</svg>
