<svg width="71" height="70" viewBox="0 0 71 70" fill="none" xmlns="http://www.w3.org/2000/svg">
<rect x="0.5" width="70" height="70" rx="24" fill="#D2F0F4"/>
<path d="M42.8041 59H28.1954C27.6194 59 27.1519 58.5325 27.1519 57.9565V53.7826C27.1519 53.2066 27.6194 52.7391 28.1954 52.7391H42.8041C43.3801 52.7391 43.8476 53.2066 43.8476 53.7826V57.9565C43.8476 58.5325 43.3801 59 42.8041 59ZM46.978 31.8696C46.978 35.6699 46.4187 42.4129 45.442 49.7402C45.3731 50.2598 44.9286 50.6522 44.4048 50.6522H26.5947C26.0709 50.6522 25.6264 50.2598 25.5575 49.7402C24.5808 42.4129 24.0215 35.6699 24.0215 31.8696C24.0215 20.3433 29.1596 11 35.4997 11C41.8399 11 46.978 20.3433 46.978 31.8696ZM41.7606 25.6087C41.7606 22.1569 38.9516 19.3478 35.4997 19.3478C32.0479 19.3478 29.2389 22.1569 29.2389 25.6087C29.2389 29.0605 32.0479 31.8696 35.4997 31.8696C38.9516 31.8696 41.7606 29.0605 41.7606 25.6087Z" fill="#717C14"/>
<path d="M56.3687 49.0974C56.4021 50.0824 55.0935 50.5749 54.4111 49.8257L48.3193 43.1537C48.7888 38.6104 49.0643 34.5638 49.0643 31.8695C49.0643 30.5381 48.985 29.2462 48.864 27.9815C50.8695 28.9061 55.8344 32.817 56.3687 49.0974ZM35.4991 21.4348C33.193 21.4348 31.3252 23.3026 31.3252 25.6087C31.3252 27.9148 33.193 29.7826 35.4991 29.7826C37.8052 29.7826 39.673 27.9148 39.673 25.6087C39.673 23.3026 37.8052 21.4348 35.4991 21.4348ZM21.9339 31.8695C21.9339 30.5381 22.0132 29.2462 22.1342 27.9815C20.1287 28.9061 15.1638 32.817 14.6295 49.0974C14.5961 50.0824 15.9047 50.5749 16.5871 49.8257L22.6789 43.1537C22.2094 38.6104 21.9339 34.5638 21.9339 31.8695Z" fill="#12233D"/>
</svg>
