<svg width="70" height="70" viewBox="0 0 70 70" fill="none" xmlns="http://www.w3.org/2000/svg">
<rect width="70" height="70" rx="24" fill="#9BAD11"/>
<g clip-path="url(#clip0_9508_163002)">
<mask id="mask0_9508_163002" style="mask-type:luminance" maskUnits="userSpaceOnUse" x="7" y="7" width="56" height="56">
<path d="M62.5 7.5H7.5V62.5H62.5V7.5Z" fill="white"/>
</mask>
<g mask="url(#mask0_9508_163002)">
<path fill-rule="evenodd" clip-rule="evenodd" d="M43.8374 52.7477C41.1688 57.1955 37.9417 59.2 35 59.2C32.0582 59.2 28.8311 57.1955 26.1625 52.7477C23.5332 48.3656 21.8 42.0986 21.8 35C21.8 27.9013 23.5332 21.6345 26.1625 17.2524C28.8311 12.8046 32.0582 10.8 35 10.8C37.9417 10.8 41.1688 12.8046 43.8374 17.2524C46.4667 21.6345 48.2 27.9013 48.2 35C48.2 42.0986 46.4667 48.3656 43.8374 52.7477ZM62.5 35C62.5 19.8122 50.1877 7.5 35 7.5C19.8122 7.5 7.5 19.8122 7.5 35C7.5 50.1877 19.8122 62.5 35 62.5C50.1877 62.5 62.5 50.1877 62.5 35ZM10.8 35C10.8 44.8808 16.7215 53.3783 25.2093 57.1375C21.1395 52.1295 18.5 44.0786 18.5 35C18.5 25.9215 21.1395 17.8705 25.2093 12.8624C16.7215 16.6218 10.8 25.1194 10.8 35ZM59.2 35C59.2 44.8808 53.2784 53.3783 44.7908 57.1375C48.8605 52.1295 51.5 44.0786 51.5 35C51.5 25.9215 48.8605 17.8705 44.7908 12.8624C53.2784 16.6218 59.2 25.1194 59.2 35ZM35 38.025C36.6706 38.025 38.025 36.6706 38.025 35C38.025 33.3293 36.6706 31.975 35 31.975C33.3293 31.975 31.975 33.3293 31.975 35C31.975 36.6706 33.3293 38.025 35 38.025Z" fill="url(#paint0_linear_9508_163002)"/>
</g>
</g>
<defs>
<linearGradient id="paint0_linear_9508_163002" x1="35" y1="7.5" x2="35" y2="62.5" gradientUnits="userSpaceOnUse">
<stop stop-color="#D2F0F4"/>
<stop offset="1" stop-color="white"/>
</linearGradient>
<clipPath id="clip0_9508_163002">
<rect width="55" height="55" fill="white" transform="translate(7.5 7.5)"/>
</clipPath>
</defs>
</svg>
