<svg width="80" height="52" viewBox="0 0 80 52" fill="none" xmlns="http://www.w3.org/2000/svg">
<path d="M79.168 1.4398L49.7036 22.933C49.6287 22.987 49.5399 23.0169 49.447 23.0169H1.75415C1.33284 23.0169 1.15812 22.4788 1.49757 22.2302L30.9629 0.73694C31.0378 0.683027 31.1267 0.653076 31.2195 0.653076H78.9124C79.3327 0.653076 79.5084 1.1912 79.168 1.4398Z" fill="#D9F0FF"/>
<path d="M49.4463 23.6687H1.75443C1.28219 23.6687 0.866864 23.3672 0.720102 22.9179C0.573339 22.4687 0.732083 21.9805 1.11347 21.7019L30.5778 0.208664C30.7655 0.0718849 30.9872 0 31.2188 0H78.9117C79.3839 0 79.7992 0.301513 79.946 0.750786C80.0928 1.20006 79.934 1.68827 79.5526 1.96682L50.0873 23.4601C49.9006 23.5968 49.6789 23.6687 49.4463 23.6687ZM2.42135 22.3638H49.3754L78.2437 1.30589H31.2897L2.42135 22.3638Z" fill="#12233D"/>
<path d="M36.3461 5.29691L31.5599 8.78827C31.485 8.84218 31.3961 8.87213 31.3033 8.87213H1.08814C0.666819 8.87213 0.492103 8.334 0.831554 8.0854L5.6278 4.58606C5.70268 4.53215 5.79253 4.5022 5.88438 4.5022L36.0895 4.51018C36.5109 4.51018 36.6866 5.04931 36.3461 5.29691Z" fill="#12233D"/>
<path d="M31.3036 9.52541H1.08841C0.616177 9.52541 0.200849 9.2239 0.0540861 8.77462C-0.0926766 8.32535 0.066067 7.83714 0.44745 7.55859L5.24369 4.05925C5.43139 3.92247 5.65303 3.85059 5.88466 3.85059L36.0898 3.85757C36.5621 3.85757 36.9774 4.15909 37.1241 4.60836C37.2699 5.05763 37.1122 5.54585 36.7308 5.82439L31.9445 9.31575C31.7568 9.45253 31.5352 9.52541 31.3036 9.52541ZM1.75534 8.21952H31.2327L35.4229 5.16246L5.95554 5.15548L1.75534 8.21952Z" fill="#12233D"/>
<path d="M16.3015 18.1285H1.08814C0.666819 18.1285 0.492103 17.5904 0.831554 17.3418L5.6278 13.8424C5.70268 13.7885 5.79253 13.7585 5.88438 13.7585L21.0968 13.7625C21.5181 13.7625 21.6928 14.3017 21.3534 14.5493L16.5571 18.0446C16.4832 18.0995 16.3934 18.1285 16.3015 18.1285Z" fill="#003267"/>
<path d="M16.3018 18.7815H1.08841C0.616177 18.7815 0.200849 18.48 0.0540861 18.0307C-0.0926766 17.5814 0.066067 17.0932 0.44745 16.8147L5.24369 13.3163C5.43139 13.1795 5.65303 13.1077 5.88466 13.1077L21.0971 13.1117C21.5693 13.1117 21.9846 13.4142 22.1314 13.8624C22.2771 14.3117 22.1194 14.7999 21.738 15.0775L16.9418 18.5728C16.7561 18.7086 16.5334 18.7815 16.3018 18.7815ZM1.75534 17.4766H16.2299L20.4291 14.4165L5.95554 14.4126L1.75534 17.4766Z" fill="#12233D"/>
<path d="M60.6254 23.0168H27.0657C26.9539 23.0168 26.8461 23.0598 26.7652 23.1367L9.6848 39.4093C9.40026 39.6799 9.59196 40.1591 9.98532 40.1591H35.3723C35.4561 40.1591 35.538 40.1352 35.6079 40.0902L60.861 23.8175C61.2255 23.5819 61.0587 23.0168 60.6254 23.0168Z" fill="#97A339"/>
<path d="M35.3713 40.8119H9.98331C9.53603 40.8119 9.13967 40.5434 8.97294 40.128C8.80721 39.7127 8.90905 39.2445 9.23252 38.937L26.3139 22.6643C26.5166 22.4706 26.7831 22.3638 27.0637 22.3638H60.6234C61.1106 22.3638 61.529 22.6773 61.6667 23.1445C61.8035 23.6118 61.6208 24.102 61.2115 24.3655L35.9603 40.6382C35.7856 40.752 35.5809 40.8119 35.3713 40.8119ZM10.5274 39.507H35.3074L59.8846 23.6697H27.1515L10.5274 39.507Z" fill="#12233D"/>
<path d="M24.5589 40.1589H39.6585C40.1268 40.1589 40.2645 40.7959 39.8382 40.9896L17.2857 51.25C16.8794 51.4347 16.491 50.9595 16.7536 50.5981L24.2065 40.3377C24.2884 40.2258 24.4192 40.1589 24.5589 40.1589Z" fill="white"/>
<path d="M17.1002 51.944C16.7837 51.944 16.4782 51.8042 16.2645 51.5416C15.947 51.1533 15.9321 50.6201 16.2266 50.2148L23.6795 39.9544C23.8832 39.6738 24.2127 39.5061 24.5591 39.5061H39.6587C40.1749 39.5061 40.6122 39.8585 40.722 40.3637C40.8308 40.8689 40.5792 41.3701 40.109 41.5837L17.5564 51.8442C17.4077 51.912 17.2529 51.944 17.1002 51.944ZM24.6699 40.812L17.7671 50.3146L38.6543 40.812H24.6699Z" fill="#12233D"/>
</svg>
