<svg width="52" height="52" viewBox="0 0 52 52" fill="none" xmlns="http://www.w3.org/2000/svg">
<path d="M47.9375 4.30615H4.0625C2.68125 4.30615 1.625 5.3624 1.625 6.74365V32.7437C1.625 34.1249 2.68125 35.1812 4.0625 35.1812H47.9375C49.3187 35.1812 50.375 34.1249 50.375 32.7437V6.74365C50.375 5.3624 49.3187 4.30615 47.9375 4.30615Z" fill="white"/>
<path d="M4.875 7.55615H47.125V31.9312H4.875V7.55615Z" fill="#E8E8E8"/>
<path d="M13.082 45.8252H38.9195V47.6939H13.082V45.8252Z" fill="#97A339"/>
<path d="M19.9062 36.8062H32.0938V44.1999H19.9062V36.8062Z" fill="white"/>
<path d="M47.9375 2.68115H4.0625C1.7875 2.68115 0 4.46865 0 6.74365V32.7437C0 35.0187 1.7875 36.8061 4.0625 36.8061H18.2812V44.1999H11.4563V49.3186H40.5438V44.1999H33.7188V36.8061H47.9375C50.2125 36.8061 52 35.0187 52 32.7437V6.74365C52 4.46865 50.2125 2.68115 47.9375 2.68115ZM38.9188 45.8249V47.6936H13.0813V45.8249H38.9188ZM19.9062 44.1999V36.8061H32.0938V44.1999H19.9062ZM50.375 32.7437C50.375 34.1249 49.3187 35.1811 47.9375 35.1811H4.0625C2.68125 35.1811 1.625 34.1249 1.625 32.7437V6.74365C1.625 5.3624 2.68125 4.30615 4.0625 4.30615H47.9375C49.3187 4.30615 50.375 5.3624 50.375 6.74365V32.7437Z" fill="#97A339"/>
<path d="M31.525 22.9126L26.5688 17.9563L28.8437 15.6813L21.125 14.3813L22.425 22.1001L24.8625 19.6626L29.8188 24.6188L31.525 22.9126Z" fill="white"/>
<path d="M28.8438 18.0374L32.175 14.7062L19.0938 12.4312L21.3687 25.5124L24.8625 22.0187L29.8188 26.9749L33.8 22.9937L28.8438 18.0374ZM22.425 22.0999L21.125 14.3812L28.8438 15.6812L26.5688 17.9562L31.525 22.9124L29.8188 24.6187L24.8625 19.6624L22.425 22.0999Z" fill="#97A339"/>
</svg>
