<svg width="62" height="92" viewBox="0 0 62 92" fill="none" xmlns="http://www.w3.org/2000/svg">
<path d="M45.4427 0.73999L50.7508 2.55141L53.4695 9.54306L59.942 12.1324L53.4695 16.9213V25.0774L49.1966 22.2625L43.9043 8.76674L45.4427 0.73999Z" fill="#12233D"/>
<path d="M37.1113 18.1976L40.6569 20.7538L45.9081 18.4169L42.8012 15.3684L37.1113 18.1976Z" fill="#12233D"/>
<path d="M37.5458 40.2235C37.5458 40.2235 41.8614 25.4655 48.6794 31.3337C48.6794 31.3337 54.6344 24.1732 57.0518 31.5925C57.0518 31.5925 62.9199 29.953 60.5042 38.065C58.0884 46.1769 56.1019 51.1836 56.1019 51.1836C56.1019 51.1836 59.5543 50.199 60.763 52.072C61.9716 53.9449 61.1937 56.621 54.98 63.3523C54.98 63.3523 49.4558 76.8812 43.9331 77.5392L43.8464 89.072C43.8464 89.072 28.9163 94.7682 25.7227 83.2038L26.0682 65.6845L37.5458 40.2235Z" fill="#D9F0FF"/>
<path d="M40.6571 50.6502C40.6019 50.6502 40.5451 50.6439 40.4899 50.6313C40.0796 50.5398 39.8224 50.1311 39.9155 49.7224C43.1802 35.2547 47.977 30.9376 48.179 30.7609C48.4961 30.4847 48.9758 30.5179 49.2519 30.8334C49.5265 31.149 49.4949 31.6287 49.1809 31.9048C49.1162 31.9632 44.5261 36.1951 41.3988 50.0569C41.3199 50.4104 41.0059 50.6502 40.6571 50.6502Z" fill="#12233D"/>
<path d="M47.8157 53.585C47.7525 53.585 47.6878 53.5772 47.6247 53.5614C47.2176 53.4557 46.9746 53.0407 47.0788 52.6336C51.7099 34.8018 56.3978 31.1316 56.5935 30.9849C56.9296 30.734 57.4077 30.8034 57.6586 31.1379C57.9079 31.4724 57.8416 31.9458 57.5102 32.1983C57.4329 32.2614 52.9833 35.9458 48.551 53.0154C48.4626 53.3578 48.1549 53.585 47.8157 53.585Z" fill="#12233D"/>
<path d="M47.1251 62.0425C47.0005 62.0425 46.8758 62.0125 46.7591 61.9478C46.3914 61.7459 46.2573 61.2835 46.4593 60.9143C51.1993 52.31 55.6442 50.5444 55.8304 50.4734C56.2233 50.3251 56.6635 50.5207 56.8118 50.9136C56.9601 51.3049 56.7645 51.742 56.3747 51.8935C56.3179 51.9156 52.2138 53.6213 47.791 61.648C47.6537 61.9005 47.3934 62.0425 47.1251 62.0425Z" fill="#12233D"/>
<path d="M25.834 77.5405C25.834 77.5405 30.9306 82.0028 43.9056 81.2659V85.8797C43.9056 85.8797 30.7791 89.1586 25.834 82.2553V77.5405Z" fill="#6ECDDD"/>
<path d="M41.0437 82.0914C28.6114 82.0914 25.3768 78.1892 25.2363 78.0125L26.4245 77.061C26.4576 77.1021 29.9779 81.1225 43.8713 80.5056L43.9391 82.0251C42.923 82.0708 41.9573 82.0914 41.0437 82.0914Z" fill="#12233D"/>
<path d="M36.8291 87.4296C27.7326 87.4296 25.2758 82.8363 25.1543 82.5981L26.5081 81.9038C26.5397 81.9653 29.8974 87.9803 43.7498 85.1322L44.0559 86.6233C41.2772 87.1961 38.8836 87.4296 36.8291 87.4296Z" fill="#12233D"/>
<path d="M36.0874 91.2414C34.0267 91.2414 31.8571 90.899 29.9368 89.8907C27.5084 88.6142 25.8516 86.4604 25.0122 83.4892C24.9775 83.3661 24.9601 83.2383 24.9633 83.1105L25.3057 65.7741C25.3088 65.6053 25.3451 65.4365 25.4177 65.2771L36.8322 39.9582C37.1462 38.9136 39.7592 30.6912 44.2546 29.3768C45.711 28.9508 47.1753 29.268 48.6206 30.3189C49.6447 29.3516 52.0573 27.395 54.38 27.84C55.7196 28.0988 56.7752 29.0723 57.5231 30.7386C58.361 30.6392 59.8048 30.6597 60.8162 31.69C62.0296 32.924 62.1684 35.1425 61.2327 38.2856C59.5286 44.0055 58.0233 48.2264 57.288 50.2082C58.585 50.0851 60.4612 50.2035 61.4016 51.663C63.0158 54.1656 61.4505 57.4492 55.6312 63.7734C54.675 66.055 49.9445 76.7405 44.6901 78.1685L44.6112 88.7262C44.6065 89.2643 44.2609 89.7439 43.7513 89.9175C42.5315 90.3278 39.4546 91.2414 36.0874 91.2414ZM26.4843 83.1057C27.2086 85.643 28.6082 87.4734 30.6453 88.5432C35.106 90.8879 41.4617 89.0623 43.0901 88.5306L43.169 77.9555C43.1737 77.3717 43.5824 76.8573 44.1441 76.7342C47.9942 75.8774 52.305 67.786 54.2458 63.1406C54.3026 63.0049 54.3831 62.8803 54.4841 62.7714C60.8272 55.8871 60.9424 53.7601 60.1219 52.4867C59.385 51.3459 57.0639 51.7025 56.3097 51.9171L54.8249 52.34L55.3945 50.9056C55.4151 50.8552 57.3969 45.8311 59.7748 37.8501C60.529 35.3192 60.5148 33.5598 59.7353 32.7599C58.8927 31.8967 57.2691 32.3228 57.2533 32.3275L56.5827 32.509L56.3381 31.8589C55.7827 30.3646 55.0269 29.5141 54.0944 29.3342C52.305 28.9871 49.9871 31.0305 49.2439 31.8478L48.7453 32.3954L48.1836 31.9125C46.9575 30.8585 45.812 30.5066 44.6822 30.8364C41.6242 31.7311 39.1596 37.4935 38.2838 40.4158L38.2823 40.4221C38.2665 40.4742 38.2491 40.5184 38.227 40.5673L26.8268 65.8546L26.4843 83.1057ZM26.8252 65.7978V65.801C26.8252 65.801 26.8252 65.7994 26.8252 65.7978Z" fill="#12233D"/>
<path d="M0.904075 73.1446L7.90046 65.8216C8.02985 65.6859 8.07561 65.4902 8.01565 65.3119C7.46812 63.6946 4.99082 55.54 8.6042 49.6608C8.65154 49.585 8.67679 49.5014 8.67521 49.4131C8.66732 47.9172 8.74779 34.169 14.5024 34.7008C14.5024 34.7008 16.4227 34.7213 17.1453 37.1844C17.2842 37.6562 17.958 37.653 18.1094 37.186L21.9469 25.4022C21.9469 25.4022 23.3055 20.8705 25.9595 22.0366C26.6222 22.3285 27.0435 22.7277 27.3007 23.1648C27.4885 23.4819 27.9508 23.4882 28.148 23.179C28.7776 22.1912 30.0147 20.9147 31.9791 21.5837C35.0213 22.6188 33.7653 26.1281 33.7653 26.1281C33.7653 26.1281 39.2296 26.2448 37.546 32.2645L36.6402 35.5008C36.6402 35.5008 42.2717 34.2069 40.2 41.8439L33.09 65.2441C33.0837 65.2646 33.0774 65.2819 33.0679 65.3025C32.8028 65.8879 28.2695 75.7529 20.1654 82.2222C20.1023 82.2727 20.0282 82.3074 19.9477 82.3248C18.5023 82.6151 4.53166 85.1098 0.785733 73.659C0.728928 73.4791 0.774687 73.2803 0.904075 73.1446Z" fill="#97A339"/>
<path d="M7.31695 66.4355C7.31695 66.4355 10.9051 76.4725 25.0351 77.5408L21.3113 81.2662C21.3113 81.2662 8.93744 80.2263 4.05859 69.8454L7.31695 66.4355Z" fill="white"/>
<path d="M15.2595 83.5147C10.1913 83.5147 2.72629 82.0378 0.0628031 73.8943C-0.0823632 73.4477 0.0280889 72.9601 0.353135 72.6193L7.24538 65.4068C6.60633 63.4644 4.28209 55.3303 7.91441 49.3312C7.90967 47.2641 8.08167 38.1281 11.4757 35.0149C12.3688 34.196 13.4118 33.841 14.5731 33.942C14.925 33.9704 16.6891 34.2134 17.6122 36.2567L21.224 25.1641C21.3107 24.8754 22.166 22.174 23.9884 21.3314C24.7095 20.9969 25.4969 21.0001 26.2653 21.3377C26.8775 21.606 27.3667 21.9752 27.7249 22.4328C28.6211 21.2162 30.1327 20.1464 32.225 20.8612C34.1706 21.5239 35.0842 23.4016 34.6992 25.9121C35.6222 26.0241 37.036 26.4044 37.9055 27.6414C38.7228 28.8075 38.849 30.4296 38.2794 32.4651L37.6656 34.6568C38.4782 34.682 39.5465 34.9013 40.3528 35.7392C41.5393 36.9715 41.735 39.0906 40.935 42.0381L33.9307 65.088C33.8329 65.4131 33.7083 65.7318 33.5647 66.0348C32.3891 68.49 27.9852 76.9522 20.6354 82.8188C20.4776 82.9451 20.2977 83.0287 20.1021 83.0681C19.5719 83.1754 17.6926 83.5147 15.2595 83.5147ZM1.55707 73.5645C5.11207 84.0638 17.964 81.9384 19.7376 81.5912C26.9864 75.7798 31.3824 67.0699 32.1935 65.3799C32.3055 65.1464 32.4002 64.9003 32.4759 64.6494L39.4723 41.6247C40.105 39.291 40.034 37.6169 39.2609 36.8058C38.4025 35.9049 36.823 36.241 36.8072 36.2441L35.5686 36.5187L36.8136 32.0611C37.2538 30.4864 37.2017 29.2951 36.6589 28.5203C36.0546 27.6588 34.9217 27.4521 34.2984 27.4063C33.9402 27.3795 33.6104 27.2012 33.3927 26.9188C33.1749 26.6347 33.0881 26.2702 33.1544 25.9184C33.3611 24.8217 33.4511 22.892 31.7327 22.3066C29.4795 21.5397 28.4633 24.1385 28.3545 24.4383L27.291 27.359L26.8854 24.2789C26.7908 23.5642 26.3884 23.0592 25.6531 22.7358C25.2807 22.5732 24.9557 22.5669 24.6259 22.7168C23.6034 23.187 22.8697 24.9748 22.674 25.6233L16.6544 44.1099V39.3179C16.6544 35.5278 14.5163 35.4615 14.4942 35.4615L14.4327 35.4583C13.7069 35.3952 13.0741 35.6145 12.5045 36.1368C10.0335 38.4027 9.41341 45.5537 9.43708 49.4227C9.43865 49.6436 9.37712 49.8598 9.25877 50.0523C5.81265 55.6475 8.21894 63.5433 8.73807 65.0707C8.88955 65.5172 8.78067 66.0079 8.45247 66.3503L1.55707 73.5645Z" fill="#12233D"/>
<path d="M14.5462 49.7019C14.472 49.7019 14.3978 49.6909 14.3221 49.6688C13.9213 49.5457 13.6957 49.1197 13.8188 48.7173L18.3599 33.9624C18.483 33.5616 18.909 33.3375 19.3114 33.459C19.7122 33.5821 19.9378 34.0082 19.8148 34.4105L15.2736 49.1654C15.1726 49.492 14.8712 49.7019 14.5462 49.7019Z" fill="#12233D"/>
<path d="M21.6664 43.6709C21.5906 43.6709 21.5117 43.6599 21.4344 43.6346C21.0336 43.5068 20.8127 43.0792 20.9405 42.6784L26.916 23.9425C27.0438 23.5417 27.4683 23.3208 27.8722 23.4486C28.273 23.5764 28.4939 24.004 28.3661 24.4048L22.3906 43.1407C22.2881 43.4642 21.9883 43.6709 21.6664 43.6709Z" fill="#12233D"/>
<path d="M27.6415 46.5082C27.5642 46.5082 27.4869 46.4972 27.4096 46.4719C27.0088 46.3441 26.7895 45.9149 26.9173 45.5157L33.0426 26.4011C33.1705 26.0019 33.5981 25.781 33.9989 25.9088C34.3996 26.0366 34.619 26.4658 34.4912 26.865L28.3658 45.9796C28.2616 46.3031 27.9634 46.5082 27.6415 46.5082Z" fill="#12233D"/>
<path d="M32.024 51.0826C31.9498 51.0826 31.8725 51.0716 31.7983 51.0479C31.3976 50.9233 31.1735 50.4956 31.2981 50.0949L35.9151 35.2721C36.0397 34.8713 36.4657 34.6488 36.8681 34.7719C37.2689 34.8966 37.493 35.3242 37.3683 35.725L32.7498 50.5477C32.6488 50.8743 32.3474 51.0826 32.024 51.0826Z" fill="#12233D"/>
<path d="M24.9692 78.2981C9.60212 77.0058 6.69722 67.0588 6.58203 66.6359L8.04947 66.2335L7.31575 66.4355L8.0479 66.2319C8.15519 66.6138 10.8376 75.5841 25.097 76.7833L24.9692 78.2981Z" fill="#12233D"/>
<path d="M21.2075 82.0186C7.27151 80.1283 3.50034 70.5205 3.3457 70.1118L4.76896 69.5753L4.05733 69.8436L4.76896 69.5737C4.91098 69.9477 8.4139 78.7476 21.4126 80.5101L21.2075 82.0186Z" fill="#12233D"/>
<path d="M52.9621 25.3815C52.7112 25.3815 52.4603 25.3058 52.2441 25.1575L47.9965 21.9812L43.2486 9.16708C43.1649 8.96195 43.1413 8.71422 43.187 8.47438L44.6813 0.676423C44.7271 0.438161 44.8738 0.233034 45.0821 0.113114C45.2904 -0.00838355 45.5413 -0.0336299 45.77 0.0452648L50.7751 1.75412C51.1286 1.87405 51.411 2.14387 51.5467 2.49416L54.0603 8.95721L59.3825 11.0858C59.8102 11.2562 60.11 11.6459 60.1683 12.1004C60.2267 12.5548 60.0342 13.0077 59.665 13.2806L54.2307 17.3011V24.1097C54.2307 24.5815 53.9719 25.0107 53.5538 25.2316C53.366 25.3326 53.1641 25.3815 52.9621 25.3815ZM49.2667 21.0328L52.7096 23.6064V17.1765C52.7096 16.7757 52.9021 16.3938 53.224 16.1571L58.3948 12.3308L53.3929 10.33C53.0678 10.2006 52.809 9.93866 52.6812 9.61204L50.1708 3.15687L46.0257 1.7415L44.6939 8.69213L49.2667 21.0328ZM44.6655 8.61954L44.6703 8.63375C44.6703 8.62743 44.6687 8.6227 44.6655 8.61954Z" fill="#12233D"/>
<path d="M40.6894 21.2443C40.467 21.2443 40.2445 21.1859 40.0472 21.0707L36.2461 18.8349L42.4094 14.3757L46.7738 18.6581L41.2038 21.1354C41.0397 21.208 40.8646 21.2443 40.6894 21.2443ZM39.0232 18.7023L40.7052 19.6917L44.1119 18.1769L42.261 16.3607L39.0232 18.7023Z" fill="#12233D"/>
<path d="M34.8691 6.69496H41.3006L45.4426 0.73999L47.8158 8.89613L55.2808 11.7442L49.1964 15.1099L49.1002 21.6471L42.3357 15.3687L36.122 18.7343L37.804 11.4839L34.8691 6.69496Z" fill="white"/>
<path d="M48.7959 22.2668C48.4709 22.2668 48.1521 22.1406 47.9091 21.9039L42.2035 16.3039L37.4729 18.8664C37.0264 19.1078 36.501 19.0652 36.1002 18.7591C35.6994 18.4514 35.5211 17.956 35.6347 17.4637L36.9917 11.6144L34.6927 7.86218C34.4528 7.47086 34.4434 6.98014 34.6674 6.58093C34.8915 6.18172 35.3144 5.93242 35.7735 5.93242H40.9017L44.7344 0.422406C44.9159 0.162053 45.2378 0.0295109 45.5502 0.0768478C45.8642 0.128918 46.123 0.359291 46.2129 0.663825L48.5103 7.71859L54.5694 10.6566C55.0144 10.8412 55.311 11.2515 55.3458 11.7359C55.3805 12.2345 55.1312 12.6937 54.6957 12.9351L49.9667 15.5513L50.0645 20.9745C50.074 21.4905 49.7726 21.9575 49.2993 22.1611C49.1352 22.2336 48.9647 22.2668 48.7959 22.2668ZM42.2492 14.7229C42.5727 14.7229 42.8914 14.8475 43.136 15.0874L48.5324 20.3844L48.4425 15.4282C48.4346 14.958 48.6839 14.5225 49.0973 14.2953L53.528 11.8432L47.8129 9.07243C47.461 8.92568 47.1912 8.62273 47.0839 8.25508L45.1888 2.43422L42.0757 6.91071C41.8374 7.25154 41.4492 7.45508 41.0342 7.45508H36.2264L38.3439 10.9091C38.5191 11.1963 38.5727 11.5324 38.497 11.859L37.2426 17.2617L41.6417 14.8775C41.8358 14.7734 42.0441 14.7229 42.2492 14.7229ZM48.5356 7.80064L48.5387 7.81011C48.5387 7.80695 48.5371 7.8038 48.5356 7.80064ZM44.7597 1.11352C44.7628 1.12615 44.7676 1.13719 44.7707 1.14824L44.7597 1.11352Z" fill="#12233D"/>
</svg>
