<svg width="52" height="52" viewBox="0 0 52 52" fill="none" xmlns="http://www.w3.org/2000/svg">
<g clip-path="url(#clip0_9483_2413)">
<path d="M17.875 39L11.375 43.875V34.125H4.875C4.01304 34.125 3.18639 33.7825 2.57691 33.173C1.96741 32.5635 1.625 31.7369 1.625 30.875V4.875C1.625 4.01304 1.96741 3.18639 2.57691 2.57691C3.18639 1.96741 4.01304 1.625 4.875 1.625H40.625C41.4869 1.625 42.3135 1.96741 42.923 2.57691C43.5325 3.18639 43.875 4.01304 43.875 4.875V14.5488" stroke="#97A339" stroke-width="3.25" stroke-linecap="round" stroke-linejoin="round"/>
<path d="M11.375 11.375H34.125" stroke="#97A339" stroke-width="3.25" stroke-linecap="round" stroke-linejoin="round"/>
<path d="M11.375 21.125H17.875" stroke="#97A339" stroke-width="3.25" stroke-linecap="round" stroke-linejoin="round"/>
<path d="M50.375 40.625H43.875V50.375L34.125 40.625H24.375V21.125H50.375V40.625Z" stroke="#97A339" stroke-width="3.25" stroke-linecap="round" stroke-linejoin="round"/>
<path d="M42.25 32.5H32.5" stroke="#97A339" stroke-width="3.25" stroke-linecap="round" stroke-linejoin="round"/>
</g>
<defs>
<clipPath id="clip0_9483_2413">
<rect width="52" height="52" fill="white"/>
</clipPath>
</defs>
</svg>
