<svg width="52" height="52" viewBox="0 0 52 52" fill="none" xmlns="http://www.w3.org/2000/svg">
<path d="M26 17.0625C20.6375 17.0625 16.25 21.45 16.25 26.8125C16.25 32.175 20.6375 36.5625 26 36.5625C31.3625 36.5625 35.75 32.175 35.75 26.8125C35.75 21.45 31.3625 17.0625 26 17.0625ZM26 33.3125C22.425 33.3125 19.5 30.3875 19.5 26.8125C19.5 23.2375 22.425 20.3125 26 20.3125C29.575 20.3125 32.5 23.2375 32.5 26.8125C32.5 30.3875 29.575 33.3125 26 33.3125Z" fill="#97A339"/>
<path d="M25.9996 40.9502C19.9465 40.9502 14.1371 43.4689 9.99336 47.8971L8.89648 49.0752L11.2527 51.3096L12.3496 50.1314C15.9246 46.3127 20.759 44.2002 25.9996 44.2002C31.2402 44.2002 36.0746 46.3127 39.6496 50.1314L40.7465 51.3096L43.1027 49.0752L42.0059 47.8971C37.8621 43.5096 32.0527 40.9502 25.9996 40.9502Z" fill="#97A339"/>
<path d="M39.4062 19.4595V22.7095C43.225 22.7095 46.7594 24.2532 49.4 27.0563L51.7563 24.822C48.5875 21.4095 44.0781 19.4595 39.4062 19.4595Z" fill="#97A339"/>
<path d="M47.1652 8.1251C47.1652 3.85947 43.6715 0.365723 39.4059 0.365723C35.1402 0.365723 31.6465 3.85947 31.6465 8.1251C31.6465 12.3907 35.1402 15.8845 39.4059 15.8845C43.6715 15.8845 47.1652 12.3907 47.1652 8.1251ZM34.8965 8.1251C34.8965 5.64697 36.9277 3.61572 39.4059 3.61572C41.884 3.61572 43.9152 5.64697 43.9152 8.1251C43.9152 10.6032 41.884 12.6345 39.4059 12.6345C36.9277 12.6345 34.8965 10.6032 34.8965 8.1251Z" fill="#97A339"/>
<path d="M12.5941 19.4595C7.92227 19.4595 3.41289 21.4095 0.244141 24.822L2.60039 27.0563C5.20039 24.2532 8.77539 22.7095 12.5941 22.7095V19.4595Z" fill="#97A339"/>
<path d="M20.3527 8.1251C20.3527 3.85947 16.859 0.365723 12.5934 0.365723C8.32773 0.365723 4.83398 3.85947 4.83398 8.1251C4.83398 12.3907 8.32773 15.8845 12.5934 15.8845C16.859 15.8845 20.3527 12.3907 20.3527 8.1251ZM12.5934 12.6345C10.1152 12.6345 8.08398 10.6032 8.08398 8.1251C8.08398 5.64697 10.1152 3.61572 12.5934 3.61572C15.0715 3.61572 17.1027 5.64697 17.1027 8.1251C17.1027 10.6032 15.0715 12.6345 12.5934 12.6345Z" fill="#97A339"/>
</svg>
