<svg width="62" height="64" viewBox="0 0 62 64" fill="none" xmlns="http://www.w3.org/2000/svg">
<path d="M39.0363 47.6892H26.1197C26.0453 47.6892 25.9739 47.714 25.9141 47.7592L22.8457 50.1567H35.7623C35.8367 50.1567 35.9082 50.132 35.968 50.0867L39.0363 47.6892Z" fill="#12233D"/>
<path d="M35.875 63.1883L38.9055 60.8199C38.9857 60.7572 39.0338 60.6595 39.0338 60.5574V48.3714C39.0338 48.0943 38.7144 47.9383 38.4957 48.1089L36.0033 50.0558C35.9231 50.1185 35.875 50.2162 35.875 50.3183V63.1883Z" fill="#97A339"/>
<path d="M35.7337 63.1881H22.9935C22.9133 63.1881 22.8477 63.1225 22.8477 63.0423V50.3021C22.8477 50.2219 22.9133 50.1562 22.9935 50.1562H35.7337C35.8139 50.1562 35.8795 50.2219 35.8795 50.3021V63.0423C35.8795 63.1225 35.8139 63.1881 35.7337 63.1881Z" fill="#D9F0FF"/>
<path d="M35.5037 63.7524H23.2258C22.7066 63.7524 22.2852 63.3309 22.2852 62.8118V50.5339C22.2852 50.0147 22.7066 49.5933 23.2258 49.5933H35.5037C36.0228 49.5933 36.4443 50.0147 36.4443 50.5339V62.8118C36.4443 63.3309 36.0228 63.7524 35.5037 63.7524ZM23.4139 62.6237H35.3155V50.722H23.4139V62.6237Z" fill="#12233D"/>
<path d="M23.0823 50.7216C22.9073 50.7216 22.7352 50.64 22.6243 50.4883C22.442 50.236 22.4989 49.8831 22.7512 49.6993L25.5892 47.6474C25.7438 47.5351 25.929 47.4739 26.1258 47.4739H38.6808C38.9929 47.4739 39.2452 47.7262 39.2452 48.0383C39.2452 48.3503 38.9929 48.6026 38.6808 48.6026H26.1944L23.4133 50.6137C23.3127 50.6866 23.196 50.7216 23.0823 50.7216ZM26.2527 48.5603L26.2498 48.5618C26.2513 48.5603 26.2513 48.5603 26.2527 48.5603Z" fill="#12233D"/>
<path d="M35.7624 50.7218H22.9727V49.5931H35.6822L38.3335 47.5222L39.0291 48.4118L36.3151 50.5323C36.1591 50.6533 35.9637 50.7218 35.7624 50.7218Z" fill="#12233D"/>
<path d="M35.8353 63.6167C35.6602 63.6167 35.4882 63.5365 35.3773 63.3834C35.2592 63.2215 35.2402 63.0159 35.3102 62.8423V50.3195C35.3102 50.0409 35.4357 49.7828 35.6559 49.6121L38.1482 47.6652C38.4209 47.4523 38.784 47.4144 39.0961 47.5661C39.4068 47.7177 39.5993 48.0269 39.5993 48.3725V60.5585C39.5993 60.8342 39.4695 61.0981 39.2536 61.2673L36.1678 63.5103C36.0657 63.5817 35.9505 63.6167 35.8353 63.6167ZM36.439 50.4332V61.9148L38.469 60.4404V48.848L36.439 50.4332Z" fill="#12233D"/>
<path d="M61.4367 47.6892H48.5201C48.4457 47.6892 48.3743 47.714 48.3145 47.7592L45.2461 50.1567H58.1627C58.2371 50.1567 58.3086 50.132 58.3684 50.0867L61.4367 47.6892Z" fill="#12233D"/>
<path d="M58.2793 63.1883L61.3098 60.8199C61.39 60.7572 61.4381 60.6595 61.4381 60.5574V48.3714C61.4381 48.0943 61.1187 47.9383 60.9 48.1089L58.4076 50.0558C58.3274 50.1185 58.2793 50.2162 58.2793 50.3183V63.1883Z" fill="#97A339"/>
<path d="M58.1302 63.1881H45.39C45.3098 63.1881 45.2441 63.1225 45.2441 63.0423V50.3021C45.2441 50.2219 45.3098 50.1562 45.39 50.1562H58.1302C58.2104 50.1562 58.276 50.2219 58.276 50.3021V63.0423C58.276 63.1225 58.2104 63.1881 58.1302 63.1881Z" fill="#D9F0FF"/>
<path d="M57.8982 63.7524H45.6203C45.1011 63.7524 44.6797 63.3309 44.6797 62.8118V50.5339C44.6797 50.0147 45.1011 49.5933 45.6203 49.5933H57.8982C58.4174 49.5933 58.8388 50.0147 58.8388 50.5339V62.8118C58.8403 63.3309 58.4174 63.7524 57.8982 63.7524ZM45.8085 62.6237H57.7101V50.722H45.8085V62.6237Z" fill="#12233D"/>
<path d="M45.4846 50.7216C45.3096 50.7216 45.1375 50.64 45.0267 50.4883C44.8444 50.236 44.9013 49.8831 45.1536 49.6993L47.9915 47.6474C48.1417 47.5366 48.3342 47.4739 48.5282 47.4739H61.0832C61.3952 47.4739 61.6475 47.7262 61.6475 48.0383C61.6475 48.3503 61.3952 48.6026 61.0832 48.6026H48.5967L45.8157 50.6137C45.715 50.6866 45.5998 50.7216 45.4846 50.7216ZM48.6565 48.5589L48.6536 48.5618C48.6551 48.5603 48.6551 48.5604 48.6565 48.5589Z" fill="#12233D"/>
<path d="M58.1628 50.7218H45.373V49.5931H58.0826L60.7324 47.5222L61.4281 48.4118L58.7141 50.5323C58.5595 50.6533 58.3626 50.7218 58.1628 50.7218Z" fill="#12233D"/>
<path d="M58.2376 63.617C58.0626 63.617 57.8905 63.5367 57.7797 63.3836C57.6615 63.2217 57.6426 63.0161 57.7126 62.8426V50.3197C57.7126 50.0426 57.838 49.7845 58.0568 49.6124L60.5505 47.664C60.8233 47.4511 61.1864 47.4132 61.497 47.5649C61.8076 47.7165 62.0001 48.0257 62.0001 48.3713V60.5573C62.0001 60.833 61.8703 61.0969 61.6545 61.2661L58.5686 63.509C58.4695 63.582 58.3528 63.617 58.2376 63.617ZM58.8428 50.432V61.9136L60.8728 60.4392V48.8468L58.8428 50.432Z" fill="#12233D"/>
<path d="M16.757 47.6892H3.84041C3.76603 47.6892 3.69458 47.714 3.63478 47.7592L0.566406 50.1567H13.483C13.5574 50.1567 13.6289 50.132 13.6887 50.0867L16.757 47.6892Z" fill="#12233D"/>
<path d="M13.5957 63.188L16.6262 60.8197C16.7064 60.7569 16.7545 60.6592 16.7545 60.5571V48.3711C16.7545 48.0941 16.4351 47.938 16.2164 48.1086L13.724 50.0555C13.6438 50.1183 13.5957 50.216 13.5957 50.3181V63.188Z" fill="#97A339"/>
<path d="M13.4485 63.1881H0.708335C0.628126 63.1881 0.5625 63.1225 0.5625 63.0423V50.3021C0.5625 50.2219 0.628126 50.1562 0.708335 50.1562H13.4485C13.5287 50.1562 13.5943 50.2219 13.5943 50.3021V63.0423C13.5943 63.1225 13.5287 63.1881 13.4485 63.1881Z" fill="#D9F0FF"/>
<path d="M13.2185 63.7524H0.940638C0.421464 63.7524 0 63.3309 0 62.8118V50.5339C0 50.0147 0.421464 49.5933 0.940638 49.5933H13.2185C13.7377 49.5933 14.1592 50.0147 14.1592 50.5339V62.8118C14.1592 63.3309 13.7377 63.7524 13.2185 63.7524ZM1.12877 62.6237H13.0304V50.722H1.12877V62.6237Z" fill="#12233D"/>
<path d="M0.801017 50.7216C0.626014 50.7216 0.453929 50.64 0.343094 50.4883C0.1608 50.236 0.217675 49.8831 0.46997 49.6993L3.30793 47.6474C3.4596 47.5366 3.65064 47.4739 3.8446 47.4739H16.3996C16.7117 47.4739 16.9639 47.7262 16.9639 48.0383C16.9639 48.3503 16.7117 48.6026 16.3996 48.6026H3.91314L1.13206 50.6137C1.03144 50.6866 0.916227 50.7216 0.801017 50.7216ZM3.97148 48.5603L3.96856 48.5618C3.97002 48.5603 3.97148 48.5603 3.97148 48.5603Z" fill="#12233D"/>
<path d="M13.4851 50.7218H0.695312V49.5931H13.4049L16.0561 47.5222L16.7518 48.4118L14.0378 50.5323C13.8817 50.6533 13.6849 50.7218 13.4851 50.7218Z" fill="#12233D"/>
<path d="M13.554 63.617C13.379 63.617 13.2069 63.5367 13.0961 63.3836C12.978 63.2203 12.959 63.0161 13.029 62.8411V50.3182C13.029 50.0397 13.1544 49.7816 13.3732 49.6109L15.8655 47.664C16.1397 47.4511 16.5013 47.4132 16.812 47.5649C17.1226 47.7165 17.3151 48.0257 17.3151 48.3713V60.5573C17.3151 60.833 17.1853 61.0969 16.9695 61.2661L13.9288 63.477C13.9259 63.4799 13.923 63.4813 13.92 63.4828L13.8836 63.509C13.7859 63.582 13.6692 63.617 13.554 63.617ZM14.1592 50.432V61.9136L16.1892 60.4392V48.8468L14.1592 50.432Z" fill="#12233D"/>
<path d="M33.0837 44.5185V49.5776H29.0849V44.5185H10.6966V49.5776H6.69922V40.5197H29.0849V33.54H33.0837V40.5197H55.4913V49.5776H51.494V44.5185H33.0837Z" fill="white"/>
<path d="M55.4918 50.1416H51.4944C51.1823 50.1416 50.93 49.8893 50.93 49.5772V45.0826H33.6486V49.5772C33.6486 49.8893 33.3963 50.1416 33.0842 50.1416H29.0868C28.7747 50.1416 28.5224 49.8893 28.5224 49.5772V45.0826H11.2628V49.5772C11.2628 49.8893 11.0105 50.1416 10.6984 50.1416H6.7011C6.38902 50.1416 6.13672 49.8893 6.13672 49.5772V40.5194C6.13672 40.2073 6.38902 39.955 6.7011 39.955H28.5224V33.5397C28.5224 33.2276 28.7747 32.9753 29.0868 32.9753H33.0842C33.3963 32.9753 33.6486 33.2276 33.6486 33.5397V39.955H55.4918C55.8039 39.955 56.0562 40.2073 56.0562 40.5194V49.5772C56.0576 49.8893 55.8039 50.1416 55.4918 50.1416ZM52.0588 49.0129H54.9274V41.0838H33.0842C32.7721 41.0838 32.5198 40.8315 32.5198 40.5194V34.1041H29.6512V40.5194C29.6512 40.8315 29.3989 41.0838 29.0868 41.0838H7.26403V49.0129H10.1326V44.5182C10.1326 44.2061 10.3849 43.9538 10.697 43.9538H29.0854C29.3975 43.9538 29.6498 44.2061 29.6498 44.5182V49.0129H32.5183V44.5182C32.5183 44.2061 32.7706 43.9538 33.0827 43.9538H51.493C51.8051 43.9538 52.0574 44.2061 52.0574 44.5182V49.0129H52.0588Z" fill="#12233D"/>
<path d="M17.0822 13.3513L14.1422 11.1769C13.9949 11.0675 13.9628 10.859 14.0722 10.7117L18.8148 4.27743C18.9241 4.12868 19.1327 4.09805 19.28 4.20743L22.6211 6.67059C23.8519 5.8087 25.2213 5.13056 26.687 4.6741L26.7438 0.894048C26.7468 0.711753 26.8955 0.565918 27.0763 0.565918H35.0754C35.2592 0.565918 35.4079 0.71467 35.4079 0.898422L35.4225 4.66097C36.9304 5.12473 38.3363 5.82328 39.5963 6.71579L39.6124 6.72892L43.0307 4.20889C43.1795 4.09951 43.388 4.13159 43.4959 4.27889L48.2385 10.7131C48.3479 10.8619 48.3158 11.0704 48.1685 11.1784L44.9047 13.5846C45.4545 15.0124 45.7476 16.4372 45.8264 18.0385L49.7246 19.0462C49.9025 19.0928 50.0104 19.2737 49.9637 19.4516L47.9629 27.1911C47.9162 27.369 47.7354 27.4769 47.5575 27.4302L43.7074 26.4342C42.863 27.824 41.7955 29.0636 40.5544 30.102L42.0055 33.7085C42.0741 33.8791 41.9909 34.0731 41.8203 34.1416L34.4046 37.1225C34.2339 37.191 34.04 37.1079 33.9714 36.9373L32.6545 33.6603L32.5772 33.4664C32.0843 33.516 31.5856 33.5407 31.0795 33.5407C30.5283 33.5407 29.9828 33.5101 29.4476 33.4518L28.0462 36.9373C27.9776 37.1079 27.7836 37.191 27.613 37.1225L20.1958 34.1416C20.0252 34.0731 19.9421 33.8791 20.0106 33.7085L21.4967 30.0115C20.4788 29.1351 19.0087 27.1838 18.5639 26.5815C18.4837 26.4721 18.3452 26.424 18.2139 26.459L14.4601 27.4288C14.2822 27.4755 14.0999 27.3675 14.0547 27.1896L12.0538 19.4501C12.0072 19.2722 12.1151 19.0899 12.293 19.0447L16.0731 18.0676C16.2116 18.0312 16.3093 17.9101 16.3195 17.7672C16.4172 16.3584 16.7308 15.0051 17.196 13.7334C17.247 13.5934 17.2018 13.4388 17.0822 13.3513Z" fill="#D9F0FF"/>
<path d="M34.2833 37.7101C34.1637 37.7101 34.0441 37.6853 33.9304 37.6372C33.7102 37.5424 33.5381 37.3689 33.4491 37.1457L32.2095 34.0628C31.4133 34.1211 30.6083 34.1167 29.8135 34.0526L28.5695 37.1457C28.4805 37.3689 28.3099 37.5424 28.0882 37.6372C27.8666 37.732 27.623 37.7349 27.4013 37.6445L19.9856 34.6636C19.7625 34.5746 19.5889 34.404 19.4941 34.1824C19.3994 33.9621 19.3979 33.7171 19.4869 33.4955L20.8256 30.1617C19.8894 29.2604 18.7562 27.7875 18.202 27.0422L14.5999 27.9741C14.123 28.0996 13.6316 27.8093 13.5061 27.331L11.5053 19.5915C11.3813 19.1117 11.6701 18.6217 12.1499 18.4978L15.7681 17.563C15.8716 16.2811 16.1531 14.9831 16.6066 13.7027L13.8066 11.6318C13.4084 11.3372 13.3239 10.7743 13.6184 10.3776L18.361 3.94339C18.6541 3.54526 19.2185 3.46067 19.6166 3.7538L22.6369 5.97925C23.7263 5.25882 24.8988 4.68277 26.1311 4.26277L26.1807 0.885221C26.1894 0.396672 26.592 0 27.079 0H35.0781C35.571 0 35.9735 0.401047 35.9765 0.89397L35.9896 4.24672C37.2686 4.6784 38.4819 5.27778 39.6063 6.03175L42.6995 3.75234C43.0976 3.45921 43.6605 3.5438 43.9536 3.94193L48.6962 10.3776C48.8391 10.5701 48.8975 10.8079 48.861 11.0441C48.8246 11.2818 48.6991 11.4904 48.5052 11.6318L45.5826 13.7858C46.0143 15.0108 46.2666 16.2388 46.3658 17.5921L49.8658 18.4963C50.3456 18.6203 50.6344 19.1117 50.5104 19.5901L48.5095 27.3295C48.3841 27.8108 47.8927 28.0966 47.4143 27.9741L43.9653 27.0831C43.2026 28.2643 42.2853 29.3319 41.2294 30.2652L42.5303 33.4969C42.7155 33.9548 42.4924 34.4799 42.033 34.6651L34.6158 37.6459C34.5094 37.6897 34.3971 37.7101 34.2833 37.7101ZM20.6229 33.7026L27.6099 36.5113L29.0843 32.8436L29.5101 32.8902C30.5003 32.9996 31.527 33.004 32.5216 32.9034L32.9431 32.8611L34.4102 36.5113L41.3972 33.7026L39.879 29.9298L40.194 29.6658C41.3942 28.6596 42.4151 27.4725 43.2259 26.1381L43.4447 25.7793L47.477 26.822L49.3612 19.5317L45.2851 18.4773L45.2647 18.0617C45.1889 16.5129 44.9074 15.1538 44.381 13.7829L44.2264 13.3804L47.6506 10.856L43.1836 4.79507L39.5946 7.43906L39.2548 7.15614C38.0459 6.30009 36.6954 5.63654 35.2604 5.19465L34.8623 5.07215L34.8477 1.12439H27.308L27.2482 5.08674L26.8574 5.20778C25.4632 5.64091 24.1492 6.28696 22.9475 7.12697L22.615 7.36031L19.1325 4.79507L14.6641 10.8574L17.4189 12.8948C17.7412 13.1325 17.8637 13.5466 17.7266 13.9244C17.2556 15.2135 16.9712 16.5188 16.8837 17.8036C16.8574 18.19 16.5891 18.5138 16.2158 18.6115L12.6603 19.5303L14.5445 26.8206L18.0737 25.9091C18.4295 25.8172 18.8029 25.9485 19.0202 26.2431C19.4416 26.8133 20.8927 28.7412 21.8669 29.5798L22.1731 29.8438L20.6229 33.7026Z" fill="#12233D"/>
<path d="M31.0804 28.2361C36.3069 28.2361 40.5437 23.9992 40.5437 18.7728C40.5437 13.5464 36.3069 9.30957 31.0804 9.30957C25.854 9.30957 21.6172 13.5464 21.6172 18.7728C21.6172 23.9992 25.854 28.2361 31.0804 28.2361Z" fill="#97A339"/>
<path d="M31.0804 28.8001C25.5518 28.8001 21.0527 24.3026 21.0527 18.7725C21.0527 13.2424 25.5518 8.74487 31.0804 8.74487C36.609 8.74487 41.108 13.2439 41.108 18.7725C41.108 24.3011 36.609 28.8001 31.0804 28.8001ZM31.0804 9.8751C26.1745 9.8751 22.183 13.8666 22.183 18.7725C22.183 23.6784 26.1745 27.6699 31.0804 27.6699C35.9863 27.6699 39.9778 23.6784 39.9778 18.7725C39.9778 13.8666 35.9863 9.8751 31.0804 9.8751Z" fill="#12233D"/>
<path d="M31.0819 24.9443C27.6796 24.9443 24.9102 22.1763 24.9102 18.774C24.9102 17.3769 25.3914 16.0075 26.2635 14.9181C26.4589 14.6745 26.8148 14.6352 27.0569 14.8306C27.3004 15.026 27.3398 15.3804 27.1444 15.6239C26.421 16.5267 26.0389 17.6146 26.0389 18.774C26.0389 21.5536 28.3008 23.8155 31.0804 23.8155C33.8601 23.8155 36.122 21.5536 36.122 18.774C36.122 17.616 35.7399 16.5267 35.0165 15.6239C34.8211 15.3804 34.8605 15.026 35.104 14.8306C35.3476 14.6366 35.702 14.6745 35.8974 14.9181C36.7695 16.0075 37.2507 17.3769 37.2507 18.774C37.2537 22.1763 34.4842 24.9443 31.0819 24.9443Z" fill="#12233D"/>
<path d="M31.0116 20.0055C30.6996 20.0055 30.4473 19.7532 30.4473 19.4411V13.3481C30.4473 13.036 30.6996 12.7837 31.0116 12.7837C31.3237 12.7837 31.576 13.036 31.576 13.3481V19.4411C31.576 19.7517 31.3237 20.0055 31.0116 20.0055Z" fill="#12233D"/>
</svg>
