<svg width="52" height="52" viewBox="0 0 52 52" fill="none" xmlns="http://www.w3.org/2000/svg">
<path d="M41.8221 44.5333C42.8444 44.5333 43.6444 43.7333 43.6444 42.7111V38.9778C43.6444 35.3333 42.1777 31.9111 39.5555 29.4222C39.7332 28.2666 39.8666 27.1111 39.8666 26C39.8666 13.3333 27.8221 1.11109 27.2888 0.6222C26.9332 0.266645 26.4888 0.0888672 25.9999 0.0888672C25.511 0.0888672 25.0666 0.266645 24.711 0.6222C24.2221 1.15553 12.2221 13.3778 12.2221 26C12.2221 27.1111 12.311 28.2222 12.4888 29.3333C9.86658 31.8666 8.35547 35.2889 8.35547 38.9778V42.7111C8.35547 43.7333 9.15547 44.5333 10.1777 44.5333C11.1999 44.5333 11.9999 43.7333 11.9999 42.7111V38.9778C11.9999 37.0666 12.5777 35.2444 13.5555 33.6889C14.0888 35.3333 14.8444 37.0666 15.7332 38.8C16.0444 39.4222 16.6666 39.7778 17.3777 39.7778H24.2221V42.7111C24.2221 43.7333 25.0221 44.5333 26.0444 44.5333C27.0666 44.5333 27.8666 43.7333 27.8666 42.7111V39.7778H34.7555C35.4221 39.7778 36.0444 39.3778 36.3999 38.8C37.2888 37.1111 37.9999 35.4222 38.5332 33.7778C39.511 35.3333 40.0444 37.1111 40.0444 38.9778V42.7111C39.9999 43.6889 40.7999 44.5333 41.8221 44.5333ZM33.5999 36.1333H27.8221V33.2C27.8221 32.1778 27.0221 31.3778 25.9999 31.3778C24.9777 31.3778 24.1777 32.1778 24.1777 33.2V36.1333H18.4888C17.4666 33.9555 16.711 31.8222 16.311 29.8666C16.311 29.7333 16.2666 29.6 16.2221 29.4666C15.9999 28.2666 15.8666 27.1111 15.8666 26C15.8666 17.2 23.0221 8.04442 25.9999 4.6222C29.0221 8.04442 36.2221 17.1555 36.2221 26C36.2221 29.0666 35.3332 32.4889 33.5999 36.1333Z" fill="#6B7428"/>
<path d="M19.5117 20.8444C19.5117 24.4444 22.4451 27.4222 26.0895 27.4222C29.7339 27.4222 32.6673 24.4888 32.6673 20.8444C32.6673 17.1999 29.7339 14.2666 26.0895 14.2666C22.4451 14.2666 19.5117 17.2444 19.5117 20.8444ZM26.0895 17.9555C27.6895 17.9555 29.0228 19.2444 29.0228 20.8888C29.0228 22.5333 27.7339 23.8222 26.0895 23.8222C24.4895 23.8222 23.1562 22.5333 23.1562 20.8888C23.1562 19.2444 24.4895 17.9555 26.0895 17.9555Z" fill="#97A339"/>
<path d="M17.7343 50.0888V44C17.7343 42.9777 16.9343 42.1777 15.9121 42.1777C14.8898 42.1777 14.0898 42.9777 14.0898 44V50.0888C14.0898 51.1111 14.8898 51.9111 15.9121 51.9111C16.9343 51.9111 17.7343 51.1111 17.7343 50.0888Z" fill="#97A339"/>
<path d="M37.912 50.0888V44C37.912 42.9777 37.112 42.1777 36.0898 42.1777C35.0676 42.1777 34.2676 42.9777 34.2676 44V50.0888C34.2676 51.1111 35.0676 51.9111 36.0898 51.9111C37.0676 51.9111 37.912 51.1111 37.912 50.0888Z" fill="#97A339"/>
</svg>
