<svg width="56" height="56" viewBox="0 0 56 56" fill="none" xmlns="http://www.w3.org/2000/svg">
<g clip-path="url(#clip0_9985_3893)">
<path d="M25.8957 28.6248C28.8928 23.3037 34.094 21.6623 39.0001 23.8662C40.3741 24.5578 41.49 25.3879 42.3384 26.31C45.271 21.8282 46.8202 18.0287 46.8202 15.299C46.8202 8.57633 41.7943 3.10767 35.6341 3.10767C31.0969 3.10767 28.0352 4.50935 26.3016 7.37735C25.7022 8.29031 24.3189 8.49316 23.6457 7.37735C21.9028 4.50935 18.8504 3.10767 14.3132 3.10767C9.30573 3.10767 5.06372 6.70418 3.63422 11.6379H11.0301C11.8877 11.6379 12.5886 12.3295 12.5886 13.1964C12.5886 14.054 11.897 14.7548 11.0301 14.7548H3.14536C3.13608 14.9393 3.12695 15.1144 3.12695 15.3082C3.12695 16.1104 3.24678 16.968 3.47745 17.881H7.94085C8.79846 17.881 9.49931 18.5726 9.49931 19.4395C9.49931 20.2971 8.80774 20.9979 7.94085 20.9979H4.55631C8.4571 29.8048 19.3113 41.0462 24.9551 46.2658C25.3333 45.9153 25.8034 45.4635 26.3477 44.9286C24.8997 39.2206 23.9314 32.4795 25.8957 28.6248Z" fill="white"/>
<path d="M49.5136 32.673C47.162 31.4834 45.29 31.3818 43.6577 32.3871C42.6063 33.0511 41.3891 32.258 41.2877 31.1883C41.1402 29.2793 39.969 27.8407 37.5989 26.6327C34.3159 25.065 30.6456 26.5681 28.6721 30.0264C26.3113 34.6926 29.8709 46.8102 31.955 52.5462C37.8294 50.7849 49.7717 46.4044 52.0679 41.8765C53.8295 38.3998 52.6768 34.2776 49.5136 32.673Z" fill="#899434"/>
<path d="M50.9159 29.9065C48.592 28.726 46.4157 28.3664 44.4605 28.7721C48.094 23.3773 49.9383 18.8493 49.9383 15.299C49.9383 6.87035 43.5199 0 35.6444 0C30.9689 0 27.3908 1.33721 24.984 3.98381C22.5677 1.33721 18.9898 0 14.3143 0C6.42024 0 0.00195312 6.87035 0.00195312 15.299C0.00195312 28.0159 22.9552 48.6638 23.9328 49.5398C24.5875 50.047 25.2791 50.0654 26.0169 49.5305C26.0538 49.4936 26.5149 49.0786 27.2804 48.3501C28.2947 51.7345 29.2723 54.3259 29.5489 55.0083C29.7702 55.6354 30.508 56.1702 31.4118 55.9489C33.4406 55.3956 51.2757 50.3144 54.8354 43.2965C57.3804 38.2799 55.6098 32.2766 50.9159 29.9065ZM31.9465 52.5463C29.8623 46.8103 26.3026 34.6927 28.6635 30.0264C30.6369 26.5774 34.3073 25.065 37.5903 26.6328C39.9603 27.8316 41.1407 29.2795 41.2791 31.1883C41.3805 32.2581 42.6163 33.0512 43.6491 32.3872C45.2813 31.3728 47.1626 31.4835 49.5051 32.673C52.6682 34.2684 53.8117 38.409 52.0502 41.8764C49.7724 46.4137 37.8208 50.7941 31.9465 52.5463ZM4.55751 20.9798H7.9235C8.78111 20.9798 9.48195 20.2882 9.48195 19.4213C9.48195 18.5637 8.79038 17.8629 7.9235 17.8629H3.46009C3.2387 16.9592 3.1096 16.1016 3.1096 15.29C3.1096 15.1056 3.128 14.9304 3.128 14.7367H11.0219C11.8795 14.7367 12.5803 14.0451 12.5803 13.1782C12.5803 12.3206 11.8888 11.6198 11.0219 11.6198H3.62614C5.0555 6.67677 9.30678 3.08953 14.3051 3.08953C18.8423 3.08953 21.904 4.49122 23.6376 7.35921C24.3108 8.47503 25.7033 8.27218 26.2935 7.35921C28.0364 4.49122 31.0888 3.08953 35.626 3.08953C41.7954 3.08953 46.8121 8.55805 46.8121 15.2809C46.8121 18.0105 45.2536 21.7915 42.3303 26.2918C41.4727 25.3696 40.366 24.5396 38.992 23.8481C34.0767 21.6348 28.8847 23.2856 25.8877 28.6066C23.9326 32.4613 24.9101 39.2026 26.3396 44.9202C25.7955 45.4366 25.3252 45.8978 24.947 46.2574C19.3125 41.0558 8.45829 29.805 4.55751 20.9798Z" fill="#003267"/>
</g>
<defs>
<clipPath id="clip0_9985_3893">
<rect width="56" height="56" fill="white"/>
</clipPath>
</defs>
</svg>
