<svg width="54" height="74" viewBox="0 0 54 74" fill="none" xmlns="http://www.w3.org/2000/svg">
<path d="M12.3075 47.0198C13.4314 45.9125 14.1298 44.3744 14.1298 42.6757C14.1298 39.3111 11.3924 36.5737 8.0278 36.5737C4.66321 36.5737 1.92583 39.3111 1.92583 42.6757C1.92583 44.3744 2.62422 45.9125 3.74812 47.0198C1.49827 48.4437 0 50.9527 0 53.8066V59.7941C0 61.1455 0.786619 62.3164 1.92583 62.8734V70.8795C1.92583 72.4372 3.19303 73.7044 4.75065 73.7044H11.3048C12.8624 73.7044 14.1296 72.4372 14.1296 70.8795V62.8734C15.2688 62.3164 16.0554 61.1453 16.0554 59.7941V53.8066C16.0554 50.9527 14.5573 48.4436 12.3075 47.0198ZM4.92457 42.6757C4.92457 40.9647 6.31662 39.5725 8.0278 39.5725C9.73898 39.5725 11.131 40.9645 11.131 42.6757C11.131 44.3869 9.73898 45.7789 8.0278 45.7789C6.31662 45.7789 4.92457 44.3867 4.92457 42.6757ZM13.0567 59.7941C13.0567 60.0293 12.8654 60.2206 12.6302 60.2206C11.8021 60.2206 11.1309 60.8918 11.1309 61.72V70.7058H9.52702V63.013C9.52702 62.1849 8.85577 61.5137 8.02765 61.5137C7.19952 61.5137 6.52827 62.1849 6.52827 63.013V70.7058H4.92457V61.72C4.92457 60.8918 4.25333 60.2206 3.4252 60.2206C3.19003 60.2206 2.99875 60.0293 2.99875 59.7941V53.8066C2.99875 51.0335 5.25475 48.7775 8.0278 48.7775C10.8009 48.7775 13.0569 51.0335 13.0569 53.8066L13.0567 59.7941Z" fill="#97A339"/>
<path d="M31.2801 47.0198C32.404 45.9125 33.1024 44.3744 33.1024 42.6757C33.1024 39.3111 30.3651 36.5737 27.0005 36.5737C23.6359 36.5737 20.8985 39.3111 20.8985 42.6757C20.8985 44.3744 21.5969 45.9125 22.7208 47.0198C20.4709 48.4437 18.9727 50.9527 18.9727 53.8066V59.7941C18.9727 61.1455 19.7593 62.3164 20.8985 62.8734V70.8795C20.8985 72.4372 22.1657 73.7044 23.7233 73.7044H30.2775C31.8351 73.7044 33.1023 72.4372 33.1023 70.8795V62.8734C34.2415 62.3164 35.0281 61.1453 35.0281 59.7941V53.8066C35.0281 50.9527 33.53 48.4436 31.2801 47.0198ZM23.8972 42.6757C23.8972 40.9647 25.2893 39.5725 27.0005 39.5725C28.7116 39.5725 30.1037 40.9645 30.1037 42.6757C30.1037 44.3869 28.7116 45.7789 27.0005 45.7789C25.2893 45.7789 23.8972 44.3867 23.8972 42.6757ZM32.0294 59.7941C32.0294 60.0293 31.8381 60.2206 31.6029 60.2206C30.7748 60.2206 30.1035 60.8918 30.1035 61.72V70.7058H28.4997V63.013C28.4997 62.1849 27.8284 61.5137 27.0003 61.5137C26.1722 61.5137 25.5009 62.1849 25.5009 63.013V70.7058H23.8971V61.72C23.8971 60.8918 23.2258 60.2206 22.3977 60.2206C22.1625 60.2206 21.9712 60.0293 21.9712 59.7941V53.8066C21.9712 51.0335 24.2272 48.7775 27.0003 48.7775C29.7734 48.7775 32.0294 51.0335 32.0294 53.8066V59.7941Z" fill="#97A339"/>
<path d="M50.2508 47.0198C51.3747 45.9125 52.0731 44.3743 52.0731 42.6757C52.0731 39.3111 49.3358 36.5737 45.9712 36.5737C42.6066 36.5737 39.8692 39.3111 39.8692 42.6757C39.8692 44.3744 40.5676 45.9125 41.6915 47.0198C39.4416 48.4437 37.9434 50.9527 37.9434 53.8066V59.7941C37.9434 61.1455 38.73 62.3164 39.8692 62.8734V70.8795C39.8692 72.4372 41.1364 73.7044 42.694 73.7044H49.2482C50.8058 73.7044 52.073 72.4372 52.073 70.8795V62.8734C53.2122 62.3164 53.9988 61.1453 53.9988 59.7941V53.8066C53.9988 50.9527 52.5007 48.4436 50.2508 47.0198ZM42.8679 42.6757C42.8679 40.9647 44.26 39.5725 45.9712 39.5725C47.6823 39.5725 49.0744 40.9645 49.0744 42.6757C49.0744 44.3869 47.6823 45.7789 45.9712 45.7789C44.26 45.7789 42.8679 44.3867 42.8679 42.6757ZM51.0001 59.7941C51.0001 60.0293 50.8088 60.2206 50.5736 60.2206C49.7455 60.2206 49.0742 60.8918 49.0742 61.72V70.7058H47.4704V63.013C47.4704 62.1849 46.7991 61.5137 45.971 61.5137C45.1429 61.5137 44.4716 62.1849 44.4716 63.013V70.7058H42.8678V61.72C42.8678 60.8918 42.1965 60.2206 41.3684 60.2206C41.1332 60.2206 40.9419 60.0293 40.9419 59.7941V53.8066C40.9419 51.0335 43.198 48.7775 45.971 48.7775C48.7439 48.7775 50.9999 51.0335 50.9999 53.8066L51.0001 59.7941Z" fill="#97A339"/>
<path d="M12.7846 24.0367C16.6037 26.5511 21.6527 27.9357 27.0013 27.9357C32.35 27.9357 37.3988 26.5511 41.2181 24.0367C45.2304 21.3951 47.4401 17.8193 47.4401 13.9678C47.4401 10.1164 45.2304 6.54042 41.2181 3.899C37.3988 1.38463 32.3498 0 27.0013 0C21.6528 0 16.6037 1.38463 12.7846 3.899C8.77226 6.54042 6.5625 10.1164 6.5625 13.9678C6.5625 17.8193 8.77226 21.3953 12.7846 24.0367ZM14.4336 6.40359C17.7687 4.20803 22.2321 2.99875 27.0013 2.99875C31.7706 2.99875 36.2338 4.20803 39.5691 6.40359C42.711 8.47209 44.4414 11.1585 44.4414 13.9678C44.4414 16.7772 42.7111 19.4636 39.5691 21.5321C36.2338 23.7277 31.7704 24.9369 27.0013 24.9369C22.2321 24.9369 17.7688 23.7277 14.4336 21.5321C11.2915 19.4636 9.56125 16.7774 9.56125 13.9678C9.56125 11.1583 11.2915 8.47209 14.4336 6.40359Z" fill="#97A339"/>
<path d="M8.21891 34.6434C9.09058 34.6434 9.7972 33.9368 9.7972 33.0651C9.7972 32.1934 9.09058 31.4868 8.21891 31.4868C7.34725 31.4868 6.64062 32.1934 6.64062 33.0651C6.64062 33.9368 7.34725 34.6434 8.21891 34.6434Z" fill="#97A339"/>
<path d="M11.0588 29.2772C11.9304 29.2772 12.637 28.5706 12.637 27.6989C12.637 26.8272 11.9304 26.1206 11.0588 26.1206C10.1871 26.1206 9.48047 26.8272 9.48047 27.6989C9.48047 28.5706 10.1871 29.2772 11.0588 29.2772Z" fill="#97A339"/>
<path d="M45.7814 34.6434C46.6531 34.6434 47.3597 33.9368 47.3597 33.0651C47.3597 32.1934 46.6531 31.4868 45.7814 31.4868C44.9097 31.4868 44.2031 32.1934 44.2031 33.0651C44.2031 33.9368 44.9097 34.6434 45.7814 34.6434Z" fill="#97A339"/>
<path d="M42.9416 29.2772C43.8132 29.2772 44.5199 28.5706 44.5199 27.6989C44.5199 26.8272 43.8132 26.1206 42.9416 26.1206C42.0699 26.1206 41.3633 26.8272 41.3633 27.6989C41.3633 28.5706 42.0699 29.2772 42.9416 29.2772Z" fill="#97A339"/>
<path d="M27.0002 34.0125C27.8718 34.0125 28.5784 33.3059 28.5784 32.4342C28.5784 31.5626 27.8718 30.856 27.0002 30.856C26.1285 30.856 25.4219 31.5626 25.4219 32.4342C25.4219 33.3059 26.1285 34.0125 27.0002 34.0125Z" fill="#97A339"/>
<path d="M16.4252 12.9421H37.5742C38.4023 12.9421 39.0736 12.2709 39.0736 11.4427C39.0736 10.6146 38.4023 9.94336 37.5742 9.94336H16.4252C15.597 9.94336 14.9258 10.6146 14.9258 11.4427C14.9258 12.2709 15.597 12.9421 16.4252 12.9421Z" fill="#97A339"/>
<path d="M16.4252 17.9924H37.5742C38.4023 17.9924 39.0736 17.3212 39.0736 16.493C39.0736 15.6649 38.4023 14.9937 37.5742 14.9937H16.4252C15.597 14.9937 14.9258 15.6649 14.9258 16.493C14.9258 17.3212 15.597 17.9924 16.4252 17.9924Z" fill="#97A339"/>
</svg>
