<svg width="92" height="92" viewBox="0 0 92 92" fill="none" xmlns="http://www.w3.org/2000/svg">
<g filter="url(#filter0_d_9453_94360)">
<rect x="25.75" y="24.75" width="40.5" height="40.5" rx="12.25" stroke="#E7E9EC" stroke-width="0.5" shape-rendering="crispEdges"/>
<path fill-rule="evenodd" clip-rule="evenodd" d="M42.897 37.3911C43.0938 37.3685 43.5159 37.3201 43.9198 37.4915C44.252 37.6324 44.5431 37.8958 44.7165 38.2122C44.8483 38.4527 44.889 38.6841 44.9049 38.8571C44.918 38.9998 44.918 39.1595 44.9179 39.2869C44.9179 39.2958 44.9179 39.3045 44.9179 39.313V44.3352C44.9179 44.9467 44.9179 45.2524 45.0369 45.486C45.1416 45.6914 45.3087 45.8584 45.514 45.9631C45.7476 46.0821 46.0534 46.0821 46.6648 46.0821H51.687C51.6955 46.0821 51.7043 46.0821 51.7131 46.0821C51.8405 46.082 52.0003 46.082 52.1429 46.0951C52.3159 46.1111 52.5473 46.1517 52.7879 46.2835C53.1043 46.4569 53.3676 46.7481 53.5086 47.0802C53.6799 47.4842 53.6315 47.9062 53.6089 48.1031C53.6066 48.1226 53.6046 48.14 53.6031 48.1549C53.4429 49.7517 52.8933 51.2904 51.9962 52.6329C50.9165 54.2489 49.3819 55.5083 47.5865 56.252C45.7909 56.9957 43.8152 57.1903 41.9091 56.8112C40.0031 56.432 38.2522 55.4962 36.878 54.122C35.5038 52.7478 34.5679 50.997 34.1888 49.0908C33.8097 47.1848 34.0043 45.2091 34.748 43.4136C35.4917 41.6181 36.7511 40.0835 38.367 39.0038C39.7097 38.1066 41.2483 37.5571 42.8451 37.3969C42.86 37.3954 42.8774 37.3934 42.897 37.3911Z" fill="#024EC2"/>
<path fill-rule="evenodd" clip-rule="evenodd" d="M49.1224 33.0239C49.1421 33.0262 49.1594 33.0282 49.1743 33.0297C51.4201 33.2549 53.5313 34.2485 55.1414 35.8586C56.7515 37.4687 57.745 39.58 57.9704 41.8257C57.9718 41.8406 57.9739 41.858 57.9761 41.8776C57.9987 42.0744 58.047 42.4965 57.8757 42.9005C57.7348 43.2326 57.4714 43.5237 57.155 43.6971C56.9145 43.8288 56.6831 43.8696 56.5101 43.8855C56.3674 43.8987 56.2077 43.8986 56.0803 43.8985C56.0714 43.8985 56.0627 43.8985 56.0542 43.8985H49.0667C49.0584 43.8985 49.05 43.8985 49.0415 43.8985C48.9115 43.8986 48.7561 43.8986 48.6193 43.8875C48.4608 43.8745 48.2337 43.8413 47.9957 43.72C47.6876 43.563 47.437 43.3124 47.28 43.0043C47.1587 42.7664 47.1255 42.5393 47.1125 42.3807C47.1014 42.2439 47.1015 42.0886 47.1015 41.9586C47.1015 41.95 47.1015 41.9416 47.1015 41.9333V34.9458C47.1015 34.9373 47.1015 34.9286 47.1015 34.9197C47.1014 34.7923 47.1014 34.6326 47.1145 34.4899C47.1305 34.3169 47.1711 34.0855 47.3029 33.845C47.4763 33.5286 47.7674 33.2652 48.0995 33.1243C48.5035 32.9529 48.9255 33.0014 49.1224 33.0239Z" fill="#024EC2"/>
</g>
<defs>
<filter id="filter0_d_9453_94360" x="0.5" y="0.5" width="91" height="91" filterUnits="userSpaceOnUse" color-interpolation-filters="sRGB">
<feFlood flood-opacity="0" result="BackgroundImageFix"/>
<feColorMatrix in="SourceAlpha" type="matrix" values="0 0 0 0 0 0 0 0 0 0 0 0 0 0 0 0 0 0 127 0" result="hardAlpha"/>
<feOffset dy="1"/>
<feGaussianBlur stdDeviation="12.5"/>
<feComposite in2="hardAlpha" operator="out"/>
<feColorMatrix type="matrix" values="0 0 0 0 0 0 0 0 0 0 0 0 0 0 0 0 0 0 0.25 0"/>
<feBlend mode="normal" in2="BackgroundImageFix" result="effect1_dropShadow_9453_94360"/>
<feBlend mode="normal" in="SourceGraphic" in2="effect1_dropShadow_9453_94360" result="shape"/>
</filter>
</defs>
</svg>
