<svg width="24" height="24" viewBox="0 0 24 24" fill="none" xmlns="http://www.w3.org/2000/svg">
<path d="M3 22H21" stroke="#292D32" stroke-width="1.5" stroke-linecap="round" stroke-linejoin="round"/>
<path d="M5.59998 8.38086H4C3.45 8.38086 3 8.83086 3 9.38086V18.0009C3 18.5509 3.45 19.0009 4 19.0009H5.59998C6.14998 19.0009 6.59998 18.5509 6.59998 18.0009V9.38086C6.59998 8.83086 6.14998 8.38086 5.59998 8.38086Z" stroke="#292D32" stroke-width="1.5" stroke-linecap="round" stroke-linejoin="round"/>
<path d="M12.7999 5.19141H11.2C10.65 5.19141 10.2 5.64141 10.2 6.19141V18.0014C10.2 18.5514 10.65 19.0014 11.2 19.0014H12.7999C13.3499 19.0014 13.7999 18.5514 13.7999 18.0014V6.19141C13.7999 5.64141 13.3499 5.19141 12.7999 5.19141Z" stroke="#292D32" stroke-width="1.5" stroke-linecap="round" stroke-linejoin="round"/>
<path d="M20 2H18.4C17.85 2 17.4 2.45 17.4 3V18C17.4 18.55 17.85 19 18.4 19H20C20.55 19 21 18.55 21 18V3C21 2.45 20.55 2 20 2Z" stroke="#292D32" stroke-width="1.5" stroke-linecap="round" stroke-linejoin="round"/>
</svg>
