<svg width="24" height="24" viewBox="0 0 24 24" fill="none" xmlns="http://www.w3.org/2000/svg">
<path d="M8.49989 5.09961L11.1999 7.79961C11.5999 8.19961 12.3999 8.19961 12.7999 7.79961L15.4999 5.09961C16.1999 4.39961 15.6999 3.09961 14.6999 3.09961H9.29989C8.29989 3.19961 7.79989 4.39961 8.49989 5.09961Z" stroke="#17191C" stroke-width="1.5" stroke-miterlimit="10" stroke-linecap="round" stroke-linejoin="round"/>
<path d="M8.49989 18.9004L11.1999 16.2004C11.5999 15.8004 12.3999 15.8004 12.7999 16.2004L15.4999 18.9004C16.1999 19.6004 15.6999 20.9004 14.6999 20.9004H9.29989C8.29989 20.8004 7.79989 19.6004 8.49989 18.9004Z" stroke="#17191C" stroke-width="1.5" stroke-miterlimit="10" stroke-linecap="round" stroke-linejoin="round"/>
<path d="M2.2001 11.5006L4.4001 8.00061C4.7001 7.40061 5.5001 7.30061 6.0001 7.80061L9.5001 11.3006C9.9001 11.7006 9.9001 12.3006 9.5001 12.7006L6.0001 16.2006C5.5001 16.7006 4.8001 16.6006 4.4001 16.0006L2.2001 12.5006C1.9001 12.2006 1.9001 11.8006 2.2001 11.5006Z" stroke="#17191C" stroke-width="1.5" stroke-miterlimit="10" stroke-linecap="round" stroke-linejoin="round"/>
<path d="M21.8 11.4996L19.6 7.99955C19.3 7.49955 18.5 7.39955 18 7.79955L14.5 11.2996C14.1 11.6996 14.1 12.2996 14.5 12.6996L18 16.1996C18.5 16.6996 19.2 16.5996 19.6 15.9996L21.8 12.4996C22.1 12.1996 22.1 11.7996 21.8 11.4996Z" stroke="#17191C" stroke-width="1.5" stroke-miterlimit="10" stroke-linecap="round" stroke-linejoin="round"/>
</svg>
