<svg width="24" height="24" viewBox="0 0 24 24" fill="none" xmlns="http://www.w3.org/2000/svg">
<path d="M6.90001 9.1L11.7 7C11.9 6.9 12.1 6.9 12.4 7L17.2 9.1C17.6 9.3 18 8.8 17.7 8.4L12.7 2.3C12.4 1.9 11.8 1.9 11.5 2.3L6.50001 8.4C6.10001 8.8 6.50001 9.3 6.90001 9.1Z" stroke="#17191C" stroke-width="1.5" stroke-miterlimit="10" stroke-linecap="round" stroke-linejoin="round"/>
<path d="M6.89991 14.899L11.6999 16.999C11.8999 17.099 12.0999 17.099 12.3999 16.999L17.1999 14.899C17.5999 14.699 17.9999 15.199 17.6999 15.599L12.6999 21.699C12.3999 22.099 11.7999 22.099 11.4999 21.699L6.49991 15.599C6.09991 15.199 6.49991 14.699 6.89991 14.899Z" stroke="#17191C" stroke-width="1.5" stroke-miterlimit="10" stroke-linecap="round" stroke-linejoin="round"/>
<path d="M12 9.40039L6.80005 12.0004L12 14.6004L17.2 12.0004L12 9.40039Z" stroke="#17191C" stroke-width="1.5" stroke-miterlimit="10" stroke-linecap="round" stroke-linejoin="round"/>
</svg>
