<svg width="24" height="24" viewBox="0 0 24 24" fill="none" xmlns="http://www.w3.org/2000/svg">
<path d="M10.4501 3.04859L6.71014 7.70859C5.86014 8.76859 6.16014 10.1286 7.37014 10.7286L11.1001 12.5986C11.5901 12.8386 12.3901 12.8386 12.8801 12.5986L16.6101 10.7286C17.8201 10.1186 18.1201 8.75859 17.2701 7.70859L13.5401 3.04859C12.7001 1.97859 11.3001 1.97859 10.4501 3.04859Z" stroke="#17191C" stroke-width="1.5" stroke-miterlimit="10" stroke-linecap="round" stroke-linejoin="round"/>
<path d="M12.0001 2.29883V7.55883" stroke="#17191C" stroke-width="1.5" stroke-miterlimit="10" stroke-linecap="round" stroke-linejoin="round"/>
<path d="M7.80017 10.7086L12.0002 7.55859L16.2002 10.7086" stroke="#17191C" stroke-width="1.5" stroke-miterlimit="10" stroke-linecap="round" stroke-linejoin="round"/>
<path d="M8.77011 14.4282L10.3801 15.1482C11.4101 15.6082 12.5901 15.6082 13.6301 15.1482L15.2401 14.4282C16.6801 13.7882 18.0101 15.5282 17.0101 16.7482L13.5501 20.9782C12.7001 22.0182 11.3101 22.0182 10.4501 20.9782L7.00011 16.7482C5.99011 15.5282 7.32011 13.7882 8.77011 14.4282Z" stroke="#17191C" stroke-width="1.5" stroke-miterlimit="10" stroke-linecap="round" stroke-linejoin="round"/>
</svg>
