<svg width="24" height="24" viewBox="0 0 24 24" fill="none" xmlns="http://www.w3.org/2000/svg">
<path d="M12 2H8.69999C6.79999 2 5.29999 3.5 5.29999 5.3C5.29999 7.1 6.79999 8.6 8.59999 8.6H12V2Z" stroke="#17191C" stroke-width="1.5" stroke-miterlimit="10"/>
<path d="M11.9999 8.69922H8.6999C6.8999 8.69922 5.3999 10.1992 5.3999 11.9992C5.3999 13.7992 6.8999 15.2992 8.6999 15.2992H11.9999V8.69922Z" stroke="#17191C" stroke-width="1.5" stroke-miterlimit="10"/>
<path d="M11.9999 15.3008H8.6999C6.8999 15.3008 5.3999 16.8008 5.3999 18.6008C5.3999 20.4008 6.8999 21.9008 8.6999 21.9008C10.4999 21.9008 11.9999 20.4008 11.9999 18.6008V15.3008Z" stroke="#17191C" stroke-width="1.5" stroke-miterlimit="10"/>
<path d="M12 2H15.3C17.1 2 18.6 3.5 18.6 5.3C18.6 7.1 17.1 8.6 15.3 8.6H12V2Z" stroke="#17191C" stroke-width="1.5" stroke-miterlimit="10"/>
<path d="M15.3 8.69922C17.1 8.69922 18.6 10.1992 18.6 11.9992C18.6 13.7992 17.1 15.2992 15.3 15.2992C13.5 15.2992 12 13.7992 12 11.9992C12 10.1992 13.5 8.69922 15.3 8.69922Z" stroke="#17191C" stroke-width="1.5" stroke-miterlimit="10"/>
</svg>
