<svg width="24" height="24" viewBox="0 0 24 24" fill="none" xmlns="http://www.w3.org/2000/svg">
<path d="M19.97 10H3.97V18C3.97 21 4.97 22 7.97 22H15.97C18.97 22 19.97 21 19.97 18V10Z" stroke="#292D32" stroke-width="1.5" stroke-miterlimit="10" stroke-linecap="round" stroke-linejoin="round"/>
<path d="M21.5 7V8C21.5 9.1 20.97 10 19.5 10H4.5C2.97 10 2.5 9.1 2.5 8V7C2.5 5.9 2.97 5 4.5 5H19.5C20.97 5 21.5 5.9 21.5 7Z" stroke="#292D32" stroke-width="1.5" stroke-miterlimit="10" stroke-linecap="round" stroke-linejoin="round"/>
<path d="M11.64 5.00141H6.12003C5.78003 4.63141 5.79003 4.06141 6.15003 3.70141L7.57003 2.28141C7.94003 1.91141 8.55003 1.91141 8.92003 2.28141L11.64 5.00141Z" stroke="#292D32" stroke-width="1.5" stroke-miterlimit="10" stroke-linecap="round" stroke-linejoin="round"/>
<path d="M17.8701 5.00141H12.3501L15.0701 2.28141C15.4401 1.91141 16.0501 1.91141 16.4201 2.28141L17.8401 3.70141C18.2001 4.06141 18.2101 4.63141 17.8701 5.00141Z" stroke="#292D32" stroke-width="1.5" stroke-miterlimit="10" stroke-linecap="round" stroke-linejoin="round"/>
<path d="M8.94 10V15.14C8.94 15.94 9.82 16.41 10.49 15.98L11.43 15.36C11.77 15.14 12.2 15.14 12.53 15.36L13.42 15.96C14.08 16.4 14.97 15.93 14.97 15.13V10H8.94Z" stroke="#292D32" stroke-width="1.5" stroke-miterlimit="10" stroke-linecap="round" stroke-linejoin="round"/>
</svg>
