<svg width="24" height="24" viewBox="0 0 24 24" fill="none" xmlns="http://www.w3.org/2000/svg">
<path d="M15.03 10.7697L20.69 6.97973C21.26 6.59973 21.41 5.81973 21.03 5.25973L19.21 2.54971C18.83 1.97971 18.05 1.82971 17.49 2.20971L11.83 5.99972L15.03 10.7697Z" stroke="#292D32" stroke-width="1.5" stroke-linecap="round" stroke-linejoin="round"/>
<path d="M12.1739 6.47884L7.39618 9.67871L9.95608 13.5009L14.7338 10.301L12.1739 6.47884Z" stroke="#292D32" stroke-width="1.5" stroke-linecap="round" stroke-linejoin="round"/>
<path d="M5.83004 15.8999L9.78004 13.2599L7.54004 9.91992L3.59004 12.5599C3.13004 12.8699 3.01004 13.4899 3.32004 13.9499L4.45004 15.6299C4.75004 16.0799 5.37004 16.1999 5.83004 15.8999Z" stroke="#292D32" stroke-width="1.5" stroke-linecap="round" stroke-linejoin="round"/>
<path d="M12.05 12.2002L7.56 22.0002" stroke="#292D32" stroke-width="1.5" stroke-linecap="round" stroke-linejoin="round"/>
<path d="M12 12.2002L16.44 22.0002" stroke="#292D32" stroke-width="1.5" stroke-linecap="round" stroke-linejoin="round"/>
</svg>
