<svg width="24" height="24" viewBox="0 0 24 24" fill="none" xmlns="http://www.w3.org/2000/svg">
<path d="M10.4899 2.22859L5.49991 4.09859C4.34991 4.52859 3.40991 5.88859 3.40991 7.11859V14.5486C3.40991 15.7286 4.18992 17.2786 5.13992 17.9886L9.43991 21.1986C10.8499 22.2586 13.1699 22.2586 14.5799 21.1986L18.8799 17.9886C19.8299 17.2786 20.6099 15.7286 20.6099 14.5486V7.11859C20.6099 5.88859 19.6699 4.52859 18.5199 4.09859L13.5299 2.22859C12.6799 1.91859 11.3199 1.91859 10.4899 2.22859Z" stroke="#292D32" stroke-width="1.5" stroke-linecap="round" stroke-linejoin="round"/>
<path d="M12 15.5C14.2091 15.5 16 13.7091 16 11.5C16 9.29086 14.2091 7.5 12 7.5C9.79086 7.5 8 9.29086 8 11.5C8 13.7091 9.79086 15.5 12 15.5Z" stroke="#292D32" stroke-width="1.5" stroke-miterlimit="10" stroke-linecap="round" stroke-linejoin="round"/>
<path d="M12.25 10.25V11.18C12.25 11.53 12.07 11.86 11.76 12.04L11 12.5" stroke="#292D32" stroke-width="1.5" stroke-miterlimit="10" stroke-linecap="round" stroke-linejoin="round"/>
</svg>
