<svg width="23" height="25" viewBox="0 0 23 25" fill="none" xmlns="http://www.w3.org/2000/svg">
<path d="M17.3042 4.52889C16.4628 3.56432 15.9571 2.3066 15.9571 0.931641H14.9028M17.3042 4.52889C18.0709 5.40826 19.1091 6.0478 20.2913 6.29822C20.6587 6.37817 21.042 6.42085 21.4414 6.42085V10.3644C19.3967 10.3644 17.501 9.70901 15.9568 8.60048V16.6211C15.9568 20.6287 12.698 23.885 8.69916 23.885C6.60647 23.885 4.71616 22.9896 3.39028 21.5667C2.18156 20.2664 1.44141 18.5289 1.44141 16.6211C1.44141 12.672 4.60435 9.45317 8.52342 9.3679M17.3042 4.52889C17.2838 4.51553 17.2633 4.50204 17.243 4.48842M6.0155 18.5503C5.62147 18.0067 5.38718 17.3406 5.38718 16.6158C5.38718 14.7879 6.8728 13.301 8.69925 13.301C9.04003 13.301 9.37013 13.3595 9.67897 13.4554V9.42658C9.35947 9.3839 9.03469 9.35723 8.69925 9.35723C8.64064 9.35723 8.16883 9.38861 8.11026 9.38861M14.8972 0.931641H12.0111L12.0059 16.7436C11.9419 18.513 10.4829 19.936 8.69916 19.936C7.59157 19.936 6.61712 19.387 6.0101 18.5557" stroke="white" stroke-width="1.14767" stroke-linejoin="round"/>
</svg>
